<svg width="14" height="14" viewBox="0 0 14 14" fill="none" xmlns="http://www.w3.org/2000/svg">
<path d="M13.2134 4.32006C13.2134 3.62006 12.7134 3.02006 12.1134 3.02006H12.0134C10.2134 3.02006 7.41343 3.02006 5.71343 2.92006C4.31343 2.82006 3.01343 2.62006 1.61343 3.02006C1.31343 3.12006 1.01343 3.52006 0.913432 3.92006C0.713432 5.42006 0.813432 7.22006 0.813432 8.62006C0.813432 9.72006 0.613432 11.2201 1.11343 12.1201C1.61343 12.9201 2.21343 13.0201 2.91343 13.1201C4.21343 13.1201 5.81343 13.0201 7.21343 13.1201C8.71343 13.3201 12.4134 13.2201 12.8134 12.2201C13.1134 11.2201 13.2134 10.1201 13.2134 9.12006C13.1134 7.52006 13.2134 5.92006 13.2134 4.32006Z" fill="#D1CFC7"/>
<path d="M12.5134 5.72019C13.2134 5.52019 13.4134 4.62019 13.2134 3.92019C13.0134 2.92019 12.8134 2.52019 12.0134 2.32019C11.5134 2.22019 9.71338 2.22019 9.21338 2.22019C8.01338 2.22019 6.81338 2.12019 5.71338 2.12019C4.61338 2.12019 3.51338 1.92019 2.31338 2.02019C1.71338 2.02019 1.11338 2.42019 0.913379 3.12019C0.713379 3.62019 0.713379 4.32019 0.713379 4.82019C0.913379 5.82019 2.01338 5.62019 2.61338 5.62019C4.11338 5.62019 5.71338 5.72019 7.31338 5.82019C8.11338 5.82019 8.91338 5.82019 9.71338 5.82019C10.1134 5.82019 11.5134 5.82019 11.9134 5.82019C12.0134 5.82019 12.3134 5.82019 12.5134 5.72019Z" fill="#FF4040"/>
<path d="M3.41299 1.32017C3.31299 2.02017 3.31299 2.72017 3.31299 3.32017C3.31299 4.02017 5.01299 4.02017 5.01299 3.32017C5.01299 2.62017 5.01299 1.92017 5.11299 1.32017C5.21299 0.620166 3.51299 0.620166 3.41299 1.32017Z" fill="#3A3A3A"/>
<path d="M8.91324 1.42014C8.71324 2.02014 8.71324 2.72014 8.81324 3.32014C8.91324 4.02014 10.6132 4.02014 10.5132 3.32014C10.3132 2.82014 10.3132 2.22014 10.4132 1.72014C10.6132 1.02014 9.01324 0.720144 8.91324 1.42014Z" fill="#3A3A3A"/>
</svg>
