<svg width="17" height="12" viewBox="0 0 17 12" fill="none" xmlns="http://www.w3.org/2000/svg">
<g clip-path="url(#clip0_5320_32868)">
<path d="M15.7913 2.1025C15.6168 1.44216 15.1014 0.924089 14.4464 0.749608C13.2573 0.42749 8.50066 0.42749 8.50066 0.42749C8.50066 0.42749 3.74137 0.42749 2.5549 0.746924C1.89993 0.924089 1.38454 1.44216 1.21006 2.09982C0.890625 3.29702 0.890625 5.78807 0.890625 5.78807C0.890625 5.78807 0.890625 8.27912 1.20737 9.47364C1.38185 10.134 1.89724 10.6521 2.55222 10.8265C3.73869 11.146 8.49798 11.146 8.49798 11.146C8.49798 11.146 13.2573 11.146 14.4437 10.8265C15.0987 10.6494 15.6141 10.1313 15.7886 9.47364C16.1053 8.27912 16.1053 5.78807 16.1053 5.78807C16.1053 5.78807 16.108 3.29702 15.7913 2.1025Z" fill="#999999"/>
<path d="M6.94336 8.0509V3.52515L10.9215 5.78803L6.94336 8.0509Z" fill="#DCDCDC"/>
</g>
<defs>
<clipPath id="clip0_5320_32868">
<rect width="15.2174" height="10.7212" fill="white" transform="translate(0.890625 0.42749)"/>
</clipPath>
</defs>
</svg>
