<svg width="14" height="11" viewBox="0 0 14 11" fill="none" xmlns="http://www.w3.org/2000/svg">
<path d="M4.52081 10.826C9.46646 10.826 12.2056 6.71731 12.2056 3.14122C12.2056 2.98905 12.2056 2.91296 12.2056 2.76078C12.7382 2.38035 13.1947 1.92383 13.5752 1.39122C13.1186 1.61948 12.586 1.77165 12.0534 1.84774C12.586 1.54339 13.0425 1.01078 13.2708 0.326002C12.7382 0.63035 12.2056 0.858611 11.5969 1.01078C10.9882 0.478176 10.2273 0.173828 9.46646 0.173828C7.94472 0.173828 6.80341 1.39122 6.80341 2.83687C6.80341 3.06513 6.80341 3.21731 6.8795 3.44557C4.59689 3.36948 2.61863 2.30426 1.32515 0.63035C1.09689 1.08687 0.944718 1.54339 0.944718 1.99992C0.944718 2.91296 1.40124 3.74991 2.16211 4.20644C1.70559 4.20644 1.32515 4.05426 0.944718 3.90209C0.944718 5.19557 1.85776 6.26078 3.07515 6.56513C2.84689 6.64122 2.61863 6.71731 2.39037 6.71731C2.2382 6.71731 2.08602 6.71731 1.85776 6.64122C2.16211 7.70644 3.22733 8.46731 4.36863 8.54339C3.45559 9.22818 2.31428 9.6847 1.02081 9.6847C0.792544 9.6847 0.564283 9.6847 0.412109 9.6847C1.6295 10.3695 2.99907 10.826 4.52081 10.826Z" fill="#999999"/>
</svg>
