<svg width="24" height="24" viewBox="0 0 24 24" fill="none" xmlns="http://www.w3.org/2000/svg">
<path d="M12 22C17.5228 22 22 17.5228 22 12C22 6.47715 17.5228 2 12 2C6.47715 2 2 6.47715 2 12C2 17.5228 6.47715 22 12 22Z" fill="#0D7AD2"/>
<mask id="mask0" mask-type="alpha" maskUnits="userSpaceOnUse" x="2" y="2" width="20" height="20">
<path d="M12 22C17.5228 22 22 17.5228 22 12C22 6.47715 17.5228 2 12 2C6.47715 2 2 6.47715 2 12C2 17.5228 6.47715 22 12 22Z" fill="#0D7AD2"/>
</mask>
<g mask="url(#mask0)">
<path d="M11.5 12.5C11.7 12.6 11.8 12.7 11.9 12.7C12.4 13 12 13.2 12.1 13.6C12.1 13.7 12.2 13.9 12.3 14C12.4 14.1 12.5 14.2 12.7 14.3C12.8 14.4 13 14.4 13.1 14.5C13.3 14.7 13.2 15 13 15.2C12.9 15.3 12.8 15.4 12.7 15.5C12.6 15.6 12.6 15.8 12.6 15.9C12.7 16.1 12.8 16.2 13 16.2C13.2 16.3 13.3 16.4 13.4 16.6C13.4 16.7 13.3 16.9 13.4 17C13.4 17 13.5 17 13.5 17.1C13.7 17.1 13.9 17.2 14.1 17.2C14.3 17.2 14.6 17.5 14.5 17.8C14.6 17.9 14.7 17.9 14.7 18C14.5 18.1 14.2 18.3 14 18.5C14.1 18.5 14.1 18.6 14.2 18.6C14.2 18.6 14.2 18.7 14.1 18.7C13.9 18.8 13.9 19 13.8 19.2C13.8 19.3 13.8 19.4 13.7 19.5C13.6 19.6 13.5 19.6 13.4 19.7C13.3 19.8 13.2 19.9 13.1 20C13.1 20.1 13.1 20.1 13 20.2C12.9 20.3 12.7 20.4 12.6 20.4C12.5 20.5 12.3 20.6 12.2 20.7C12.1 20.8 12.1 21 12.1 21.2L12 21.3V21.4C12.1 21.6 12.2 21.8 12.3 22C12.4 22.2 12.5 22.4 12.4 22.6C12.4 22.7 12.4 22.8 12.4 22.8C12.4 22.9 12.5 22.9 12.6 22.9C12.9 23 13.2 23.1 13.5 23.3C13.7 23.4 13.8 23.5 14 23.6C14.1 23.6 14.2 23.7 14.3 23.7C14.4 23.7 14.5 23.6 14.6 23.7C14.7 23.7 14.7 23.9 14.8 23.9C14.9 23.9 15 23.9 15 23.9L15.1 23.8C15.3 23.6 15.6 23.4 15.8 23.2C16.5 22.6 17.3 22 18 21.3C18.2 21.3 18.6 20.8 18.7 20.7C18.9 20.5 19.2 20.3 19.4 20.1C19.6 19.9 19.9 19.8 20 19.5C20.1 19.3 20.2 19 20.2 18.7C20.2 18.6 20.2 18.6 20.2 18.5C20.2 18.4 20.1 18.4 20.1 18.3C20 18.1 19.8 18 19.7 17.8C19.6 17.7 19.6 17.7 19.5 17.6C19.3 17.2 19.7 16.8 19.6 16.4C19.5 16.1 19.2 15.9 18.9 15.8C18.7 15.7 18.5 15.7 18.3 15.5C18.2 15.3 18.1 15 18 14.8C17.7 14.7 17.4 14.7 17.1 14.8C16.9 14.8 16.8 14.9 16.6 14.8C16.4 14.7 16.3 14.4 16.2 14.2C16.1 13.9 16.3 13 15.9 12.8C15.5 12.6 15.1 12.7 14.7 12.7C14.4 12.7 14.1 12.7 13.8 12.6C13.1 12.3 12.2 12.6 11.6 12.1C11.4 12 11.3 11.7 11 11.7C10.9 11.7 10.7 11.7 10.6 11.8C10.6 11.8 10.5 11.8 10.5 11.9V12C11.3 12.1 11.3 12.3 11.5 12.5Z" fill="#29C333"/>
<path d="M19.0004 5.20005C18.7004 4.90005 18.9004 4.40005 18.9004 4.00005C18.9004 3.60005 18.8004 3.10005 18.8004 2.70005C18.8004 1.90005 18.8004 1.10005 18.9004 0.300049L18.8004 0.400049C18.1004 0.700049 17.4004 1.10005 16.7004 1.20005C16.0004 1.40005 15.4004 1.60005 14.7004 1.70005C14.2004 1.80005 13.6004 1.60005 13.1004 1.70005C12.9004 1.80005 12.7004 1.90005 12.5004 2.10005C12.3004 2.30005 12.4004 2.50005 12.2004 2.70005C12.1004 2.80005 12.1004 3.10005 12.2004 3.20005C12.1004 3.40005 12.0004 3.60005 11.9004 3.70005C11.9004 3.80005 11.8004 3.80005 11.8004 3.90005C11.7004 3.90005 11.7004 3.90005 11.6004 3.90005C11.3004 3.90005 11.0004 3.90005 10.7004 3.90005H10.6004L10.5004 4.00005C10.2004 4.60005 9.60039 4.70005 9.00039 4.80005C8.60039 4.60005 8.50039 4.10005 8.30039 3.80005C7.40039 2.80005 6.40039 3.70005 5.60039 4.20005C5.20039 4.60005 4.20039 5.20005 3.80039 5.90005C3.60039 6.20005 3.60039 6.60005 3.80039 6.90005C4.00039 7.10005 4.20039 7.10005 4.50039 7.20005C4.60039 7.30005 4.70039 7.40005 4.80039 7.50005C5.50039 8.20005 6.20039 7.80005 7.00039 7.90005C7.10039 7.90005 7.20039 7.90005 7.30039 8.00005C7.50039 8.20005 7.50039 8.40005 7.50039 8.50005C7.50039 8.90005 7.40039 9.30005 7.40039 9.70005C7.40039 9.80005 7.40039 9.80005 7.40039 9.80005C7.40039 9.80005 7.50039 9.80005 7.60039 9.80005C7.80039 9.80005 8.00039 9.90005 8.10039 10.1C8.20039 10.3 8.30039 10.4 8.40039 10.6C8.40039 10.7 8.50039 10.7 8.50039 10.8C8.60039 10.9 8.60039 10.9 8.70039 10.9C8.90039 11 8.90039 11.3 8.90039 11.5C8.90039 11.7 8.90039 12 8.90039 12.2C9.30039 12.2 9.60039 12.1 9.90039 11.9C9.90039 11.8 9.80039 11.7 9.70039 11.6C9.50039 11.3 9.90039 11.3 10.0004 11.1C10.2004 10.9 10.3004 10.4 10.4004 10.1C10.7004 10.4 11.1004 10.6 11.4004 10.7C11.6004 10.3 11.7004 9.90005 12.1004 9.80005C12.3004 9.70005 12.5004 9.70005 12.6004 9.50005C12.6004 9.40005 12.5004 9.20005 12.5004 9.10005C12.4004 8.90005 12.4004 8.50005 12.6004 8.40005C12.9004 8.20005 13.3004 8.20005 13.6004 8.20005C14.0004 8.10005 14.4004 8.10005 14.7004 7.90005C14.7004 7.60005 14.7004 6.80005 14.4004 6.60005C14.2004 6.40005 13.7004 6.60005 13.9004 6.00005V5.90005C13.9004 5.80005 13.8004 5.80005 13.8004 5.80005C13.6004 5.70005 13.4004 5.60005 13.2004 5.60005C13.2004 5.60005 13.1004 5.60005 13.1004 5.50005V5.40005C13.1004 5.30005 13.1004 5.20005 13.1004 5.10005C13.7004 4.60005 14.4004 4.70005 15.1004 4.80005C15.1004 4.90005 15.0004 5.00005 15.0004 5.20005C15.0004 5.60005 16.4004 5.80005 16.7004 5.80005C17.4004 5.90005 18.0004 6.50005 18.7004 6.60005C18.8004 6.60005 18.9004 6.60005 19.0004 6.50005C19.1004 6.40005 19.1004 6.30005 19.1004 6.20005C19.1004 5.90005 19.1004 5.70005 19.1004 5.40005V5.30005L19.0004 5.20005ZM12.6004 6.70005C12.6004 6.70005 12.5004 6.70005 12.5004 6.80005C12.5004 6.80005 12.5004 6.90005 12.6004 6.90005L12.5004 7.00005C12.4004 7.10005 12.3004 7.10005 12.2004 7.10005C11.7004 7.00005 11.9004 6.40005 12.0004 6.10005C12.0004 6.00005 12.0004 5.90005 12.1004 5.90005C12.2004 5.90005 12.2004 5.70005 12.3004 5.70005C12.4004 5.70005 12.4004 5.70005 12.4004 5.70005C12.5004 5.70005 12.5004 5.80005 12.6004 5.80005C12.6004 5.90005 12.5004 6.10005 12.5004 6.20005C12.5004 6.30005 12.7004 6.40005 12.7004 6.50005C12.7004 6.60005 12.6004 6.70005 12.6004 6.70005Z" fill="#29C333"/>
</g>
<path d="M12 23C5.9 23 1 18.1 1 12C1 5.9 5.9 1 12 1C18.1 1 23 5.9 23 12C23 18.1 18.1 23 12 23ZM12 3C7 3 3 7 3 12C3 17 7 21 12 21C17 21 21 17 21 12C21 7 17 3 12 3Z" fill="#222222"/>
</svg>
