<svg width="36" height="36" viewBox="0 0 36 36" fill="none" xmlns="http://www.w3.org/2000/svg">
<path d="M18.5198 10.8841C17.0198 8.0841 14.1198 6.1841 11.0198 7.0841C6.51976 8.3841 4.81976 13.8841 6.61976 18.0841C8.51976 22.4841 13.0198 25.9841 16.7198 28.5841C18.1198 29.5841 20.4198 29.1841 21.6198 27.8841C24.3198 24.9841 27.8198 22.1841 29.3198 18.4841C31.1198 14.0841 29.8198 8.1841 24.7198 7.3841C21.9198 6.9841 20.0198 8.7841 18.5198 10.8841Z" fill="#FFA9A9"/>
<path fill-rule="evenodd" clip-rule="evenodd" d="M18.5999 9.15473C20.0749 7.43607 22.07 5.99543 24.8612 6.39417L24.8747 6.3961L24.8747 6.3962C27.8487 6.8627 29.7143 8.84251 30.552 11.2562C31.3766 13.6323 31.2285 16.4584 30.2459 18.8614C29.4297 20.8737 28.087 22.6021 26.6564 24.1604C25.9392 24.9416 25.1866 25.6939 24.4566 26.4209C24.419 26.4583 24.3814 26.4957 24.3439 26.5331C23.6491 27.2247 22.9783 27.8926 22.353 28.5641C21.5791 29.4016 20.4878 29.9183 19.3958 30.0851C18.3064 30.2516 17.1026 30.0849 16.1418 29.4002C12.4612 26.8137 7.7272 23.1712 5.70169 18.4806L5.70061 18.478C4.69715 16.1366 4.6703 13.4463 5.5193 11.1499C6.37232 8.8425 8.1364 6.87641 10.7416 6.12357C13.9222 5.20051 16.8102 6.76809 18.5999 9.15473ZM17.6383 11.3563C16.2725 8.80694 13.7862 7.32224 11.2986 8.04446L11.2973 8.04483C9.40284 8.59212 8.06712 10.0259 7.39521 11.8434C6.71936 13.6715 6.74234 15.8306 7.53836 17.6889C9.31263 21.7964 13.5761 25.1529 17.2947 27.7659L17.301 27.7704L17.301 27.7704C17.7396 28.0837 18.3843 28.2165 19.0937 28.1081C19.8009 28 20.459 27.6673 20.8849 27.2058L20.8879 27.2027C21.5403 26.502 22.2367 25.8087 22.9247 25.1238C22.965 25.0837 23.0052 25.0437 23.0454 25.0036C23.7779 24.2743 24.5003 23.5516 25.1831 22.8078C26.5522 21.3165 27.7091 19.7954 28.393 18.1084L28.3942 18.1055C29.2111 16.1087 29.3127 13.7854 28.6625 11.912C28.0259 10.0777 26.6937 8.70847 24.5716 8.37311C22.3751 8.06253 20.7957 9.41825 19.3335 11.4654L18.3982 12.7748L17.6383 11.3563Z" fill="black"/>
</svg>
