<svg width="14" height="14" viewBox="0 0 14 14" fill="none" xmlns="http://www.w3.org/2000/svg">
<path d="M12.05 4.54993C11.95 4.04993 11.75 3.54993 11.55 3.04993C10.95 1.94993 9.84998 1.04993 8.64998 0.649927C6.74998 0.0499273 4.34998 0.649927 3.24998 2.34993C2.84998 2.94993 2.34998 3.54993 2.14998 4.34993C1.74998 6.54993 3.24998 8.64993 4.44998 10.3499C5.14998 11.2499 5.84998 12.1499 6.34998 13.1499C6.54998 13.5499 7.24998 13.7499 7.54998 13.2499C8.24998 12.2499 9.04998 11.2499 9.84998 10.2499C10.55 9.34993 11.25 8.34993 11.75 7.24993C12.05 6.44993 12.15 5.44993 12.05 4.54993ZM8.14998 6.94993C7.74998 7.24993 7.14998 7.34993 6.64998 7.24993C6.14998 7.14993 5.74998 6.74993 5.44998 6.24993C5.34998 5.94993 5.34998 5.64993 5.34998 5.34993C5.34998 5.04993 5.44998 4.74993 5.64998 4.54993L5.74998 4.34993C6.04998 3.94993 6.64998 3.64993 7.14998 3.74993C7.14998 3.74993 7.44998 3.74993 7.54998 3.84993C7.74998 3.94993 7.74998 3.94993 7.94998 4.14993C8.24998 4.34993 8.54998 4.84993 8.64998 5.24993C8.84998 5.84993 8.54998 6.54993 8.14998 6.94993Z" fill="#BBBBBB"/>
</svg>
