<svg width="14" height="14" viewBox="0 0 14 14" fill="none" xmlns="http://www.w3.org/2000/svg">
<path d="M0.6 0.569934C0.3 0.969934 0.2 1.56993 0.1 2.06993C0.1 2.56993 0 3.16993 0 3.66993C0 4.66993 0 5.66993 0 6.66993C0 7.26993 0.5 7.76993 1.1 7.76993C1.7 7.76993 2.2 7.26993 2.2 6.66993C2.2 5.66993 2.1 4.66993 2.1 3.76993C2.1 3.26993 2.1 2.76993 2.1 2.26993C2.1 1.76993 2.2 1.26993 2.1 0.769934C2.1 0.469934 1.7 0.269934 1.4 0.169934C1.1 0.0699339 0.8 0.269934 0.6 0.569934Z" fill="#2AC1BC"/>
<path d="M0.99956 1.16997C1.59956 1.96997 2.29956 2.96997 2.79956 3.86997C2.99956 4.16997 3.09956 4.46997 3.19956 4.66997C3.29956 4.96997 3.49956 5.26997 3.49956 5.46997C3.59956 5.76997 3.79956 5.96997 3.79956 6.26997C3.89956 6.46997 3.89956 6.66997 3.99956 6.76997C4.09956 6.96997 4.19956 7.06997 4.39956 7.16997C4.79956 7.56997 5.59956 7.46997 5.69956 6.86997C5.69956 6.76997 5.69956 6.56997 5.79956 6.46997C5.79956 6.16997 5.69956 5.96997 5.59956 5.66997C5.59956 5.66997 5.49956 5.46997 5.49956 5.56997C5.49956 5.66997 5.49956 5.56997 5.49956 5.46997C5.49956 5.36997 5.39956 5.36997 5.39956 5.26997C5.29956 5.06997 5.29956 4.96997 5.19956 4.86997C4.89956 4.26997 4.59956 3.66997 4.19956 3.06997C3.59956 2.06997 2.79956 1.16997 1.99956 0.369971C1.79956 0.169971 1.39956 0.169971 1.19956 0.369971C0.89956 0.469971 0.79956 0.869971 0.99956 1.16997Z" fill="#2AC1BC"/>
<path d="M5.3998 0.470019C5.3998 0.570019 5.3998 0.670019 5.2998 0.770019V0.870019C5.1998 1.07002 5.1998 1.27002 5.1998 1.47002C5.1998 1.77002 5.1998 2.07002 5.1998 2.37002C5.0998 2.97002 4.9998 3.57002 4.8998 4.17002C4.7998 4.77002 4.6998 5.37002 4.4998 5.97002C4.3998 6.27002 4.2998 6.57002 4.2998 6.97002C4.2998 7.67002 4.9998 8.07002 5.5998 7.97002C5.9998 7.87002 6.1998 7.57002 6.2998 7.27002C6.6998 6.07002 6.8998 4.97002 6.9998 3.77002C7.0998 2.67002 7.1998 1.27002 6.6998 0.370019C6.3998 -0.229981 5.5998 -0.0299811 5.3998 0.470019Z" fill="#2AC1BC"/>
</svg>
