<svg width="14" height="14" viewBox="0 0 14 14" fill="none" xmlns="http://www.w3.org/2000/svg">
<path d="M12.8 5.65016C12.7 5.25016 12.4 4.95016 11.9 4.95016C11.7 4.95016 11.5 4.95016 11.3 4.95016C10.5 4.95016 9.80002 4.95016 9.00002 4.95016C8.60002 3.95016 8.20002 2.95016 7.70002 1.95016C7.40002 0.950158 6.00002 1.45016 5.70002 2.25016C5.30002 3.15016 5.00002 4.05016 4.70002 5.05016C3.80002 5.05016 3.00002 5.05016 2.10002 5.15016C0.90002 5.15016 0.70002 6.55016 1.50002 7.15016C2.20002 7.65016 2.90002 8.15016 3.60002 8.65016C3.40002 9.45016 3.10002 10.2502 2.90002 11.1502C2.40002 12.4502 4.10002 13.0502 5.00002 12.3502C5.60002 11.8502 6.20002 11.4502 6.80002 10.9502C7.60002 11.4502 8.30002 12.0502 9.10002 12.5502C10 13.1502 11 12.1502 10.8 11.2502C10.6 10.3502 10.4 9.45016 10.2 8.55016C10.9 8.05016 11.6 7.65016 12.4 7.15016C13 6.85016 13.1 6.15016 12.8 5.65016Z" fill="#FFC200"/>
</svg>
