<svg width="12" height="12" viewBox="0 0 12 12" fill="none" xmlns="http://www.w3.org/2000/svg">
<path d="M11.8 4.65016C11.7 4.25016 11.4 3.95016 10.9 3.95016C10.7 3.95016 10.5 3.95016 10.3 3.95016C9.50002 3.95016 8.80002 3.95016 8.00002 3.95016C7.60002 2.95016 7.20002 1.95016 6.70002 0.950158C6.40002 -0.0498424 5.00002 0.450158 4.70002 1.25016C4.30002 2.15016 4.00002 3.05016 3.70002 4.05016C2.80002 4.05016 2.00002 4.05016 1.10002 4.15016C-0.0999805 4.15016 -0.29998 5.55016 0.50002 6.15016C1.20002 6.65016 1.90002 7.15016 2.60002 7.65016C2.40002 8.45016 2.10002 9.25016 1.90002 10.1502C1.40002 11.4502 3.10002 12.0502 4.00002 11.3502C4.60002 10.8502 5.20002 10.4502 5.80002 9.95016C6.60002 10.4502 7.30002 11.0502 8.10002 11.5502C9.00002 12.1502 10 11.1502 9.80002 10.2502C9.60002 9.35016 9.40002 8.45016 9.20002 7.55016C9.90002 7.05016 10.6 6.65016 11.4 6.15016C12 5.85016 12.1 5.15016 11.8 4.65016Z" fill="#DDDDDD"/>
</svg>
