<svg width="45" height="43" viewBox="0 0 45 43" fill="none" xmlns="http://www.w3.org/2000/svg">
<path d="M16.8284 7.98241C17.3884 7.21241 16.7784 8.02241 16.6284 8.18241C16.4684 8.35241 16.2984 8.51241 16.1284 8.67241C15.7184 9.05241 15.2784 9.40241 14.8484 9.77241C13.8684 10.5924 12.9684 11.4724 12.2884 12.5624C10.6484 15.1824 10.9384 18.7024 11.5984 21.5824C12.8484 27.0524 17.0684 32.0124 22.7384 33.0824C25.6484 33.6324 28.5784 33.2624 31.1684 31.7924C33.3484 30.5524 35.2184 28.5824 36.2184 26.2724C38.5884 20.7924 36.4884 14.4124 31.4384 11.2624C30.1884 10.4824 28.7984 9.91241 27.4284 9.38241C25.7884 8.75241 24.0384 8.47241 22.3084 8.85241C19.3284 9.50241 17.1284 12.5824 15.5884 14.9924C13.9084 17.6424 12.3284 20.9924 14.1784 23.9824C15.6084 26.2924 18.3084 27.5524 20.8484 28.2324C22.5884 28.6924 24.4684 28.7724 26.0984 27.9124C27.7284 27.0524 28.5584 25.4624 29.2284 23.8324C30.3884 21.0324 30.5784 17.8124 29.8684 14.8724C29.4384 13.1024 28.5284 11.5624 27.0384 10.4924C25.4184 9.32241 23.1784 9.23241 21.4484 10.2124C20.0584 10.9924 19.1284 12.4124 18.5084 13.8424C17.8184 15.4424 17.3984 16.9924 17.1984 18.7324C17.0384 20.1424 17.1384 21.5524 17.6884 22.8724C18.4684 24.7124 20.2284 25.9624 22.2684 25.8924C23.9484 25.8324 25.3984 24.9424 26.7784 24.0824C27.9684 23.3424 29.1684 22.5124 30.1484 21.4924C31.7284 19.8424 33.1984 17.2624 31.2784 15.2424C30.4084 14.3224 29.0084 13.9224 27.7884 14.3324C26.6784 14.7124 25.9184 15.4124 25.2684 16.3624C24.3784 17.6724 23.7384 19.2224 23.5284 20.7924C23.2084 23.1724 24.6684 25.6224 27.2584 25.6724C29.6684 25.7124 31.5984 23.5124 30.9584 21.1324C30.3084 18.7024 26.7084 18.1224 25.4784 20.4124C24.3184 22.5824 24.0184 24.8824 24.4484 27.2924C24.8184 29.3724 28.1184 30.3524 29.4584 28.6124C30.2384 27.6024 30.8484 26.6324 31.1984 25.3824C31.4884 24.3824 31.6084 23.2824 31.5384 22.2424C31.3884 20.1124 30.6684 18.0624 29.4484 16.3024C28.8284 15.4124 28.1284 14.5524 27.3784 13.7724C26.5284 12.8924 25.6184 11.9824 24.3984 11.6624C22.5784 11.1924 21.1684 12.3324 20.1284 13.6524C19.3784 14.6024 18.7084 15.5824 18.1884 16.6824C17.5184 18.1024 17.7484 19.9824 19.2684 20.7824C20.5984 21.4824 22.6584 21.2224 23.3684 19.7024C23.6684 19.0724 23.9984 18.4724 24.3884 17.9024C24.4684 17.7824 24.5584 17.6624 24.6384 17.5424C24.8384 17.2424 24.2684 17.9724 24.6384 17.5424C24.7384 17.4324 24.8284 17.3224 24.9284 17.2124C24.9984 17.1324 25.0684 17.0524 25.1484 16.9824C25.4484 16.6824 25.1984 16.8424 24.4084 17.4424C23.8784 17.4424 23.3484 17.4424 22.8084 17.4424C22.5384 17.3324 22.2984 17.1824 22.0784 16.9924C22.1784 17.0824 22.2884 17.1824 22.3884 17.2724C22.5884 17.4624 22.7884 17.6624 22.9884 17.8524C23.3784 18.2524 23.7484 18.6724 24.1084 19.0924C24.3084 19.3424 24.2884 19.3124 24.0284 18.9824C24.1084 19.0924 24.1884 19.2024 24.2684 19.3224C24.4284 19.5524 24.5784 19.7824 24.7184 20.0224C24.8584 20.2624 24.9884 20.5024 25.1084 20.7524C25.1684 20.8724 25.2284 21.0024 25.2784 21.1224C25.1284 20.7524 25.0884 20.6724 25.1684 20.8824C25.3084 21.3424 25.4484 21.7924 25.5484 22.2724C25.5984 22.6024 25.5884 22.5224 25.5184 22.0424C25.5284 22.1724 25.5384 22.2924 25.5484 22.4224C25.5584 22.6724 25.5584 22.9324 25.5384 23.1824C25.5284 23.3124 25.5184 23.4324 25.5084 23.5624C25.5784 23.0824 25.5884 23.0024 25.5284 23.3224C25.4584 23.5624 25.3984 23.8024 25.3284 24.0424C25.2184 24.3424 25.2484 24.2824 25.4284 23.8424C25.3784 23.9524 25.3184 24.0724 25.2584 24.1724C25.1684 24.3424 24.6684 25.0524 25.2084 24.3524C26.8784 24.7924 28.5484 25.2324 30.2184 25.6724C30.1184 25.1024 30.2284 26.1124 30.2284 25.7224C30.2284 25.5824 30.2084 25.4324 30.2084 25.2924C30.2084 25.1124 30.2184 24.9324 30.2184 24.7524C30.2184 24.1824 30.1184 25.1624 30.1984 24.8024C30.2684 24.4924 30.3284 24.1724 30.4284 23.8624C30.4584 23.7724 30.5884 23.5424 30.5784 23.4624C30.4284 23.8124 30.3984 23.8924 30.4984 23.6924C30.5484 23.5924 30.5984 23.5024 30.6484 23.4024C28.8184 23.1624 26.9884 22.9224 25.1684 22.6824C24.6084 20.5824 26.4784 19.3124 27.9184 19.7224C28.5384 19.9024 29.1784 20.4224 29.3684 21.0524C29.4184 21.5624 29.4484 21.6624 29.4384 21.3324C29.3584 21.8324 29.3484 21.9224 29.4084 21.6024C29.4784 21.3724 29.5384 21.1324 29.6084 20.9024C29.6384 20.8024 29.6784 20.6924 29.7184 20.5924C29.8384 20.2824 29.8284 20.3224 29.6684 20.7024C29.6884 20.4924 29.9184 20.1924 30.0184 20.0124C30.0684 19.9224 30.3384 19.3624 30.4284 19.3524C30.1384 19.6924 30.0884 19.7624 30.2884 19.5524C29.4484 20.3924 28.3584 20.3524 27.0184 19.4424C26.7584 19.0024 26.5084 18.5624 26.2484 18.1224C26.2784 17.8524 26.3084 17.5824 26.3384 17.3124C26.5484 16.5124 26.5584 16.2624 26.3784 16.5824C26.3184 16.6524 26.2684 16.7524 26.2184 16.8324C25.9484 17.2624 26.2684 16.7524 26.3384 16.7024C26.2684 16.7524 26.2084 16.8624 26.1484 16.9224C25.8484 17.2724 25.5184 17.5924 25.1684 17.8824C25.0984 17.9424 24.9884 18.0024 24.9384 18.0724C24.9384 18.0724 25.4184 17.7224 25.1484 17.9124C24.9584 18.0424 24.7684 18.1824 24.5784 18.3224C24.1884 18.5824 23.7884 18.8324 23.3884 19.0824C23.0084 19.3124 22.6284 19.5524 22.2384 19.7624C22.2184 19.7724 21.9484 19.9024 21.9484 19.9124C21.9484 19.8724 22.4884 19.7424 22.1684 19.8124C22.1384 19.8224 21.8784 19.8824 21.8684 19.9024C22.2884 19.8724 22.3884 19.8524 22.1584 19.8624C21.9884 19.8624 22.0184 19.8724 22.2584 19.8924C22.4584 19.9524 22.6384 19.9824 22.8284 20.0924C22.7284 20.0324 22.5284 19.8824 22.8784 20.1624C23.2484 20.4624 23.0284 20.2824 22.9584 20.2024C22.9884 20.2324 23.3684 20.8424 23.1584 20.4524C22.9284 20.0224 23.3284 21.0924 23.2084 20.6024C23.1584 20.4024 23.1284 20.1524 23.0584 19.9724C23.0584 19.9824 23.0984 20.6524 23.1184 20.3624C23.1284 20.2824 23.1084 20.1924 23.1084 20.1224C23.1084 19.9424 23.1084 19.7624 23.1184 19.5824C23.1284 19.3224 23.1584 19.0724 23.1784 18.8224C23.1984 18.4824 23.1484 19.0624 23.1384 19.0824C23.1984 19.0024 23.1984 18.7524 23.2084 18.6524C23.2984 18.1824 23.4184 17.7224 23.5584 17.2724C23.6384 17.0324 23.7184 16.7924 23.8084 16.5524C23.8284 16.4824 23.9684 16.1324 23.8284 16.5024C23.6784 16.8924 23.8684 16.4324 23.8984 16.3624C24.0684 16.0024 24.4084 15.6224 24.5384 15.2624C24.5084 15.3524 24.0784 15.7524 24.4284 15.4324C24.4984 15.3724 24.5684 15.3024 24.6284 15.2424C24.8484 15.0124 24.3784 15.4424 24.3884 15.4324C24.6984 15.2124 24.3084 15.4524 24.1684 15.5024C24.2584 15.4724 24.5984 15.4024 24.1384 15.4824C23.5084 15.6024 24.5484 15.5424 23.8984 15.4924C23.4684 15.4524 23.7584 15.4824 23.8684 15.5224C23.8484 15.5124 23.3384 15.2224 23.5884 15.4124C23.6184 15.4324 23.7984 15.5624 23.8384 15.5624C23.8884 15.5624 23.1684 15.1624 23.6784 15.4624C23.7484 15.5024 23.9384 15.7924 23.6984 15.4624C23.4484 15.1124 23.7084 15.5024 23.7484 15.5724C23.7984 15.6624 23.8484 15.7524 23.8984 15.8424C24.0884 16.1924 23.7784 15.9024 23.8384 15.6924C23.8084 15.8024 23.9884 16.1524 24.0184 16.2824C24.0684 16.4824 24.1184 16.6824 24.1584 16.8924C24.1684 16.9224 24.2584 17.2624 24.2384 17.3124C24.2784 17.2024 24.1784 16.7024 24.2184 17.1524C24.2584 17.6224 24.2884 18.0824 24.2784 18.5524C24.2784 18.7724 24.2684 18.9824 24.2484 19.1924C24.2384 19.3324 24.2184 19.4824 24.2084 19.6224C24.1884 20.0424 24.3084 19.0524 24.2284 19.4624C24.1384 19.9224 24.0584 20.3724 23.9284 20.8224C23.8684 21.0324 23.8084 21.2324 23.7384 21.4424C23.7084 21.5424 23.6684 21.6424 23.6284 21.7424C23.4284 22.2924 23.4984 21.7824 23.6484 21.7224C23.5584 21.7524 23.4284 22.1924 23.3784 22.2824C23.2684 22.4824 23.1484 22.6624 23.0284 22.8624C22.8684 23.1424 23.1984 22.6324 23.1984 22.6324C23.1284 22.7224 22.8984 22.8724 23.2184 22.6524C23.5784 22.4124 23.2884 22.5924 23.2084 22.6424C22.7684 22.9124 23.6484 22.5524 23.3184 22.5924C23.2484 22.6024 23.1084 22.6224 23.0484 22.6524C23.0884 22.6324 23.6684 22.6324 23.3784 22.5924C23.1184 22.5524 22.5284 22.4224 23.2984 22.6424C22.8484 22.5224 22.3884 22.4524 21.9384 22.3124C21.5984 22.2124 21.2684 22.0924 20.9384 21.9724C20.8384 21.9324 20.7184 21.8724 20.6084 21.8424C20.5884 21.8424 21.2084 22.1124 20.9184 21.9724C20.7384 21.8824 20.5484 21.7924 20.3684 21.7024C20.1884 21.6024 20.0084 21.5024 19.8384 21.3924C19.7384 21.3324 19.2584 20.9724 19.6484 21.2824C20.0384 21.5924 19.5484 21.1824 19.4484 21.0924C19.3484 21.0024 18.9284 20.5124 19.2584 20.9124C19.6084 21.3524 19.2284 20.7424 19.1584 20.6924C19.1784 20.7124 19.3484 21.3124 19.3084 21.0524C19.2984 20.9824 19.2684 20.8924 19.2384 20.8324C19.0684 20.3824 19.3684 21.6124 19.2584 20.8924C19.2084 20.5924 19.2384 21.1124 19.1984 21.1724C19.2584 21.0924 19.2684 20.8624 19.2984 20.7624C19.3284 20.6624 19.3684 20.5624 19.3984 20.4624C19.4984 20.0624 19.1584 20.9624 19.3384 20.5924C19.4284 20.4024 19.5184 20.2024 19.6184 20.0124C19.8384 19.5624 20.0784 19.1224 20.3384 18.6924C20.5784 18.2924 20.8184 17.8924 21.0884 17.5124C21.2084 17.3324 21.3284 17.1624 21.4584 16.9824C21.4984 16.9224 21.7184 16.6824 21.7184 16.6324C21.7284 16.7324 21.3584 17.0724 21.6484 16.7324C21.9384 16.3724 22.2384 16.0124 22.5584 15.6724C22.6984 15.5224 22.8384 15.3724 22.9784 15.2324C23.0484 15.1624 23.1184 15.0924 23.1984 15.0224C23.2284 14.9924 23.7384 14.5624 23.3584 14.8724C23.0184 15.1524 23.5584 14.7924 23.6384 14.7224C23.8684 14.5424 23.4284 14.8224 23.3784 14.8124C23.4384 14.8224 23.6984 14.7124 23.7784 14.6824C23.8584 14.6524 24.2284 14.5924 23.7984 14.6624C23.3784 14.7224 23.7384 14.6724 23.8284 14.6824C23.9284 14.6824 24.0484 14.6924 24.1484 14.6924C24.5084 14.6624 23.5484 14.5524 24.1084 14.6824C24.5784 14.7924 25.0384 14.9124 25.4984 15.0824C25.7084 15.1624 25.9084 15.2424 26.1184 15.3224C26.2084 15.3624 26.3184 15.4224 26.4184 15.4424C26.2384 15.4024 25.9384 15.2324 26.2984 15.3924C27.1784 15.7924 28.0384 16.2124 28.8384 16.7624C28.9284 16.8224 29.2984 17.0924 28.9684 16.8424C28.6584 16.6124 28.9184 16.8024 28.9784 16.8524C29.1184 16.9724 29.2484 17.0924 29.3784 17.2224C29.5284 17.3724 29.6784 17.5224 29.8184 17.6824C29.8784 17.7524 29.9384 17.8224 29.9984 17.8924C30.2884 18.2224 29.8684 17.8024 29.8684 17.7124C29.8684 17.8424 30.1484 18.1124 30.2284 18.2424C30.3284 18.3924 30.4184 18.5524 30.5084 18.7124C30.6084 18.9024 30.6984 19.0924 30.7984 19.2824C31.0184 19.7224 30.5784 18.6924 30.8084 19.3224C30.9384 19.6924 31.0484 20.0724 31.1384 20.4524C31.1784 20.6224 31.1884 20.8124 31.2384 20.9824C31.0484 20.3124 31.1784 20.4824 31.1984 20.7224C31.2084 20.8424 31.2184 20.9624 31.2284 21.0824C31.2484 21.4724 31.2484 21.8624 31.2184 22.2524C31.2084 22.3424 31.1884 22.4324 31.1984 22.5224C31.1984 22.5424 31.3084 21.8424 31.2484 22.1724C31.1984 22.4124 31.1584 22.6424 31.0984 22.8824C31.0584 23.0524 31.0084 23.2324 30.9484 23.4024C30.9084 23.5124 30.8684 23.6224 30.8284 23.7424C30.7384 24.0524 30.9684 23.4224 30.9684 23.4424C30.7684 23.8124 30.6084 24.1924 30.3884 24.5424C30.2984 24.6924 30.1884 24.8424 30.0984 24.9924C29.8084 25.4224 30.5384 24.4724 30.0784 25.0224C29.8084 25.3424 29.5184 25.6424 29.2084 25.9224C29.0784 26.0424 28.9384 26.1524 28.7984 26.2724C28.5584 26.4724 29.0584 26.0724 29.0484 26.0724C28.9984 26.0724 28.7784 26.2624 28.7584 26.2824C28.4084 26.5124 28.0484 26.7224 27.6784 26.9124C27.5984 26.9524 27.5184 26.9824 27.4384 27.0224C27.1484 27.1724 27.7584 26.8924 27.7384 26.8924C27.5684 26.9324 27.3984 27.0224 27.2284 27.0724C26.8284 27.2024 26.4184 27.2924 26.0084 27.3824C25.5284 27.4824 26.6684 27.3224 25.9584 27.3824C25.7684 27.3924 25.5684 27.4024 25.3684 27.4024C25.1384 27.4024 24.9184 27.4024 24.6884 27.3824C24.5884 27.3724 24.4984 27.3624 24.3984 27.3624C23.9984 27.3524 25.0084 27.4724 24.6184 27.3924C24.1984 27.3124 23.7884 27.2324 23.3784 27.1124C23.1584 27.0524 22.9384 26.9724 22.7284 26.9024C22.6484 26.8724 22.5384 26.8124 22.4584 26.8024C22.5984 26.8224 22.9984 27.0524 22.6384 26.8724C22.2584 26.6924 21.8784 26.4924 21.5084 26.2724C21.3084 26.1524 21.1184 26.0324 20.9284 25.9024C20.8484 25.8424 20.7684 25.7824 20.6884 25.7324C20.3584 25.5124 21.1184 26.1024 20.8284 25.8424C20.5084 25.5624 20.1884 25.2924 19.8884 24.9824C19.7484 24.8424 19.6184 24.6924 19.4884 24.5424C19.4784 24.5324 19.2284 24.2824 19.2284 24.2324C19.2284 24.3224 19.5784 24.7224 19.3284 24.3624C18.7984 23.6124 18.3684 22.8324 17.9684 22.0124C17.8184 21.7124 18.0684 22.2624 18.0684 22.2624C18.0584 22.1724 17.9884 22.0624 17.9584 21.9824C17.8784 21.7624 17.7984 21.5424 17.7284 21.3124C17.5784 20.8624 17.4584 20.4024 17.3584 19.9424C17.3184 19.7424 17.2784 19.5424 17.2384 19.3424C17.2184 19.2424 17.2084 19.1424 17.1884 19.0424C17.1084 18.6324 17.2484 19.6524 17.2084 19.2424C17.1584 18.7724 17.1184 18.3024 17.0984 17.8324C17.0884 17.6124 17.0884 17.4024 17.0884 17.1824C17.0884 17.0424 17.1984 16.5224 17.1284 16.4224C17.1484 16.4524 17.0084 17.0024 17.0984 16.6824C17.1284 16.5824 17.1384 16.4724 17.1684 16.3624C17.1984 16.2524 17.2184 16.1524 17.2584 16.0524C17.2884 15.9624 17.4484 15.4924 17.2884 15.9224C17.1284 16.3624 17.3984 15.7624 17.4684 15.6524C17.5084 15.5824 17.5684 15.5124 17.6084 15.4424C17.7584 15.1824 17.3984 15.7124 17.3984 15.7124C17.6984 15.5124 17.9584 15.0924 18.2284 14.8324C18.8084 14.2924 19.4384 13.8024 20.0384 13.2824C20.7884 12.6224 21.4184 11.8924 22.0084 11.0824C22.9384 9.81241 22.2684 7.68241 20.9284 6.98241C19.3784 6.08241 17.8284 6.63241 16.8284 7.98241Z" fill="#2AC1BC"/>
<path d="M20.4475 6.32241C15.2675 5.23241 9.79755 7.13241 6.32755 11.1224C4.66755 13.0324 3.44755 15.2024 2.63755 17.6024C1.78755 20.1124 1.44755 22.9724 2.17755 25.5524C2.96755 28.3624 4.96755 30.3724 7.25755 32.0424C9.23755 33.4824 11.3875 34.7124 13.5475 35.8224C15.8475 37.0024 18.2975 38.3024 20.8775 38.6824C23.9075 39.1224 26.6875 38.2524 29.4675 37.1324C31.9575 36.1324 34.4475 35.0524 36.7975 33.7524C39.3475 32.3424 41.2075 30.2424 41.9475 27.3824C43.1575 22.6924 41.8675 17.5124 39.0775 13.6124C36.1475 9.51241 31.9576 6.74241 27.1775 5.23241C24.8075 4.48241 22.3075 4.08241 19.8275 3.91241C17.3875 3.74241 14.8775 3.80241 12.4875 4.37241C10.0175 4.97241 7.69755 6.31241 6.08755 8.31241C4.41755 10.4024 3.31755 12.8124 2.37755 15.3024C0.527548 20.2724 0.127548 25.8824 2.87755 30.6124C4.13755 32.7824 5.90755 34.5624 7.95755 35.9924C10.1175 37.5024 12.8675 38.5924 15.5475 38.3124C18.4875 38.0124 20.8975 36.5224 23.1175 34.6624C24.9775 33.1124 26.6875 31.3624 28.2375 29.5024C30.1275 27.2524 31.9475 24.9324 32.2975 21.9224C32.6075 19.2024 31.0875 16.5524 29.0375 14.8624C26.7775 12.9924 24.0875 11.7524 21.1475 11.5024C18.3075 11.2624 15.6775 12.4824 13.5375 14.2424C9.52755 17.5424 7.39755 23.6024 10.2375 28.3124C11.7175 30.7624 14.9875 33.2124 17.9375 31.9624C19.6675 31.2324 20.2975 29.5224 20.9075 27.8924C21.4075 26.5524 21.7175 25.2024 21.8975 23.7924C22.2175 21.2624 21.7375 18.4424 20.2375 16.3224C18.3275 13.6124 14.9575 11.7824 11.7275 13.3924C9.22755 14.6424 8.12755 17.6024 8.08755 20.2424C8.05755 22.6924 8.92755 25.2224 10.3575 27.1924C13.4475 31.4224 18.3075 33.4824 23.3275 34.4424C24.7975 34.7224 26.2976 34.9024 27.7675 34.5224C29.2775 34.1324 30.5975 33.1024 31.3675 31.7524C32.6875 29.4424 32.4475 26.6424 31.9575 24.1324C31.4875 21.7024 30.4975 19.3324 29.1675 17.2524C28.3275 15.9324 26.4575 15.2724 25.0675 16.1724C23.7475 17.0224 23.0875 18.8624 23.9875 20.2724C24.2575 20.7024 24.5175 21.1324 24.7575 21.5724C24.8575 21.7624 24.9575 21.9524 25.0475 22.1524C25.1075 22.2824 25.1675 22.4124 25.2275 22.5424C25.4075 22.9124 25.1775 22.5824 25.1775 22.4224C25.1775 22.6124 25.3775 22.9424 25.4475 23.1224C25.5375 23.3624 25.6175 23.5924 25.6875 23.8424C25.8375 24.3224 25.9675 24.8124 26.0775 25.3024C26.1275 25.5524 26.1775 25.7924 26.2275 26.0424C26.2475 26.1824 26.2675 26.3224 26.2975 26.4624C26.3575 26.8024 26.2575 26.2024 26.2575 26.2024C26.2175 26.3924 26.3175 26.7324 26.3275 26.9324C26.3475 27.1624 26.3475 27.3924 26.3475 27.6124C26.3475 27.8124 26.3375 28.0124 26.3275 28.2224C26.2975 28.7624 26.4676 27.5924 26.3475 28.1124C26.2976 28.3024 26.2675 28.5024 26.2075 28.6824C26.1875 28.7624 26.1475 28.8424 26.1275 28.9224C26.2875 28.1724 26.3475 28.5224 26.1875 28.7224C25.7775 29.2224 26.5975 28.3824 26.2275 28.7024C26.1775 28.7424 26.0875 28.8224 26.0475 28.8724C25.9075 29.0924 26.2675 28.6524 26.3275 28.6524C26.3675 28.6524 25.9875 28.8324 25.9875 28.8424C25.9675 28.7724 26.5775 28.6824 26.2575 28.7024C26.1975 28.7024 26.0275 28.7424 25.9775 28.7724C26.4275 28.7224 26.5275 28.7124 26.2975 28.7324C26.2375 28.7424 26.1675 28.7424 26.0975 28.7424C25.8675 28.7524 25.6375 28.7424 25.4075 28.7324C25.3075 28.7224 25.2075 28.7124 25.1075 28.7024C24.6975 28.6724 25.7075 28.8124 25.3075 28.7224C24.8375 28.6224 24.3575 28.5424 23.8875 28.4324C22.9175 28.2124 21.9675 27.9624 21.0275 27.6524C20.7975 27.5724 20.5575 27.4924 20.3275 27.4124C20.1975 27.3624 20.0675 27.3124 19.9375 27.2624C19.8675 27.2324 19.5275 27.0924 19.9075 27.2524C20.2875 27.4224 19.9475 27.2724 19.8775 27.2424C19.7475 27.1824 19.6175 27.1324 19.4975 27.0724C19.2475 26.9524 18.9975 26.8324 18.7475 26.6924C18.3475 26.4824 17.9575 26.2524 17.5775 26.0024C17.3775 25.8724 17.1775 25.7224 16.9775 25.5824C16.9175 25.5424 16.6175 25.3324 16.9475 25.5624C17.3175 25.8224 16.8475 25.4724 16.7775 25.4124C16.4575 25.1324 16.1575 24.8424 15.8675 24.5324C15.7375 24.3824 15.5875 24.1324 15.4175 24.0124C15.4675 24.0524 15.8275 24.5824 15.5275 24.1524C15.4575 24.0424 15.3775 23.9424 15.3075 23.8324C15.0575 23.4524 14.8275 23.0624 14.6175 22.6624C14.5775 22.5724 14.5375 22.4824 14.4875 22.4024C14.3375 22.1224 14.6075 22.6624 14.5975 22.6824C14.6275 22.6424 14.3675 22.0624 14.3375 21.9624C14.2075 21.5324 14.1475 21.1024 14.0375 20.6624C14.0375 20.6524 14.0875 21.3224 14.0875 20.9924C14.0875 20.9024 14.0675 20.8024 14.0675 20.7124C14.0575 20.4624 14.0575 20.2124 14.0675 19.9524C14.0675 19.9424 14.1175 19.6124 14.0975 19.5724C14.1075 19.5824 13.9775 20.2124 14.0575 19.9024C14.1075 19.7024 14.1375 19.4924 14.1975 19.2824C14.2275 19.1624 14.4775 18.4924 14.2875 18.9824C14.1075 19.4424 14.3875 18.8424 14.4575 18.7224C14.6875 18.3024 14.0175 19.1824 14.4575 18.7224C14.9175 18.2424 14.0175 18.9424 14.4375 18.7124C14.8975 18.4624 13.8175 19.0024 14.4175 18.7224C14.6875 18.6024 14.1075 18.8124 14.0875 18.7524C14.0875 18.7524 14.8775 18.7824 14.2675 18.7324C13.8275 18.6924 14.1375 18.7324 14.2475 18.7524C14.5275 18.8224 14.4575 18.9524 14.0775 18.6524C14.2175 18.7624 14.4375 18.8524 14.5975 18.9324C14.8475 19.0724 14.7375 19.1924 14.4675 18.8124C14.5175 18.8824 14.6275 18.9424 14.6875 19.0024C14.8775 19.1724 15.0375 19.3724 15.2175 19.5624C15.4375 19.7924 15.0275 19.3424 15.0475 19.3324C15.0475 19.3324 15.2775 19.6824 15.2575 19.6524C15.3575 19.8124 15.4575 19.9824 15.5375 20.1524C15.5275 20.1224 15.6975 20.5024 15.7075 20.5024C15.6775 20.5124 15.4975 19.9224 15.5875 20.2324C15.6575 20.4824 15.7575 20.7224 15.8175 20.9724C15.8775 21.1924 15.9175 21.4124 15.9575 21.6324C15.9775 21.7224 16.0275 22.0724 15.9575 21.6224C15.8775 21.1524 15.9475 21.5824 15.9575 21.7024C15.9975 22.2024 15.9875 22.7024 15.9375 23.2124C15.9275 23.3224 15.8875 23.8124 15.9275 23.3824C15.9575 22.9824 15.9275 23.3524 15.9075 23.4324C15.8575 23.6924 15.8075 23.9524 15.7475 24.2124C15.6175 24.7724 15.4475 25.3124 15.2575 25.8524C15.1775 26.0724 15.0975 26.2824 15.0175 26.5024C14.9675 26.6424 14.9075 26.7824 14.8475 26.9324C14.8175 27.0124 14.6775 27.3824 14.8375 26.9724C15.0175 26.4924 14.6575 27.2224 14.6575 27.2624C14.6375 27.0224 15.2875 26.6924 15.3575 26.6524C15.6175 26.4024 15.9275 26.3124 16.2875 26.3824C16.8375 26.4224 16.9275 26.3924 16.5575 26.3124C16.4775 26.2824 16.3875 26.2524 16.3075 26.2224C16.0075 26.1324 16.6175 26.3524 16.6175 26.3524C16.4975 26.2324 16.2275 26.1424 16.0775 26.0524C15.5275 25.6924 16.4275 26.3924 16.0575 26.0424C15.8875 25.8824 15.7275 25.7124 15.5575 25.5424C15.2075 25.1824 15.9375 26.1024 15.5375 25.5124C15.4375 25.3624 15.3475 25.2124 15.2575 25.0524C15.1975 24.9524 15.1575 24.8324 15.0975 24.7324C14.9475 24.4724 15.2175 25.0324 15.2175 25.0424C15.2275 24.8524 15.0475 24.5524 14.9875 24.3624C14.9375 24.1624 14.8975 23.9524 14.8575 23.7524C14.7875 23.4424 14.9075 24.1124 14.9075 24.1124C14.9275 24.0524 14.8875 23.8024 14.8875 23.7624C14.8775 23.5624 14.8775 23.3624 14.8875 23.1524C14.8975 23.0324 14.9375 22.8624 14.9175 22.7524C14.9375 22.9024 14.7975 23.3624 14.8975 22.9524C15.0075 22.4924 15.1275 22.0524 15.2775 21.6024C15.4575 21.0724 15.0375 22.0724 15.2975 21.5724C15.4175 21.3324 15.5375 21.0924 15.6775 20.8524C15.7975 20.6424 15.9275 20.4424 16.0575 20.2524C16.1175 20.1724 16.1775 20.0824 16.2375 20.0024C16.5475 19.5624 16.1975 20.0924 16.1375 20.1224C16.2975 20.0324 16.4775 19.7124 16.6075 19.5824C16.7675 19.4124 16.9275 19.2424 17.0875 19.0824C17.2575 18.9224 17.4275 18.7624 17.5975 18.6224C17.6775 18.5524 18.0275 18.2824 17.6775 18.5424C17.3475 18.7924 17.6175 18.5824 17.6875 18.5424C18.0975 18.2724 18.5075 18.0024 18.9475 17.7924C19.0275 17.7524 19.1375 17.7224 19.2175 17.6724C19.1475 17.7224 18.5675 17.9024 19.0475 17.7624C19.2375 17.7024 19.4175 17.6424 19.6075 17.5924C19.7375 17.5624 19.8675 17.5324 19.9875 17.5024C20.0675 17.4824 20.4075 17.4324 19.9975 17.4924C19.5775 17.5524 19.9475 17.5024 20.0275 17.5024C20.2075 17.5024 20.3875 17.4824 20.5675 17.4924C20.7675 17.4924 21.1375 17.5924 21.3175 17.5424C21.2875 17.5524 20.7375 17.4324 21.0575 17.5124C21.1575 17.5424 21.2675 17.5524 21.3775 17.5724C21.6275 17.6224 21.8775 17.6924 22.1175 17.7724C22.2575 17.8124 22.3975 17.8624 22.5375 17.9124C22.6175 17.9424 23.0575 18.1424 22.6875 17.9624C22.3275 17.7924 22.9975 18.1124 23.1275 18.1724C23.3575 18.2824 23.5775 18.4124 23.8075 18.5324C24.2075 18.7624 24.5875 19.0224 24.9675 19.2924C25.2875 19.5224 24.5275 18.9124 24.8175 19.1824C24.8875 19.2524 24.9675 19.3124 25.0375 19.3724C25.2075 19.5224 25.3675 19.6824 25.5275 19.8424C25.6775 20.0024 25.8075 20.2024 25.9675 20.3424C25.9575 20.3324 25.6275 19.8424 25.7775 20.1124C25.8575 20.2424 25.9475 20.3724 26.0275 20.5024C26.1175 20.6624 26.1775 20.8524 26.2875 20.9924C26.2375 20.9224 26.0675 20.3224 26.1875 20.7924C26.2075 20.8824 26.2375 20.9724 26.2575 21.0624C26.2775 21.1424 26.2875 21.2624 26.3175 21.3324C26.0975 20.8624 26.2775 20.7824 26.2775 21.0924C26.2775 21.2024 26.2875 21.3024 26.2775 21.4124C26.2775 21.4824 26.2775 21.5524 26.2675 21.6224C26.2475 21.8524 26.2675 21.7624 26.3075 21.3424C26.2175 21.4524 26.1975 21.8024 26.1575 21.9524C26.1475 21.9824 26.0675 22.3124 26.0175 22.3524C26.0075 22.3624 26.2875 21.8124 26.1075 22.1224C25.8375 22.5924 25.5975 23.0624 25.2975 23.5124C25.1575 23.7224 25.0075 23.9224 24.8575 24.1324C24.8375 24.1624 24.6875 24.3924 24.6675 24.3924C24.6675 24.3924 25.0075 23.9524 24.7875 24.2324C24.4375 24.6724 24.0875 25.1124 23.7175 25.5424C22.3575 27.1424 20.8675 28.6524 19.2875 30.0424C19.1075 30.2024 18.9175 30.3624 18.7375 30.5124C18.6575 30.5824 18.5775 30.6424 18.4975 30.7124C18.0875 31.0524 18.5375 30.6624 18.6075 30.6324C18.1675 30.8124 17.7275 31.2624 17.3075 31.5224C16.9475 31.7424 16.4375 31.8824 16.1175 32.1524C16.1775 32.1024 16.7675 31.9224 16.2675 32.0824C16.1675 32.1124 16.0775 32.1524 15.9775 32.1824C15.7175 32.2624 15.4575 32.3324 15.1875 32.3824C15.0975 32.4024 14.9775 32.4024 14.8875 32.4324C14.9775 32.4024 15.5975 32.3824 15.0775 32.3924C14.8575 32.3924 14.6475 32.4024 14.4275 32.3924C14.3275 32.3924 14.0775 32.3324 13.9875 32.3524C14.0275 32.3424 14.5575 32.4724 14.2475 32.3724C13.9675 32.2924 13.6775 32.2424 13.3975 32.1624C13.1675 32.0924 12.8775 32.0324 12.6675 31.9024C12.6775 31.9124 13.1775 32.1424 12.8775 31.9824C12.7775 31.9324 12.6775 31.8924 12.5775 31.8424C12.1175 31.6124 11.6675 31.3524 11.2375 31.0624C11.0475 30.9424 10.8675 30.8124 10.6875 30.6824C10.2575 30.3824 11.1775 31.0924 10.6175 30.6224C10.2775 30.3424 9.93755 30.0424 9.62755 29.7224C9.30755 29.4024 9.00755 29.0724 8.72755 28.7324C8.28755 28.2024 8.96755 29.0824 8.67755 28.6624C8.53755 28.4524 8.38755 28.2424 8.24755 28.0324C8.02755 27.6824 7.82755 27.3224 7.63755 26.9624C7.55755 26.8124 7.48755 26.4524 7.35755 26.3624C7.36755 26.3724 7.57755 26.9424 7.47755 26.6424C7.42755 26.4924 7.36755 26.3424 7.31755 26.2024C7.17755 25.7824 7.05755 25.3624 6.96755 24.9324C6.92755 24.7524 6.92755 24.3224 6.82755 24.1624C6.83755 24.1824 6.88755 24.7524 6.86755 24.4124C6.85755 24.2324 6.83755 24.0424 6.82755 23.8624C6.79755 23.3824 6.79755 22.9024 6.81755 22.4224C6.82755 22.1624 6.84755 21.9024 6.86755 21.6424C6.87755 21.5424 6.93755 21.2724 6.91755 21.2024C6.96755 21.3524 6.82755 21.7624 6.90755 21.3324C7.09755 20.2924 7.33755 19.2724 7.65755 18.2624C7.81755 17.7524 7.99755 17.2524 8.18755 16.7624C8.26755 16.5524 8.35755 16.3424 8.43755 16.1324C8.65755 15.5724 8.39755 16.1724 8.39755 16.2224C8.38755 16.1224 8.53755 15.9024 8.57755 15.8124C8.97755 14.9124 9.40755 14.0224 9.92755 13.1924C10.0375 13.0224 10.1475 12.8524 10.2575 12.6824C10.3375 12.5724 10.4175 12.4624 10.4875 12.3524C10.6775 12.0724 10.3275 12.5724 10.3275 12.5624C10.3375 12.4124 10.6775 12.1524 10.7875 12.0324C10.9675 11.8324 11.1575 11.6524 11.3575 11.4724C11.4075 11.4324 11.5675 11.3324 11.5875 11.2724C11.5675 11.3324 11.0175 11.6724 11.4575 11.3724C11.6275 11.2624 11.7875 11.1524 11.9575 11.0424C12.1575 10.9224 12.3575 10.8124 12.5675 10.7124C12.6475 10.6724 12.7675 10.6424 12.8375 10.5824C12.4575 10.7424 12.3675 10.7724 12.5775 10.6924C12.6375 10.6724 12.6975 10.6424 12.7675 10.6224C13.1775 10.4724 13.5975 10.3424 14.0175 10.2424C14.2475 10.1824 14.4775 10.1424 14.7075 10.0924C14.8375 10.0724 14.9775 10.0524 15.1075 10.0224C15.5175 9.94241 14.5075 10.0824 14.9175 10.0424C15.8675 9.95241 16.8175 9.90241 17.7775 9.91241C18.7875 9.92241 19.7975 9.98241 20.7975 10.0824C20.9975 10.1024 21.2175 10.1524 21.4175 10.1524C21.3475 10.1524 20.6975 10.0424 21.2375 10.1324C21.3375 10.1524 21.4475 10.1624 21.5475 10.1824C22.0675 10.2624 22.5775 10.3624 23.0875 10.4624C24.0375 10.6624 24.9775 10.9224 25.8975 11.2224C26.3275 11.3624 26.7475 11.5224 27.1575 11.6824C27.8675 11.9624 26.8075 11.5124 27.2975 11.7424C27.5475 11.8624 27.7975 11.9724 28.0475 12.0924C28.9075 12.5224 29.7475 13.0024 30.5375 13.5424C30.7375 13.6824 30.9275 13.8224 31.1275 13.9624C31.4075 14.1524 30.9275 13.8024 30.9275 13.8024C31.0175 13.8924 31.1375 13.9624 31.2275 14.0424C31.5775 14.3324 31.9175 14.6324 32.2475 14.9524C32.5775 15.2724 32.8875 15.6024 33.1975 15.9424C33.3475 16.1124 33.4975 16.2924 33.6375 16.4624C33.6975 16.5324 33.7575 16.6224 33.8175 16.6924C33.6075 16.4824 33.5075 16.2824 33.7575 16.6324C34.2875 17.3724 34.7675 18.1424 35.1675 18.9624C35.2675 19.1624 35.3675 19.3724 35.4575 19.5724C35.6875 20.0824 35.2575 19.0424 35.4475 19.5724C35.6175 20.0224 35.7775 20.4724 35.9075 20.9424C36.0175 21.3424 36.1175 21.7424 36.1875 22.1524C36.2075 22.2524 36.3275 23.0324 36.2475 22.5124C36.1675 22.0024 36.2675 22.8224 36.2775 22.9624C36.3075 23.4024 36.3075 23.8524 36.2975 24.3024C36.2875 24.5224 36.2675 24.7524 36.2475 24.9724C36.2375 25.0724 36.1875 25.4024 36.2575 24.9524C36.3275 24.4724 36.2575 24.9524 36.2375 25.0524C36.1575 25.5324 36.0375 26.0024 35.8875 26.4624C35.8675 26.5224 35.7675 26.7024 35.7875 26.7524C35.7775 26.6924 36.0975 26.1124 35.8475 26.6024C35.7175 26.8524 35.5875 27.0824 35.4375 27.3224C35.1575 27.7824 35.7775 26.9824 35.4075 27.3624C35.2475 27.5324 35.0875 27.7024 34.9075 27.8524C34.8475 27.9024 34.7175 27.9824 34.6775 28.0524C34.8775 27.7224 35.0675 27.7724 34.7975 27.9424C34.5675 28.0924 34.3475 28.2424 34.1175 28.3824C33.2375 28.9124 32.3075 29.3624 31.3875 29.8024C30.4175 30.2724 29.4075 30.8324 28.3775 31.1724C28.4675 31.1424 28.9575 30.9324 28.4375 31.1424C28.3275 31.1824 28.2175 31.2324 28.1075 31.2824C27.8475 31.3824 27.5975 31.4924 27.3375 31.5924C26.8275 31.7924 26.3175 31.9924 25.7975 32.1724C25.2775 32.3524 24.7575 32.5224 24.2275 32.6624C23.9675 32.7324 23.6975 32.7924 23.4275 32.8424C23.3975 32.8524 23.0975 32.9224 23.0875 32.9024C23.0975 32.9224 23.7075 32.8524 23.1875 32.8824C22.9175 32.9024 22.6475 32.9124 22.3775 32.9124C22.2275 32.9124 22.0675 32.8824 21.9175 32.8924C21.5875 32.9024 22.1275 32.9124 22.1675 32.9324C21.9975 32.8324 21.5975 32.8324 21.4075 32.7824C21.1175 32.7124 20.8375 32.6324 20.5575 32.5424C20.3075 32.4624 20.0675 32.3724 19.8275 32.2824C19.7275 32.2424 19.6175 32.2024 19.5175 32.1624C19.1975 32.0424 19.7075 32.2424 19.7175 32.2524C19.1875 32.0724 18.6675 31.7824 18.1575 31.5424C17.1775 31.0724 16.2175 30.5824 15.2575 30.0624C13.4275 29.0624 11.6375 27.9624 9.94755 26.7524C9.61755 26.5124 10.3775 27.1124 10.0675 26.8424C9.98755 26.7724 9.90755 26.7124 9.82755 26.6524C9.64755 26.5024 9.46755 26.3424 9.29755 26.1824C9.12755 26.0224 8.95755 25.8524 8.79755 25.6824C8.72755 25.6124 8.66755 25.5324 8.59755 25.4524C8.55755 25.4024 8.50755 25.3524 8.46755 25.3024C8.32755 25.1324 8.37755 25.2024 8.62755 25.5124C8.58755 25.3524 8.38755 25.1624 8.29755 25.0124C8.17755 24.8124 8.07755 24.5924 7.95755 24.3924C7.79755 24.1024 8.05755 24.6024 8.05755 24.6324C8.06755 24.5824 7.94755 24.3124 7.91755 24.2424C7.83755 23.9724 7.77755 23.7024 7.71755 23.4324C7.58755 22.8724 7.74755 23.9824 7.70755 23.4024C7.69755 23.1624 7.67755 22.9124 7.67755 22.6724C7.67755 22.4224 7.68755 22.1824 7.69755 21.9324C7.70755 21.7924 7.71755 21.6524 7.73755 21.5124C7.77755 21.0824 7.78755 21.5524 7.71755 21.6824C7.81755 21.5124 7.81755 21.1424 7.85755 20.9524C7.90755 20.7124 7.96755 20.4724 8.03755 20.2324C8.15755 19.7924 8.29755 19.3524 8.45755 18.9124C8.50755 18.7824 8.77755 18.1224 8.59755 18.5424C8.40755 18.9924 8.72755 18.2724 8.76755 18.1824C8.96755 17.7724 9.17755 17.3624 9.41755 16.9724C9.64755 16.5824 9.90755 16.2024 10.1675 15.8324C10.4675 15.3924 9.76755 16.3124 10.2375 15.7424C10.3775 15.5624 10.5275 15.3924 10.6875 15.2224C10.9975 14.8824 11.3175 14.5624 11.6575 14.2624C11.8275 14.1124 12.0075 13.9724 12.1775 13.8224C12.4275 13.6024 11.9575 14.0024 11.9575 13.9924C11.9875 13.8924 12.2975 13.7524 12.3775 13.6924C12.7475 13.4424 13.1275 13.2124 13.5275 13.0024C13.7375 12.8924 13.9575 12.7924 14.1775 12.6824C14.4675 12.5324 13.9475 12.7824 13.9375 12.7824C14.0775 12.7724 14.2775 12.6524 14.4175 12.6024C14.8375 12.4524 15.2675 12.3324 15.6975 12.2324C15.9275 12.1824 16.1675 12.1424 16.4075 12.0924C16.7375 12.0224 16.1275 12.1224 16.1175 12.1224C16.2375 12.1324 16.3975 12.0924 16.5275 12.0824C17.0075 12.0424 17.4875 12.0324 17.9575 12.0624C18.1475 12.0724 18.3775 12.1324 18.5675 12.1124C18.4875 12.1224 17.8575 11.9824 18.3775 12.0924C18.5075 12.1224 18.6475 12.1424 18.7775 12.1724C20.3075 12.4924 22.0975 11.7224 22.4675 10.0724C22.8875 8.50241 22.0875 6.66241 20.4475 6.32241Z" fill="#2AC1BC"/>
<path d="M5.89681 21.1824C4.51681 23.0424 4.78681 25.8924 6.05681 27.7324C7.28681 29.5324 9.15681 30.6424 11.0868 31.5724C14.6568 33.3024 18.4568 34.4324 22.3868 34.9824C23.2268 35.1024 23.9368 35.1224 24.6968 34.6824C25.3168 34.3224 25.9168 33.6024 26.0768 32.8924C26.3968 31.4824 25.6468 29.4324 23.9768 29.2024C22.3468 28.9724 20.7368 28.6624 19.1468 28.2324C18.3868 28.0324 17.6368 27.8024 16.8968 27.5424C16.5068 27.4124 16.1268 27.2724 15.7468 27.1224C15.5768 27.0524 15.3968 26.9824 15.2268 26.9124C15.0168 26.8324 15.0868 26.8524 15.4268 27.0024C15.3268 26.9624 15.2168 26.9124 15.1168 26.8724C14.3968 26.5624 13.6968 26.2124 13.0068 25.8424C12.6768 25.6624 12.3468 25.4824 12.0268 25.2824C11.8868 25.1924 11.7468 25.0924 11.6068 25.0024C11.0468 24.6424 12.0568 25.4424 11.5768 24.9824C11.4568 24.8724 11.3268 24.7624 11.2168 24.6424C10.7668 24.1724 11.2268 24.7224 11.2368 24.7224C11.1468 24.7524 11.0268 24.2524 10.9468 24.2424C11.1068 24.6524 11.1468 24.7524 11.0668 24.5424C11.0368 24.4524 11.0068 24.3724 10.9868 24.2824C10.8168 23.7824 10.9868 24.8024 10.9868 24.4524C10.9868 24.3524 11.0268 24.0924 10.9868 24.0024C10.9068 24.4724 10.8968 24.6024 10.9568 24.3624C10.9768 24.2724 11.0068 24.1924 11.0368 24.1124C10.9868 24.2424 10.9368 24.3824 10.8868 24.5124C10.9468 24.4124 11.0168 24.3124 11.0868 24.2224C11.5168 23.6324 11.5768 22.5824 11.3868 21.9124C11.1968 21.2124 10.6568 20.4624 10.0068 20.1224C8.43681 19.2824 6.89681 19.8324 5.89681 21.1824Z" fill="#2AC1BC"/>
<path d="M14.6562 10.3524C16.3962 9.64241 18.2162 9.11241 20.0762 8.81241C20.1962 8.79241 20.3162 8.78241 20.4362 8.76241C20.7962 8.70241 19.6962 8.85241 20.0662 8.81241C20.2762 8.79241 20.4862 8.76241 20.7062 8.74241C21.1662 8.69241 21.6362 8.66241 22.0962 8.65241C22.9062 8.62241 23.7162 8.64241 24.5162 8.70241C24.9062 8.73241 25.2962 8.78241 25.6862 8.82241C24.5762 8.69241 25.3262 8.77241 25.5862 8.82241C25.7962 8.85241 25.9962 8.89241 26.2062 8.93241C26.9462 9.08241 27.6762 9.26241 28.3962 9.49241C28.7362 9.60241 29.0662 9.71241 29.3962 9.84241C29.5362 9.89241 29.6862 9.95241 29.8262 10.0124C30.2762 10.1924 29.1562 9.71241 29.4762 9.86241C29.5762 9.91241 29.6862 9.95241 29.7862 10.0024C30.3962 10.2824 30.9962 10.6024 31.5762 10.9524C31.8462 11.1124 32.1062 11.2924 32.3662 11.4724C32.4762 11.5524 32.5862 11.6324 32.6962 11.7124C33.0662 11.9724 32.1062 11.2424 32.3662 11.4624C32.4462 11.5224 32.5262 11.5824 32.5962 11.6524C33.0462 12.0324 33.4762 12.4324 33.8762 12.8724C33.9662 12.9724 34.0562 13.0824 34.1462 13.1824C34.5662 13.6824 33.7462 12.6324 33.9762 12.9624C34.1362 13.1924 34.2962 13.4124 34.4362 13.6424C34.5562 13.8424 34.6762 14.0524 34.7762 14.2624C34.9062 14.5324 35.0362 15.0624 34.6762 13.9924C34.7162 14.1224 34.7762 14.2424 34.8162 14.3624C34.8962 14.5824 34.9562 14.8124 35.0062 15.0424C35.0262 15.1424 35.0462 15.2424 35.0662 15.3424C35.1362 15.6824 34.9862 14.3424 35.0162 15.0024C35.0262 15.2324 35.0362 15.4524 35.0262 15.6824C35.0062 16.0124 34.8362 16.4324 35.0862 15.3324C35.0562 15.4524 35.0462 15.5824 35.0162 15.7024C34.9662 15.9324 34.8862 16.1424 34.8162 16.3724C34.6562 16.8824 35.1562 15.6724 34.9662 16.0224C34.9062 16.1424 34.8462 16.2624 34.7862 16.3824C34.6662 16.6024 34.5162 16.8024 34.3862 17.0224C34.2362 17.2524 34.9762 16.3124 34.5562 16.7924C34.4462 16.9224 34.3362 17.0424 34.2162 17.1624C33.9962 17.3924 33.7462 17.6024 33.5062 17.8124C33.0262 18.2224 34.1462 17.3524 33.6162 17.7224C33.4562 17.8324 33.2862 17.9524 33.1162 18.0524C32.7762 18.2724 32.4162 18.4724 32.0562 18.6524C31.8662 18.7424 31.6862 18.8324 31.4962 18.9224C31.4162 18.9624 31.3362 18.9924 31.2662 19.0324C30.7862 19.2524 31.9562 18.7524 31.4962 18.9324C30.5262 19.3124 29.5462 19.6224 28.5462 19.8724C27.9962 20.0124 27.4462 20.1324 26.8962 20.2324C26.6062 20.2924 26.3062 20.3424 26.0162 20.3924C25.7962 20.4324 24.5162 20.6124 25.5062 20.4824C24.6762 20.5924 24.0062 20.7424 23.3862 21.3624C22.8662 21.8824 22.4762 22.7324 22.5062 23.4824C22.5662 24.9324 23.8362 26.7024 25.5062 26.4824C29.8662 25.9024 34.2762 24.9024 37.7562 22.0524C40.2562 20.0124 41.4062 16.9024 40.8562 13.7424C40.3362 10.7424 38.1562 8.35241 35.8162 6.58241C33.2562 4.64241 30.0362 3.44241 26.8762 2.97241C22.2062 2.27241 17.4662 2.78241 13.0862 4.57241C12.3362 4.88241 11.7162 5.22241 11.2962 5.95241C10.9162 6.59241 10.7562 7.54241 10.9962 8.26241C11.4162 9.65241 13.1062 10.9824 14.6562 10.3524Z" fill="#2AC1BC"/>
<path d="M12.8958 41.0624C20.0858 40.5324 27.0358 38.2424 33.0958 34.3224C34.7058 33.2724 33.2058 30.6824 31.5858 31.7324C25.9858 35.3624 19.5658 37.5724 12.9058 38.0624C10.9858 38.2024 10.9658 41.2024 12.8958 41.0624Z" fill="#2AC1BC"/>
<path d="M13.2705 21.8424C14.0505 23.6924 15.0805 25.3724 16.5105 26.7924C16.8905 27.1724 17.3005 27.5924 17.7605 27.8524C18.6205 28.3524 19.7005 28.2224 20.4205 27.5324C20.8205 27.1524 21.1005 26.5924 21.4005 26.1424C21.6705 25.7324 21.9505 25.3224 22.2305 24.9224C24.4305 21.7424 26.7905 18.8524 29.4905 15.9724C30.2105 15.2124 30.3005 13.8924 29.4905 13.1424C28.7105 12.4324 27.4305 12.3324 26.6605 13.1424C24.9705 14.9424 23.3605 16.8124 21.8405 18.7524C21.0405 19.7824 20.2505 20.8224 19.4905 21.8824C19.1405 22.3724 18.7905 22.8724 18.4505 23.3724C18.2805 23.6224 18.1105 23.8724 17.9405 24.1224C17.8605 24.2524 17.7705 24.3724 17.6905 24.5024C17.6605 24.5424 17.3905 24.9424 17.5805 24.7124C17.8705 24.5424 18.1705 24.3724 18.4605 24.2024C18.4105 24.2224 18.3605 24.2424 18.3105 24.2624C18.8205 24.3324 19.3405 24.3924 19.8505 24.4624C19.9705 24.5924 19.9505 24.5824 19.7705 24.4124C19.6705 24.3224 19.5705 24.2224 19.4705 24.1324C19.3205 23.9924 19.1805 23.8424 19.0305 23.6924C18.8905 23.5424 18.7505 23.3924 18.6205 23.2324C18.5305 23.1324 18.4405 23.0224 18.3605 22.9124C18.4405 23.0224 18.4405 23.0124 18.3605 22.9124C18.1005 22.5524 17.8505 22.1824 17.6305 21.7924C17.5305 21.6124 17.4305 21.4324 17.3405 21.2524C17.3105 21.1924 17.0005 20.5224 17.1105 20.8024C16.7105 19.8424 15.7705 19.0424 14.6505 19.4024C13.7405 19.6824 12.8305 20.8124 13.2705 21.8424Z" fill="white"/>
<path d="M14.6286 34.7024C10.3086 31.3024 6.21864 27.2424 3.92864 22.1624C3.53864 21.3024 3.19864 20.3224 2.94864 19.3624C2.68864 18.3724 2.56864 17.6524 2.50864 16.7424C2.38864 14.9224 2.53864 13.5824 3.10864 11.8824C3.16864 11.6924 3.23864 11.5124 3.30864 11.3224C3.34864 11.2324 3.37864 11.1424 3.41864 11.0424C3.31864 11.2824 3.46864 10.9224 3.47864 10.9024C3.65864 10.5324 3.83864 10.1624 4.04864 9.80241C4.47864 9.07241 4.87864 8.51241 5.32864 7.99241C6.49864 6.63241 7.59864 5.75241 9.09864 4.87241C12.2786 3.03241 15.9686 2.32241 19.7086 2.49241C24.0586 2.69241 28.3886 4.20241 32.1686 6.50241C34.0886 7.67241 35.6886 8.84241 37.1286 10.5624C36.8286 10.2124 37.2386 10.7224 37.2586 10.7524C37.3386 10.8624 37.4086 10.9624 37.4886 11.0724C37.6686 11.3324 37.8486 11.6024 38.0286 11.8724C38.3986 12.4324 38.7486 13.0124 39.0786 13.6024C39.6286 14.5824 40.1386 15.5924 40.5486 16.6324C40.9286 17.6124 41.2486 18.6124 41.4686 19.6324C41.6786 20.6124 41.7686 21.2424 41.7986 22.2624C41.8086 22.6924 41.8086 23.1224 41.7886 23.5424C41.7786 23.7524 41.7586 23.9624 41.7386 24.1724C41.7286 24.2524 41.7186 24.3424 41.7086 24.4224C41.6886 24.5724 41.6886 24.5824 41.7086 24.4624C41.6986 24.5424 41.6886 24.6224 41.6686 24.7024C41.5286 25.5424 41.3186 26.3624 41.0286 27.1624C40.9586 27.3524 40.8886 27.5324 40.8086 27.7224C40.8886 27.5324 40.6786 28.0124 40.6486 28.0824C40.4686 28.4624 40.2786 28.8324 40.0686 29.1924C39.6686 29.8724 39.1386 30.6224 38.7786 31.0624C37.6686 32.4124 36.3486 33.5824 35.0486 34.4824C28.7686 38.8624 20.6186 40.3824 13.0386 39.5824C12.1686 39.4924 11.3786 39.3724 10.4186 39.1724C9.75864 39.0424 9.06864 39.3624 8.87864 40.0424C8.70864 40.6624 9.08864 41.4424 9.74864 41.5824C17.9186 43.2124 27.0186 42.0124 34.3086 37.8924C37.5986 36.0324 40.6086 33.4324 42.4286 30.0824C44.3386 26.5724 44.7186 22.5424 43.8086 18.6824C43.2586 16.3424 42.2586 14.0924 41.0486 12.0224C39.8886 10.0324 38.5586 8.12241 36.7486 6.66241C32.7886 3.46241 27.9186 1.14241 22.8786 0.322413C15.1086 -0.927587 5.89864 1.37241 1.80864 8.70241C-0.111363 12.1424 -0.441363 16.1824 0.528637 19.9624C1.82864 25.0724 5.20864 29.4924 8.94864 33.0824C10.1986 34.2824 11.5086 35.4024 12.8686 36.4624C13.3986 36.8824 14.1186 36.9824 14.6386 36.4624C15.0686 36.0424 15.1686 35.1224 14.6286 34.7024Z" fill="black"/>
<path d="M12.6405 34.7824C11.2305 36.2924 9.7805 37.7724 8.2905 39.2124C7.7205 39.7624 7.7005 40.7924 8.2905 41.3324C8.9005 41.8924 9.8105 41.9124 10.4105 41.3324C11.9005 39.8924 13.3505 38.4124 14.7605 36.9024C15.3005 36.3324 15.3705 35.3424 14.7605 34.7824C14.1805 34.2524 13.2105 34.1724 12.6405 34.7824Z" fill="black"/>
</svg>
