<svg width="36" height="36" viewBox="0 0 36 36" fill="none" xmlns="http://www.w3.org/2000/svg">
<path d="M30.3901 17.1148C30.0901 13.4148 28.5901 10.0148 25.3901 7.91482C23.1901 6.41482 20.1901 5.71482 17.5901 5.91482C11.1901 6.11482 5.29007 11.3148 5.59007 18.0148C5.69007 19.9148 6.29007 21.7148 7.19007 23.3148C7.39007 23.9148 7.69007 24.4148 7.99007 24.9148C10.0901 28.4148 14.2901 30.2148 18.1901 30.1148C25.1901 30.1148 30.8901 24.1148 30.3901 17.1148Z" fill="#FFC200"/>
<path fill-rule="evenodd" clip-rule="evenodd" d="M25.8907 7.16665C29.3802 9.45998 30.9719 13.1514 31.2874 17.042L31.2881 17.0506C31.8257 24.578 25.7086 31.0082 18.2019 31.0147C14.0529 31.1174 9.51746 29.2093 7.21858 25.3778L7.20217 25.3505C6.92298 24.8852 6.59563 24.3398 6.36514 23.683C5.43084 22.0001 4.79842 20.0923 4.69156 18.0621L4.69119 18.055C4.36498 10.7697 10.7443 5.23893 17.5418 5.01584C20.3178 4.80713 23.512 5.54746 25.8907 7.16665ZM24.8833 8.65835C22.8686 7.28465 20.076 6.6262 17.6593 6.8121L17.6389 6.81367L17.6184 6.81431C11.6247 7.00162 6.21803 11.8653 6.48926 17.971C6.58142 19.71 7.13195 21.3752 7.97474 22.8735L8.01692 22.9485L8.04414 23.0301C8.20834 23.5228 8.45644 23.9423 8.76206 24.4517C10.6611 27.6167 14.5193 29.3086 18.1673 29.215L18.1788 29.2148H18.1903C24.6769 29.2148 29.9523 23.6501 29.4929 17.1832C29.2078 13.678 27.8012 10.5734 24.8965 8.66719L24.8899 8.66283L24.8833 8.65835Z" fill="black"/>
<path d="M23.2898 14.0148C23.0898 13.6148 22.5898 13.5148 22.2898 13.9148C21.4898 14.7148 21.1898 16.9148 20.8898 18.1148C20.6898 18.8148 20.4898 19.5148 20.2898 20.2148C19.6898 18.3148 19.5898 15.7148 18.4898 14.1148C17.9898 13.4148 17.1898 13.5148 16.8898 14.3148C16.3898 15.9148 15.8898 18.1148 15.1898 19.8148C14.9898 17.9148 14.4898 15.4148 13.6898 13.9148C13.3898 13.3148 12.4898 13.5148 12.4898 14.3148C12.4898 16.8148 13.4898 20.4148 14.0898 22.9148C14.2898 23.6148 15.1898 24.0148 15.5898 23.4148C16.6898 21.8148 17.2898 19.2148 17.7898 17.2148C18.4898 19.2148 18.6898 22.0148 19.9898 23.7148C20.3898 24.3148 21.3898 24.0148 21.4898 23.3148C21.7898 21.6148 22.1898 20.0148 22.6898 18.4148C23.0898 17.1148 23.9898 15.1148 23.2898 14.0148Z" fill="black"/>
<path d="M11.6898 18.6148C11.2898 18.6148 10.8898 18.3148 10.7898 17.8148C10.6898 17.3148 11.0898 16.8148 11.5898 16.8148C15.8898 16.1148 19.7898 16.2148 24.3898 16.3148C24.8898 16.3148 25.2898 16.7148 25.2898 17.2148C25.2898 17.7148 24.7898 18.1148 24.3898 18.1148C19.8898 18.0148 16.0898 18.0148 11.8898 18.6148C11.7898 18.6148 11.6898 18.6148 11.6898 18.6148Z" fill="black"/>
</svg>
