<?xml version="1.0" encoding="utf-8"?>
<!-- Generator: Adobe Illustrator 25.2.3, SVG Export Plug-In . SVG Version: 6.00 Build 0)  -->
<svg version="1.1" id="Layer_1" xmlns="http://www.w3.org/2000/svg" xmlns:xlink="http://www.w3.org/1999/xlink" x="0px" y="0px"
	 width="21px" height="24px" viewBox="0 0 21 24" style="enable-background:new 0 0 21 24;" xml:space="preserve">
<style type="text/css">
	.st0{fill:#2AC1BC;}
</style>
<path class="st0" d="M20.4,10.4C20.4,4.7,15.8,0,10.2,0C4.6,0,0,4.7,0,10.4c0,0,0,0,0,0.1C0,16.3,4.6,21,10.2,21v3
	c5.6-1.4,10-6.7,10.2-12.9c0-0.1,0-0.1,0-0.2V11c0-0.1,0-0.1,0-0.2C20.4,10.7,20.4,10.6,20.4,10.4z M9.6,12.4c0,0.9-0.8,1.7-1.6,1.7
	H5c-0.9,0-1.6-0.8-1.6-1.7V9.3c0-0.9,0.8-1.7,1.6-1.7h3.7c0.4,0,0.8,0.3,0.8,0.8c0,0.4-0.3,0.9-0.8,0.9h-3c-0.4,0-0.8,0.3-0.8,0.8
	v1.7c0,0.4,0.3,0.8,0.8,0.8h2c0.2,0,0.3-0.1,0.3-0.3V12c0-0.1-0.1-0.1-0.1-0.1H7c-0.4,0-0.8-0.3-0.8-0.7c0-0.4,0.3-0.8,0.8-0.8h1.8
	c0.4,0,0.8,0.3,0.8,0.8V12.4z M17.2,12.4c0,0.9-0.8,1.7-1.6,1.7h-3c-0.9,0-1.6-0.8-1.6-1.7V9.3c0-0.9,0.8-1.7,1.6-1.7h3
	c0.9,0,1.6,0.8,1.6,1.7V12.4z"/>
<path class="st0" d="M14.8,9.3h-1.6c-0.4,0-0.8,0.3-0.8,0.8v1.7c0,0.4,0.3,0.8,0.8,0.8h1.6c0.4,0,0.8-0.3,0.8-0.8v-1.7
	C15.6,9.7,15.3,9.3,14.8,9.3z"/>
</svg>
