
<svg xmlns="http://www.w3.org/2000/svg" viewBox="0 0 68 29">
  <title>뭉치고 로고</title>
  <path d="M16.7,12.5H1.4C0.6,12.5,0,13.1,0,14c0,0.8,0.6,1.4,1.4,1.4h4.1C6.3,15.4,7,16.1,7,17c0,0.8-0.4,1.3-1,1.5
	c-2.1,0.9-3.6,2.8-3.6,4.9c0,3,3,5.5,6.5,5.5c3.6,0,6.5-2.5,6.5-5.5c0-2.1-1.5-4-3.6-4.9c-0.6-0.3-1-0.9-1-1.5
	c0-0.9,0.7-1.6,1.6-1.6h4.1c0.7,0,1.4-0.6,1.4-1.4C18.2,13.1,17.6,12.5,16.7,12.5z M11.4,23.6c0,1.1-1.1,2-2.3,2
	c-1.2,0-2.3-0.9-2.3-2c0-1.1,1.1-2,2.3-2C10.3,21.6,11.4,22.4,11.4,23.6z M12.1,0H6C4.3,0,2.8,1.5,2.8,3.4v3.5
	c0,1.9,1.5,3.4,3.3,3.4h6c1.8,0,3.3-1.5,3.3-3.4V3.4C15.4,1.5,13.9,0,12.1,0z M11.4,5.9c0,0.8-0.6,1.4-1.4,1.4h-2
	c-0.7,0-1.5-0.6-1.5-1.4V4.3c0-0.8,0.6-1.4,1.4-1.4h2c0.7,0,1.4,0.6,1.4,1.4v1.6H11.4z M21,16.4c-0.9,0.6-0.9,1.9-0.1,2.6
	c0.6,0.6,1.6,0.6,2.3,0.1l2.1-1.8c0.6-0.5,1.5-0.5,2.1,0l2.1,1.8c0.6,0.6,1.7,0.5,2.3-0.1c0.7-0.8,0.6-2-0.1-2.6l-3-2.4
	c-0.2-0.3-0.4-0.5-0.4-0.9v-0.8c0-0.5,0.4-1,1-1h1.8c0.7,0,1.4-0.6,1.5-1.4c0-0.9-0.6-1.5-1.4-1.5h-2.2c-0.4,0-0.6-0.3-0.6-0.6V7.2
	c0-1.1-0.9-2-2-2c-1.1,0-2,0.9-2,2v0.8c0,0.4-0.2,0.6-0.6,0.6h-2.2c-0.7,0-1.4,0.6-1.5,1.4c0,0.9,0.6,1.5,1.4,1.5h1.7
	c0.5,0,1,0.4,1,1v0.9c0,0.4-0.1,0.6-0.4,0.9L21,16.4z M36.9,7.3c-1.1,0-2,0.9-2,2V18c0,1.1,0.9,2,2,2c1.1,0,2-0.9,2-2V9.3
	C38.7,8.3,37.9,7.3,36.9,7.3z M68,13.5c0-6.6-5.2-11.9-11.6-11.9S44.9,6.9,44.9,13.5c0,0,0,0,0,0.1c0,6.6,5.2,11.9,11.6,11.9v3.4
	c6.4-1.6,11.3-7.6,11.6-14.6c0-0.1,0-0.1,0-0.3v0.1c0-0.1,0-0.1,0-0.3C68,13.7,68,13.6,68,13.5z M55.8,15.8c0,1-0.9,1.9-1.8,1.9
	h-3.4c-1,0-1.8-0.9-1.8-1.9v-3.5c0-1,0.9-1.9,1.8-1.9h4.2c0.5,0,0.9,0.4,0.9,0.9c0,0.5-0.4,1-0.9,1h-3.4c-0.5,0-0.9,0.4-0.9,0.9V15
	c0,0.5,0.4,0.9,0.9,0.9h2.2c0.2,0,0.4-0.1,0.4-0.4v-0.3c0-0.1-0.1-0.1-0.1-0.1h-0.9c-0.5,0-0.9-0.4-0.9-0.8c0-0.5,0.4-0.9,0.9-0.9
	H55c0.5,0,0.9,0.4,0.9,0.9V15.8z M64.4,15.8c0,1-0.9,1.9-1.8,1.9h-3.4c-1,0-1.8-0.9-1.8-1.9v-3.5c0-1,0.9-1.9,1.8-1.9h3.4
	c1,0,1.8,0.9,1.8,1.9V15.8z M61.7,12.2h-1.8c-0.5,0-0.9,0.4-0.9,0.9V15c0,0.5,0.4,0.9,0.9,0.9h1.8c0.5,0,0.9-0.4,0.9-0.9v-1.9
	C62.6,12.6,62.2,12.2,61.7,12.2z" fill="#2AC1BC"/>
</svg>
