
<svg xmlns="http://www.w3.org/2000/svg" xmlns:xlink="http://www.w3.org/1999/xlink" x="0px"
	 y="0px" width="20px" height="13px" viewBox="0 0 20 13" style="enable-background:new 0 0 20 13;" xml:space="preserve">
	<path fill="#2AC1BC" d="M10.3,0.6C10.2,0.3,10,0.1,9.7,0.1C9.4,0.1,9.1,0.2,9,0.4C8.8,0.9,8.7,1.3,8.6,1.8C8.5,2.2,8.5,2.6,8.5,2.9
		C8.4,3,8.3,3,8.1,3C7.9,3,7.6,3,7.3,3c-0.1,0-0.2,0-0.3,0.1c-0.1,0-0.3,0.1-0.4,0.2C6.5,3.4,6.3,3.6,6.3,3.8c0,0.2,0.1,0.4,0.3,0.5
		c0.4,0.3,1,0.3,1.5,0.4c0.1,0,0.1,0,0.2,0c0,0,0,0,0,0.1c0,0.5-0.2,1.1,0,1.6C8.5,6.7,8.7,7,9.2,7.1c0.4,0.1,0.9-0.1,1-0.5
		c0.3-0.5,0.2-1.1,0.2-1.7c0-0.5,0-0.9,0-1.4c0-0.5,0-0.9,0-1.4C10.5,1.6,10.5,1.1,10.3,0.6z"/>
	<path fill="#2AC1BC" d="M19.9,4.7c-0.1-0.4-0.5-0.6-0.8-0.6c-0.3,0.1-0.7,0.4-0.7,0.8c0,0.1,0,0.2,0,0.4c0,0.1,0,0.1,0,0.2
		c0,0-0.1,0.2,0,0.1c0,0-0.2,0.3-0.1,0.2C18.1,6,18.1,6,17.9,6.1c0.1,0-0.2,0.1-0.2,0.1c0.1,0-0.3,0-0.2,0c-0.1,0-0.2,0-0.3-0.1
		c0.1,0-0.2-0.2-0.1-0.1c-0.1-0.1-0.2-0.2-0.3-0.4c-0.3-0.5-0.5-0.9-1-1.2c-0.8-0.5-1.9-0.6-2.7,0c-0.5,0.3-0.9,0.9-1,1.4
		C12,6.3,12,7.1,12.3,7.5c0.2,0.3,0.7,0.4,0.9,0.1c0.2-0.3,0.3-0.5,0.4-0.8c0.1-0.2,0.1-0.3,0.2-0.5c0-0.1,0.1-0.1,0.1-0.2
		c0.1-0.1,0.1-0.1,0-0.1c0-0.1,0.3-0.2,0.1-0.1c0,0,0.1,0,0.1-0.1c0.1,0,0.1,0,0.2-0.1c-0.2,0.1,0.1,0,0.1,0c0,0,0,0,0,0
		c0,0,0.1,0,0.1,0c0,0,0.1,0,0.1,0c0,0,0.1,0.1,0.1,0.1C14.9,6,15,6.2,15,6c0.1,0.1,0.1,0.2,0.2,0.3c0.1,0.2,0.2,0.4,0.4,0.6
		c0.8,1,2.2,1.3,3.3,0.6C19.7,6.9,20.2,5.7,19.9,4.7z"/>
	<path fill="#2AC1BC" d="M2.7,1.6C2.9,1.6,2.8,1.6,2.7,1.6L2.7,1.6z"/>
	<path fill="#2AC1BC" d="M5.6,7.1C5.9,7,6.2,6.8,6.2,6.4c0-0.3-0.2-0.6-0.5-0.7c-0.5-0.1-1-0.1-1.5-0.1c-0.5,0-1,0-1.5,0
		c-0.2,0-0.5,0-0.7,0c-0.1,0-0.2,0-0.3,0c0,0,0,0-0.1,0c0-0.2,0.1-0.5,0.1-0.5c0-0.2,0-0.5,0.1-0.7c0.4,0,0.8,0,1.1,0
		c0.6,0,1.1-0.1,1.7-0.1c0.2,0,0.4-0.1,0.6-0.2c0.1-0.1,0.3-0.4,0.2-0.6C5.3,3,5,2.6,4.5,2.6c-0.6,0-1.1,0-1.7,0.1
		c-0.3,0-0.7,0.1-1,0.2c0-0.2,0-0.4,0-0.6c0-0.1,0-0.4,0-0.5c0.1,0,0.1,0,0,0c0,0,0,0,0,0c0.2,0,0.4,0,0.6-0.1c0,0,0,0,0,0
		c0,0,0,0,0,0c0.1,0,0.2,0,0.2,0c0,0,0,0,0,0c0,0,0,0,0,0c0.2,0,0.5,0,0.7-0.1c0.6,0,1.2-0.1,1.7-0.2C5.5,1.3,5.6,1,5.6,0.7
		c0-0.3-0.3-0.5-0.6-0.5C4.4,0.1,3.9,0.1,3.3,0.1c-0.1,0-0.3,0-0.4,0c-0.1,0-0.1,0-0.2,0c0,0,0.1,0,0.1,0C2.5,0.1,2.3,0,2.1,0
		c-0.4,0-0.9,0-1.2,0.3C0.4,0.6,0.1,1.1,0.1,1.7c0,0.5,0.1,1.1,0.1,1.6c0,0.5,0,1.1-0.1,1.6c-0.1,0.6-0.3,1.2,0,1.7
		c0.3,0.5,0.9,0.7,1.5,0.7c0.6,0,1.3,0,1.9,0c0.3,0,0.6,0,1,0C4.9,7.3,5.3,7.3,5.6,7.1z M1.4,5.6C1.4,5.6,1.4,5.6,1.4,5.6
		C1.4,5.6,1.4,5.6,1.4,5.6C1.3,5.6,1.4,5.6,1.4,5.6z"/>
	<path fill="#2AC1BC" d="M7.1,7.3c-1.6,0-2.9,1.3-2.9,2.8S5.5,13,7.1,13s2.9-1.3,2.9-2.8S8.7,7.3,7.1,7.3z M7.1,11.3
		c-0.7,0-1.2-0.5-1.2-1.1S6.4,9,7.1,9s1.2,0.5,1.2,1.1S7.7,11.3,7.1,11.3z"/>
</svg>
