<svg width="17" height="17" viewBox="0 0 17 17" fill="none" xmlns="http://www.w3.org/2000/svg">
<path d="M8.49836 6.28076C7.23024 6.28076 6.15234 7.35866 6.15234 8.62678C6.15234 9.89489 7.23024 10.9728 8.49836 10.9728C9.76647 10.9728 10.8444 9.89489 10.8444 8.62678C10.8444 7.35866 9.76647 6.28076 8.49836 6.28076Z" fill="#999999"/>
<path d="M11.4801 1.52539H5.58336C3.30075 1.52539 1.52539 3.30075 1.52539 5.51996V11.4167C1.52539 13.6993 3.30075 15.4747 5.58336 15.4747H11.4801C13.6993 15.4747 15.4747 13.6993 15.4747 11.4167V5.51996C15.4747 3.30075 13.6993 1.52539 11.4801 1.52539ZM8.50003 12.1776C6.47104 12.1776 4.8859 10.529 4.8859 8.56343C4.8859 6.59785 6.47104 4.8859 8.50003 4.8859C10.529 4.8859 12.1142 6.53445 12.1142 8.50003C12.1142 10.4656 10.529 12.1776 8.50003 12.1776ZM12.241 5.64677C11.7971 5.64677 11.4167 5.26633 11.4167 4.82249C11.4167 4.37865 11.7971 3.99822 12.241 3.99822C12.6848 3.99822 13.0652 4.37865 13.0652 4.82249C13.0652 5.26633 12.6848 5.64677 12.241 5.64677Z" fill="#999999"/>
</svg>
