<?xml version="1.0" encoding="utf-8"?>
<!-- Generator: Adobe Illustrator 25.2.3, SVG Export Plug-In . SVG Version: 6.00 Build 0)  -->
<svg version="1.1" id="Layer_1" xmlns="http://www.w3.org/2000/svg" xmlns:xlink="http://www.w3.org/1999/xlink" x="0px" y="0px"
	 viewBox="0 0 19.9 22.1" style="enable-background:new 0 0 19.9 22.1;" xml:space="preserve">
<style type="text/css">
	.st0{fill-rule:evenodd;clip-rule:evenodd;fill:#FFFFFF;}
</style>
<path class="st0" d="M18.8,1.6c-0.9-1.2-2.1-1.6-3.3-1.6c-1.2,0.1-2.3,0.7-3.1,1.5c-0.8,0.8-1.5,1.8-1.7,3c-0.2,1.2,0.1,2.4,1.1,3.4
	L11.8,8c0,0,0.1,0.1,0.1,0.1c0,0,0,0,0,0.1c0,0,0,0,0,0c0,0,0,0.1-0.1,0.2c-0.1,0.1-0.2,0.3-0.3,0.6c-0.3,0.4-0.6,1-1,1.5
	c-0.8,1.1-1.6,2.1-2,2.5c0,0,0,0,0,0c-0.4,0.4-0.6,0.6-0.9,0.7c-0.1,0-0.2,0.1-0.2,0c0,0-0.1,0-0.2-0.1c-1.4-1.1-3.2-1-4.5-0.3
	C1.3,13.9,0.2,15.3,0,17l0,0c-0.3,2.4,1.4,4.4,3.4,4.9c0,0,0,0,0,0c1.6,0.4,3.4,0.1,4.9-0.6c4-1.8,7.3-4.8,9.5-8.8c0,0,0,0,0,0l0,0
	c0.5-0.9,1-1.9,1.3-3c0.6-1.3,0.7-3,0.7-4.2C19.9,4.1,19.7,2.7,18.8,1.6z M17.4,8.7c0,0,0,0.1,0,0.1c-0.3,0.9-0.7,1.7-1.2,2.7
	c-2,3.6-5,6.3-8.6,7.9c0,0,0,0,0,0C6.4,20,5.1,20.2,4,20c-1.2-0.3-2.1-1.5-1.9-2.8c0.1-0.9,0.7-1.8,1.5-2.2c0.8-0.4,1.6-0.4,2.4,0.2
	c0,0,0,0,0.1,0.1c0.4,0.2,0.8,0.4,1.2,0.4c0.4,0,0.8-0.1,1.1-0.2c0.6-0.3,1-0.7,1.3-1c0,0,0,0,0,0c0.6-0.5,1.6-1.7,2.3-2.8
	c0.4-0.6,0.8-1.1,1.1-1.6c0.2-0.2,0.3-0.5,0.4-0.7c0.1-0.2,0.2-0.4,0.2-0.6c0.2-0.4,0.2-0.8,0-1.2c-0.1-0.4-0.4-0.7-0.5-0.8
	l-0.1-0.1c0,0,0,0,0,0c-0.5-0.5-0.6-1.1-0.5-1.7c0.1-0.6,0.5-1.3,1.1-1.9C14.3,2.4,15,2.1,15.6,2c0.6,0,1.1,0.1,1.6,0.8c0,0,0,0,0,0
	c0.5,0.6,0.7,1.5,0.7,2.5C17.9,6.6,17.8,7.9,17.4,8.7z"/>
</svg>
