<?xml version="1.0" encoding="utf-8"?>
<!-- Generator: Adobe Illustrator 24.0.0, SVG Export Plug-In . SVG Version: 6.00 Build 0)  -->
<svg version="1.1" id="레이어_1" xmlns="http://www.w3.org/2000/svg" xmlns:xlink="http://www.w3.org/1999/xlink" x="0px"
	 y="0px" viewBox="0 0 10.12 13.1" style="enable-background:new 0 0 10.12 13.1;" xml:space="preserve">
<style type="text/css">
	.st0{fill:#B5B5B5;}
	.st1{fill:#FFFFFF;}
</style>
<path class="st0" d="M10.06,4.13C9.97,3.61,9.79,3.1,9.52,2.62C8.88,1.49,7.84,0.6,6.59,0.21C4.7-0.36,2.3,0.24,1.16,1.88
	C0.72,2.52,0.21,3.1,0.07,3.89c-0.41,2.23,1.09,4.3,2.33,6c0.67,0.92,1.36,1.82,1.94,2.8c0.25,0.42,0.9,0.6,1.22,0.14
	c0.72-1.03,1.54-1.97,2.31-2.96C8.59,8.94,9.3,7.97,9.74,6.88C10.1,6,10.21,5.04,10.06,4.13z M2.5,8.06c0,0.01,0.01,0.01,0.01,0.02
	C2.5,8.08,2.49,8.07,2.49,8.06C2.49,8.06,2.5,8.06,2.5,8.06z"/>
<g>
	<path class="st1" d="M5.17,4.09c-0.01,0-0.02,0-0.03,0c0.1,0.03,0.2,0.05,0.3,0.08c-0.01,0-0.01,0-0.02,0
		C5.58,4.28,5.75,4.4,5.91,4.53c0,0-0.01-0.01-0.01-0.01c0.06,0.4,0.12,0.81,0.18,1.21c0,0,0-0.01,0-0.01C6.03,5.81,5.98,5.9,5.93,6
		c0,0,0.01-0.01,0.01-0.01C5.86,6.06,5.79,6.13,5.71,6.21C5.83,6.11,5.83,6.18,6,5.93C6.09,5.8,6.15,5.66,6.22,5.52
		C6.16,5.63,6.1,5.73,6.04,5.83C6.07,5.79,6.1,5.76,6.13,5.72C6.04,5.81,5.96,5.9,5.87,5.99C5.89,5.97,5.9,5.96,5.92,5.95
		C5.81,6.02,5.7,6.08,5.6,6.14c0.01,0,0.02-0.01,0.03-0.01C5.25,6.14,4.87,6.14,4.49,6.15c0.01,0,0.02,0.01,0.02,0.01
		C4.25,5.9,3.98,5.64,3.71,5.39c0,0.01,0.01,0.01,0.01,0.02C3.69,5.28,3.65,5.16,3.61,5.03c0,0.01,0,0.02,0,0.03
		C3.71,4.69,3.8,4.31,3.9,3.94c0,0.01-0.01,0.01-0.01,0.02c0.09-0.09,0.18-0.19,0.27-0.28C4.14,3.69,4.12,3.7,4.11,3.71
		C4.23,3.64,4.34,3.57,4.46,3.5C4.19,3.64,3.89,3.82,3.73,4.09C3.54,4.34,3.43,4.61,3.4,4.92C3.36,5.23,3.41,5.52,3.53,5.8
		c0.22,0.49,0.63,0.82,1.15,0.95c0.52,0.13,1.05,0.04,1.48-0.3c0.45-0.36,0.76-1.02,0.62-1.6C6.67,4.4,6.49,3.98,6.1,3.7
		c-0.13-0.1-0.29-0.18-0.43-0.25C5.79,3.52,5.9,3.59,6.02,3.65C6.01,3.65,6,3.64,5.99,3.63C6.08,3.72,6.17,3.81,6.26,3.9
		C6.11,3.75,5.99,3.63,5.8,3.52c-0.18-0.1-0.36-0.17-0.57-0.2c-0.5-0.08-1.07,0.19-1.37,0.59C3.51,4.37,3.48,4.97,3.64,5.5
		c0.2,0.7,0.94,1.14,1.65,0.93c0.72-0.21,1.06-1,0.77-1.68C5.92,4.42,5.54,4.09,5.17,4.09L5.17,4.09z"/>
</g>
</svg>
