<?xml version="1.0" encoding="utf-8"?>
<!-- Generator: Adobe Illustrator 25.2.3, SVG Export Plug-In . SVG Version: 6.00 Build 0)  -->
<svg version="1.1" id="Layer_1" xmlns="http://www.w3.org/2000/svg" xmlns:xlink="http://www.w3.org/1999/xlink" x="0px" y="0px"
	 viewBox="0 0 12 12" style="enable-background:new 0 0 12 12;" xml:space="preserve">
<style type="text/css">
	.st0{fill:#D1CFC7;}
	.st1{fill:#FF4040;}
	.st2{fill:#3A3A3A;}
</style>
<path class="st0" d="M11.9,3.4c0-0.7-0.5-1.3-1-1.3h-0.1c-1.7,0-4.4,0-6-0.1C3.4,1.9,2.2,1.7,0.9,2.1C0.6,2.2,0.3,2.6,0.2,3
	C0,4.4,0.1,6.2,0.1,7.5c0,1.1-0.2,2.5,0.3,3.4c0.5,0.8,1,0.9,1.7,1c1.2,0,2.8-0.1,4.1,0c1.4,0.2,5,0.1,5.3-0.9c0.3-1,0.4-2,0.4-3
	C11.8,6.5,11.9,4.9,11.9,3.4z"/>
<path class="st1" d="M11.3,4.7c0.7-0.2,0.9-1.1,0.7-1.8c-0.2-1-0.4-1.4-1.1-1.6c-0.5-0.1-2.2-0.1-2.7-0.1C7,1.3,5.8,1.2,4.8,1.2
	S2.7,1,1.5,1.1C1,1.1,0.4,1.5,0.2,2.2C0,2.7,0,3.4,0,3.8c0.2,1,1.2,0.8,1.8,0.8c1.4,0,3,0.1,4.5,0.2c0.8,0,1.5,0,2.3,0
	c0.4,0,1.7,0,2.1,0C10.8,4.8,11.1,4.8,11.3,4.7z"/>
<path class="st2" d="M2.6,0.5C2.5,1.1,2.5,1.8,2.5,2.3c0,0.6,1.6,0.6,1.6,0c0-0.6,0-1.3,0.1-1.8C4.3-0.2,2.7-0.2,2.6,0.5z M7.7,0.6
	C7.5,1.1,7.5,1.8,7.6,2.3c0.1,0.6,1.7,0.6,1.6,0C9,1.8,9,1.3,9.1,0.8C9.2,0.2,7.8-0.1,7.7,0.6z"/>
</svg>
