<?xml version="1.0" encoding="utf-8"?>
<!-- Generator: Adobe Illustrator 25.2.3, SVG Export Plug-In . SVG Version: 6.00 Build 0)  -->
<svg version="1.1" id="Layer_1" xmlns="http://www.w3.org/2000/svg" xmlns:xlink="http://www.w3.org/1999/xlink" x="0px" y="0px"
	 viewBox="0 0 16.1 12.4" style="enable-background:new 0 0 16.1 12.4;" xml:space="preserve">
<style type="text/css">
	.st0{fill:#222222;}
</style>
<path class="st0" d="M16,1.8c0-0.2-0.1-0.3-0.1-0.4c0-0.1,0-0.1-0.1-0.2c0-0.2-0.1-0.3-0.3-0.5c-1-0.6-2.5-0.5-3.7-0.5
	C10.5,0.1,9.3,0,8.1,0C6.8,0,5.6,0,4.4,0C3.2,0.1,1.7,0,0.7,0.6C0.6,0.7,0.5,0.7,0.5,0.8c-0.1,0-0.1,0.1-0.1,0.1
	C0.3,1,0.3,1.1,0.3,1.1C0.2,1.2,0.2,1.3,0.2,1.4c0,0.2-0.1,0.4-0.1,0.7C0,2.6,0,3.3,0,3.8c0,0.6,0.1,1,0.1,1.4
	c0.1,1.6,0.1,2.2,0.6,4.4c0.2,0.9,0.5,1.9,1.5,2.6c0,0,0,0,0.1,0c0.2,0.1,0.3,0.1,0.4,0.1c0.1,0,0.2,0,0.3,0c0,0,0,0,0,0
	c0.2,0,0.2,0,0.2,0c0,0,0.1,0,0.1,0c0.9,0.2,1.8,0.1,2.6,0c0.2,0,0.4,0,0.5-0.1c0.6-0.1,1.2-0.1,1.8-0.1c0.1,0,0.3,0,0.4,0
	c2,0.1,3.6,0.2,5.7,0c0.5,0,0.9-0.3,1.1-0.6c0.2-0.3,0.3-0.7,0.3-1v0c0-3.3,0-3.4,0.2-6.7C16.1,3.2,16.1,2.4,16,1.8z M4.4,1.6
	c1.2,0,2.4,0,3.6,0c2,0,3.9,0.1,5.8,0.4C13,3.8,11.3,5.6,8.2,6.9c0,0,0,0,0,0c0,0-0.1,0-0.3-0.1C7.6,6.8,7.3,6.6,6.9,6.3
	C6.4,5.9,6,5.5,5.6,5.1C5.4,4.9,5.2,4.8,5.1,4.6C4.9,4.5,4.8,4.4,4.6,4.2c-0.5-0.4-1-0.9-1.5-1.4c-0.4-0.4-0.8-0.8-1-1.1
	C2.8,1.7,3.6,1.7,4.4,1.6z M14.3,10.5C14.3,10.5,14.3,10.5,14.3,10.5c0,0.1,0,0.1-0.1,0.2c-2,0.2-3.5,0.1-5.5,0c-0.1,0-0.3,0-0.4,0
	c0,0,0,0,0,0c-0.7,0-1.4,0.1-2,0.2c-0.2,0-0.3,0-0.5,0.1C5,11,4.3,11,3.7,10.9c-0.2-0.1-0.5-0.1-0.6-0.1c0,0,0,0,0,0c0,0,0,0-0.1,0
	c-0.4-0.3-0.6-0.7-0.8-1.6C1.7,7.1,1.7,6.6,1.6,5.1c0-0.4-0.1-0.9-0.1-1.5c0,0,0,0,0-0.1c0-0.1,0-0.2,0-0.3c0.2,0.2,0.4,0.4,0.6,0.6
	c0.5,0.5,1.1,1,1.6,1.4c0.2,0.1,0.3,0.3,0.5,0.4l0,0C4.2,5.9,4.3,6,4.5,6.1c0.4,0.4,1,0.9,1.6,1.4c0.4,0.3,0.8,0.6,1.3,0.8
	c0.4,0.2,1,0.3,1.5,0c2.8-1.2,4.6-2.8,5.7-4.5C14.3,7.1,14.3,7.2,14.3,10.5z"/>
</svg>
