<?xml version="1.0" encoding="utf-8"?>
<!-- Generator: Adobe Illustrator 24.0.1, SVG Export Plug-In . SVG Version: 6.00 Build 0)  -->
<svg version="1.1" id="Layer_1" xmlns="http://www.w3.org/2000/svg" xmlns:xlink="http://www.w3.org/1999/xlink" x="0px" y="0px"
	 width="18px" height="18px" viewBox="0 0 18 18" style="enable-background:new 0 0 18 18;" xml:space="preserve">
<style type="text/css">
	.st0{fill:#222222;}
</style>
<title></title>
<g id="icomoon-ignore">
</g>
<g>
	<path class="st0" d="M9.6,12.9c-0.1,0-0.1,0-0.2,0c-0.1,0-0.2,0-0.2,0l0,0c-1.1-0.1-2-0.7-2.6-1.5l0,0c-0.1-0.2-0.2-0.4-0.2-0.7
		c0-0.6,0.5-1.2,1.2-1.2c0.4,0,0.7,0.2,0.9,0.5l0,0c0.2,0.3,0.6,0.5,0.9,0.6l0,0c0.8,0.1,1.4-0.4,2.3-1.2L12,9.2
		c0.7-0.6,1.4-1.2,2-1.8l0.3-0.3c0.5-0.4,0.9-0.9,1.2-1.5l0,0c0.1-0.2,0.3-0.8-0.3-1.8c-0.4-0.5-1-0.9-1.7-0.9c0,0,0,0,0,0h0
		c-1.2,0-1.9,0.6-2.8,1.7c-0.2,0.2-0.5,0.4-0.8,0.4c-0.7,0-1.2-0.5-1.2-1.2c0-0.3,0.1-0.5,0.2-0.7l0,0c1-1.2,2.3-2.5,4.5-2.5
		c0,0,0,0,0.1,0c1.5,0,2.9,0.8,3.6,2l0,0C17.7,3.2,18,4,18,4.9c0,0.5-0.1,1.1-0.3,1.5l0,0c-0.4,0.9-1,1.7-1.8,2.3l0,0l-0.3,0.3
		c-0.7,0.6-1.4,1.3-2.1,1.9l-0.3,0.2C12.3,12,11.2,12.9,9.6,12.9L9.6,12.9z"/>
	<path class="st0" d="M4.3,17.5L4.3,17.5C4.3,17.5,4.2,17.5,4.3,17.5c-1.9,0-3.5-1.2-4.1-3l0,0c-0.7-2.3,0.8-4.1,1.3-4.6
		C2,9.2,2.5,8.7,3.1,8.2l0,0l0.7-0.7c0.8-0.8,2.3-2.2,4.1-2c1.5,0.2,3,1.2,3,2.9c0,0.6-0.5,1.2-1.2,1.2h0l0,0C9.1,9.6,8.6,9,8.6,8.4
		v0l0,0c0-0.3-0.5-0.5-0.9-0.6C6.9,7.7,6,8.7,5.4,9.2C5.2,9.4,4.9,9.7,4.7,9.9c-0.5,0.5-1,0.9-1.4,1.4l0,0c-0.8,0.9-1,1.7-0.8,2.4
		c0.2,0.8,0.9,1.4,1.8,1.4c0,0,0,0,0,0l0,0c0.7,0,1.3-0.4,2.1-1.2c0.2-0.2,0.5-0.3,0.8-0.3c0.6,0,1.2,0.5,1.2,1.2
		c0,0.3-0.1,0.7-0.4,0.9l0,0C7.1,16.5,6,17.5,4.3,17.5L4.3,17.5z"/>
</g>
</svg>
