

<svg version="1.1" id="레이어_1" xmlns="http://www.w3.org/2000/svg" xmlns:xlink="http://www.w3.org/1999/xlink" x="0px"
	 y="0px" viewBox="0 0 57.67 47.52" style="enable-background:new 0 0 57.67 47.52;" xml:space="preserve">
<style type="text/css">
	.st0{fill:#222222;}
	.st1{fill:#FFFFFF;}
	.st2{fill:#F46464;}
	.st3{fill:#FF0000;}
</style>
<path class="st0" d="M33.4,25.49c-0.09,0-0.19-0.02-0.28-0.05c-0.41-0.15-0.63-0.61-0.47-1.03c1.03-2.78,1.45-5.85,1.22-8.87
	c-0.16-2.14-0.75-4.14-1.37-6.26c-0.25-0.84-0.49-1.67-0.71-2.52l-0.1-0.4c-0.2-0.82-0.4-1.6-0.85-2.15
	c-0.56-0.68-1.61-1.01-2.61-0.83c-0.94,0.17-1.87,0.77-2.63,1.67c-0.78,0.92-1.3,2.04-1.7,3.02c-0.77,1.84-1.49,3.89-2.27,6.45
	c-0.25,0.83-0.39,1.69-0.54,2.61c-0.18,1.08-0.36,2.19-0.74,3.24c-0.26,0.73-0.68,1.37-1.06,1.93l-1.17,1.78
	c-0.24,0.37-0.74,0.47-1.11,0.23c-0.37-0.24-0.47-0.74-0.23-1.11l1.17-1.78c0.34-0.51,0.69-1.05,0.89-1.6
	c0.33-0.91,0.49-1.91,0.66-2.96c0.15-0.93,0.31-1.89,0.59-2.82c0.8-2.61,1.54-4.71,2.32-6.6c0.45-1.09,1.04-2.35,1.96-3.44
	c1-1.18,2.26-1.97,3.56-2.21c1.58-0.29,3.2,0.25,4.14,1.38c0.69,0.83,0.94,1.87,1.17,2.79l0.1,0.39c0.22,0.83,0.46,1.65,0.7,2.47
	c0.62,2.11,1.26,4.29,1.43,6.6c0.24,3.25-0.21,6.55-1.32,9.55C34.04,25.29,33.73,25.49,33.4,25.49z"/>
<g>
	<path class="st1" d="M51.42,16.96c0.74,0.06,1.63,0.24,1.86,0.95c0.08,0.23,0.06,0.48,0.05,0.72c-0.06,0.99-0.13,1.99-0.19,2.98
		c-0.23,3.57-0.46,7.14-0.69,10.71c-0.27,4.21-0.54,8.45-1.46,12.57c-0.1,0.47-0.23,0.96-0.57,1.31c-0.55,0.56-1.44,0.55-2.22,0.49
		c-15.81-1.08-31.59-2.49-47.33-4.23c-0.38-6.3,0.87-12.57,1.52-18.85c0.2-1.97,0.35-3.94,0.46-5.91c0.06-0.99,0.11-1.97,0.16-2.96
		c0.03-0.59-0.13-1.54,0.51-1.85c0.63-0.31,1.84,0.05,2.51,0.11c0.96,0.08,1.92,0.17,2.88,0.25c1.95,0.17,3.89,0.34,5.84,0.51
		c7.86,0.68,15.72,1.37,23.58,2.05C42.7,16.2,47.06,16.58,51.42,16.96z"/>
	<path class="st0" d="M48.81,47.52c-0.25,0-0.47-0.02-0.66-0.03C32.41,46.42,16.47,45,0.78,43.27c-0.39-0.04-0.69-0.36-0.71-0.75
		c-0.28-4.68,0.33-9.38,0.91-13.93c0.22-1.68,0.43-3.37,0.61-5.06c0.18-1.74,0.33-3.61,0.46-5.88c0.06-0.99,0.11-1.97,0.16-2.95
		c0-0.1,0-0.2,0-0.32c-0.01-0.65-0.01-1.74,0.96-2.21c0.69-0.34,1.58-0.18,2.36-0.05c0.21,0.04,0.41,0.07,0.57,0.08l45.38,3.95
		c0,0,0,0,0,0c0.52,0.05,2.12,0.19,2.55,1.5c0.13,0.38,0.1,0.73,0.08,1.02l-0.88,13.7c-0.27,4.18-0.55,8.5-1.48,12.69
		c-0.13,0.59-0.3,1.2-0.77,1.69C50.37,47.4,49.5,47.52,48.81,47.52z M1.63,41.75c15.45,1.7,31.13,3.09,46.62,4.15
		c0.65,0.05,1.3,0.04,1.59-0.25c0.18-0.19,0.28-0.55,0.36-0.93c0.91-4.07,1.18-8.33,1.45-12.45l0.88-13.7
		c0.01-0.16,0.02-0.33-0.01-0.42c-0.02-0.07-0.18-0.32-1.17-0.4L5.97,13.8c-0.2-0.02-0.44-0.06-0.7-0.1
		c-0.41-0.07-1.16-0.2-1.39-0.09c-0.06,0.09-0.06,0.54-0.06,0.76c0,0.15,0,0.29,0,0.41c-0.05,0.99-0.1,1.98-0.16,2.97
		c-0.14,2.29-0.29,4.18-0.47,5.95c-0.18,1.7-0.39,3.4-0.61,5.1C2.02,33.05,1.46,37.44,1.63,41.75z"/>
</g>
<path class="st2" d="M46.21,43.22c-0.21,0-0.42-0.01-0.62-0.03C31.87,42.23,18,41,4.36,39.54c-0.24-0.03-0.43-0.22-0.44-0.46
	c-0.29-3.51,0.19-7.02,0.65-10.42c0.17-1.26,0.34-2.52,0.48-3.78c0.14-1.31,0.25-2.71,0.34-4.4c0.04-0.74,0.08-1.47,0.11-2.21
	c0-0.07,0-0.15,0-0.24c-0.01-0.44-0.03-1.27,0.74-1.58c0.53-0.21,1.25-0.1,1.9,0c0.19,0.03,0.37,0.06,0.52,0.07l39.52,3.42
	c0.73,0.06,1.73,0.24,2.05,1.04c0.11,0.28,0.09,0.55,0.08,0.76L49.67,32c-0.19,3.13-0.39,6.37-1.16,9.49
	c-0.08,0.32-0.21,0.85-0.63,1.23C47.43,43.13,46.82,43.22,46.21,43.22z M4.88,38.59c13.49,1.44,27.21,2.65,40.78,3.61
	c0.42,0.03,1.21,0.09,1.56-0.22c0.18-0.16,0.25-0.42,0.33-0.72c0.75-3.04,0.94-6.23,1.13-9.32l0.62-10.26
	c0.01-0.13,0.02-0.25-0.01-0.33c-0.04-0.1-0.23-0.33-1.21-0.41l0,0L8.56,17.52c-0.17-0.01-0.37-0.05-0.59-0.08
	c-0.44-0.07-1.09-0.17-1.36-0.06c-0.11,0.05-0.13,0.24-0.12,0.63c0,0.11,0,0.21,0,0.31c-0.03,0.74-0.07,1.48-0.11,2.22
	c-0.1,1.71-0.21,3.13-0.35,4.45c-0.13,1.27-0.31,2.54-0.48,3.81C5.12,32.01,4.67,35.33,4.88,38.59z"/>
<path class="st0" d="M25.99,2.02c-0.12,0.8,0.35,1.6,1.03,2.04c0.68,0.44,1.52,0.55,2.33,0.5c2.22-0.13,3.47-2.88,1.33-4.21
	C29.31-0.51,26.26,0.29,25.99,2.02z"/>
<path class="st0" d="M50.81,8.21c-0.11,0-0.22-0.02-0.32-0.07c-0.4-0.18-0.59-0.65-0.41-1.06l1.52-3.43
	c0.18-0.4,0.65-0.59,1.06-0.41c0.4,0.18,0.59,0.65,0.41,1.06l-1.52,3.43C51.41,8.04,51.12,8.21,50.81,8.21z"/>
<path class="st0" d="M54.49,11.54c-0.29,0-0.58-0.16-0.72-0.44c-0.2-0.39-0.04-0.88,0.36-1.07l2.38-1.19
	c0.4-0.19,0.88-0.04,1.07,0.36c0.2,0.39,0.04,0.88-0.36,1.07l-2.38,1.19C54.74,11.51,54.61,11.54,54.49,11.54z"/>
<g>
	<path class="st3" d="M15.55,32.58c-0.02,0.12-0.05,0.25-0.09,0.38c-0.04,0.13-0.12,0.24-0.24,0.31c-0.09,0.06-0.19,0.1-0.3,0.1
		c-0.11,0-0.21-0.01-0.31-0.05c-0.1-0.04-0.2-0.08-0.29-0.15c-0.09-0.06-0.16-0.14-0.21-0.22c-0.21-0.33-0.41-0.66-0.58-1
		c-0.17-0.34-0.35-0.68-0.53-1.02l-0.77-1.45c-0.1-0.21-0.21-0.44-0.32-0.69c-0.11-0.25-0.23-0.49-0.36-0.71l-0.43,4.11l-0.01,0.1
		c-0.01,0.11-0.04,0.23-0.09,0.33c-0.05,0.11-0.13,0.2-0.23,0.27c-0.08,0.05-0.17,0.08-0.29,0.09c-0.18,0.02-0.33-0.01-0.44-0.08
		c-0.11-0.07-0.2-0.16-0.26-0.27c-0.06-0.11-0.09-0.23-0.11-0.36c-0.01-0.14-0.01-0.27,0.02-0.39l0.02-0.18l0.1-0.84L10,29.31
		c0.03-0.23,0.06-0.46,0.08-0.7c0.02-0.24,0.05-0.49,0.07-0.74c0.02-0.31,0.06-0.63,0.1-0.98c0.04-0.34,0.09-0.66,0.13-0.96
		c0.03-0.16,0.08-0.3,0.16-0.41c0.04-0.1,0.12-0.18,0.25-0.24c0.08-0.04,0.19-0.06,0.32-0.07c0.13,0,0.24,0.01,0.33,0.04
		c0.03,0.02,0.07,0.04,0.1,0.06c0.03,0.02,0.07,0.04,0.1,0.07c0.03,0.03,0.06,0.06,0.09,0.09c0.03,0.03,0.06,0.07,0.08,0.11
		c0.03,0.04,0.06,0.08,0.09,0.12c0.03,0.04,0.05,0.08,0.08,0.12c0.02,0.05,0.03,0.09,0.05,0.12c0.02,0.04,0.04,0.08,0.07,0.11
		l0.1,0.18l2.11,4.16l0.07-0.71c0.02-0.23,0.04-0.46,0.06-0.71c0.02-0.24,0.04-0.49,0.06-0.75c0.03-0.3,0.06-0.62,0.1-0.97
		c0.04-0.34,0.08-0.67,0.12-0.96c0.01-0.12,0.06-0.26,0.15-0.41c0.05-0.09,0.11-0.16,0.2-0.21c0.09-0.05,0.19-0.08,0.3-0.09
		c0.11-0.01,0.22,0,0.32,0.03c0.1,0.03,0.19,0.08,0.27,0.16c0.02,0.02,0.04,0.05,0.06,0.08c0.02,0.03,0.03,0.06,0.05,0.1
		c0.03,0.1,0.04,0.18,0.04,0.25c0.01,0.1,0.01,0.19,0.01,0.27c-0.09,0.9-0.17,1.81-0.26,2.74c-0.09,0.93-0.17,1.85-0.25,2.74
		c-0.01,0.1-0.02,0.2-0.02,0.3C15.58,32.38,15.57,32.48,15.55,32.58z"/>
	<path class="st3" d="M17.93,28.72c0.25-0.09,0.5-0.15,0.77-0.18c0.26-0.03,0.52-0.01,0.77,0.04c0.25,0.05,0.49,0.15,0.72,0.27
		c0.23,0.13,0.44,0.3,0.62,0.52c0.15,0.18,0.27,0.39,0.37,0.64s0.17,0.48,0.2,0.71c0.08,0.41,0.06,0.81-0.06,1.2
		c-0.12,0.39-0.31,0.75-0.55,1.08c-0.12,0.15-0.25,0.28-0.41,0.39c-0.16,0.11-0.33,0.2-0.5,0.26c-0.22,0.08-0.46,0.13-0.72,0.14
		c-0.26,0.02-0.5,0-0.73-0.04c-0.43-0.06-0.8-0.21-1.1-0.43c-0.31-0.23-0.55-0.5-0.71-0.82s-0.26-0.68-0.29-1.06
		c-0.02-0.39,0.04-0.78,0.18-1.17c0.16-0.42,0.36-0.75,0.6-1C17.34,29.02,17.62,28.84,17.93,28.72z M18.12,30.2
		c-0.12,0.09-0.21,0.21-0.28,0.35c-0.07,0.14-0.12,0.3-0.15,0.46c-0.03,0.16-0.03,0.32-0.01,0.49c0.02,0.16,0.07,0.32,0.15,0.45
		c0.06,0.11,0.18,0.22,0.36,0.31c0.18,0.09,0.37,0.15,0.57,0.19c0.23,0.04,0.44-0.01,0.62-0.13c0.19-0.12,0.33-0.28,0.44-0.48
		c0.11-0.2,0.17-0.42,0.19-0.67c0.02-0.24-0.03-0.47-0.13-0.69c-0.07-0.15-0.18-0.27-0.33-0.35c-0.15-0.08-0.31-0.13-0.47-0.15
		c-0.17-0.02-0.34-0.01-0.51,0.03C18.39,30.03,18.24,30.1,18.12,30.2z"/>
	<path class="st3" d="M26.26,29.64c0.04,0.14,0.04,0.29-0.03,0.45c-0.06,0.16-0.16,0.26-0.28,0.3c-0.07,0.02-0.16,0.04-0.26,0.05
		c-0.11,0.01-0.23,0.01-0.35,0.01c-0.13,0-0.25,0-0.37,0c-0.12,0-0.23-0.01-0.31-0.02c-0.01,0.22-0.03,0.44-0.04,0.66
		c-0.01,0.23-0.03,0.45-0.04,0.66c-0.01,0.22-0.03,0.42-0.05,0.62c-0.02,0.2-0.04,0.37-0.06,0.53c-0.01,0.11-0.02,0.23-0.04,0.37
		c-0.01,0.14-0.04,0.27-0.07,0.4c-0.03,0.13-0.07,0.24-0.11,0.33c-0.05,0.09-0.1,0.15-0.18,0.17c-0.23,0.07-0.44,0.08-0.62,0.02
		c-0.18-0.06-0.3-0.15-0.37-0.27c-0.05-0.1-0.08-0.21-0.1-0.34c-0.02-0.13-0.02-0.26-0.02-0.39c0-0.13,0.01-0.26,0.03-0.39
		c0.02-0.12,0.03-0.23,0.04-0.33c0.04-0.3,0.07-0.64,0.11-1.03c0.04-0.38,0.08-0.77,0.12-1.16l-0.16-0.02
		c-0.09-0.01-0.2-0.02-0.33-0.04c-0.13-0.02-0.26-0.04-0.4-0.07c-0.13-0.03-0.25-0.07-0.36-0.11c-0.11-0.04-0.19-0.1-0.23-0.17
		c-0.07-0.1-0.11-0.21-0.12-0.32c-0.01-0.11,0.01-0.21,0.05-0.3c0.04-0.1,0.1-0.17,0.18-0.24c0.08-0.07,0.17-0.11,0.26-0.12
		c0.13-0.02,0.32-0.03,0.55-0.01c0.24,0.02,0.46,0.04,0.67,0.07c0-0.07,0-0.14,0.01-0.21c0.01-0.07,0.01-0.14,0.01-0.2
		c0-0.09,0.01-0.2,0.02-0.33s0.03-0.26,0.07-0.4c0.03-0.13,0.07-0.25,0.13-0.37c0.06-0.11,0.12-0.2,0.21-0.26
		c0.12-0.08,0.23-0.11,0.34-0.11c0.11,0,0.21,0.03,0.31,0.08c0.09,0.05,0.17,0.12,0.23,0.21c0.06,0.09,0.1,0.18,0.12,0.29
		c0.01,0.09,0.02,0.19,0.02,0.31c0,0.12,0,0.24-0.01,0.37c-0.01,0.13-0.02,0.26-0.03,0.39c-0.01,0.13-0.02,0.25-0.03,0.36l0.11,0.01
		c0.11,0.01,0.23,0.02,0.38,0.03c0.14,0.01,0.29,0.02,0.42,0.05c0.14,0.03,0.26,0.07,0.37,0.14C26.14,29.41,26.22,29.51,26.26,29.64
		z"/>
	<path class="st3" d="M35.35,28.09c0,0.04,0,0.07-0.01,0.11c-0.01,0.04-0.02,0.08-0.05,0.11c-0.04,0.1-0.08,0.18-0.12,0.26
		c-0.05,0.1-0.12,0.18-0.19,0.24c-0.03,0.04-0.06,0.08-0.09,0.11c-0.03,0.04-0.06,0.07-0.08,0.11l-0.16,0.17l-1.57,1.86l-0.28,0.29
		l-0.28,2.86c-0.02,0.03-0.03,0.07-0.03,0.1c0,0.04-0.01,0.08-0.02,0.12c-0.02,0.03-0.03,0.07-0.04,0.1
		c-0.01,0.03-0.02,0.06-0.04,0.1c-0.02,0.03-0.03,0.05-0.03,0.06c-0.01,0.01-0.02,0.02-0.02,0.03c0,0.01-0.01,0.02-0.02,0.03
		c-0.05,0.07-0.12,0.13-0.2,0.18c-0.17,0.06-0.35,0.06-0.54,0c-0.11-0.02-0.2-0.07-0.25-0.13c-0.03-0.02-0.06-0.05-0.08-0.08
		s-0.04-0.07-0.06-0.1c-0.01-0.04-0.02-0.09-0.03-0.12c-0.01-0.04-0.02-0.07-0.02-0.11c-0.01-0.04-0.01-0.07-0.01-0.1
		c0-0.03,0.01-0.06,0.01-0.09l0.28-2.94l-0.2-0.39l-1.21-2.11l-0.1-0.21c-0.04-0.07-0.08-0.15-0.14-0.24
		c-0.05-0.08-0.09-0.17-0.13-0.27c-0.02-0.05-0.04-0.09-0.06-0.14c-0.01-0.05-0.03-0.1-0.04-0.15c-0.01-0.07-0.01-0.15,0.01-0.22
		c0.03-0.09,0.08-0.17,0.15-0.22c0.08-0.06,0.16-0.1,0.24-0.13c0.11-0.06,0.23-0.08,0.35-0.05c0.08,0.01,0.14,0.03,0.2,0.06
		c0.05,0.03,0.11,0.07,0.16,0.11c0.06,0.06,0.12,0.12,0.17,0.18c0.06,0.06,0.11,0.13,0.15,0.2c0.05,0.08,0.1,0.15,0.14,0.21
		c0.04,0.07,0.09,0.14,0.13,0.22l0.03,0.05c0.15,0.25,0.29,0.48,0.42,0.71c0.13,0.23,0.27,0.47,0.41,0.73
		c0.01,0.02,0.03,0.05,0.06,0.09c0.02,0.05,0.05,0.1,0.08,0.16c0.03-0.05,0.07-0.09,0.09-0.13c0.03-0.04,0.05-0.06,0.07-0.08
		c0.19-0.23,0.37-0.44,0.54-0.64c0.17-0.2,0.35-0.41,0.55-0.62l0.03-0.04c0.06-0.06,0.12-0.12,0.18-0.18
		c0.05-0.06,0.11-0.13,0.18-0.2c0.11-0.12,0.24-0.22,0.41-0.3c0.12-0.07,0.25-0.11,0.37-0.12c0.14,0,0.25,0.04,0.35,0.12
		c0.04,0.03,0.08,0.06,0.12,0.09c0.04,0.02,0.07,0.05,0.1,0.08C35.29,27.91,35.32,27.99,35.35,28.09z"/>
	<path class="st3" d="M37.86,34.06c0.09-0.01,0.18-0.02,0.27-0.02c0.09,0,0.17,0.02,0.24,0.06c0.07,0.03,0.13,0.09,0.17,0.16
		c0.04,0.07,0.06,0.17,0.05,0.29c-0.01,0.09-0.04,0.17-0.09,0.24c-0.05,0.08-0.11,0.14-0.18,0.2c-0.07,0.06-0.15,0.11-0.23,0.15
		c-0.08,0.04-0.16,0.07-0.24,0.09c-0.22,0.07-0.46,0.12-0.74,0.15c-0.27,0.02-0.55,0.02-0.84-0.03c-0.39-0.05-0.75-0.17-1.09-0.34
		c-0.34-0.18-0.6-0.43-0.77-0.78c-0.16-0.33-0.23-0.69-0.23-1.09c0-0.39,0.05-0.76,0.16-1.09c0.12-0.41,0.29-0.73,0.5-0.98
		c0.22-0.24,0.46-0.43,0.74-0.56c0.34-0.15,0.71-0.22,1.11-0.18c0.4,0.03,0.78,0.15,1.13,0.35c0.23,0.13,0.44,0.3,0.61,0.5
		c0.18,0.2,0.3,0.44,0.38,0.7c0.02,0.07,0.04,0.15,0.05,0.24c0.01,0.1,0.01,0.19,0.01,0.3c0,0.1-0.01,0.21-0.03,0.31
		c-0.02,0.1-0.04,0.19-0.08,0.26c-0.06,0.12-0.12,0.22-0.19,0.29c-0.07,0.07-0.16,0.11-0.26,0.14c-0.1,0.03-0.23,0.04-0.37,0.04
		c-0.14,0-0.31-0.01-0.5-0.02c-0.17-0.01-0.33-0.02-0.49-0.03c-0.15-0.02-0.31-0.03-0.46-0.05c-0.16-0.02-0.32-0.04-0.49-0.06
		c-0.17-0.02-0.36-0.04-0.56-0.07c-0.04,0.14-0.03,0.27,0.02,0.38c0.05,0.11,0.13,0.21,0.23,0.28c0.1,0.08,0.22,0.14,0.35,0.19
		c0.13,0.05,0.26,0.08,0.39,0.1c0.24,0.04,0.48,0.04,0.71,0.01C37.38,34.15,37.62,34.11,37.86,34.06z M37.6,31.93
		c-0.12-0.17-0.25-0.3-0.4-0.39c-0.11-0.06-0.23-0.1-0.35-0.11c-0.13-0.01-0.25,0-0.37,0.03c-0.21,0.03-0.4,0.12-0.56,0.27
		c-0.02,0.01-0.04,0.04-0.09,0.09c-0.04,0.05-0.08,0.1-0.12,0.16s-0.07,0.1-0.09,0.15c-0.02,0.05-0.02,0.08,0.01,0.08l2.11,0.2
		c0-0.1-0.01-0.19-0.03-0.26C37.71,32.09,37.66,32.02,37.6,31.93z"/>
	<path class="st3" d="M43.8,31.33c0.04,0.14,0.04,0.29-0.03,0.45c-0.06,0.16-0.16,0.26-0.28,0.3c-0.07,0.02-0.16,0.04-0.26,0.05
		c-0.11,0.01-0.23,0.01-0.35,0.01c-0.13,0-0.25,0-0.37,0c-0.12,0-0.23-0.01-0.31-0.02c-0.01,0.21-0.03,0.44-0.04,0.66
		c-0.01,0.23-0.03,0.45-0.04,0.66c-0.01,0.22-0.03,0.42-0.05,0.62s-0.04,0.38-0.06,0.53c-0.01,0.11-0.02,0.23-0.04,0.37
		c-0.01,0.14-0.04,0.27-0.07,0.4c-0.03,0.13-0.07,0.24-0.11,0.33c-0.05,0.09-0.11,0.15-0.18,0.17c-0.23,0.07-0.44,0.08-0.62,0.02
		c-0.18-0.06-0.3-0.15-0.37-0.27c-0.05-0.1-0.08-0.21-0.1-0.34c-0.02-0.13-0.02-0.26-0.02-0.39c0-0.13,0.01-0.26,0.03-0.39
		c0.02-0.13,0.03-0.23,0.04-0.33c0.04-0.3,0.07-0.64,0.11-1.03s0.08-0.77,0.12-1.16l-0.16-0.02c-0.09-0.01-0.2-0.02-0.33-0.04
		c-0.13-0.02-0.26-0.04-0.4-0.07c-0.13-0.03-0.25-0.07-0.36-0.11c-0.11-0.04-0.19-0.1-0.23-0.17c-0.07-0.1-0.11-0.21-0.12-0.32
		c-0.01-0.11,0.01-0.21,0.05-0.3c0.04-0.09,0.1-0.17,0.18-0.24c0.08-0.07,0.17-0.11,0.26-0.12c0.13-0.02,0.32-0.03,0.55-0.01
		c0.24,0.02,0.46,0.04,0.67,0.07c0-0.07,0-0.14,0.01-0.21c0.01-0.07,0.01-0.13,0.01-0.2c0-0.09,0.01-0.2,0.02-0.33
		c0.01-0.13,0.03-0.26,0.07-0.4c0.03-0.13,0.07-0.25,0.13-0.37c0.05-0.11,0.12-0.2,0.21-0.26c0.12-0.08,0.23-0.11,0.34-0.11
		c0.11,0,0.21,0.03,0.31,0.08c0.09,0.05,0.17,0.12,0.23,0.21c0.06,0.09,0.1,0.19,0.12,0.29c0.01,0.09,0.02,0.19,0.02,0.31
		c0,0.12,0,0.24-0.01,0.38c-0.01,0.13-0.02,0.26-0.03,0.39c-0.01,0.13-0.02,0.25-0.03,0.36l0.11,0.01c0.11,0.01,0.23,0.02,0.38,0.03
		c0.14,0,0.29,0.02,0.42,0.05c0.14,0.03,0.26,0.07,0.37,0.14C43.68,31.1,43.76,31.2,43.8,31.33z"/>
</g>
</svg>
