<?xml version="1.0" encoding="utf-8"?>
<!-- Generator: Adobe Illustrator 24.0.1, SVG Export Plug-In . SVG Version: 6.00 Build 0)  -->
<svg version="1.1" id="Layer_1" xmlns="http://www.w3.org/2000/svg" xmlns:xlink="http://www.w3.org/1999/xlink" x="0px" y="0px"
	 width="16px" height="16px" viewBox="0 0 16 16" style="enable-background:new 0 0 16 16;" xml:space="preserve">
<style type="text/css">
	.st0{fill:#FFFFFF;}
</style>
<title></title>
<g id="icomoon-ignore">
</g>
<g>
	<path class="st0" d="M12.7,11.3V8.4c0-2.6-2.1-4.7-4.8-4.7c-2.6,0-4.7,2.1-4.7,4.7v2.9c-0.5,0-0.9,0.4-0.9,0.9v2.8
		c0,0.5,0.4,0.9,0.9,0.9h9.4c0.5,0,0.9-0.4,0.9-0.9v-2.8C13.6,11.7,13.2,11.3,12.7,11.3z M5.2,8.4c0-1.5,1.2-2.8,2.9-2.8
		c1.5,0,2.8,1.2,2.8,2.8v2.9H5.2L5.2,8.4L5.2,8.4z M11.8,14.1H4.2v-0.9h7.5V14.1z"/>
	<path class="st0" d="M8,2.8c0.5,0,0.9-0.4,0.9-0.9V0.9C8.9,0.4,8.5,0,8,0C7.5,0,7.1,0.4,7.1,0.9v0.9C7.1,2.4,7.5,2.8,8,2.8L8,2.8z"
		/>
	<path class="st0" d="M3.6,3.5C3.8,3.6,4,3.7,4.2,3.7c0.3,0,0.6-0.1,0.7-0.4c0.3-0.4,0.3-1-0.1-1.3L4,1.4C3.6,1.1,3,1.1,2.7,1.5
		s-0.3,1,0.1,1.3L3.6,3.5L3.6,3.5z"/>
	<path class="st0" d="M11.9,3.7c0.2,0,0.4-0.1,0.6-0.2l0.8-0.6c0.4-0.3,0.5-0.9,0.1-1.3c-0.3-0.4-0.9-0.5-1.3-0.1L11.3,2
		c-0.4,0.3-0.5,0.9-0.1,1.3C11.3,3.6,11.6,3.7,11.9,3.7L11.9,3.7z"/>
</g>
</svg>
