<?xml version="1.0" encoding="utf-8"?>
<!-- Generator: Adobe Illustrator 25.2.3, SVG Export Plug-In . SVG Version: 6.00 Build 0)  -->
<svg version="1.1" id="Layer_1" xmlns="http://www.w3.org/2000/svg" xmlns:xlink="http://www.w3.org/1999/xlink" x="0px" y="0px"
	 viewBox="0 0 13.6 12.6" style="enable-background:new 0 0 13.6 12.6;" xml:space="preserve">
<style type="text/css">
	.st0{fill-rule:evenodd;clip-rule:evenodd;fill:#222222;}
</style>
<path class="st0" d="M3.1,4.7C2.7,4.4,2.7,3.9,3,3.6l3-3.3c0.3-0.3,0.8-0.4,1.1-0.1L10.5,3c0.3,0.3,0.4,0.8,0.1,1.1
	c-0.3,0.3-0.8,0.4-1.1,0.1l-2-1.6l0.4,5.6C7.9,8.6,7.6,9,7.2,9C6.7,9,6.3,8.7,6.3,8.3L5.9,2.7L4.2,4.6C3.9,5,3.4,5,3.1,4.7z
	 M12.9,7.4c-0.4-0.1-0.8,0.2-0.9,0.7L11.5,11H2.1L1.6,8.6C1.5,8.2,1,7.9,0.6,8C0.2,8.1-0.1,8.6,0,9l0.7,3c0.1,0.4,0.4,0.6,0.8,0.6
	h10.7c0.4,0,0.7-0.3,0.8-0.7l0.6-3.6C13.7,7.9,13.4,7.5,12.9,7.4z"/>
</svg>
