<?xml version="1.0" encoding="utf-8"?>
<!-- Generator: Adobe Illustrator 25.2.3, SVG Export Plug-In . SVG Version: 6.00 Build 0)  -->
<svg version="1.1" id="Layer_1" xmlns="http://www.w3.org/2000/svg" xmlns:xlink="http://www.w3.org/1999/xlink" x="0px" y="0px"
	 viewBox="0 0 13.3 12.3" style="enable-background:new 0 0 13.3 12.3;" xml:space="preserve">
<style type="text/css">
	.st0{fill:#222222;}
</style>
<path class="st0" d="M7,12.3c-0.5,0-1-0.1-1.4-0.4c-2-1.4-4.2-3.2-5.2-5.4c-0.6-1.3-0.5-2.8,0.1-4.1c0.6-1.2,1.5-2,2.6-2.3
	C4.5-0.3,6,0.2,7,1.4C7.7,0.7,8.7,0,10.1,0.3c1.2,0.2,2.1,0.8,2.6,1.8c0.7,1.3,0.8,3,0.1,4.6c-0.6,1.5-1.8,2.7-3,3.9
	c-0.3,0.3-0.6,0.6-0.9,0.9C8.4,12,7.7,12.3,7,12.3z M4.1,1.4c-0.2,0-0.4,0-0.6,0.1C2.6,1.7,2.1,2.4,1.8,2.9c-0.4,0.9-0.5,2-0.1,3
	c0.8,2,2.9,3.5,4.7,4.9c0.4,0.3,1.1,0.1,1.5-0.2c0.3-0.3,0.6-0.6,0.9-1c1.1-1.1,2.2-2.1,2.7-3.4c0.5-1.1,0.4-2.4-0.1-3.3
	c-0.4-0.6-0.9-1-1.6-1.1C9,1.5,8.4,1.9,7.6,3C7.5,3.1,7.4,3.2,7.3,3.3C7.1,3.4,6.8,3.4,6.5,3.2C6.4,3.1,6.3,3,6.3,2.9
	C5.9,2.1,5.1,1.4,4.1,1.4z"/>
</svg>
