<?xml version="1.0" encoding="utf-8"?>
<!-- Generator: Adobe Illustrator 24.0.1, SVG Export Plug-In . SVG Version: 6.00 Build 0)  -->
<svg version="1.1" id="Layer_1" xmlns="http://www.w3.org/2000/svg" xmlns:xlink="http://www.w3.org/1999/xlink" x="0px" y="0px"
	 width="13px" height="13px" viewBox="0 0 13 13" style="enable-background:new 0 0 13 13;" xml:space="preserve">
<style type="text/css">
	.st0{fill:#FFFFFF;}
</style>
<title></title>
<g id="icomoon-ignore">
</g>
<path class="st0" d="M12,0.8c-1.2-1-3-0.9-4.1,0.3L1.1,7.5C1,7.5,1,7.5,1,7.5c-0.2,0.2-0.5,0.6-1,4.2c0,0.3,0.1,0.7,0.3,0.9
	c0.2,0.2,0.4,0.3,0.7,0.3c0.1,0,0.2,0,0.3,0c3.2-0.8,3.8-1.3,4-1.5L12.2,5c0,0,0.1-0.1,0.1-0.1C13.3,3.7,13.2,1.8,12,0.8L12,0.8z
	 M9.5,2.5c0.3-0.4,0.9-0.4,1.2-0.2C11,2.6,11,3.2,10.7,3.5l-0.7,0.6L9,3L9.5,2.5C9.4,2.6,9.5,2.6,9.5,2.5L9.5,2.5z M3.9,9.8
	C3.7,10,3,10.2,2.3,10.4c0.1-0.7,0.2-1.3,0.3-1.5l4.8-4.4l1.1,1.1L3.9,9.8L3.9,9.8z"/>
</svg>
