<?xml version="1.0" encoding="utf-8"?>
<!-- Generator: Adobe Illustrator 25.2.3, SVG Export Plug-In . SVG Version: 6.00 Build 0)  -->
<svg version="1.1" id="Layer_1" xmlns="http://www.w3.org/2000/svg" xmlns:xlink="http://www.w3.org/1999/xlink" x="0px" y="0px"
	 viewBox="0 0 12 12" style="enable-background:new 0 0 12 12;" xml:space="preserve">
<style type="text/css">
	.st0{fill:#3A3A3A;}
</style>
<path class="st0" d="M12,5.6C11.9,3.8,11.1,2,9.5,1c-1-0.7-2.4-1.1-3.7-1c-3.1,0.2-6,2.7-5.8,6c0,1,0.3,1.8,0.7,2.6
	c0.1,0.3,0.2,0.6,0.4,0.8c1,1.7,3,2.6,5,2.6C9.5,12.1,12.3,9.1,12,5.6z M8.1,9.6c-1.3,0.9-3.2,1-4.4-0.2C3.4,9.2,3,9,2.7,8.7
	C1.6,7.6,1.4,5.6,2.2,4.1c0.5-0.9,1.2-1.4,2.1-1.8c0.9-0.4,2-0.6,3-0.4c1,0.2,1.9,1,2.4,1.8C10.9,5.7,9.9,8.5,8.1,9.6z M8.5,4.4
	C7.7,4.6,6.9,5.1,6.2,5.5c0-0.5,0-1.1-0.1-1.5c0-0.1-0.2-0.3-0.3-0.3s-0.1,0-0.2,0c-0.1,0-0.3,0.2-0.3,0.3C5.2,4.6,5.2,5.6,5.2,6.2
	c0,0.5,0.4,0.6,0.7,0.5C6.9,6.3,8.1,6,8.9,5.5C9.5,5.1,9.1,4.2,8.5,4.4z"/>
</svg>
