<?xml version="1.0" encoding="utf-8"?>
<!-- Generator: Adobe Illustrator 25.2.3, SVG Export Plug-In . SVG Version: 6.00 Build 0)  -->
<svg version="1.1" id="Layer_1" xmlns="http://www.w3.org/2000/svg" xmlns:xlink="http://www.w3.org/1999/xlink" x="0px" y="0px"
	 viewBox="0 0 12 12" style="enable-background:new 0 0 12 12;" xml:space="preserve">
<style type="text/css">
	.st0{fill:#FFC200;}
	.st1{fill-rule:evenodd;clip-rule:evenodd;fill:#896A15;}
</style>
<path class="st0" d="M12,5.6C11.9,3.7,11.1,2.1,9.6,1C8.5,0.3,7.1-0.1,5.9,0c-3.2,0.2-6,2.7-5.8,6c0,0.9,0.3,1.8,0.8,2.5
	C0.9,8.9,1,9.2,1.2,9.5c1.1,1.7,3.1,2.6,5,2.5C9.5,12,12.3,9,12,5.6z"/>
<path class="st1" d="M9.6,4.9c-0.2,0-0.4,0-0.7,0c0.2-0.6,0.3-1.2,0-1.6C8.9,3.1,8.6,3,8.4,3.2C8.1,3.5,7.9,4.3,7.8,4.9
	c-0.3,0-0.6,0-0.9,0C6.8,4.3,6.6,3.7,6.3,3.3C6,2.9,5.5,3,5.4,3.4C5.3,3.8,5.1,4.4,5,5C4.7,5,4.4,5,4.2,5C4,4.3,3.8,3.7,3.6,3.2
	C3.4,2.9,2.9,3,2.9,3.4c0,0.5,0.1,1.1,0.2,1.8c-0.2,0-0.4,0-0.7,0.1C2.1,5.3,2,5.5,2,5.8c0,0.3,0.3,0.5,0.5,0.4
	c0.3,0,0.5-0.1,0.7-0.1c0.2,0.8,0.4,1.6,0.5,2.2C3.8,8.8,4.4,9,4.6,8.6c0.5-0.7,0.8-1.7,1-2.7c0.1,0,0.3,0,0.4,0
	c0.2,1,0.5,2.1,1,2.9C7.4,9.1,7.9,9,8,8.5c0.2-0.9,0.4-1.7,0.7-2.6c0.3,0,0.6,0,0.9,0C9.8,6,10,5.7,10,5.5C10,5.2,9.8,4.9,9.6,4.9z
	 M4.5,6.6c0-0.2-0.1-0.4-0.1-0.6c0.1,0,0.2,0,0.3,0C4.6,6.2,4.5,6.4,4.5,6.6z M7.1,5.9c0.1,0,0.3,0,0.4,0C7.5,6.2,7.4,6.5,7.4,6.8
	C7.3,6.5,7.2,6.2,7.1,5.9z"/>
</svg>
