<svg xmlns="http://www.w3.org/2000/svg" viewBox="0 0 193.81 78.43">
  <title>logo-grey</title>
  <path d="M50.68,34.26H3.75a3.76,3.76,0,0,0,0,7.51H17.83A3.75,3.75,0,0,1,19.23,49h0C13.13,51.51,8.92,56.81,8.92,62.94c0,8.56,8.19,15.49,18.3,15.49s18.3-6.93,18.3-15.49c0-6.13-4.21-11.43-10.32-13.94h0a3.75,3.75,0,0,1,1.4-7.23H50.68a3.76,3.76,0,1,0,0-7.51ZM27.22,70a7,7,0,1,1,7-7A7,7,0,0,1,27.22,70ZM18.74,28.16h17a9.39,9.39,0,0,0,9.38-9.39V9.39A9.38,9.38,0,0,0,35.7,0h-17A9.39,9.39,0,0,0,9.35,9.39v9.38A9.4,9.4,0,0,0,18.74,28.16Zm1.88-16.9a3.75,3.75,0,0,1,3.75-3.75h5.7a3.75,3.75,0,0,1,3.75,3.75v5.63a3.75,3.75,0,0,1-3.75,3.76H24.36a3.75,3.75,0,0,1-3.75-3.76ZM115,24.92v25a5.63,5.63,0,1,1-11.26,0v-25a5.63,5.63,0,1,1,11.26,0ZM95.1,52.29a4.68,4.68,0,0,1-6.61.58l-8.61-7.23a2.36,2.36,0,0,0-3,0l-8.61,7.23a4.7,4.7,0,1,1-6-7.19l9.69-8.13a2.34,2.34,0,0,0,.84-1.8v-2a2.35,2.35,0,0,0-2.35-2.35h-6.1a3.76,3.76,0,0,1,0-7.51h6.57a2.35,2.35,0,0,0,2.35-2.34V19.24a5.16,5.16,0,1,1,10.32,0v2.35a2.35,2.35,0,0,0,2.35,2.34h6.57a3.76,3.76,0,0,1,0,7.51h-6.1A2.35,2.35,0,0,0,84,33.79v2a2.34,2.34,0,0,0,.84,1.8l9.69,8.13A4.69,4.69,0,0,1,95.1,52.29Zm81.56-20.46V38.4a1.88,1.88,0,0,1-1.87,1.88h-2.86a1.88,1.88,0,0,1-1.88-1.88V31.83A1.87,1.87,0,0,1,171.93,30h2.85A1.88,1.88,0,0,1,176.66,31.83ZM162.37,3.24a31.44,31.44,0,0,0,0,62.88v9.41a42.25,42.25,0,0,0,31.44-40.85A31.44,31.44,0,0,0,162.37,3.24ZM150,40.28h4.74l.05-3.29h-1.5a1.88,1.88,0,0,1,0-3.76h5.16a1.88,1.88,0,0,1,1.88,1.88v4.22A4.69,4.69,0,0,1,155.63,44h-8.45a4.69,4.69,0,0,1-4.69-4.69V30.89a4.69,4.69,0,0,1,4.69-4.69h11.26a1.88,1.88,0,0,1,0,3.76H150a1.88,1.88,0,0,0-1.88,1.87V38.4A1.87,1.87,0,0,0,150,40.28Zm32.3-.94A4.69,4.69,0,0,1,177.6,44h-8.48a4.69,4.69,0,0,1-4.69-4.69V30.89a4.69,4.69,0,0,1,4.69-4.69h8.48a4.69,4.69,0,0,1,4.69,4.69Z" fill="#b1b0b0"/>
</svg>
