<svg width="40" height="39" viewBox="0 0 40 39" fill="none" xmlns="http://www.w3.org/2000/svg">
<path d="M19.9997 38.6102C30.8246 38.6102 39.5999 30.0543 39.5999 19.5C39.5999 8.94571 30.8246 0.389771 19.9997 0.389771C9.17474 0.389771 0.399414 8.94571 0.399414 19.5C0.399414 30.0543 9.17474 38.6102 19.9997 38.6102Z" fill="white"/>
<path fill-rule="evenodd" clip-rule="evenodd" d="M20 0.779538C9.39587 0.779538 0.799526 9.16098 0.799526 19.5C0.799526 29.839 9.39587 38.2205 20 38.2205C30.6041 38.2205 39.2005 29.839 39.2005 19.5C39.2005 9.16098 30.6041 0.779538 20 0.779538ZM0 19.5C0 8.73045 8.95431 0 20 0C31.0457 0 40 8.73045 40 19.5C40 30.2696 31.0457 39 20 39C8.95431 39 0 30.2696 0 19.5Z" fill="#222222"/>
<path d="M19.9183 36.301C27.631 36.301 33.8835 30.2049 33.8835 22.685C33.8835 15.1651 27.631 9.06897 19.9183 9.06897C12.2055 9.06897 5.95312 15.1651 5.95312 22.685C5.95312 30.2049 12.2055 36.301 19.9183 36.301Z" fill="#CEB2B2"/>
<mask id="mask0" mask-type="alpha" maskUnits="userSpaceOnUse" x="5" y="9" width="29" height="28">
<path d="M19.9183 36.301C27.631 36.301 33.8835 30.2049 33.8835 22.685C33.8835 15.1651 27.631 9.06897 19.9183 9.06897C12.2055 9.06897 5.95312 15.1651 5.95312 22.685C5.95312 30.2049 12.2055 36.301 19.9183 36.301Z" fill="#CEB2B2"/>
</mask>
<g mask="url(#mask0)">
<path d="M36.2443 26.5939C36.2496 23.7355 33.9138 21.4141 31.0271 21.409C28.1405 21.404 25.7961 23.7171 25.7908 26.5755C25.7855 29.434 28.1213 31.7553 31.008 31.7604C33.8946 31.7655 36.239 29.4524 36.2443 26.5939Z" fill="#FFAEBA"/>
<path d="M14.0041 26.9208C14.0093 24.0624 11.6735 21.741 8.78689 21.7359C5.90025 21.7309 3.55588 24.044 3.55059 26.9024C3.5453 29.7609 5.8811 32.0822 8.76775 32.0873C11.6544 32.0924 13.9988 29.7793 14.0041 26.9208Z" fill="#FFAEBA"/>
</g>
<path fill-rule="evenodd" clip-rule="evenodd" d="M28.5631 25.7919C28.7427 25.917 28.7844 26.1604 28.656 26.3356L27.8394 27.4504C27.711 27.6255 27.4614 27.6661 27.2817 27.541C27.102 27.4159 27.0604 27.1724 27.1888 26.9973L28.0054 25.8825C28.1338 25.7073 28.3834 25.6668 28.5631 25.7919Z" fill="#FF5764"/>
<path fill-rule="evenodd" clip-rule="evenodd" d="M30.2779 25.7919C30.4576 25.917 30.4992 26.1604 30.3709 26.3356L29.5542 27.4504C29.4259 27.6255 29.1762 27.6661 28.9965 27.541C28.8169 27.4159 28.7753 27.1724 28.9036 26.9973L29.7203 25.8825C29.8486 25.7073 30.0983 25.6668 30.2779 25.7919Z" fill="#FF5764"/>
<path fill-rule="evenodd" clip-rule="evenodd" d="M10.6926 26.2802C10.8662 26.4132 10.8963 26.6582 10.7599 26.8275L9.86158 27.9423C9.72518 28.1115 9.47386 28.1409 9.30026 28.0079C9.12665 27.8749 9.0965 27.6299 9.2329 27.4606L10.1312 26.3459C10.2676 26.1766 10.519 26.1472 10.6926 26.2802Z" fill="#FF5764"/>
<path fill-rule="evenodd" clip-rule="evenodd" d="M12.4074 26.2802C12.581 26.4132 12.6112 26.6582 12.4748 26.8275L11.5764 27.9423C11.44 28.1115 11.1887 28.1409 11.0151 28.0079C10.8415 27.8749 10.8113 27.6299 10.9477 27.4606L11.8461 26.3459C11.9825 26.1766 12.2338 26.1472 12.4074 26.2802Z" fill="#FF5764"/>
<path fill-rule="evenodd" clip-rule="evenodd" d="M19.9186 9.45886C12.4267 9.45886 6.35324 15.3805 6.35324 22.6851C6.35324 29.9898 12.4267 35.9114 19.9186 35.9114C27.4106 35.9114 33.484 29.9898 33.484 22.6851C33.484 15.3805 27.4106 9.45886 19.9186 9.45886ZM5.55371 22.6851C5.55371 14.9499 11.9851 8.67932 19.9186 8.67932C27.8522 8.67932 34.2836 14.9499 34.2836 22.6851C34.2836 30.4203 27.8522 36.6909 19.9186 36.6909C11.9851 36.6909 5.55371 30.4203 5.55371 22.6851Z" fill="#222222"/>
<path fill-rule="evenodd" clip-rule="evenodd" d="M20 22.6316C20.1656 22.6316 20.2999 22.7625 20.2999 22.9239V23.7998C20.2999 23.9613 20.1656 24.0922 20 24.0922C19.8344 24.0922 19.7002 23.9613 19.7002 23.7998V22.9239C19.7002 22.7625 19.8344 22.6316 20 22.6316Z" fill="#222222"/>
<path fill-rule="evenodd" clip-rule="evenodd" d="M14.2312 17.7356C14.3736 17.4441 14.7314 17.3203 15.0304 17.4592L16.7455 18.2554C17.0445 18.3942 17.1714 18.7431 17.0291 19.0346C16.8867 19.3262 16.5289 19.45 16.2299 19.3111L14.5148 18.5149C14.2158 18.376 14.0889 18.0272 14.2312 17.7356Z" fill="#222222"/>
<path fill-rule="evenodd" clip-rule="evenodd" d="M25.115 17.7356C25.2574 18.0272 25.1304 18.376 24.8314 18.5149L23.1164 19.3111C22.8174 19.45 22.4596 19.3262 22.3172 19.0346C22.1748 18.7431 22.3018 18.3942 22.6008 18.2554L24.3158 17.4592C24.6148 17.3203 24.9726 17.4441 25.115 17.7356Z" fill="#222222"/>
<path d="M12.8945 13.1299C13.6295 13.3687 14.2012 13.6872 14.9362 13.9261C18.6113 14.9612 22.858 13.8465 23.348 10.0244C23.593 8.27267 22.368 6.36164 20.163 6.60052C18.2846 6.75977 17.2229 8.35229 17.3046 10.0244V10.1041C17.5496 14.0854 13.2212 13.2095 12.8945 13.1299Z" fill="#FFDB45"/>
<path fill-rule="evenodd" clip-rule="evenodd" d="M23.7448 10.0749C23.479 12.1425 22.1853 13.485 20.4875 14.1578C18.8062 14.8241 16.7315 14.8374 14.8257 14.3006C14.8205 14.2991 14.8154 14.2976 14.8102 14.2959C14.4255 14.1708 14.0849 14.0255 13.7618 13.8877L13.7556 13.8851C13.4272 13.745 13.1164 13.6127 12.7686 13.4996C12.5648 13.4334 12.4511 13.222 12.5112 13.0209C12.5712 12.8198 12.7835 12.7009 12.9919 12.7517C13.1353 12.7867 14.2211 13.0068 15.2166 12.7619C15.7048 12.6418 16.1428 12.4169 16.4485 12.0298C16.7521 11.6456 16.963 11.054 16.906 10.1274C16.9055 10.1196 16.9053 10.1119 16.9053 10.1041V10.0335C16.8204 8.20685 17.9908 6.39604 20.124 6.21263C21.3646 6.07971 22.3528 6.55548 22.9859 7.3214C23.61 8.07638 23.8805 9.10023 23.7448 10.0749ZM22.3634 7.81058C21.8949 7.24376 21.1697 6.88368 20.2075 6.98791L20.198 6.98894L20.198 6.98883C18.5813 7.12591 17.6304 8.49283 17.7043 10.0059C17.7046 10.0121 17.7048 10.0183 17.7048 10.0244V10.0926C17.7678 11.1507 17.5296 11.9388 17.082 12.5055C16.6349 13.0715 16.0162 13.3691 15.4122 13.5177C15.3202 13.5404 15.228 13.5597 15.1359 13.5761C16.8794 14.049 18.7277 14.0137 20.1864 13.4356C21.6526 12.8546 22.727 11.7294 22.9518 9.9761L22.9523 9.97178L22.9523 9.97178C23.0609 9.19537 22.8414 8.38878 22.3634 7.81058Z" fill="#222222"/>
<path d="M15.0997 26.5072C16.9039 26.5072 18.3664 25.0812 18.3664 23.3221C18.3664 21.5631 16.9039 20.1371 15.0997 20.1371C13.2956 20.1371 11.833 21.5631 11.833 23.3221C11.833 25.0812 13.2956 26.5072 15.0997 26.5072Z" fill="#231815"/>
<path d="M24.8995 26.5866C26.7037 26.5866 28.1662 25.1606 28.1662 23.4016C28.1662 21.6425 26.7037 20.2166 24.8995 20.2166C23.0954 20.2166 21.6328 21.6425 21.6328 23.4016C21.6328 25.1606 23.0954 26.5866 24.8995 26.5866Z" fill="#231815"/>
<path fill-rule="evenodd" clip-rule="evenodd" d="M17.7707 22.5995C17.6771 22.6565 17.6487 22.7768 17.7072 22.868C17.7657 22.9593 17.889 22.9871 17.9826 22.93" fill="#231815"/>
<path fill-rule="evenodd" clip-rule="evenodd" d="M22.2171 27.6423C22.386 27.781 22.4076 28.0268 22.2654 28.1915C21.5175 29.0575 20.4784 29.3388 19.6697 29.4134C19.262 29.451 18.8998 29.4375 18.6394 29.4148C18.5088 29.4034 18.4028 29.3896 18.328 29.3784C18.2907 29.3728 18.261 29.3678 18.24 29.3641L18.2151 29.3595L18.2076 29.3581L18.2052 29.3576L18.2043 29.3574C18.2041 29.3574 18.2036 29.3573 18.2846 28.9756L18.2043 29.3574C17.9881 29.3138 17.8484 29.1074 17.8931 28.8966C17.9378 28.6859 18.1492 28.5504 18.3653 28.5938L18.3678 28.5943L18.383 28.5971C18.3973 28.5996 18.4198 28.6034 18.4498 28.6079C18.5097 28.6169 18.5988 28.6286 18.7107 28.6384C18.9352 28.658 19.2468 28.6694 19.5944 28.6373C20.2966 28.5725 21.0951 28.3363 21.6538 27.6894C21.7961 27.5247 22.0482 27.5036 22.2171 27.6423ZM18.3653 28.5938C18.3653 28.5938 18.3653 28.5938 18.3653 28.5938Z" fill="#222222"/>
<path d="M21.8779 27.3829C21.8779 27.3829 21.9596 28.0199 22.6946 28.3384Z" fill="white"/>
<path fill-rule="evenodd" clip-rule="evenodd" d="M22.2742 27.3291C22.2441 27.1184 22.0459 26.9697 21.8287 26.9962C21.6097 27.0229 21.4543 27.2177 21.4816 27.4313L21.8783 27.383C21.4816 27.4313 21.4817 27.4315 21.4817 27.4317L21.4818 27.4321L21.4819 27.433L21.4821 27.435L21.4828 27.4396L21.4847 27.4517C21.4862 27.461 21.4883 27.4728 21.4911 27.4868C21.4968 27.5147 21.5055 27.5516 21.5185 27.5955C21.5443 27.683 21.588 27.8001 21.6608 27.9291C21.8082 28.1905 22.0731 28.4955 22.5326 28.6947C22.7344 28.7821 22.9706 28.6935 23.0603 28.4968C23.15 28.3001 23.0591 28.0697 22.8574 27.9823C22.5819 27.863 22.4385 27.6902 22.3613 27.5535C22.3218 27.4834 22.2991 27.4214 22.2867 27.3795C22.2805 27.3587 22.2771 27.3433 22.2754 27.3352L22.2742 27.3291Z" fill="#222222"/>
</svg>
