<svg width="40" height="39" viewBox="0 0 40 39" fill="none" xmlns="http://www.w3.org/2000/svg">
<path d="M19.9997 38.6102C30.8246 38.6102 39.5999 30.0543 39.5999 19.5C39.5999 8.94571 30.8246 0.389771 19.9997 0.389771C9.17474 0.389771 0.399414 8.94571 0.399414 19.5C0.399414 30.0543 9.17474 38.6102 19.9997 38.6102Z" fill="white"/>
<path fill-rule="evenodd" clip-rule="evenodd" d="M20 0.779538C9.39587 0.779538 0.799526 9.16098 0.799526 19.5C0.799526 29.839 9.39587 38.2205 20 38.2205C30.6041 38.2205 39.2005 29.839 39.2005 19.5C39.2005 9.16098 30.6041 0.779538 20 0.779538ZM0 19.5C0 8.73045 8.95431 0 20 0C31.0457 0 40 8.73045 40 19.5C40 30.2696 31.0457 39 20 39C8.95431 39 0 30.2696 0 19.5Z" fill="#222222"/>
<path d="M19.9183 36.301C27.631 36.301 33.8835 30.2049 33.8835 22.685C33.8835 15.1651 27.631 9.06897 19.9183 9.06897C12.2055 9.06897 5.95312 15.1651 5.95312 22.685C5.95312 30.2049 12.2055 36.301 19.9183 36.301Z" fill="#FFC3BD"/>
<mask id="mask0" mask-type="alpha" maskUnits="userSpaceOnUse" x="5" y="9" width="29" height="28">
<path d="M19.9183 36.301C27.631 36.301 33.8835 30.2049 33.8835 22.685C33.8835 15.1651 27.631 9.06897 19.9183 9.06897C12.2055 9.06897 5.95312 15.1651 5.95312 22.685C5.95312 30.2049 12.2055 36.301 19.9183 36.301Z" fill="#FFC3BD"/>
</mask>
<g mask="url(#mask0)">
<path d="M36.2443 26.5939C36.2496 23.7355 33.9138 21.4141 31.0271 21.409C28.1405 21.404 25.7961 23.7171 25.7908 26.5755C25.7855 29.434 28.1213 31.7553 31.008 31.7604C33.8946 31.7655 36.239 29.4524 36.2443 26.5939Z" fill="#FFAEBA"/>
<path d="M14.0041 26.9208C14.0093 24.0624 11.6735 21.741 8.78689 21.7359C5.90025 21.7309 3.55588 24.044 3.55059 26.9024C3.5453 29.7609 5.8811 32.0822 8.76775 32.0873C11.6544 32.0924 13.9988 29.7793 14.0041 26.9208Z" fill="#FFAEBA"/>
</g>
<path fill-rule="evenodd" clip-rule="evenodd" d="M28.5631 25.7919C28.7427 25.917 28.7844 26.1604 28.656 26.3356L27.8394 27.4504C27.711 27.6255 27.4614 27.6661 27.2817 27.541C27.102 27.4159 27.0604 27.1724 27.1888 26.9973L28.0054 25.8825C28.1338 25.7073 28.3834 25.6668 28.5631 25.7919Z" fill="#FF5764"/>
<path fill-rule="evenodd" clip-rule="evenodd" d="M30.2779 25.7919C30.4576 25.917 30.4992 26.1604 30.3709 26.3356L29.5542 27.4504C29.4259 27.6255 29.1762 27.6661 28.9965 27.541C28.8169 27.4159 28.7753 27.1724 28.9036 26.9973L29.7203 25.8825C29.8486 25.7073 30.0983 25.6668 30.2779 25.7919Z" fill="#FF5764"/>
<path fill-rule="evenodd" clip-rule="evenodd" d="M10.6926 26.2802C10.8662 26.4132 10.8963 26.6582 10.7599 26.8275L9.86158 27.9423C9.72518 28.1115 9.47386 28.1409 9.30026 28.0079C9.12665 27.8749 9.0965 27.6299 9.2329 27.4606L10.1312 26.3459C10.2676 26.1766 10.519 26.1472 10.6926 26.2802Z" fill="#FF5764"/>
<path fill-rule="evenodd" clip-rule="evenodd" d="M12.4074 26.2802C12.581 26.4132 12.6112 26.6582 12.4748 26.8275L11.5764 27.9423C11.44 28.1115 11.1887 28.1409 11.0151 28.0079C10.8415 27.8749 10.8113 27.6299 10.9477 27.4606L11.8461 26.3459C11.9825 26.1766 12.2338 26.1472 12.4074 26.2802Z" fill="#FF5764"/>
<path fill-rule="evenodd" clip-rule="evenodd" d="M19.9186 9.45886C12.4267 9.45886 6.35324 15.3805 6.35324 22.6851C6.35324 29.9898 12.4267 35.9114 19.9186 35.9114C27.4106 35.9114 33.484 29.9898 33.484 22.6851C33.484 15.3805 27.4106 9.45886 19.9186 9.45886ZM5.55371 22.6851C5.55371 14.9499 11.9851 8.67932 19.9186 8.67932C27.8522 8.67932 34.2836 14.9499 34.2836 22.6851C34.2836 30.4203 27.8522 36.6909 19.9186 36.6909C11.9851 36.6909 5.55371 30.4203 5.55371 22.6851Z" fill="#222222"/>
<path fill-rule="evenodd" clip-rule="evenodd" d="M19.6729 22.6316C19.8385 22.6316 19.9727 22.7625 19.9727 22.9239V23.7998C19.9727 23.9613 19.8385 24.0922 19.6729 24.0922C19.5073 24.0922 19.373 23.9613 19.373 23.7998V22.9239C19.373 22.7625 19.5073 22.6316 19.6729 22.6316Z" fill="#222222"/>
<path d="M18.9373 7.31724C18.284 7.39686 17.549 7.55612 16.9773 7.79499C14.4456 8.75051 12.7306 11.3782 12.3223 14.0854L15.9156 14.6428L17.2223 12.3337L18.284 14.6428H21.6324L22.6941 12.4929L24.0824 14.6428L27.5941 14.0854C27.5941 14.0854 27.1041 12.4133 27.1041 12.254C26.6141 10.6615 25.6341 9.22826 24.1641 8.27275C22.6941 7.31724 20.734 7.07836 18.9373 7.31724Z" fill="#FF793E"/>
<path fill-rule="evenodd" clip-rule="evenodd" d="M18.8859 6.93067C20.7438 6.68407 22.8106 6.92419 24.3862 7.94836C25.9439 8.96087 26.9744 10.4748 27.4874 12.142C27.4969 12.1728 27.5024 12.2046 27.5039 12.2367C27.5039 12.2356 27.5039 12.235 27.5039 12.235C27.5043 12.235 27.5067 12.2522 27.5165 12.2967C27.5285 12.3514 27.5464 12.4249 27.5689 12.5128C27.6138 12.6879 27.6742 12.9087 27.7352 13.1268C27.7961 13.3445 27.857 13.5574 27.9028 13.7161C27.9257 13.7954 27.9447 13.861 27.958 13.9068L27.9788 13.978C27.9788 13.978 27.9789 13.9783 27.5945 14.0854L27.9788 13.978C28.0102 14.085 27.9932 14.2003 27.932 14.2942C27.8709 14.3882 27.7714 14.4522 27.6588 14.4701L24.147 15.0274C23.9886 15.0526 23.8301 14.9829 23.7445 14.8504L22.7412 13.2967L21.993 14.8118C21.9263 14.9467 21.7864 15.0325 21.6328 15.0325H18.2844C18.1269 15.0325 17.9841 14.9423 17.9196 14.8022L17.1857 13.2059L16.2661 14.831C16.1847 14.9748 16.0196 15.0535 15.8532 15.0277L12.2599 14.4703C12.0436 14.4368 11.8953 14.2399 11.9272 14.0287C12.3499 11.2258 14.129 8.45552 16.8268 7.43392C17.4431 7.1775 18.214 7.01271 18.8859 6.93067ZM27.0882 13.7708C27.0503 13.6386 27.0071 13.4866 26.9638 13.3319C26.9024 13.1121 26.8402 12.885 26.7932 12.7018C26.7698 12.6106 26.7495 12.5273 26.7347 12.46C26.7276 12.428 26.717 12.3794 26.7104 12.33C26.2399 10.8267 25.3141 9.48839 23.9427 8.59698C22.579 7.71053 20.7267 7.47268 18.9918 7.70335L18.9873 7.70394C18.3555 7.78095 17.6605 7.93368 17.1352 8.15317C17.1308 8.15499 17.1265 8.15673 17.122 8.1584C14.875 9.00646 13.2738 11.2948 12.7845 13.7623L15.7016 14.2148L16.8727 12.1453C16.9459 12.0159 17.0878 11.938 17.2393 11.9442C17.3907 11.9503 17.5255 12.0393 17.5875 12.1742L18.5433 14.253H21.3816L22.3343 12.3238C22.3974 12.196 22.5266 12.1117 22.6718 12.1037C22.817 12.0957 22.9553 12.1652 23.0328 12.2852L24.28 14.2165L27.0882 13.7708Z" fill="#231815"/>
<path d="M15.5084 24.1184C16.4104 24.1184 17.1417 23.4054 17.1417 22.5259C17.1417 21.6463 16.4104 20.9333 15.5084 20.9333C14.6063 20.9333 13.875 21.6463 13.875 22.5259C13.875 23.4054 14.6063 24.1184 15.5084 24.1184Z" fill="#222222"/>
<path fill-rule="evenodd" clip-rule="evenodd" d="M15.5084 21.2257C14.7719 21.2257 14.1749 21.8078 14.1749 22.5259C14.1749 23.2439 14.7719 23.826 15.5084 23.826C16.2449 23.826 16.8419 23.2439 16.8419 22.5259C16.8419 21.8078 16.2449 21.2257 15.5084 21.2257ZM13.5752 22.5259C13.5752 21.4849 14.4407 20.641 15.5084 20.641C16.5761 20.641 17.4416 21.4849 17.4416 22.5259C17.4416 23.5668 16.5761 24.4107 15.5084 24.4107C14.4407 24.4107 13.5752 23.5668 13.5752 22.5259Z" fill="#222222"/>
<path d="M15.5902 23.1627C15.906 23.1627 16.1619 22.9132 16.1619 22.6054C16.1619 22.2975 15.906 22.048 15.5902 22.048C15.2745 22.048 15.0186 22.2975 15.0186 22.6054C15.0186 22.9132 15.2745 23.1627 15.5902 23.1627Z" fill="white"/>
<path d="M23.7564 24.1184C24.6585 24.1184 25.3898 23.4054 25.3898 22.5259C25.3898 21.6463 24.6585 20.9333 23.7564 20.9333C22.8543 20.9333 22.123 21.6463 22.123 22.5259C22.123 23.4054 22.8543 24.1184 23.7564 24.1184Z" fill="#222222"/>
<path fill-rule="evenodd" clip-rule="evenodd" d="M23.7564 21.2257C23.02 21.2257 22.4229 21.8078 22.4229 22.5259C22.4229 23.2439 23.02 23.826 23.7564 23.826C24.4929 23.826 25.0899 23.2439 25.0899 22.5259C25.0899 21.8078 24.4929 21.2257 23.7564 21.2257ZM21.8232 22.5259C21.8232 21.4849 22.6888 20.641 23.7564 20.641C24.8241 20.641 25.6896 21.4849 25.6896 22.5259C25.6896 23.5668 24.8241 24.4107 23.7564 24.4107C22.6888 24.4107 21.8232 23.5668 21.8232 22.5259Z" fill="#222222"/>
<path d="M23.8383 23.1627C24.154 23.1627 24.41 22.9132 24.41 22.6054C24.41 22.2975 24.154 22.048 23.8383 22.048C23.5225 22.048 23.2666 22.2975 23.2666 22.6054C23.2666 22.9132 23.5225 23.1627 23.8383 23.1627Z" fill="white"/>
<path d="M19.673 29.2143C19.1013 29.2143 18.6113 28.7366 18.6113 28.1792V26.5867H20.653V28.1792C20.653 28.7366 20.2447 29.2143 19.673 29.2143Z" fill="white"/>
<path fill-rule="evenodd" clip-rule="evenodd" d="M18.2119 26.5868C18.2119 26.3715 18.3909 26.197 18.6117 26.197H20.6534C20.8742 26.197 21.0531 26.3715 21.0531 26.5868V28.1793C21.0531 28.9101 20.5065 29.6042 19.6734 29.6042C18.8809 29.6042 18.2119 28.952 18.2119 28.1793V26.5868ZM19.0114 26.9766V28.1793C19.0114 28.5214 19.3225 28.8247 19.6734 28.8247C19.9836 28.8247 20.2536 28.5633 20.2536 28.1793V26.9766H19.0114Z" fill="#222222"/>
<path fill-rule="evenodd" clip-rule="evenodd" d="M14.7381 18.9253L14.7377 18.9258L14.737 18.9266L14.7358 18.928L14.7343 18.9296C14.7341 18.9298 14.734 18.9299 14.734 18.9299C14.734 18.9299 14.7342 18.9297 14.7345 18.9293C14.5184 19.1704 14.1429 19.1971 13.893 18.9883C13.6416 18.7781 13.6124 18.409 13.828 18.1639L14.2832 18.5444C13.828 18.1639 13.8282 18.1636 13.8284 18.1634L13.8289 18.1629L13.8299 18.1617L13.8321 18.1592L13.8379 18.1528C13.8422 18.148 13.8476 18.1422 13.8541 18.1354C13.8669 18.1219 13.8839 18.1045 13.9049 18.0841C13.9468 18.0435 14.0054 17.9903 14.0796 17.9321C14.2257 17.8175 14.4444 17.6738 14.7238 17.5761C15.0075 17.4767 15.3569 17.4241 15.7462 17.5011C16.1358 17.5782 16.5238 17.777 16.8974 18.1169C17.1395 18.3373 17.1526 18.7072 16.9266 18.9433C16.7007 19.1793 16.3212 19.1921 16.0791 18.9718C15.8402 18.7544 15.6463 18.6745 15.5077 18.6471C15.3687 18.6195 15.2434 18.6366 15.129 18.6766C15.0103 18.7182 14.9073 18.7836 14.8314 18.8431C14.7946 18.872 14.7671 18.8972 14.7506 18.9132C14.7424 18.9211 14.7372 18.9266 14.7351 18.9288" fill="#222222"/>
<path fill-rule="evenodd" clip-rule="evenodd" d="M22.9041 18.9253L22.9037 18.9258L22.903 18.9266L22.9018 18.928L22.9003 18.9296C22.9001 18.9298 22.9 18.9299 22.9 18.9299C22.9 18.9299 22.9002 18.9297 22.9006 18.9293C22.6844 19.1704 22.3089 19.1971 22.059 18.9883C21.8076 18.7781 21.7785 18.409 21.994 18.1639L22.4493 18.5444C21.994 18.1639 21.9942 18.1636 21.9944 18.1634L21.9949 18.1629L21.9959 18.1617L21.9982 18.1592L22.0039 18.1528C22.0083 18.148 22.0137 18.1422 22.0201 18.1354C22.0329 18.1219 22.0499 18.1045 22.0709 18.0841C22.1128 18.0435 22.1715 17.9903 22.2456 17.9321C22.3917 17.8175 22.6104 17.6738 22.8898 17.5761C23.1735 17.4767 23.5229 17.4241 23.9122 17.5011C24.3018 17.5782 24.6898 17.777 25.0634 18.1169C25.3055 18.3373 25.3186 18.7072 25.0927 18.9433C24.8667 19.1793 24.4873 19.1921 24.2451 18.9718C24.0062 18.7544 23.8124 18.6745 23.6737 18.6471C23.5347 18.6195 23.4094 18.6366 23.295 18.6766C23.1763 18.7182 23.0734 18.7836 22.9974 18.8431C22.9606 18.872 22.9331 18.8972 22.9166 18.9132C22.9084 18.9211 22.9032 18.9266 22.9011 18.9288" fill="#222222"/>
</svg>
