<svg width="40" height="39" viewBox="0 0 40 39" fill="none" xmlns="http://www.w3.org/2000/svg">
<path d="M19.9997 38.6102C30.8246 38.6102 39.5999 30.0543 39.5999 19.5C39.5999 8.94571 30.8246 0.389771 19.9997 0.389771C9.17474 0.389771 0.399414 8.94571 0.399414 19.5C0.399414 30.0543 9.17474 38.6102 19.9997 38.6102Z" fill="white"/>
<path fill-rule="evenodd" clip-rule="evenodd" d="M20 0.779538C9.39587 0.779538 0.799526 9.16098 0.799526 19.5C0.799526 29.839 9.39587 38.2205 20 38.2205C30.6041 38.2205 39.2005 29.839 39.2005 19.5C39.2005 9.16098 30.6041 0.779538 20 0.779538ZM0 19.5C0 8.73045 8.95431 0 20 0C31.0457 0 40 8.73045 40 19.5C40 30.2696 31.0457 39 20 39C8.95431 39 0 30.2696 0 19.5Z" fill="#222222"/>
<path d="M19.9183 36.301C27.631 36.301 33.8835 30.2049 33.8835 22.685C33.8835 15.1651 27.631 9.06897 19.9183 9.06897C12.2055 9.06897 5.95312 15.1651 5.95312 22.685C5.95312 30.2049 12.2055 36.301 19.9183 36.301Z" fill="#FFE4DE"/>
<mask id="mask0" mask-type="alpha" maskUnits="userSpaceOnUse" x="5" y="9" width="29" height="28">
<path d="M19.9183 36.301C27.631 36.301 33.8835 30.2049 33.8835 22.685C33.8835 15.1651 27.631 9.06897 19.9183 9.06897C12.2055 9.06897 5.95312 15.1651 5.95312 22.685C5.95312 30.2049 12.2055 36.301 19.9183 36.301Z" fill="#FFE4DE"/>
</mask>
<g mask="url(#mask0)">
<path d="M36.2453 26.5939C36.2505 23.7355 33.9147 21.4141 31.0281 21.409C28.1415 21.404 25.7971 23.7171 25.7918 26.5755C25.7865 29.434 28.1223 31.7553 31.009 31.7604C33.8956 31.7655 36.24 29.4524 36.2453 26.5939Z" fill="#FFAEBA"/>
<path d="M14.0041 26.9208C14.0093 24.0624 11.6735 21.741 8.78689 21.7359C5.90025 21.7309 3.55588 24.044 3.55059 26.9024C3.5453 29.7609 5.8811 32.0822 8.76775 32.0873C11.6544 32.0924 13.9988 29.7793 14.0041 26.9208Z" fill="#FFAEBA"/>
</g>
<path fill-rule="evenodd" clip-rule="evenodd" d="M28.5631 25.7919C28.7427 25.917 28.7844 26.1604 28.656 26.3356L27.8394 27.4504C27.711 27.6255 27.4614 27.6661 27.2817 27.541C27.102 27.4159 27.0604 27.1724 27.1888 26.9973L28.0054 25.8825C28.1338 25.7073 28.3834 25.6668 28.5631 25.7919Z" fill="#FF5764"/>
<path fill-rule="evenodd" clip-rule="evenodd" d="M30.2779 25.7919C30.4576 25.917 30.4992 26.1604 30.3709 26.3356L29.5542 27.4504C29.4259 27.6255 29.1762 27.6661 28.9965 27.541C28.8169 27.4159 28.7753 27.1724 28.9036 26.9973L29.7203 25.8825C29.8486 25.7073 30.0983 25.6668 30.2779 25.7919Z" fill="#FF5764"/>
<path fill-rule="evenodd" clip-rule="evenodd" d="M10.6926 26.2802C10.8662 26.4132 10.8963 26.6582 10.7599 26.8275L9.86158 27.9423C9.72518 28.1115 9.47386 28.1409 9.30026 28.0079C9.12665 27.8749 9.0965 27.6299 9.2329 27.4606L10.1312 26.3459C10.2676 26.1766 10.519 26.1472 10.6926 26.2802Z" fill="#FF5764"/>
<path fill-rule="evenodd" clip-rule="evenodd" d="M12.4074 26.2802C12.581 26.4132 12.6112 26.6582 12.4748 26.8275L11.5764 27.9423C11.44 28.1115 11.1887 28.1409 11.0151 28.0079C10.8415 27.8749 10.8113 27.6299 10.9477 27.4606L11.8461 26.3459C11.9825 26.1766 12.2338 26.1472 12.4074 26.2802Z" fill="#FF5764"/>
<path fill-rule="evenodd" clip-rule="evenodd" d="M19.9186 9.45874C12.4267 9.45874 6.35324 15.3803 6.35324 22.685C6.35324 29.9897 12.4267 35.9113 19.9186 35.9113C27.4106 35.9113 33.4841 29.9897 33.4841 22.685C33.4841 15.3803 27.4106 9.45874 19.9186 9.45874ZM5.55371 22.685C5.55371 14.9498 11.9851 8.6792 19.9186 8.6792C27.8522 8.6792 34.2836 14.9498 34.2836 22.685C34.2836 30.4202 27.8522 36.6908 19.9186 36.6908C11.9851 36.6908 5.55371 30.4202 5.55371 22.685Z" fill="#222222"/>
<path d="M13.1396 10.9005C13.2213 12.1745 14.3647 13.2096 15.6713 13.13C16.0797 13.13 16.4064 12.9707 16.733 12.8115C17.1414 13.6874 18.0397 14.3244 19.1014 14.2448C20.1631 14.1651 21.0614 13.4485 21.3064 12.493C21.7148 12.8115 22.2048 12.9707 22.7764 12.8911C24.0831 12.8115 25.1448 11.6967 25.0631 10.4227C24.9815 9.4672 24.3281 8.59131 23.4298 8.35244C23.4298 8.27281 23.4298 8.27281 23.4298 8.19318C23.3481 6.91917 22.2048 5.88403 20.8981 5.96366C20.0814 5.96366 19.4281 6.44141 19.0197 6.99879C18.5297 6.44141 17.7947 6.04328 16.978 6.12291C15.6713 6.20253 14.6097 7.23767 14.6913 8.51169C13.793 8.90982 13.1396 9.86533 13.1396 10.9005Z" fill="#AF8468"/>
<path fill-rule="evenodd" clip-rule="evenodd" d="M23.8211 8.07244C24.7528 8.45309 25.3772 9.39985 25.4619 10.3904L25.4625 10.3984C25.5584 11.8937 24.3253 13.1789 22.8175 13.2792C22.3348 13.3434 21.8971 13.2646 21.5116 13.0803C21.0814 13.9505 20.1684 14.5557 19.1324 14.6334C18.0279 14.7163 17.0897 14.1422 16.5626 13.3228C16.3131 13.4278 16.0222 13.5176 15.6844 13.5198C14.1507 13.6064 12.8354 12.398 12.741 10.9248C12.7405 10.9167 12.7402 10.9086 12.7402 10.9005C12.7402 9.80518 13.3737 8.78897 14.2893 8.27559C14.3424 6.88704 15.5387 5.82361 16.9461 5.7344C17.7443 5.65889 18.4589 5.96449 18.9933 6.4199C19.4512 5.95123 20.0956 5.57787 20.8859 5.57396C22.3859 5.48932 23.6769 6.64346 23.8211 8.07244ZM23.0304 8.20594C22.9555 7.14038 21.9939 6.28747 20.9234 6.3527C20.9151 6.35321 20.9067 6.35346 20.8984 6.35346C20.2523 6.35346 19.7065 6.73242 19.3454 7.22538C19.2739 7.32288 19.1605 7.38293 19.0377 7.38822C18.915 7.39351 18.7965 7.34346 18.7165 7.25249C18.2874 6.76434 17.6717 6.44706 17.0182 6.51078C17.0132 6.51126 17.0083 6.51165 17.0033 6.51196C15.8874 6.57996 15.0246 7.45601 15.0907 8.48741C15.101 8.6488 15.0081 8.79965 14.8571 8.86656C14.1054 9.19971 13.545 10.0102 13.5398 10.8883C13.6149 11.9536 14.5764 12.8062 15.6468 12.741C15.6551 12.7405 15.6634 12.7403 15.6717 12.7403C15.9726 12.7403 16.2189 12.6266 16.5546 12.4629C16.6517 12.4156 16.7644 12.4088 16.8668 12.4441C16.9692 12.4794 17.0524 12.5539 17.0973 12.6502C17.448 13.4024 18.2037 13.9212 19.0711 13.8562C19.9725 13.7886 20.7183 13.1808 20.9189 12.3985C20.952 12.2697 21.0499 12.1662 21.1789 12.1237C21.3079 12.0813 21.4502 12.1057 21.5565 12.1887C21.8867 12.4462 22.2676 12.5683 22.7202 12.5053C22.7307 12.5038 22.7413 12.5028 22.7518 12.5021C23.8489 12.4353 24.7294 11.497 24.6647 10.4511C24.593 9.63046 24.0321 8.91655 23.3249 8.72851C23.151 8.68226 23.0304 8.52824 23.0304 8.35247V8.20594Z" fill="#222222"/>
<path d="M16.9781 23.0035C17.0598 22.9239 17.1414 22.7646 17.1414 22.6054C17.1414 22.3665 17.0598 22.2073 16.8148 22.1276C16.8964 22.048 16.9781 21.8888 16.9781 21.7295C16.9781 21.6499 16.9781 21.5703 16.8964 21.4906C16.8964 21.411 16.9781 21.3314 16.9781 21.2518C16.9781 20.9333 16.6514 20.6147 16.2431 20.6147H12.9764C12.568 20.6147 12.2414 20.8536 12.2414 21.2518C12.2414 21.3314 12.2414 21.411 12.323 21.4906C12.323 21.5703 12.2414 21.6499 12.2414 21.7295C12.2414 21.8091 12.2414 21.8888 12.323 21.9684H11.9147C11.5064 21.9684 11.1797 22.2073 11.1797 22.6054C11.1797 22.9239 11.5064 23.2424 11.9147 23.2424H11.9964C11.833 23.322 11.7514 23.4813 11.7514 23.6405C11.7514 23.959 12.078 24.2775 12.4864 24.2775H16.6514C17.0598 24.2775 17.3864 24.0387 17.3864 23.6405C17.3864 23.322 17.2231 23.0832 16.9781 23.0035Z" fill="#222222"/>
<path d="M14.9366 22.048C14.9366 22.4461 14.6099 22.685 14.2832 22.685C13.8749 22.685 13.6299 22.3665 13.6299 22.048C13.6299 21.6498 13.9566 21.411 14.2832 21.411C14.6099 21.3313 14.9366 21.6498 14.9366 22.048Z" fill="white"/>
<path d="M15.5081 23.3221C15.5081 23.561 15.3447 23.7202 15.0997 23.7202C14.8547 23.7202 14.6914 23.561 14.6914 23.3221C14.6914 23.0832 14.8547 22.924 15.0997 22.924C15.3447 22.924 15.5081 23.1628 15.5081 23.3221Z" fill="white"/>
<path d="M22.6131 23.0035C22.5314 22.9239 22.4497 22.7646 22.4497 22.6054C22.4497 22.3665 22.5314 22.2073 22.7764 22.1276C22.6947 22.048 22.6131 21.8888 22.6131 21.7295C22.6131 21.6499 22.6131 21.5703 22.6947 21.4906C22.6947 21.411 22.6131 21.3314 22.6131 21.2518C22.6131 20.9333 22.9397 20.6147 23.3481 20.6147H26.6148C27.0231 20.6147 27.3498 20.8536 27.3498 21.2518C27.3498 21.3314 27.3498 21.411 27.2681 21.4906C27.2681 21.5703 27.3498 21.6499 27.3498 21.7295C27.3498 21.8091 27.3498 21.8888 27.2681 21.9684H27.6764C28.0848 21.9684 28.4115 22.2073 28.4115 22.6054C28.4115 22.9239 28.0848 23.2424 27.6764 23.2424H27.5948C27.7581 23.322 27.8398 23.4813 27.8398 23.6405C27.8398 23.959 27.5131 24.2775 27.1048 24.2775H22.8581C22.4497 24.2775 22.123 24.0387 22.123 23.6405C22.123 23.322 22.3681 23.0832 22.6131 23.0035Z" fill="#222222"/>
<path d="M24.5732 22.048C24.5732 22.4461 24.8999 22.685 25.2266 22.685C25.6349 22.685 25.8799 22.3665 25.8799 22.048C25.8799 21.6498 25.5533 21.411 25.2266 21.411C24.8999 21.3313 24.5732 21.6498 24.5732 22.048Z" fill="white"/>
<path d="M24.002 23.3221C24.002 23.561 24.1653 23.7202 24.4103 23.7202C24.6553 23.7202 24.8186 23.561 24.8186 23.3221C24.8186 23.0832 24.6553 22.924 24.4103 22.924C24.1653 22.924 24.002 23.1628 24.002 23.3221Z" fill="white"/>
<path fill-rule="evenodd" clip-rule="evenodd" d="M19.6729 22.6316C19.8385 22.6316 19.9727 22.7625 19.9727 22.9239V23.7998C19.9727 23.9613 19.8385 24.0922 19.6729 24.0922C19.5073 24.0922 19.373 23.9613 19.373 23.7998V22.9239C19.373 22.7625 19.5073 22.6316 19.6729 22.6316Z" fill="#222222"/>
<path fill-rule="evenodd" clip-rule="evenodd" d="M16.7525 18.1257C16.8092 18.4438 16.5907 18.7465 16.2644 18.8019L14.3861 19.1204C14.0598 19.1757 13.7493 18.9627 13.6926 18.6445C13.6358 18.3264 13.8543 18.0237 14.1806 17.9684L16.0589 17.6499C16.3852 17.5945 16.6957 17.8076 16.7525 18.1257Z" fill="#222222"/>
<path fill-rule="evenodd" clip-rule="evenodd" d="M22.1857 18.1257C22.2425 17.8076 22.553 17.5945 22.8792 17.6499L24.7576 17.9684C25.0839 18.0237 25.3024 18.3264 25.2456 18.6445C25.1889 18.9627 24.8784 19.1757 24.5521 19.1204L22.6738 18.8019C22.3475 18.7465 22.129 18.4438 22.1857 18.1257Z" fill="#222222"/>
<path fill-rule="evenodd" clip-rule="evenodd" d="M19.1069 26.6775C19.3779 26.3977 19.7907 26.2535 20.2601 26.3679C20.4743 26.4201 20.6045 26.6317 20.551 26.8406C20.4974 27.0494 20.2804 27.1764 20.0662 27.1242C19.8823 27.0793 19.7643 27.1341 19.6882 27.2127C19.604 27.2996 19.5623 27.4262 19.5747 27.5383C19.5858 27.5645 19.6195 27.6118 19.7218 27.683C19.7774 27.7217 19.8404 27.7589 19.9136 27.8007C19.9234 27.8064 19.9337 27.8122 19.9442 27.8182C20.0056 27.8531 20.077 27.8938 20.1399 27.9346C20.2396 27.9994 20.3042 28.1043 20.316 28.2205C20.3278 28.3367 20.2855 28.452 20.2008 28.5345L19.9182 28.2589C20.2008 28.5345 20.2008 28.5346 20.2007 28.5347L20.2006 28.5348L20.2003 28.5351L20.1997 28.5357L20.1983 28.537L20.1952 28.5399L20.1873 28.5473C20.1812 28.5528 20.1735 28.5596 20.1643 28.5673C20.1463 28.5823 20.1206 28.6024 20.0889 28.623C20.053 28.6463 19.9811 28.6895 19.8848 28.7127C19.8489 28.7327 19.8152 28.7545 19.7724 28.7823L19.7685 28.7848C19.7157 28.8192 19.6493 28.8623 19.5643 28.9064C19.4841 28.9728 19.4287 29.0635 19.411 29.1454C19.3944 29.2225 19.4098 29.2824 19.4658 29.337C19.5448 29.4139 19.6509 29.4774 19.7553 29.5074C19.8582 29.5369 19.9333 29.5277 19.9844 29.5028C20.1819 29.4066 20.422 29.4846 20.5207 29.6771C20.6195 29.8697 20.5394 30.1038 20.3419 30.2001C20.0663 30.3344 19.7739 30.3253 19.5297 30.2552C19.2871 30.1857 19.0665 30.0501 18.9005 29.8882C18.6298 29.6242 18.5636 29.286 18.6286 28.9848C18.691 28.6959 18.8721 28.4371 19.1066 28.2656C19.1207 28.2553 19.1355 28.2459 19.1509 28.2375C19.0072 28.1202 18.8558 27.9524 18.7953 27.7164C18.7927 27.7064 18.7906 27.6962 18.7888 27.686C18.7271 27.3249 18.8489 26.9438 19.1069 26.6775Z" fill="#222222"/>
</svg>
