
<svg width="142" height="158" viewBox="0 0 142 158" fill="none" xmlns="http://www.w3.org/2000/svg">
<g clip-path="url(#clip0)">
<path d="M120.999 97.52L118.879 121L104.039 136.29C104.039 136.29 93.2991 139.3 86.2991 136.29C79.2991 133.28 78.5391 100.06 78.5391 100.06L110.119 87.92" fill="white"/>
<path d="M92.1476 138.01C86.2776 144.82 84.4975 140.35 78.2675 145.25C76.8475 146.36 75.7476 148.3 73.9576 148.82C72.8276 149.15 72.3276 149.15 71.3476 148.57C69.7576 147.62 65.5576 144.49 66.2976 142.01C66.8676 140.13 69.5776 140.61 69.7376 139.43C70.4876 134.1 74.1376 132.3 75.6076 129.67C75.6076 129.67 80.9175 121.62 79.0175 108.83" fill="white"/>
<path d="M79.2275 137.62C79.2675 140.43 81.4075 143.34 76.6575 143.41C74.0875 143.45 69.6875 145.08 69.6875 137.96C69.6875 135.19 72.0175 132.41 74.5875 132.37C77.1575 132.34 79.1975 134.85 79.2275 137.62Z" fill="url(#paint0_radial)"/>
<path d="M92.1476 138.01C86.2776 144.82 84.4975 140.35 78.2675 145.25C76.8475 146.36 75.7476 148.3 73.9576 148.82C72.8276 149.15 72.3276 149.15 71.3476 148.57C69.7576 147.62 65.5576 144.49 66.2976 142.01C66.8676 140.13 69.5776 140.61 69.7376 139.43C70.4876 134.1 74.1376 132.3 75.6076 129.67C75.6076 129.67 80.9175 121.62 79.0175 108.83" stroke="#222222" stroke-width="1.7" stroke-miterlimit="10" stroke-linecap="round" stroke-linejoin="round"/>
<path d="M99.5366 138.09C98.8666 142.54 97.8066 146.14 100.037 151.04C100.777 152.68 98.0366 153.35 98.7366 155.19C99.4466 157.05 102.347 156.99 104.417 156.92C108.897 156.75 111.707 156.36 112.957 153.39C114.047 150.79 112.717 146.3 118.207 140.99C123.067 136.29 124.787 133.04 124.777 126.1C124.777 121.23 123.067 112.61 119.747 103.61" fill="white"/>
<path d="M112.126 136.83C114.716 139.11 114.596 147.14 112.316 149.73C110.036 152.32 103.126 153.39 100.536 151.11C97.9464 148.83 96.8164 142.43 99.0964 139.84C101.386 137.24 109.536 134.55 112.126 136.83Z" fill="url(#paint1_radial)"/>
<path d="M99.5366 138.09C98.8666 142.54 97.8066 146.14 100.037 151.04C100.777 152.68 98.0366 153.35 98.7366 155.19C99.4466 157.05 102.347 156.99 104.417 156.92C108.897 156.75 111.707 156.36 112.957 153.39C114.047 150.79 112.717 146.3 118.207 140.99C123.067 136.29 124.787 133.04 124.777 126.1C124.777 121.23 123.067 112.61 119.747 103.61" stroke="#222222" stroke-width="1.7" stroke-miterlimit="10" stroke-linecap="round" stroke-linejoin="round"/>
<path d="M101.776 136.5C101.776 136.5 96.0662 139.13 89.9062 136.28L101.776 136.5Z" fill="white"/>
<path d="M101.776 136.5C101.776 136.5 96.0662 139.13 89.9062 136.28" stroke="#222222" stroke-width="1.7" stroke-miterlimit="10" stroke-linecap="round" stroke-linejoin="round"/>
<path d="M92.8102 95.65C118.99 95.65 140.21 74.43 140.21 48.25C140.21 22.07 118.99 0.850006 92.8102 0.850006C66.6302 0.850006 45.4102 22.07 45.4102 48.25C45.4102 74.43 66.6302 95.65 92.8102 95.65Z" fill="white" stroke="#222222" stroke-width="1.7" stroke-miterlimit="10" stroke-linecap="round" stroke-linejoin="round"/>
<path d="M92.2289 90.41C108.715 90.41 122.079 77.0457 122.079 60.56C122.079 44.0743 108.715 30.71 92.2289 30.71C75.7432 30.71 62.3789 44.0743 62.3789 60.56C62.3789 77.0457 75.7432 90.41 92.2289 90.41Z" fill="#FFE4DE"/>
<path d="M92.2289 90.41C108.715 90.41 122.079 77.0457 122.079 60.56C122.079 44.0743 108.715 30.71 92.2289 30.71C75.7432 30.71 62.3789 44.0743 62.3789 60.56C62.3789 77.0457 75.7432 90.41 92.2289 90.41Z" stroke="#222222" stroke-width="1.7" stroke-miterlimit="10" stroke-linecap="round" stroke-linejoin="round"/>
<mask id="mask0" mask-type="alpha" maskUnits="userSpaceOnUse" x="63" y="30" width="60" height="60">
<path d="M93.9485 89.79C110.418 89.22 123.318 75.41 122.748 58.93C122.178 42.46 108.368 29.56 91.8885 30.13C75.4185 30.7 62.5185 44.51 63.0885 60.99C63.6585 77.46 77.4685 90.36 93.9485 89.79Z" fill="#FFE4DE"/>
</mask>
<g mask="url(#mask0)">
<path d="M71.5619 75.19C74.9619 74.26 76.9719 70.73 76.0319 67.3C75.1019 63.87 71.5819 61.83 68.1819 62.76C64.7819 63.69 62.7719 67.22 63.7119 70.65C64.6419 74.08 68.1519 76.12 71.5619 75.19Z" fill="#FFAEBA"/>
<path opacity="0.1" d="M94.4193 54.91C96.4093 55.34 98.3893 56.14 99.9493 57.59C101.609 59.15 102.579 61.94 101.399 63.98C100.329 65.81 97.9093 65.97 96.0893 65.91C95.8193 65.91 95.4993 65.86 95.2293 65.86C92.7593 65.59 90.3393 65.05 87.8793 65.38C85.7293 65.65 83.5293 66.35 81.6493 67.37C80.0393 68.28 78.4793 69.57 76.5993 69.95C73.5393 70.54 71.9293 67.1 72.1393 64.53C72.3493 61.58 75.0393 59.05 77.3493 57.55C79.2293 56.32 81.3793 55.56 83.5193 55.08C86.1993 54.49 88.9993 54.27 91.7293 54.54C92.6493 54.59 93.5093 54.69 94.4193 54.91Z" fill="black"/>
<path d="M71.6102 67.85L70.9102 69.41" stroke="#FF5764" stroke-width="0.8556" stroke-miterlimit="10" stroke-linecap="round" stroke-linejoin="round"/>
<path d="M73.4297 67.42L72.6797 68.98" stroke="#FF5764" stroke-width="0.8556" stroke-miterlimit="10" stroke-linecap="round" stroke-linejoin="round"/>
<path d="M88.1406 52.81L91.7406 51.15" stroke="#222222" stroke-width="2.567" stroke-miterlimit="10" stroke-linecap="round" stroke-linejoin="round"/>
<path d="M78.9114 54.75L74.9414 54.27" stroke="#222222" stroke-width="2.567" stroke-miterlimit="10" stroke-linecap="round" stroke-linejoin="round"/>
<path d="M103.182 67.52C106.592 66.63 108.642 63.12 107.742 59.68C106.842 56.24 103.352 54.17 99.9321 55.06C96.5221 55.95 94.4721 59.46 95.3721 62.9C96.2721 66.34 99.7721 68.41 103.182 67.52Z" fill="#FFAEBA"/>
<path d="M97.6986 61.73L97.0586 63.29" stroke="#FF5764" stroke-width="0.8556" stroke-miterlimit="10" stroke-linecap="round" stroke-linejoin="round"/>
<path d="M99.5203 61.24L98.8203 62.85" stroke="#FF5764" stroke-width="0.8556" stroke-miterlimit="10" stroke-linecap="round" stroke-linejoin="round"/>
<path d="M84.6484 82.18C84.6484 82.18 90.0684 84.86 95.0084 80.89" stroke="#222222" stroke-width="1.7" stroke-miterlimit="10" stroke-linecap="round" stroke-linejoin="round"/>
<path d="M83.4219 58.93L83.6319 59.63" stroke="#222222" stroke-width="0.8556" stroke-miterlimit="10" stroke-linecap="round" stroke-linejoin="round"/>
<path d="M90.1786 59.56C91.2086 59.27 91.7986 58.2 91.5086 57.17C91.2186 56.14 90.1486 55.55 89.1186 55.84C88.0886 56.13 87.4986 57.2 87.7886 58.23C88.0786 59.26 89.1486 59.85 90.1786 59.56Z" fill="#222222"/>
<path d="M90.4591 57.95C90.6891 57.89 90.8191 57.65 90.7491 57.42C90.6791 57.19 90.4491 57.06 90.2191 57.13C89.9891 57.2 89.8591 57.43 89.9291 57.66C89.9891 57.88 90.2291 58.01 90.4591 57.95Z" fill="#FFFDFD"/>
<path d="M84.0117 64.52L85.8917 63.93C85.8917 63.93 87.2317 66.61 86.0017 67.1C84.4417 67.68 84.0117 64.52 84.0117 64.52Z" fill="white" stroke="#222222" stroke-width="0.8556" stroke-miterlimit="10" stroke-linecap="round" stroke-linejoin="round"/>
<path d="M77.4297 59.69L79.8397 60.23" stroke="#222222" stroke-width="1.2835" stroke-miterlimit="10" stroke-linecap="round" stroke-linejoin="round"/>
<path d="M79.8311 60.28L78.3711 62.26" stroke="#222222" stroke-width="1.2835" stroke-miterlimit="10" stroke-linecap="round" stroke-linejoin="round"/>
</g>
<path d="M51.3472 92.38L54.0072 90.68L40.2772 67.07L37.6172 68.77L51.3472 92.38Z" fill="#222222" stroke="#222222" stroke-width="1.1091" stroke-miterlimit="10" stroke-linecap="round" stroke-linejoin="round"/>
<path d="M63.5488 58.43L19.3688 84.69C17.5288 85.78 15.1388 85.17 14.0388 83.34L1.38882 62.05C0.298816 60.21 0.908816 57.82 2.73882 56.72L46.9088 30.46C48.7488 29.37 51.1388 29.98 52.2388 31.81L64.8988 53.1C65.9888 54.94 65.3788 57.33 63.5488 58.43Z" fill="#DDDDDD" stroke="#222222" stroke-width="1.7" stroke-miterlimit="10" stroke-linecap="round" stroke-linejoin="round"/>
<path d="M58.3803 56.23L20.1603 78.95C18.7203 79.81 16.8403 79.33 15.9803 77.89L7.06027 62.9C6.20027 61.46 6.68027 59.58 8.12027 58.72L46.3403 35.99C47.7803 35.13 49.6603 35.61 50.5203 37.05L59.4303 52.04C60.3003 53.49 59.8203 55.37 58.3803 56.23Z" fill="white" stroke="#222222" stroke-width="1.7" stroke-miterlimit="10" stroke-linecap="round" stroke-linejoin="round"/>
<path d="M21.7173 62.99C21.7073 62.97 21.7073 62.97 21.6973 62.96C21.5673 62.74 21.2973 62.64 21.0773 62.73C20.9273 62.75 20.7873 62.83 20.6673 62.93C20.6473 62.94 20.6273 62.98 20.6073 62.99C20.2673 63.19 19.9173 63.38 19.5873 63.57C19.4773 63.47 19.3773 63.37 19.2673 63.27C18.8873 62.9 18.4673 62.59 17.9673 62.4C17.5973 62.28 17.1073 62.63 17.1473 63.05C17.2273 63.65 17.3373 64.23 17.4673 64.83C17.4373 64.85 17.4173 64.86 17.3773 64.88C16.9973 65.13 16.6173 65.43 16.2173 65.64C15.9973 65.77 15.8773 66.07 15.9373 66.34C16.0073 66.62 16.2673 66.77 16.5273 66.8C16.9973 66.85 17.4773 66.88 17.9473 66.9C18.0673 67.38 18.1873 67.89 18.2973 68.38C18.3473 68.65 18.6273 68.85 18.8973 68.88C19.1473 68.92 19.4873 68.78 19.5973 68.54C19.7973 68.03 20.0173 67.53 20.2273 67.03C20.3473 67.03 20.4673 67.05 20.5873 67.05C20.6873 67.06 20.7873 67.07 20.8873 67.08C20.9273 67.08 20.9573 67.08 21.0173 67.1C21.0173 67.1 21.0673 67.11 21.1173 67.11C21.2973 67.14 21.4973 67.16 21.6773 67.19C22.4273 67.32 22.7973 66.39 22.1573 65.98C22.0473 65.91 21.9573 65.84 21.8473 65.77C21.8373 65.75 21.7773 65.72 21.7773 65.72C21.7273 65.68 21.6973 65.65 21.6473 65.61C21.4773 65.48 21.3273 65.34 21.1873 65.19C21.1473 65.17 21.1273 65.13 21.0873 65.11C21.1573 64.95 21.2473 64.8 21.3473 64.65C21.5173 64.39 21.7273 64.12 21.8573 63.84C21.9073 63.5 21.8873 63.21 21.7173 62.99Z" fill="#FFC200"/>
<path d="M28.7055 58.8301C28.6955 58.8101 28.6955 58.8101 28.6855 58.8001C28.5555 58.5801 28.2855 58.4801 28.0655 58.5701C27.9155 58.5901 27.7755 58.6701 27.6555 58.7701C27.6355 58.7801 27.6155 58.8201 27.5955 58.8301C27.2555 59.0301 26.9055 59.2201 26.5755 59.4101C26.4655 59.3101 26.3655 59.2101 26.2555 59.1101C25.8755 58.7401 25.4555 58.4301 24.9555 58.2401C24.5855 58.1201 24.0955 58.4701 24.1355 58.8901C24.2155 59.4901 24.3255 60.0701 24.4555 60.6701C24.4255 60.6901 24.4055 60.7001 24.3655 60.7201C23.9855 60.9701 23.6055 61.2701 23.2055 61.4801C22.9855 61.6101 22.8655 61.9101 22.9255 62.1801C22.9955 62.4601 23.2555 62.6101 23.5155 62.6401C23.9855 62.6901 24.4655 62.7201 24.9355 62.7401C25.0555 63.2201 25.1755 63.7301 25.2855 64.2201C25.3355 64.4901 25.6155 64.6901 25.8855 64.7201C26.1355 64.7601 26.4755 64.6201 26.5855 64.3801C26.7855 63.8701 27.0055 63.3701 27.2155 62.8701C27.3355 62.8701 27.4555 62.8901 27.5755 62.8901C27.6755 62.9001 27.7755 62.9101 27.8755 62.9201C27.9155 62.9201 27.9455 62.9201 28.0055 62.9401C28.0055 62.9401 28.0555 62.9501 28.1055 62.9501C28.2855 62.9801 28.4855 63.0001 28.6655 63.0301C29.4155 63.1601 29.7855 62.2301 29.1455 61.8201C29.0355 61.7501 28.9455 61.6801 28.8355 61.6101C28.8255 61.5901 28.7655 61.5601 28.7655 61.5601C28.7155 61.5201 28.6855 61.4901 28.6355 61.4501C28.4655 61.3201 28.3155 61.1801 28.1755 61.0301C28.1355 61.0101 28.1155 60.9701 28.0755 60.9501C28.1455 60.7901 28.2355 60.6401 28.3355 60.4901C28.5055 60.2301 28.7155 59.9601 28.8455 59.6801C28.8955 59.3501 28.8755 59.0501 28.7055 58.8301Z" fill="#FFC200"/>
<path d="M35.6977 54.68C35.6877 54.66 35.6877 54.6601 35.6777 54.6501C35.5477 54.4301 35.2777 54.33 35.0577 54.42C34.9077 54.44 34.7677 54.52 34.6477 54.62C34.6277 54.63 34.6077 54.67 34.5877 54.68C34.2477 54.88 33.8977 55.07 33.5677 55.26C33.4577 55.16 33.3577 55.06 33.2477 54.96C32.8677 54.59 32.4477 54.28 31.9477 54.09C31.5777 53.97 31.0877 54.3201 31.1277 54.7401C31.2077 55.3401 31.3177 55.92 31.4477 56.52C31.4177 56.54 31.3977 56.55 31.3577 56.57C30.9777 56.82 30.5977 57.1201 30.1977 57.3301C29.9777 57.4601 29.8577 57.76 29.9177 58.03C29.9877 58.31 30.2477 58.4601 30.5077 58.4901C30.9777 58.5401 31.4577 58.57 31.9277 58.59C32.0477 59.07 32.1677 59.58 32.2777 60.07C32.3277 60.34 32.6077 60.54 32.8777 60.57C33.1277 60.61 33.4677 60.47 33.5777 60.23C33.7777 59.72 33.9977 59.2201 34.2077 58.7201C34.3277 58.7201 34.4477 58.7401 34.5677 58.7401C34.6677 58.7501 34.7677 58.76 34.8677 58.77C34.9077 58.77 34.9377 58.7701 34.9977 58.7901C34.9977 58.7901 35.0477 58.8 35.0977 58.8C35.2777 58.83 35.4777 58.85 35.6577 58.8801C36.4077 59.0101 36.7777 58.08 36.1377 57.67C36.0277 57.6 35.9377 57.53 35.8277 57.46C35.8177 57.44 35.7577 57.41 35.7577 57.41C35.7077 57.37 35.6777 57.34 35.6277 57.3C35.4577 57.17 35.3077 57.0301 35.1677 56.8801C35.1277 56.8601 35.1077 56.82 35.0677 56.8C35.1377 56.64 35.2277 56.49 35.3277 56.34C35.4977 56.08 35.7077 55.81 35.8377 55.53C35.8877 55.19 35.8677 54.9 35.6977 54.68Z" fill="#FFC200"/>
<path d="M42.686 50.52C42.676 50.5 42.676 50.5 42.666 50.49C42.536 50.27 42.266 50.17 42.046 50.26C41.896 50.28 41.756 50.36 41.636 50.46C41.616 50.47 41.596 50.51 41.576 50.52C41.236 50.72 40.886 50.91 40.556 51.1C40.446 51 40.346 50.9 40.236 50.8C39.856 50.43 39.436 50.12 38.936 49.93C38.566 49.81 38.076 50.16 38.116 50.58C38.196 51.18 38.306 51.76 38.436 52.36C38.406 52.38 38.386 52.39 38.346 52.41C37.966 52.66 37.586 52.96 37.186 53.17C36.966 53.3 36.846 53.6 36.906 53.87C36.976 54.15 37.236 54.3 37.496 54.33C37.966 54.38 38.446 54.41 38.916 54.43C39.036 54.91 39.156 55.42 39.266 55.91C39.316 56.18 39.596 56.38 39.866 56.41C40.116 56.45 40.456 56.31 40.566 56.07C40.766 55.56 40.986 55.06 41.196 54.56C41.316 54.56 41.436 54.58 41.556 54.58C41.656 54.59 41.756 54.6 41.856 54.61C41.896 54.61 41.926 54.61 41.986 54.63C41.986 54.63 42.036 54.64 42.086 54.64C42.266 54.67 42.466 54.69 42.646 54.72C43.396 54.85 43.766 53.92 43.126 53.51C43.016 53.44 42.926 53.37 42.816 53.3C42.806 53.28 42.746 53.25 42.746 53.25C42.696 53.21 42.666 53.18 42.616 53.14C42.446 53.01 42.296 52.87 42.156 52.72C42.116 52.7 42.096 52.66 42.056 52.64C42.126 52.48 42.216 52.33 42.316 52.18C42.486 51.92 42.696 51.65 42.826 51.37C42.876 51.03 42.866 50.74 42.686 50.52Z" fill="#FFC200"/>
<path d="M49.6782 46.36C49.6682 46.34 49.6682 46.34 49.6582 46.33C49.5282 46.11 49.2582 46.01 49.0382 46.1C48.8882 46.12 48.7482 46.2 48.6282 46.3C48.6082 46.31 48.5882 46.35 48.5682 46.36C48.2282 46.56 47.8782 46.75 47.5482 46.94C47.4382 46.84 47.3382 46.74 47.2282 46.64C46.8482 46.27 46.4282 45.96 45.9282 45.77C45.5582 45.65 45.0682 46 45.1082 46.42C45.1882 47.02 45.2982 47.6 45.4282 48.2C45.3982 48.22 45.3782 48.23 45.3382 48.25C44.9582 48.5 44.5782 48.8 44.1782 49.01C43.9582 49.14 43.8382 49.44 43.8982 49.71C43.9682 49.99 44.2282 50.14 44.4882 50.17C44.9582 50.22 45.4382 50.25 45.9082 50.27C46.0282 50.75 46.1482 51.26 46.2582 51.75C46.3082 52.02 46.5882 52.22 46.8582 52.25C47.1082 52.29 47.4482 52.15 47.5582 51.91C47.7582 51.4 47.9782 50.9 48.1882 50.4C48.3082 50.4 48.4282 50.42 48.5482 50.42C48.6482 50.43 48.7482 50.44 48.8482 50.45C48.8882 50.45 48.9182 50.45 48.9782 50.47C48.9782 50.47 49.0282 50.48 49.0782 50.48C49.2582 50.51 49.4582 50.53 49.6382 50.56C50.3882 50.69 50.7582 49.76 50.1182 49.35C50.0082 49.28 49.9182 49.21 49.8082 49.14C49.7982 49.12 49.7382 49.09 49.7382 49.09C49.6882 49.05 49.6582 49.02 49.6082 48.98C49.4382 48.85 49.2882 48.71 49.1482 48.56C49.1082 48.54 49.0882 48.5 49.0482 48.48C49.1182 48.32 49.2082 48.17 49.3082 48.02C49.4782 47.76 49.6882 47.49 49.8182 47.21C49.8682 46.88 49.8582 46.58 49.6782 46.36Z" fill="#FFC200"/>
<path d="M63.5407 100.8C59.6207 103.54 52.0707 100.12 51.1207 96.06C51.0907 95.75 50.5507 93.8 51.7407 92.06C51.8807 91.89 53.0807 90.15 54.7307 90.17C55.8507 90.22 56.4007 90.96 57.2207 90.59C57.8607 90.3 57.7007 89.94 58.2007 89.6C59.3907 89.07 60.5507 91.18 63.7207 92.39C64.9107 92.84 65.1407 92.63 65.5707 93.1C67.0307 94.64 65.9407 99.07 63.5407 100.8Z" fill="white" stroke="#222222" stroke-width="1.7" stroke-miterlimit="10" stroke-linecap="round" stroke-linejoin="round"/>
<path d="M93.8789 36.18C94.2289 39.01 92.2189 41.59 89.3889 41.95C88.5889 42.05 87.8089 41.96 87.0989 41.71C86.6389 43.78 84.9289 45.43 82.6989 45.71C80.3889 46 78.2489 44.72 77.3489 42.7C76.5689 43.47 75.5389 44 74.3689 44.15C71.5389 44.5 68.9589 42.49 68.5989 39.66C68.3289 37.5 69.4389 35.49 71.2289 34.5C71.2089 34.38 71.1789 34.26 71.1689 34.13C70.8189 31.3 72.8289 28.72 75.6589 28.36C77.3789 28.15 78.9989 28.81 80.0889 29.99C80.8589 28.58 82.2689 27.54 83.9889 27.33C86.7989 26.98 89.3589 28.96 89.7489 31.76C91.8689 32.17 93.5889 33.91 93.8789 36.18Z" fill="#AF8468" stroke="#222222" stroke-width="1.7" stroke-miterlimit="10" stroke-linecap="round" stroke-linejoin="round"/>
<path d="M71.7883 91.84C71.7883 91.84 74.1683 92.32 77.9083 94.26C78.9783 94.8 83.5583 97.22 84.2683 97.94C86.5283 100.23 90.0983 102.41 95.6883 97.58C96.3983 96.92 98.6583 95.59 99.6083 95.29C101.448 94.81 105.968 92.93 107.398 92.57C116.198 90.4 121.068 88.89 121.068 88.89C135.928 113.83 127.308 124.82 127.308 124.82C96.2083 133.88 69.9883 126.39 69.9883 126.39C71.5983 119.26 72.3683 114.07 70.5783 106.7" fill="#2AC1BC"/>
<path d="M71.7883 91.84C71.7883 91.84 74.1683 92.32 77.9083 94.25C78.9783 94.79 83.5583 97.2 84.2683 97.93C86.5283 100.22 90.0983 102.39 95.6883 97.57C96.3983 96.91 98.6583 95.58 99.6083 95.28C101.448 94.8 105.968 92.93 107.398 92.57C116.198 90.4 121.068 88.89 121.068 88.89C135.928 113.78 127.308 124.74 127.308 124.74C96.2083 133.78 69.9883 126.31 69.9883 126.31C71.5983 119.2 72.3683 114.02 70.5783 106.67" stroke="#222222" stroke-width="1.7" stroke-miterlimit="10" stroke-linecap="round" stroke-linejoin="round"/>
<path d="M91.7695 99.99C91.7695 99.99 99.9195 98.9 102 97.09C102.83 96.37 104.02 95.94 104.97 95.58C107.59 94.49 110.26 93.53 113 92.86C114.96 92.38 116.92 91.95 119.01 92.26C122.28 92.74 125.37 96.79 128.46 98C129.83 98.54 131.37 98.48 132.15 97.09C133.34 94.98 133.28 91.84 132.8 89.54C132.26 86.94 131.02 84.47 129.47 82.35C129.11 81.87 128.7 81.32 128.22 80.96C126.5 79.81 124.41 81.32 122.87 82.23C121.32 83.2 119.96 84.22 118.29 85.07C116.39 86.04 114.54 86.94 112.52 87.67C109.84 88.64 106.99 89.18 104.43 90.39C102.17 91.42 100.09 92.81 98.1295 94.32C96.9995 95.23 96.4095 96.49 95.3995 97.52C94.3795 98.54 93.1895 99.51 91.7695 99.99Z" fill="#2AC1BC" stroke="#222222" stroke-width="1.7" stroke-miterlimit="10" stroke-linecap="round" stroke-linejoin="round"/>
<path d="M80.737 118.08C80.617 118.44 80.317 118.56 79.967 118.56C79.617 118.56 79.377 118.32 79.257 118.02C78.897 116.45 78.667 115.73 78.307 114.16C78.067 115.73 77.887 116.52 77.657 118.02C77.597 118.32 77.357 118.44 77.007 118.38C76.647 118.32 76.467 118.14 76.527 117.84C76.887 115.91 77.117 115 77.477 113.07C77.537 112.71 77.837 112.47 78.307 112.53C78.787 112.59 79.017 112.83 79.077 113.19C79.437 114.76 79.667 115.55 80.027 117.12C80.617 115.61 80.917 114.89 81.517 113.38C81.637 113.02 81.877 112.84 82.347 112.84C82.827 112.84 83.057 113.14 83.117 113.5C83.237 115.43 83.297 116.4 83.357 118.39C83.357 118.69 83.177 118.87 82.817 118.87C82.457 118.87 82.227 118.69 82.227 118.39C82.167 116.82 82.167 116.03 82.107 114.46C81.637 115.85 81.337 116.57 80.737 118.08Z" fill="white" stroke="white" stroke-width="0.2388" stroke-miterlimit="10"/>
<path d="M84.3986 115.88C84.4586 114.07 85.7686 112.92 87.5486 112.98C89.3286 113.04 90.5786 114.19 90.5786 116C90.5786 117.87 89.2686 119.02 87.4286 118.96C85.5186 118.96 84.2786 117.75 84.3986 115.88ZM89.3286 116.06C89.3286 114.79 88.5586 114.01 87.4886 114.01C86.4186 114.01 85.5886 114.73 85.5286 116C85.4686 117.27 86.2986 118.05 87.3686 118.11C88.4986 118.05 89.3286 117.26 89.3286 116.06Z" fill="white" stroke="white" stroke-width="0.2388" stroke-miterlimit="10"/>
<path d="M91.5273 116.06C91.5273 114.19 92.7773 113.04 94.5573 113.04C96.3373 112.98 97.6473 114.07 97.7073 115.94C97.7673 117.75 96.5173 119.02 94.6773 119.02C92.8373 119.02 91.5273 117.87 91.5273 116.06ZM96.4573 115.94C96.3973 114.67 95.5673 113.95 94.4973 113.95C93.4273 113.95 92.6573 114.8 92.6573 116C92.6573 117.27 93.4873 118.05 94.6173 117.99C95.6873 117.99 96.5173 117.2 96.4573 115.94Z" fill="white" stroke="white" stroke-width="0.2388" stroke-miterlimit="10"/>
<path d="M100.208 113.34C101.098 114.73 101.518 115.39 102.468 116.78C102.348 115.33 102.288 114.61 102.228 113.1C102.228 112.86 102.408 112.68 102.768 112.68C103.128 112.68 103.308 112.8 103.358 113.04C103.538 114.97 103.598 115.94 103.778 117.87C103.838 118.23 103.598 118.47 103.128 118.53C102.708 118.59 102.478 118.41 102.238 118.05C101.348 116.66 100.868 116 99.9777 114.61C100.038 116.06 100.098 116.78 100.218 118.29C100.218 118.53 100.038 118.71 99.6777 118.71C99.3177 118.71 99.0877 118.59 99.0877 118.35C98.9677 116.42 98.9677 115.45 98.8477 113.46C98.8477 113.1 99.0277 112.86 99.4977 112.8C99.7377 112.86 100.028 113.04 100.208 113.34Z" fill="white" stroke="white" stroke-width="0.2388" stroke-miterlimit="10"/>
<path d="M109.19 115.51C108.83 115.57 108.65 115.57 108.3 115.63C108 115.69 107.82 115.51 107.82 115.21C107.76 114.91 107.94 114.73 108.24 114.67C108.78 114.61 109.07 114.55 109.61 114.49C110.03 114.43 110.32 114.61 110.32 115.03C110.38 115.63 110.44 115.94 110.5 116.54C110.56 116.9 110.44 117.08 110.14 117.33C109.6 117.69 108.89 117.93 108.18 118.05C106.22 118.29 104.85 117.2 104.73 115.39C104.55 113.58 105.68 112.31 107.52 112.13C108.17 112.07 108.83 112.13 109.3 112.37C109.66 112.49 109.66 112.79 109.6 113.03C109.54 113.27 109.3 113.39 109.01 113.27C108.59 113.09 108.12 113.03 107.58 113.09C106.45 113.21 105.74 114.12 105.86 115.32C105.98 116.59 106.93 117.25 108.06 117.13C108.54 117.07 109.01 116.95 109.37 116.71C109.25 116.24 109.25 116 109.19 115.51Z" fill="white" stroke="white" stroke-width="0.2388" stroke-miterlimit="10"/>
<path d="M89.2688 100.48C87.8988 100.06 86.5388 99.57 85.1088 99.45C83.7988 99.33 82.3188 99.45 81.2988 100.36C80.2888 101.27 80.1088 102.78 80.9388 103.86C81.8288 104.95 83.2588 105.07 84.5088 104.77C85.8788 104.41 87.1288 103.74 88.3688 103.14C89.6088 102.54 90.8688 101.93 92.1788 101.39C92.8288 101.15 93.4288 100.97 94.0788 100.79C94.6188 100.61 95.2088 100.43 95.7989 100.37C96.0388 100.31 96.2788 100.31 96.5088 100.37C96.6288 100.37 96.8688 100.49 96.9288 100.55C97.2288 100.79 97.2888 101.03 97.1088 101.4C96.8088 102.25 95.6789 102.31 94.9089 102.25C94.1389 102.13 93.3588 101.95 92.5888 101.71C92.2288 101.59 91.8188 101.47 91.4588 101.35C90.9788 101.23 90.6288 101.29 90.1488 101.23C89.4388 101.23 89.2588 102.2 89.7888 102.5C90.1488 102.68 90.3788 102.98 90.7388 103.1C91.0988 103.22 91.3888 103.28 91.7488 103.4C92.4588 103.58 93.1188 103.82 93.8288 103.94C95.0188 104.18 96.2688 104.3 97.3388 103.64C98.4088 103.04 99.0588 101.71 98.7688 100.5C98.4088 99.17 97.1588 98.57 95.9188 98.63C94.6688 98.69 93.4188 99.17 92.2888 99.6C90.9188 100.08 89.6688 100.75 88.3688 101.41C87.1788 102.01 85.9288 102.62 84.6788 103.1C83.8488 103.4 82.3588 103.82 81.9488 102.68C81.7688 102.26 82.0688 101.77 82.4288 101.47C82.9688 101.05 83.7388 101.05 84.3888 100.99C85.9988 100.93 87.4788 101.47 89.0888 101.65C89.8088 101.68 89.8688 100.66 89.2688 100.48Z" fill="#222222"/>
<path d="M89.4486 101.02C88.9686 101.26 88.4986 101.81 88.1986 102.29C87.8386 102.77 87.5486 103.26 87.3086 103.8C87.0086 104.34 86.7686 104.95 86.5986 105.55C86.4786 105.79 86.4186 106.09 86.2986 106.34C86.1786 106.64 86.0586 107 86.0586 107.31C86.1186 107.67 86.2386 107.97 86.5986 108.16C86.8986 108.28 87.3686 108.28 87.6086 107.98C87.9686 107.5 88.0886 106.83 88.2586 106.23C88.3786 105.93 88.4386 105.69 88.5586 105.38C88.6186 105.26 88.6786 105.14 88.7386 105.02C88.7986 104.96 88.6786 105.08 88.7386 104.96C88.7986 104.9 88.7986 104.84 88.8586 104.78C89.0986 104.3 89.3386 103.75 89.5686 103.27C89.6886 103.03 89.8086 102.85 89.9286 102.61C90.0486 102.43 90.2286 102.19 90.2886 102.01C90.6386 101.32 90.0386 100.78 89.4486 101.02Z" fill="#222222"/>
<path d="M89.2095 102.05C89.4495 102.47 89.8595 102.77 90.0995 103.14C90.3395 103.44 90.5795 103.8 90.7495 104.11C90.8695 104.29 90.9895 104.53 91.0495 104.71C90.9895 104.53 91.0495 104.71 91.0495 104.77C91.0495 104.83 91.1095 104.89 91.1095 104.95C91.2295 105.25 91.2895 105.55 91.3495 105.86C91.5295 106.58 91.6495 107.31 91.8295 108.09C91.8895 108.45 91.9495 108.81 92.0095 109.18C92.0095 109.36 92.0695 109.48 92.0695 109.66C92.0695 109.72 92.1895 110.08 92.1295 109.9C92.0695 109.78 92.1295 110.02 92.1295 110.02C92.3695 110.99 93.7895 110.81 93.7895 109.78C93.7895 109.06 93.6695 108.27 93.4895 107.55C93.3095 106.76 93.1895 105.98 92.9495 105.19C92.7695 104.4 92.4095 103.68 91.9995 103.02C91.4595 102.17 90.5695 101.27 89.4995 101.15C89.2695 101.14 88.9695 101.74 89.2095 102.05Z" fill="#222222"/>
<path d="M100.248 105.66C95.5476 106.56 90.0476 100.36 90.8476 96.26C90.9476 95.96 91.2476 93.96 93.0476 92.86C93.2476 92.76 95.0476 91.66 96.5476 92.36C97.5476 92.86 97.7476 93.76 98.6476 93.76C99.3476 93.76 99.3476 93.36 99.9476 93.26C101.248 93.26 101.448 95.66 103.848 98.06C104.748 98.96 105.048 98.86 105.248 99.46C105.948 101.46 103.148 105.06 100.248 105.66Z" fill="white" stroke="#222222" stroke-width="1.7" stroke-miterlimit="10" stroke-linecap="round" stroke-linejoin="round"/>
<path d="M119.648 99.96C116.448 101.06 112.948 100.06 109.948 98.56C108.948 98.06 105.148 95.56 104.048 96.76L96.1484 106.16C96.1484 106.16 98.3484 108.86 103.748 110.16" fill="#2AC1BC"/>
<path d="M119.648 99.96C116.448 101.06 112.948 100.06 109.948 98.56C108.948 98.06 105.148 95.56 104.048 96.76L96.1484 106.16C96.1484 106.16 98.3484 108.86 103.748 110.16" stroke="#222222" stroke-width="1.7" stroke-miterlimit="10" stroke-linecap="round" stroke-linejoin="round"/>
<path d="M73.6984 107.39C62.9684 104.29 61.9684 110.62 62.3284 95.3C62.3484 94.32 62.5184 93.31 62.9384 92.1C64.4884 87.64 70.4684 91.64 74.8384 92.77" fill="#2AC1BC"/>
<path d="M73.6984 107.39C62.9684 104.29 61.9684 110.62 62.3284 95.3C62.3484 94.32 62.5184 93.31 62.9384 92.1C64.4884 87.64 70.4684 91.64 74.8384 92.77" stroke="#222222" stroke-width="1.7438" stroke-miterlimit="10" stroke-linecap="round" stroke-linejoin="round"/>
</g>
<defs>
<radialGradient id="paint0_radial" cx="0" cy="0" r="1" gradientUnits="userSpaceOnUse" gradientTransform="translate(73.1211 137.411) rotate(49.9294) scale(6.4018 6.33338)">
<stop stop-color="#FF1535" stop-opacity="0.5"/>
<stop offset="0.0862" stop-color="#FF2B48" stop-opacity="0.4907"/>
<stop offset="0.6701" stop-color="#FFBDC6" stop-opacity="0.4275"/>
<stop offset="0.9245" stop-color="#FFF7F8" stop-opacity="0.4"/>
</radialGradient>
<radialGradient id="paint1_radial" cx="0" cy="0" r="1" gradientUnits="userSpaceOnUse" gradientTransform="translate(101.931 144.63) rotate(180) scale(8.7968)">
<stop stop-color="#FF1535" stop-opacity="0.5"/>
<stop offset="0.4759" stop-color="#FF9CAA" stop-opacity="0.4397"/>
<stop offset="0.7899" stop-color="#FFF1F3" stop-opacity="0.4"/>
</radialGradient>
<clipPath id="clip0">
<rect width="141.07" height="157.79" fill="white"/>
</clipPath>
</defs>
</svg>
