<svg width="14" height="18" viewBox="0 0 14 18" fill="none" xmlns="http://www.w3.org/2000/svg">
<path d="M7.00402 11.768C7.26939 11.768 7.49454 11.5495 7.49454 11.2824V2.56565L7.46238 1.39209L8.17806 2.13669L9.54509 3.56924C9.63354 3.66637 9.76221 3.71493 9.88283 3.71493C10.1321 3.71493 10.3331 3.52878 10.3331 3.27788C10.3331 3.14029 10.2769 3.04317 10.1884 2.94604L7.35784 0.161871C7.23722 0.0404676 7.13268 0 7.00402 0C6.87536 0 6.77082 0.0404676 6.6502 0.161871L3.81964 2.94604C3.72315 3.04317 3.66686 3.14029 3.66686 3.27788C3.66686 3.52878 3.85985 3.71493 4.11717 3.71493C4.23779 3.71493 4.3745 3.66637 4.46295 3.56924L5.82998 2.13669L6.54566 1.39209L6.5135 2.56565V11.2824C6.5135 11.5495 6.73866 11.768 7.00402 11.768ZM2.3722 18H11.6278C13.1959 18 14 17.1906 14 15.6367V7.36511C14 5.80306 13.1959 4.99371 11.6278 4.99371H9.33601V5.9973H11.6037C12.4963 5.9973 13.0029 6.48291 13.0029 7.41367V15.58C13.0029 16.5189 12.4963 16.9964 11.6037 16.9964H2.38828C1.48765 16.9964 0.997128 16.5189 0.997128 15.58V7.41367C0.997128 6.48291 1.48765 5.9973 2.38828 5.9973H4.67203V4.99371H2.3722C0.804135 4.99371 0 5.79496 0 7.36511V15.6367C0 17.1987 0.804135 18 2.3722 18Z" fill="#2E7CF6"/>
</svg>