<?xml version="1.0" encoding="utf-8"?>
<!-- Generator: Adobe Illustrator 24.0.0, SVG Export Plug-In . SVG Version: 6.00 Build 0)  -->
<svg version="1.1" id="Layer_1" xmlns="http://www.w3.org/2000/svg" xmlns:xlink="http://www.w3.org/1999/xlink" x="0px" y="0px"
	 width="27.9px" height="25.6px" viewBox="0 0 27.9 25.6" style="enable-background:new 0 0 27.9 25.6;" xml:space="preserve">
<style type="text/css">
	.st0{fill:#3B1C1C;}
	.st1{fill:#FAE100;}
</style>
<path class="st0" d="M13.9,0C6.2,0,0,4.9,0,11c0,4,2.6,7.4,6.6,9.4L5.4,25c-0.2,0.8,0.3,0.8,0.6,0.5l5.4-3.6
	c0.9,0.1,1.7,0.2,2.6,0.2c7.7,0,13.9-4.9,13.9-11S21.6,0,13.9,0z"/>
<path class="st1" d="M12.7,14.2c-0.4-0.9-0.3-1-0.3-1H9.8l-0.3,1c-0.3,0.7-1.6,0.1-1.3-0.6c0.4-1,1.7-4.7,2.1-5.5
	c0.2-0.3,0.5-0.5,0.8-0.4c0.4,0,0.8,0.1,1,0.4c0.3,0.6,1.7,4.4,2.1,5.5C14.4,14.4,13,15,12.7,14.2L12.7,14.2z"/>
<title>kakaotalk</title>
<polygon class="st0" points="10.3,11.9 11.9,11.9 11.1,9.4 "/>
<path class="st1" d="M7,14c0,0.7-1.5,0.6-1.5,0c0-0.9,0-5,0-5H4C3.2,9,3.2,7.5,4,7.5h4.4c0.9,0,0.9,1.5,0,1.5c-0.5,0-1,0-1.4,0.1V14
	z"/>
<path class="st1" d="M18.2,14.5h-2.9c-0.7,0-0.6-0.8-0.6-0.8s0-4.1,0-5.3c0-0.4,0.4-0.7,0.7-0.7c0,0,0,0,0,0c0.4,0,0.7,0.2,0.8,0.6
	c0,0,0,0,0,0.1c0,0.9,0,4.7,0,4.7h1.9C18.8,13.1,18.8,14.6,18.2,14.5L18.2,14.5z"/>
<path class="st1" d="M22.9,14.4L21,11.8l-0.4,0.4v2c0,0.6-1.5,0.6-1.5,0c0-0.4,0-5.4,0-5.9c0-0.3,0.4-0.5,0.8-0.5s0.7,0.1,0.7,0.4
	c0,0.8,0,2.1,0,2.1L23,7.8c0.3-0.3,1.3,0.7,1,1c-0.5,0.5-1.9,2-1.9,2l2,2.7C24.5,14,23.3,15,22.9,14.4L22.9,14.4z"/>
</svg>
