<svg xmlns="http://www.w3.org/2000/svg" xmlns:xlink="http://www.w3.org/1999/xlink" viewBox="0 0 27.88 25.62">
  <defs>
    <clipPath id="a">
      <path d="M4,7.51C3.15,7.51,3.15,9,4,9H5.46s0,4.05,0,5c0,.67,1.51.71,1.51,0V9.15A7.36,7.36,0,0,1,8.42,9c.9,0,.9-1.53,0-1.53Z" fill="#fae100"/>
    </clipPath>
    <clipPath id="b">
      <path d="M11.14,9.37,12,11.9H10.26Zm-.91-1.19c-.35.79-1.65,4.51-2.07,5.5-.31.71,1,1.29,1.33.58l.29-1h2.66s-.09,0,.26,1c.29.76,1.67.24,1.38-.52-.4-1.08-1.82-5-2.07-5.51a1.12,1.12,0,0,0-1-.43.85.85,0,0,0-.82.43" fill="#fae100"/>
    </clipPath>
    <clipPath id="c">
      <path d="M14.65,8.41c0,1.26,0,5.34,0,5.34s-.12.81.58.81h2.91c.69,0,.68-1.45,0-1.45H16.22s0-3.77,0-4.68a.7.7,0,0,0-.78-.67.71.71,0,0,0-.79.67" fill="#fae100"/>
    </clipPath>
    <clipPath id="d">
      <path d="M19.08,8.21c0,.55,0,5.56,0,5.94,0,.58,1.49.58,1.49,0v-2l.44-.35,1.92,2.62c.38.51,1.6-.42,1.21-.93l-2-2.68s1.38-1.49,1.93-2c.31-.32-.67-1.31-1-1l-2.47,2.47s0-1.36,0-2.11c0-.29-.36-.42-.71-.42s-.78.15-.77.46" fill="#fae100"/>
    </clipPath>
  </defs>
  <title>kakao_talk</title>
  <path d="M13.94,0C6.24,0,0,4.93,0,11c0,4,2.64,7.44,6.61,9.38L5.4,25c-.18.76.28.75.59.55l5.36-3.65a17,17,0,0,0,2.59.19c7.7,0,13.94-4.93,13.94-11S21.64,0,13.94,0" fill="#381e1f"/>
  <g>
    <path d="M4,7.51C3.15,7.51,3.15,9,4,9H5.46s0,4.05,0,5c0,.67,1.51.71,1.51,0V9.15A7.36,7.36,0,0,1,8.42,9c.9,0,.9-1.53,0-1.53Z" fill="#fae100"/>
    <g clip-path="url(#a)">
      <rect x="3.15" y="7.51" width="6.17" height="7.18" fill="#fae100"/>
    </g>
  </g>
  <g>
    <path d="M11.14,9.37,12,11.9H10.26Zm-.91-1.19c-.35.79-1.65,4.51-2.07,5.5-.31.71,1,1.29,1.33.58l.29-1h2.66s-.09,0,.26,1c.29.76,1.67.24,1.38-.52-.4-1.08-1.82-5-2.07-5.51a1.12,1.12,0,0,0-1-.43.85.85,0,0,0-.82.43" fill="#fae100"/>
    <g clip-path="url(#b)">
      <rect x="7.85" y="7.75" width="6.52" height="7.22" fill="#fae100"/>
    </g>
  </g>
  <g>
    <path d="M14.65,8.41c0,1.26,0,5.34,0,5.34s-.12.81.58.81h2.91c.69,0,.68-1.45,0-1.45H16.22s0-3.77,0-4.68a.7.7,0,0,0-.78-.67.71.71,0,0,0-.79.67" fill="#fae100"/>
    <g clip-path="url(#c)">
      <rect x="14.54" y="7.74" width="4.29" height="6.81" fill="#fae100"/>
    </g>
  </g>
  <g>
    <path d="M19.08,8.21c0,.55,0,5.56,0,5.94,0,.58,1.49.58,1.49,0v-2l.44-.35,1.92,2.62c.38.51,1.6-.42,1.21-.93l-2-2.68s1.38-1.49,1.93-2c.31-.32-.67-1.31-1-1l-2.47,2.47s0-1.36,0-2.11c0-.29-.36-.42-.71-.42s-.78.15-.77.46" fill="#fae100"/>
    <g clip-path="url(#d)">
      <rect x="19.06" y="7.49" width="5.45" height="7.45" fill="#fae100"/>
    </g>
  </g>
</svg>
