<svg width="34" height="26" viewBox="0 0 34 26" fill="none" xmlns="http://www.w3.org/2000/svg">
<path d="M12 0.5C5.4 0.5 0 5.5 0 11.6C0 15.1 1.7 18.2 4.5 20.2V26L9.4 22.4C10.3 22.6 11.1 22.7 12.1 22.7C18.7 22.7 24.1 17.7 24.1 11.6C24.1 5.5 18.7 0.5 12 0.5Z" fill="#3B1C1C"/>
<path d="M10.6016 12.6C10.2016 13.7 9.20156 14.4 8.10156 14.4C6.60156 14.4 5.40156 13.2 5.40156 11.6C5.40156 10.1 6.60156 8.8 8.10156 8.8C9.30156 8.8 10.2016 9.6 10.6016 10.6H12.5016C12.0016 8.6 10.2016 7 8.10156 7C5.60156 7 3.60156 9.1 3.60156 11.6C3.60156 14.2 5.60156 16.2 8.10156 16.2C10.3016 16.2 12.1016 14.6 12.5016 12.5H10.6016V12.6Z" fill="#FAE100"/>
<path d="M19.6008 11.6V11.5C19.6008 11.4 19.5008 11.3 19.5008 11.1C19.4008 10.9 19.2008 10.6 19.1008 10.4C18.9008 10.2 18.7008 9.99998 18.4008 9.79998C18.1008 9.59998 17.7008 9.49998 17.3008 9.49998C17.2008 9.49998 17.2008 9.49998 17.1008 9.49998C16.4008 9.49998 15.8008 9.79998 15.5008 10.2V7.09998H13.8008V16.1H15.5008V12.6C15.5008 11.8 16.1008 11.2 16.9008 11.2C17.9008 11.2 18.0008 12.1 18.0008 12.2V16.1H19.7008C19.7008 16.1 19.7008 12 19.7008 11.8C19.6008 11.8 19.6008 11.7 19.6008 11.6Z" fill="#FAE100"/>
<path d="M26.6992 11.6H32.6992" stroke="#3B1C1C" stroke-width="2" stroke-miterlimit="10" stroke-linecap="round"/>
<path d="M29.6992 8.59998V14.6" stroke="#3B1C1C" stroke-width="2" stroke-miterlimit="10" stroke-linecap="round"/>
</svg>
