<svg xmlns="http://www.w3.org/2000/svg" viewBox="0 0 37.51 38.97">
  <title>category-correction</title>
  <g>
    <path d="M14.67.65a9.14,9.14,0,0,1-5.94,7.8c-5.8,2.16-6.59.41-6.86,8.4-.18,5.28,0,21.75,0,21.75h5l.92-15.51L11.1,33.47,9.8,38.6H27.92l-1.31-5.13,3.2-10.11L30.87,38.6h6.05L35.28,11.28s-2-1.82-9.56-3.6c-3.6-3.5-2.88-7-2.88-7" fill="#ffd29c"/>
    <path d="M14.92,12.15c-.53.17-.66.69-.74,1.18A11.51,11.51,0,0,0,14,14.88c0,.48,0,.95-.08,1.43,0-.15,0,.08,0,.12s0,.23-.07.34a2.81,2.81,0,0,1-.18.56c.07-.15,0,0,0,.05l-.13.23a2.2,2.2,0,0,1-.17.25c.13-.18-.07.08-.08.1-.26.28-.53.59-.81.84a4.21,4.21,0,0,1-.85.64,5.94,5.94,0,0,0-1.26.63.68.68,0,0,0,.3,1.12,3.47,3.47,0,0,0,1.64-.3,8.53,8.53,0,0,0,1.39-.5,4.23,4.23,0,0,0,2-2.09A7.65,7.65,0,0,0,16.17,15a10.69,10.69,0,0,0-.2-1.68c-.09-.49-.34-1.41-1.05-1.18Z" fill="#d8a16f"/>
    <path d="M21.43,12.33a5.06,5.06,0,0,0,0,3.22,11.8,11.8,0,0,0,.83,2.73c.77,1.56,2.77,3.28,4.64,2.64a.86.86,0,0,0,0-1.65l-.56-.19L26.06,19c-.29-.09.14.07-.13-.06a4,4,0,0,1-.46-.23l-.22-.13c-.05,0-.18-.14-.07,0a3.62,3.62,0,0,1-.41-.38L24.6,18c-.2-.22.1.16-.07-.1A7.27,7.27,0,0,1,24,17l0,0-.09-.23c-.07-.21-.12-.42-.19-.63-.11-.41-.22-.82-.32-1.24s-.21-.82-.31-1.24c0-.2-.1-.41-.16-.61a2.3,2.3,0,0,0-.45-.77.65.65,0,0,0-1,.13Z" fill="#d8a16f"/>
    <path d="M18.44,19a10.44,10.44,0,0,0-.09,2.37c0,1.22.07,2.44.1,3.66.06,2,.15,4.05.18,6.08a.6.6,0,0,0,1.2,0c0-2.05,0-4.11-.1-6.15-.05-1.24-.12-2.47-.2-3.71a6,6,0,0,0-.45-2.33.35.35,0,0,0-.64.08Z" fill="#d8a16f"/>
    <path d="M21.44,35.67a7.92,7.92,0,0,1,.58-.92l.05-.07,0,0,.08-.09.18-.2.18-.16.09-.08,0,0a3.45,3.45,0,0,1,.41-.25l.2-.1.1,0c-.12,0,0,0,0,0a7.37,7.37,0,0,1,.84-.21.5.5,0,0,0,.36-.55.51.51,0,0,0-.49-.43,2.18,2.18,0,0,0-1,.2,3.8,3.8,0,0,0-1.05.61,3.64,3.64,0,0,0-.79.87,2.31,2.31,0,0,0-.41,1.27.36.36,0,0,0,.66.18Z" fill="#d8a16f"/>
    <path d="M13.64,33.56c.27.15.55.29.83.43a2.91,2.91,0,0,1,.42.23l.18.13.09.06c-.07,0,0,0,0,0q.35.28.66.6a5.14,5.14,0,0,0,.71.69.49.49,0,0,0,.61-.08.55.55,0,0,0,.08-.61,4.88,4.88,0,0,0-.64-.8,7.06,7.06,0,0,0-.76-.69,4,4,0,0,0-1.86-.8.45.45,0,0,0-.52.26.44.44,0,0,0,.18.56Z" fill="#d8a16f"/>
  </g>
  <g>
    <path d="M14.67.92A9.87,9.87,0,0,1,12,6.24C10.56,7.75,8.35,8,6.43,8.49a6.48,6.48,0,0,0-4,3.19c-1.11,2.11-.56,4.45-.65,6.7-.11,3.29-.25,6.57-.4,9.86L1,36.33C1,36.9,1,37.47.93,38" fill="none" stroke="#222" stroke-linecap="round" stroke-linejoin="round" stroke-width="1.85"/>
    <path d="M22.84.92a9.74,9.74,0,0,0,2.65,5.32C27,7.82,29.35,7.91,31.36,8.39a5.5,5.5,0,0,1,4.23,5.16c.09,1.3.06,2.61.11,3.91.06,1.72.13,3.45.2,5.17.14,3.54.3,7.07.46,10.61.07,1.6.14,3.2.22,4.8" fill="none" stroke="#222" stroke-linecap="round" stroke-linejoin="round" stroke-width="1.85"/>
    <path d="M6.84,19.34s4.51,11.35,4.26,13.85A17.84,17.84,0,0,1,9.8,38" fill="none" stroke="#222" stroke-linecap="round" stroke-linejoin="round" stroke-width="1.85"/>
    <path d="M30.87,19.34s-4.51,11.35-4.26,13.85A17.65,17.65,0,0,0,27.92,38" fill="none" stroke="#222" stroke-linecap="round" stroke-linejoin="round" stroke-width="1.85"/>
    <line x1="7.76" y1="22.45" x2="6.6" y2="38.04" fill="none" stroke="#222" stroke-linecap="round" stroke-linejoin="round" stroke-width="1.85"/>
    <line x1="29.81" y1="22.45" x2="30.97" y2="38.04" fill="none" stroke="#222" stroke-linecap="round" stroke-linejoin="round" stroke-width="1.85"/>
  </g>
</svg>
