<svg xmlns="http://www.w3.org/2000/svg" xmlns:xlink="http://www.w3.org/1999/xlink" viewBox="0 0 47.43 40.35">
  <defs>
    <clipPath id="a" transform="translate(0 0)">
      <rect width="47.4" height="40.35" fill="none"/>
    </clipPath>
  </defs>
  <title>category-24hours-gray</title>
  <g clip-path="url(#a)">
    <g>
      <path d="M18,18.42a10,10,0,0,0,2.2-6.53,15,15,0,0,0-3.37-9,21.21,21.21,0,0,1-1.57-1.71c5.83-.89,11.29.58,15.41,5C37.9,14,35.49,27.7,26.53,33.12,16.86,39,1,33.16,1,20.44c.52.24,1.11.55,1.65.83a14.08,14.08,0,0,0,2,.84,14.23,14.23,0,0,0,4.24.72A11.57,11.57,0,0,0,18,18.42" transform="translate(0 0)" fill="#dbdbdb"/>
      <path d="M18.91,18.94C23.29,12.56,20.65,5.79,16,.45L15.29,2.2C23,1.28,30.55,4.59,33.11,12.36a17.74,17.74,0,0,1-4.33,17.8c-9,8.59-26.27,3.39-26.74-9.72l-1.53.88c6.48,3.19,13,3.6,18.24-2.17.87-1-.57-2.43-1.45-1.45-4.51,5-10.21,4.59-15.76,1.86A1,1,0,0,0,0,20.44C.53,35.18,20,41.62,30.22,31.6a19.85,19.85,0,0,0,4.67-20.36C31.91,3,23.67-.84,15.29.16a1,1,0,0,0-1,1,1,1,0,0,0,.33.79c4,4.65,6.44,10.39,2.58,16-.75,1.08,1,2.11,1.76,1" transform="translate(0 0)" fill="#222"/>
    </g>
  </g>
  <g clip-path="url(#a)">
    <g>
      <path d="M26.52,27.22l-1.07,6.92,17.09-1.62C41.11,30.12,32.85,24,32.85,24" transform="translate(0 0)" fill="#fff"/>
      <path d="M24.41,29.87s0-6.21,6.09-6.95c5.17-.64,7.47,4.53,7.47,4.53" transform="translate(0 0)" fill="#fff"/>
      <path d="M25.43,29.87a6.19,6.19,0,0,1,3-5.26c2.87-1.57,6.83-.56,6.89,3.15a1,1,0,0,0,2,0c-.08-4.35-3.84-6.64-7.9-5.7a8.07,8.07,0,0,0-6.05,7.81,1,1,0,0,0,2,0" transform="translate(0 0)" fill="#222"/>
      <path d="M27.32,29.87c-1.1-1.11-2.33-1.57-4.7-.59-2.65,1.1-3.76,6.5-1,8.34,2.37,1.58,5.83,1.52,8.55,1.56,3.11,0,6.22-.19,9.33-.27a13.71,13.71,0,0,0,3.66-.41,4.57,4.57,0,0,0,2.23-1.45c1.67-2.11.93-6.47-1.69-7.81-.93-.48-2.51.31-2.86-.33-.14-.23,0-.53-.23-.64s-.67.12-1,.4" transform="translate(0 0)" fill="#fff"/>
      <path d="M25.11,28c-4.54.16-7.1,4.59-5.42,8.8,1.79,4.48,8.18,3.38,12,3.34,4.63,0,13.78,1.77,15.48-4.31,1-3.6-1-7.63-5.1-6.6a1,1,0,1,0,.54,2c2.91-.73,2.79,2.17,2.65,3.5-.29,3-3.07,3.14-5.39,3.33-2.55.21-5.22,0-7.79.06-1.78,0-3.57.07-5.36,0a9.25,9.25,0,0,1-3.27-.32c-3.28-1.57-3-7.56,1.68-7.72,1.31,0,1.31-2.09,0-2" transform="translate(0 0)" fill="#222"/>
      <path d="M43.14,29.75a4,4,0,0,0-3.45-3.94c-2.92-.36-4.23,2.57-4.23,2.57" transform="translate(0 0)" fill="#fff"/>
      <path d="M43.55,29.92a4.19,4.19,0,0,0-3.13-5l-.27,0a4.09,4.09,0,0,0-4.91,3.06,3.3,3.3,0,0,0-.09.63c-.14,1.31,1.9,1.3,2,0a2.12,2.12,0,0,1,2.43-1.74l.21.05a2.21,2.21,0,0,1,1.73,2.53c-.2,1.29,1.76,1.84,2,.54" transform="translate(0 0)" fill="#222"/>
    </g>
  </g>
</svg>
