<?xml version="1.0" encoding="utf-8"?>
<!-- Generator: Adobe Illustrator 24.0.0, SVG Export Plug-In . SVG Version: 6.00 Build 0)  -->
<svg version="1.1" id="레이어_2" xmlns="http://www.w3.org/2000/svg" xmlns:xlink="http://www.w3.org/1999/xlink" x="0px"
	 y="0px" width="39.57px" height="40.21px" viewBox="0 0 39.57 40.21" enable-background="new 0 0 39.57 40.21"
	 xml:space="preserve">
<path fill="#7C7C7C" d="M1.81,16.68l35.26,0.04l-4.75,21.55L9.15,38.99C9.15,38.99,4.87,36.75,1.81,16.68z"/>
<path fill="none" stroke="#222222" stroke-width="1.8838" stroke-linecap="round" stroke-linejoin="round" stroke-miterlimit="10" d="
	M1.64,16.86c12.32-0.58,22.58-0.35,34.88-0.29c0.63,0,1.11,0.51,0.99,1.05c-1.2,5.65-3.21,15.61-5.61,20.95
	c-9.73,0.89-14.42,0.87-22.85,0.25c-0.37-0.03-0.77,0-1.07-0.2c-0.18-0.12-0.32-0.29-0.42-0.48c-1.71-3.2-2.08-6.09-3.92-11.89
	c-0.74-2.32-1.77-6.68-2.13-9.38"/>
<g>
	<g>
		<path fill="#222222" d="M9.93,16.59c0.04,2.23,0.82,4.55,1.36,6.7c0.99,3.91,2.05,7.8,3.09,11.7c0.36,1.37,0.57,3,1.37,4.19
			c0.2,0.31,0.67,0.19,0.69-0.19c0.05-1.23-0.42-2.46-0.72-3.63c-0.47-1.84-0.93-3.69-1.39-5.53c-0.91-3.67-1.69-7.4-2.82-11.01
			c-0.25-0.8-0.45-1.69-0.89-2.41C10.43,16.1,9.92,16.22,9.93,16.59L9.93,16.59z"/>
	</g>
</g>
<g>
	<g>
		<path fill="#222222" d="M27.16,16.29c-0.88,3.79-1.28,7.74-2,11.57c-0.41,2.2-0.84,4.39-1.33,6.57c-0.35,1.56-0.81,3.19-0.99,4.78
			c-0.04,0.38,0.51,0.48,0.69,0.19c0.8-1.33,1.16-3.14,1.51-4.63c0.52-2.22,0.97-4.46,1.39-6.71c0.42-2.24,0.84-4.49,1.16-6.75
			c0.23-1.6,0.56-3.27,0.51-4.89C28.1,15.89,27.29,15.74,27.16,16.29L27.16,16.29z"/>
	</g>
</g>
<path fill="#A8A8A8" stroke="#222222" stroke-width="1.5048" stroke-linecap="round" stroke-linejoin="round" stroke-miterlimit="10" d="
	M3.71,30.39c9.23-0.1,5.69,0.22,14.37,0.22c1.99,0,15.64-0.22,17.63-0.22c0.45,0,0.78,0.32,0.67,0.64l-0.92,2.77
	c-0.08,0.23-0.35,0.4-0.67,0.39c-11.57-0.38-11.35,0.27-20.28,0.27c-1.11,0-8.72-0.27-9.83-0.27c-0.31,0-0.59-0.16-0.67-0.39
	l-0.97-2.77C2.92,30.71,3.25,30.39,3.71,30.39z"/>
<path fill="#A8A8A8" stroke="#222222" stroke-width="1.6359" stroke-linecap="round" stroke-linejoin="round" stroke-miterlimit="10" d="
	M1.6,21.65c10.49-0.11,15.88,0.25,25.75,0.25c2.26,0,8.36-0.25,10.62-0.25c0.51,0,0.89,0.33,0.76,0.68l-1.05,2.91
	c-0.09,0.24-0.4,0.42-0.76,0.41c-13.14-0.4-16.06,0.26-26.2,0.26c-1.26,0-6.99-0.28-8.25-0.28c-0.36,0-0.67-0.17-0.76-0.41
	l-0.87-2.89C0.71,21.99,1.09,21.66,1.6,21.65z"/>
<g>
	<g>
		<path fill="#AAAAAA" d="M20.38,0.95c0.57,0.49,1.66,0.28,1.98,1.12c0.18,0.47-0.03,0.88-0.31,1.08c-0.91,0.64-2.18,0.74-3.12,1.46
			c-1.47,1.12-1.89,3.21-0.68,4.67c0.32,0.39,1.15,0.92,1.16,1.48c0.01,0.28-0.22,0.51-0.38,0.72c-0.26,0.33-0.52,0.66-0.71,1.03
			c-0.27,0.51,0.17,0.98,0.69,0.9c1.6-0.23,2.79-1.81,2.27-3.42c-0.22-0.69-0.74-1.21-1.23-1.72c-0.42-0.44-0.65-0.87-0.37-1.47
			c0.24-0.5,0.6-0.69,1.05-0.89c0.47-0.21,1.05-0.39,1.54-0.64c1.03-0.51,1.86-1.42,1.76-2.64c-0.06-0.81-0.41-1.54-1.07-2.03
			c-0.6-0.45-1.82-0.85-2.49-0.37C20.26,0.39,20.14,0.74,20.38,0.95L20.38,0.95z"/>
	</g>
</g>
<g>
	<g>
		<path fill="#AAAAAA" d="M8.07,4.54c-0.59-0.05-1.26,0.7-1.62,1.11C6.05,6.12,5.71,6.68,5.6,7.3c-0.24,1.41,0.42,2.78,1.79,3.27
			c0.47,0.17,0.98,0.17,1.47,0.13c0.2-0.02,0.4-0.03,0.61-0.04c0.09,0,0.18,0,0.26,0c0.04,0,0.38,0.05,0.18,0.01
			c0.03,0.01,0.29,0.08,0.21,0.05c-0.12-0.05,0.22,0.16,0.07,0.03c0.18,0.15,0.22,0.26,0.32,0.47c0.1,0.2,0.2,0.42,0.23,0.64
			c0.04,0.35-0.1,0.63-0.2,0.95c-0.19,0.57,0.54,0.89,0.94,0.55c0.49-0.42,0.68-1.11,0.65-1.74c-0.02-0.56-0.1-1.24-0.39-1.73
			c-0.56-0.95-1.67-1.11-2.67-1.04c-0.8,0.06-1.6,0.13-1.76-0.89C7.25,7.49,7.4,7.04,7.65,6.64c0.31-0.5,0.91-0.96,0.98-1.56
			C8.66,4.77,8.34,4.56,8.07,4.54L8.07,4.54z"/>
	</g>
</g>
<g>
	<g>
		<path fill="#AAAAAA" d="M31.51,4.94c0.09,0.35,0.36,0.56,0.6,0.82c0.2,0.22,0.38,0.45,0.54,0.71c0.26,0.42,0.37,0.92,0.24,1.4
			c-0.27,0.99-1.14,0.93-1.95,0.93c-1.03,0-2.12,0.23-2.69,1.19c-0.3,0.51-0.38,1.23-0.4,1.81c-0.02,0.64,0.17,1.35,0.68,1.76
			c0.39,0.31,1.16,0.04,0.94-0.55c-0.23-0.61-0.31-1-0.03-1.61c0.11-0.24,0.23-0.46,0.37-0.58c-0.1,0.08,0.1-0.06,0.12-0.07
			c0.1-0.05,0.11-0.05,0.03-0.01c0.06-0.02,0.11-0.04,0.17-0.05c0.31-0.07,0.68-0.06,1.13-0.06c0.5,0.01,1.01-0.02,1.49-0.2
			c1.34-0.49,2.09-1.8,1.92-3.22c-0.08-0.69-0.41-1.29-0.86-1.8c-0.4-0.46-1.12-1.2-1.77-1.17C31.68,4.26,31.42,4.58,31.51,4.94
			L31.51,4.94z"/>
	</g>
</g>
</svg>
