<svg xmlns="http://www.w3.org/2000/svg" xmlns:xlink="http://www.w3.org/1999/xlink" viewBox="0 0 37.71 44.77">
  <defs>
    <clipPath id="a" transform="translate(0 -0.01)">
      <path d="M23.3,13.71l3.49,3.19s3.37,15.89-8.58,14.58S11.13,17.7,11.13,17.7" fill="#ffd29c"/>
    </clipPath>
  </defs>
  <title>category-korea</title>
  <polyline points="1.16 44.41 2.06 39.19 8.91 37.74 12.52 39.73 12.39 44.41" fill="#fc7a7a"/>
  <polyline points="36.61 44.41 35.71 39.19 28.86 37.74 25.25 39.73 25.38 44.41" fill="#fc7a7a"/>
  <g>
    <path d="M23.3,13.71l3.49,3.19s3.37,15.89-8.58,14.58S11.13,17.7,11.13,17.7" transform="translate(0 -0.01)" fill="#ffd29c"/>
    <g clip-path="url(#a)">
      <circle cx="11.89" cy="26.04" r="3.6" fill="#ffa1a1"/>
      <circle cx="25.49" cy="26.04" r="3.6" fill="#ffa1a1"/>
    </g>
  </g>
  <polyline points="10.34 19.73 7.5 19.73 7.25 21.19 7.79 23.57 10.72 24.17" fill="#ffd29c"/>
  <polyline points="26.93 24.17 29.87 23.57 30.4 21.19 30.16 19.73 27.31 19.73" fill="#ffd29c"/>
  <path d="M8.15,18.56S8.49,7.48,14.62,6.22c0,0-.26-6.24,4.55-5.82s4.45,5.69,4.45,5.69,7.49,3.68,6,12.18l-.23,1.28H27.73l-4.45-6.37L17,16.55l-6.26,1.53-1.11,1Z" transform="translate(0 -0.01)" fill="#774f3e"/>
  <polyline points="14.88 30.21 14.43 34.52 10.15 36.76 13.14 40.2 19.64 42.05 24.8 40.02 28.22 37.56 23.11 34.91 23.11 29.76" fill="#ffd29c"/>
  <polygon points="12.39 39.92 18.45 42.54 24.8 40.38 24.8 44.41 12.51 44.41 12.39 39.92" fill="#fff"/>
  <path d="M10.85,18a7.59,7.59,0,0,0-.47,2.61v3a8.21,8.21,0,0,0,8.4,8h0a8.21,8.21,0,0,0,8.39-8v-3A7.9,7.9,0,0,0,23,13.71" transform="translate(0 -0.01)" fill="none" stroke="#222" stroke-linecap="round" stroke-linejoin="round" stroke-width="1.7"/>
  <path d="M10.34,19.74a1.78,1.78,0,0,0-.8-.19h-.6A2,2,0,0,0,7,21.62v.66a2,2,0,0,0,1.91,2.07h.6a1.73,1.73,0,0,0,.79-.18" transform="translate(0 -0.01)" fill="none" stroke="#222" stroke-miterlimit="10" stroke-width="1.85"/>
  <path d="M27.31,19.74a1.81,1.81,0,0,1,.8-.19h.61a2,2,0,0,1,1.9,2.07v.66a2,2,0,0,1-1.9,2.07h-.61a1.76,1.76,0,0,1-.79-.18" transform="translate(0 -0.01)" fill="none" stroke="#222" stroke-miterlimit="10" stroke-width="1.85"/>
  <path d="M14.43,30.65v3.87c0,1.32-6.68,2.79-9.58,4S.93,39.54.93,43.85" transform="translate(0 -0.01)" fill="none" stroke="#222" stroke-linecap="round" stroke-miterlimit="10" stroke-width="1.85"/>
  <path d="M23.28,30.65v3.87c0,1.32,6.4,2.9,9.36,3.93,2.42.84,4.14,1.09,4.14,5.4" transform="translate(0 -0.01)" fill="none" stroke="#222" stroke-linecap="round" stroke-miterlimit="10" stroke-width="1.85"/>
  <path d="M8.74,37.23s4,1.81,4,2.51v4.11" transform="translate(0 -0.01)" fill="none" stroke="#222" stroke-linecap="round" stroke-linejoin="round" stroke-width="1.85"/>
  <path d="M28.78,37.23s-4,2.13-4,2.81v3.81" transform="translate(0 -0.01)" fill="none" stroke="#222" stroke-linecap="round" stroke-linejoin="round" stroke-width="1.85"/>
  <path d="M24.16,10.79c-.9.7-1.66,1.58-2.59,2.26a14.6,14.6,0,0,1-3.29,1.8A37.85,37.85,0,0,1,10.55,17c-1,.17-.56,1.63.4,1.46,1.43-.27,2.85-.59,4.28-.91a23.57,23.57,0,0,0,4.19-1.2c2.18-.92,5.06-2.56,5.74-5a.6.6,0,0,0-1-.58Z" transform="translate(0 -0.01)" fill="#222"/>
  <path d="M14.83,5.75a5.82,5.82,0,0,1,1.28-2.86,4,4,0,0,1,2.81-1.41,3.74,3.74,0,0,1,3,1.14,3.29,3.29,0,0,1,.76,1.44c.16.59.13,1.24.32,1.81s1.18.71,1.32,0A5.2,5.2,0,0,0,24,3.53,5,5,0,0,0,23,1.64,5.28,5.28,0,0,0,19,0a5.23,5.23,0,0,0-3.81,1.76,5.31,5.31,0,0,0-1.34,3.85c.07.51.86.74,1,.13Z" transform="translate(0 -0.01)" fill="#222"/>
  <path d="M8.86,19.83a40,40,0,0,0,.19-4.24,9.33,9.33,0,0,1,1-3.86,10.11,10.11,0,0,1,4.7-4.85,12.31,12.31,0,0,1,7-.45A7.69,7.69,0,0,1,25,7.68a8.51,8.51,0,0,1,2.28,2.74c1.45,2.6,2.18,6,.88,8.85-.42.92.91,1.72,1.37.8,1.43-2.83,1.06-6.34-.16-9.2a9.47,9.47,0,0,0-5.82-5.62A15.72,15.72,0,0,0,15.34,5a10.77,10.77,0,0,0-6,4.66,10.53,10.53,0,0,0-1.94,4.77,11.05,11.05,0,0,0,.39,5.39c.19.46,1,.61,1.1,0Z" transform="translate(0 -0.01)" fill="#222"/>
  <path d="M12.55,40.54a11.38,11.38,0,0,0,2.6,1.69,9,9,0,0,0,2.89.71,13.62,13.62,0,0,0,7.06-1.7c.8-.42.25-1.79-.62-1.47-2.05.75-4.05,1.66-6.3,1.52a14.19,14.19,0,0,1-5-1.62c-.52-.25-1.2.45-.67.87Z" transform="translate(0 -0.01)" fill="#222"/>
  <path d="M17,25.62a1.26,1.26,0,0,0,.59.93,1.75,1.75,0,0,0,1,.37,2,2,0,0,0,1-.21,1.84,1.84,0,0,0,.92-.84.35.35,0,0,0-.48-.48c-.29.2-.48.45-.77.61l-.1.05c-.06,0,0,0,0,0l-.2.06-.08,0h-.06s.05,0,0,0h-.28s0,0,0,0l-.2-.06-.08,0h0L18,26a1.27,1.27,0,0,1-.26-.22,1.61,1.61,0,0,0-.37-.32.24.24,0,0,0-.36.21Z" transform="translate(0 -0.01)" fill="#222"/>
  <path d="M18.49,22.8s0,.08,0,.12a.58.58,0,0,0,0,.19.43.43,0,0,0,0,.16.29.29,0,0,0,.07.18.43.43,0,0,0,.1.09.29.29,0,0,0,.16,0h.06a.18.18,0,0,0,.07-.05.27.27,0,0,0,.07-.08.34.34,0,0,0,.05-.19.49.49,0,0,0,0-.12c0-.08,0-.16,0-.25a.24.24,0,0,0-.22-.24.23.23,0,0,0-.16,0l-.05,0a.2.2,0,0,0-.06.11Z" transform="translate(0 -0.01)" fill="#222"/>
  <path d="M14.84,20.18l.1-.09c.06-.05,0,0,0,0l0,0,.11-.06s0,0,0,0l.06,0,.24-.05h.34L16,20s.08,0,0,0,0,0,0,0l.11.06.1.07s-.07-.07,0,0l.05,0a.38.38,0,0,0,.54,0,.39.39,0,0,0,0-.55,1.82,1.82,0,0,0-1.25-.41,1.34,1.34,0,0,0-.67.2,1.47,1.47,0,0,0-.46.5.24.24,0,0,0,.38.3Z" transform="translate(0 -0.01)" fill="#222"/>
  <path d="M20.76,20.18l.09-.09,0,0,.05,0L21,20s-.05,0,0,0l.07,0,.23-.05h.06s-.08,0,0,0h.3l.24.07s.07,0,0,0,0,0,0,0l.1.06.11.07s-.08-.07,0,0l.05,0a.39.39,0,0,0,.55-.55,1.83,1.83,0,0,0-1.25-.41,1.31,1.31,0,0,0-.67.2,1.4,1.4,0,0,0-.47.5.25.25,0,0,0,.39.3Z" transform="translate(0 -0.01)" fill="#222"/>
  <circle cx="15.8" cy="22.19" r="1.13" fill="#222"/>
  <circle cx="21.58" cy="22.19" r="1.13" fill="#222"/>
</svg>
