<svg xmlns="http://www.w3.org/2000/svg" viewBox="0 0 31 45">
  <title>category-women-only</title>
  <g>
    <path d="M20.68,32.74c0-.74-.24-3.24-.23-4,0-2.17-.24-1.83-.85-3.15S15.2,24,14.82,25c-.48,1.28-.77,2.2-.29,5.81.09.69.18,1.4.21,2.1l-1.39,0c-.8,0-3.62-.14-4.18,0-1.12.26-.27,3.39-.27,3.75,0,1.25,3.09.92,4,.92.71,0,1.41.06,2.12.06,0,.79.06.56.09,1.35a15.07,15.07,0,0,0,.23,3.42c.12,1.42.82,1.79,3.27,1.63.59,0,1.42,0,1.66-.65A3.57,3.57,0,0,0,20.39,42c0-1.1-.12-2.19-.12-3.29,0-.73-.05-.46-.08-1.19l3.2-.17A18,18,0,0,0,26.44,37c.57-.17.44-1.11.22-3-.09-.81-.12-1.41-.91-1.62C25.47,32.32,20.68,32.74,20.68,32.74Z" transform="translate(-2)" fill="#f46464"/>
    <path d="M21.6,32.74c-.22-3.66.4-8.7-4.45-9.19-5.3-.54-3.57,6.15-3.33,9.34l.92-.92c-2.9.06-7.15-1.24-7,2.78.12,4.59,3.63,3.69,7.3,3.8l-.92-.91c.2,3.07-.59,7.09,3.43,7.34,4.85.31,3.84-3.81,3.59-7.45l-.92.91c4.1-.2,8.92.52,7.3-5-.86-3-4.35-1.8-6.81-1.57-1.16.1-1.17,1.93,0,1.82s3-.63,4.14-.32c1.66.47,1.46,2.3-.36,3-1.11.45-3.08.19-4.27.24a.94.94,0,0,0-.92.92c.12,1.66,1,5.34-1.21,5.61-2.64.32-2-3.88-2.13-5.5a.94.94,0,0,0-.92-.91c-1.42,0-6.85.75-5.5-2.35.51-1.16,3.77-.55,5.23-.58a.91.91,0,0,0,.91-.91c-.12-1.69-1.58-6.82.7-7.56,3.74-1.21,3.3,5.57,3.42,7.41C19.84,33.91,21.67,33.92,21.6,32.74Z" transform="translate(-2)" fill="#222"/>
  </g>
  <g>
    <path d="M14.22,28.93c-7.25-1.7-12.41-9-11.1-16S11.41.4,18.9.94a15.19,15.19,0,0,1,11,6.11,14.3,14.3,0,0,1-1.48,18.19,13.4,13.4,0,0,1-7.93,4M17.87,7.17c-5.63-.06-10.26,5.7-8.1,11.17,1.37,3.48,5.48,5.65,9.28,5.27a8.14,8.14,0,0,0,3.49-1.18c5.94-3.69,4.47-12.55-2-14.79A8.43,8.43,0,0,0,17.87,7.17Z" transform="translate(-2)" fill="#f46464"/>
    <g>
      <path d="M14.47,28.05C.13,23.94,1.18,3.79,16.26,2c17-2,21,23.25,4,26.38-1.16.21-.67,2,.49,1.76C39.4,26.67,35.68-1.27,16.82,0,9.8.53,3.4,5.9,2.2,12.88.84,20.78,6.64,27.71,14,29.81a.91.91,0,0,0,.49-1.76Z" transform="translate(-2)" fill="#222"/>
      <path d="M17.87,6.26c-5.11.22-9.66,4.17-9.56,9.49S14,25.07,19.17,24.51a8.92,8.92,0,0,0,8-9.67,9.61,9.61,0,0,0-9.28-8.58c-1.18-.08-1.17,1.75,0,1.82,7.85.51,10.72,12.06,2.3,14.38-4.17,1.16-9.31-1.52-9.91-6s3.19-8.22,7.61-8.41C19.05,8,19.05,6.21,17.87,6.26Z" transform="translate(-2)" fill="#222"/>
    </g>
  </g>
</svg>
