<?xml version="1.0" encoding="utf-8"?>
<svg xmlns="http://www.w3.org/2000/svg"  width="39" height="39" viewBox="0 0 39 39">
  <title>category-thailand</title>
  <path d="M31.82,5.12a11.72,11.72,0,0,0-1.41-1.33,0,0,0,0,0,0,0h0C24.8-.83,16.41,0,10.14,3A13.21,13.21,0,0,0,7.41,4.63l-.14,0a1.19,1.19,0,0,0-.86.91,8.6,8.6,0,0,0-1,1.31c-.27.44.31,1.07.75.73L7.06,7a1.57,1.57,0,0,0,.58.17A146.25,146.25,0,0,0,31,7.08,1.16,1.16,0,0,0,31.82,5.12Z" fill="#ed2e29"/>
  <path d="M35.55,12.29c-.71-1.81-.66-4.21-2.77-4.9-1.26-.41-3.69.1-5,.06l-4.3-.13c-2.87-.09-5.74-.21-8.62-.26a72.74,72.74,0,0,0-8.61.14l-.12,0a1.05,1.05,0,0,0-1.39.13A15.19,15.19,0,0,0,1.53,12c-.29.66.45,1.42,1.15,1.39,10.59-.38,21.24-.74,31.81.17A1,1,0,0,0,35.55,12.29Z" fill="#fff"/>
  <path d="M37.16,15.73c-.19-1.25.59-2.77-.77-3.35s-3.86,0-5.19.11q-9.06.62-18.14.78c-3.49.06-7,.13-10.45.15a.84.84,0,0,0-.91.8,1,1,0,0,0-.5.54C.35,17,1.38,19.52.41,22.07c-.4,1.06.75,2.53,1.67,3.29a2.93,2.93,0,0,0,2.11.49l2.47-.12q9.09-.45,18.17-.71c3.49-.09,7-.22,10.47-.17a1.42,1.42,0,0,0,1.35-1A18.28,18.28,0,0,0,37.16,15.73Z" fill="#3333c1"/>
  <path d="M35.69,24.32a30.24,30.24,0,0,1-3.81.28c-.62,0-1.23,0-1.85.1-1.24.09-2.47.16-3.71.22-2.56.12-5.13.17-7.69.16s-5.14-.06-7.71-.15-6.8-.5-9.36-.4c-.91,0,.33,1.67,1.34,1.89a.9.9,0,0,0,.05,1c.68.94,1.31,1.92,2,2.85a3.37,3.37,0,0,0,2.68,1.56c2.5.19,5.05.19,7.56.22s5,0,7.47-.09,5.06-.15,7.55-.42c1.43-.16,1.94-1.11,2.64-2.17A38.44,38.44,0,0,0,35,25.84C35.38,25.18,36.48,24.13,35.69,24.32Z" fill="#fff"/>
  <path d="M32.47,30.07a98.17,98.17,0,0,1-14,.57c-2.05-.09-4.1-.05-6.15-.15A51,51,0,0,0,5,30.33c-.9.12,0,1.45,1,1.79H6a1.55,1.55,0,0,0,.66,1.81c4,2.22,8.42,4.36,13,3.76l.66-.11a14.64,14.64,0,0,0,2.07-.26,16.93,16.93,0,0,0,5-1.81,1.18,1.18,0,0,0,.44-.42,19.16,19.16,0,0,0,3.84-2.65C32.48,31.69,33.57,30,32.47,30.07Z" fill="#ed2e29"/>
  <path d="M1.3,16c.25-4,.93-5.6,2.48-7.76A15.44,15.44,0,0,1,9.83,3.58,22.9,22.9,0,0,1,22,1.2,16.72,16.72,0,0,1,33,7a24.19,24.19,0,0,1,2.55,3.87,17.89,17.89,0,0,1,1.52,3.43,14.31,14.31,0,0,1-.47,8.84,24.16,24.16,0,0,1-4.07,7.78,20.49,20.49,0,0,1-9.22,5.87,17.91,17.91,0,0,1-4.77.68c-4,.11-8.2-.64-11.5-3.21a14.94,14.94,0,0,1-4.89-7.07c-1.52-4.62-1.19-9-.57-13.85" fill="none" stroke="#222" stroke-miterlimit="10" stroke-width="2.2"/>
</svg>
