<svg xmlns="http://www.w3.org/2000/svg" viewBox="0 0 48.23 38.71">
  <title>category-waxing</title>
  <g>
    <path d="M23.46,10.19a23.48,23.48,0,0,1,2.73-3.56.57.57,0,0,0,0-.68,10.31,10.31,0,0,1-.77-1.17C24.44,3.1,25.24,1,27.19.9,28.55.83,30.35,2,29.83,3.75c.05-.14.93-.24,1.07-.26a3.7,3.7,0,0,1,1.15,0c1.88.32,1.88,3.48-.26,4.43-1,.42-1.32-.52-2.22,0a3.88,3.88,0,0,0-1.05,1.46c-.43.74-.88,1.46-1.32,2.18" transform="translate(-0.08 -0.06)" fill="#fff"/>
    <path d="M23.83,10.57c.87-1.12,1.85-2.09,2.77-3.16a1.52,1.52,0,0,0,.15-2.1,5.29,5.29,0,0,1-.81-1.45,1.55,1.55,0,0,1,1.18-2.11c1-.11,2.16.7,1.88,1.77a.87.87,0,0,0,1.58.66l0,0-.31.31c-.18.11.14,0,.21,0l.33,0h.07a3.77,3.77,0,0,1,.67,0c.48,0,.72.11.87.44a1.86,1.86,0,0,1-.48,2A.84.84,0,0,1,31,7a2.12,2.12,0,0,0-1.87.12,4,4,0,0,0-1.33,1.68c-.44.78-.94,1.53-1.42,2.29-.68,1.08,1.05,2.09,1.71,1,.42-.7.85-1.39,1.25-2.1.19-.34.46-1.23.91-1.29-.1,0,0,0,0,0l.31.11A2.3,2.3,0,0,0,31.5,9a3,3,0,0,0,1.66-.85c1.46-1.36,1.69-4.35-.39-5.27a3.89,3.89,0,0,0-2-.18,2.18,2.18,0,0,0-1.65.66L30.67,4C31.4,1.23,28-.85,25.7.47a3.23,3.23,0,0,0-1.54,3,4.09,4.09,0,0,0,.55,1.73,6.42,6.42,0,0,0,.34.56l.29.42s.15.23.17.22c-.13,0,.21-.41-.07-.19a4.78,4.78,0,0,0-.72.94l-.73,1a5.71,5.71,0,0,0-1,1.88c-.11.47.54,1,.89.52Z" transform="translate(-0.08 -0.06)" fill="#222"/>
  </g>
  <g>
    <path d="M37,13.65l3.67-3.91c-.16.08-.36-.27-.49-.38a3.3,3.3,0,0,1-1.24-3c.37-2,3.51-2.69,4.54-.74a5.45,5.45,0,0,1,.42,2.44c0-.23,1.67,0,1.81,0,1.18.11,1.93,1.18,1.76,2.67a2.65,2.65,0,0,1-4,1.92,1.87,1.87,0,0,0-.45-.26c-.66-.18-1.47,1.16-1.89,1.6a30.26,30.26,0,0,1-2.33,2.34" transform="translate(-0.08 -0.06)" fill="#fff"/>
    <path d="M37.4,14.08a41.08,41.08,0,0,0,3.81-3.77.81.81,0,0,0-.57-1.37h-.08l.4.11a3.17,3.17,0,0,1-.36-.37,3.3,3.3,0,0,1-.47-.52,2.38,2.38,0,0,1-.45-1.43,1.53,1.53,0,0,1,1-1.28,1.76,1.76,0,0,1,1.64.1c.78.54.73,1.7.74,2.54a.82.82,0,0,0,1.61.22v0l-.21.36c-.22.19-.44.15-.15.16l.41,0c.26,0,.52,0,.78.07a1.11,1.11,0,0,1,.94.6,1.88,1.88,0,0,1-1.24,2.63,1.65,1.65,0,0,1-1.3-.21,1.74,1.74,0,0,0-2.27.17c-.48.42-.84,1-1.28,1.44a30.17,30.17,0,0,1-2.19,2.19c-.88.76.4,2,1.27,1.28a26.69,26.69,0,0,0,2.06-2.06c.44-.47.79-1,1.25-1.47l.24-.21h0a.28.28,0,0,1-.25,0l.22.15a3.3,3.3,0,0,0,.89.42,3.59,3.59,0,0,0,2,0,3.46,3.46,0,0,0,2.51-2.91,3.12,3.12,0,0,0-1.95-3.51,7.26,7.26,0,0,0-1.62-.2c-.62,0-1.42,0-1.64.7l1.61.21c0-1.47-.23-3.13-1.61-4a3.46,3.46,0,0,0-3.29,0,3.08,3.08,0,0,0-1.71,3A4.12,4.12,0,0,0,39,9.34c.37.46,1,1.25,1.63,1.21l-.57-1.38a42.19,42.19,0,0,0-3.62,4.18c-.43.6.46,1.13.95.73Z" transform="translate(-0.08 -0.06)" fill="#222"/>
  </g>
  <path d="M14.12,30.94A53.71,53.71,0,0,0,36,30.62c3.9-.83,2.25-6.81-1.65-6A45.74,45.74,0,0,1,15.77,25c-3.9-.77-5.57,5.2-1.65,6Z" transform="translate(-0.08 -0.06)" fill="#ffd29c"/>
  <path d="M6.73,30.61c-1.8-.86,2-4.73,2-4.71a12.93,12.93,0,0,0,2.68-4.66c2.18-5.73,10.74-4.1,15.5-2.39,2.46.89,4.43-1.75,4-4-1.57-7.33-14.37-5.71-18.83-2.48C6.15,16.69,4.88,25.18,3.63,31.85A3.5,3.5,0,0,0,7,36.22c6-.18,11.8.82,17.75,1.11a31,31,0,0,0,10-.78c3.27-.7,6.27-2.84,5.76-6.84-.18-1.41-.72-3.69-.65-4,.38-1.59,2.24-2.24,2.26-4.4,0-3.17-2.39-7.3-5.23-8.62-3.86-1.79-9.73.81-13.67,1.56-4.94,1-11.86,1.4-16.23,4.06a6.29,6.29,0,0,0-2.75,3.57,16,16,0,0,0-.11,3.93h7.19l-.1-.34-3.6,4.72c6.49-.4,12.91-1.5,19.38-2.05,4.39-.37,9,0,10.76-4.88,1.82-5-6.35-7.33-8.05-2.22l-.23.69,1.92-2.48c-2.17,1.55-7.81,1.26-10.52,1.7-4.41.72-8.8,1.42-13.26,1.78C5.27,23,3.16,25,4,27.49l.11.34c1.06,3.26,6.42,3.82,7.19,0a8.48,8.48,0,0,0,.1-2.41c-.12-1.79.53-1.56-.47-.79,2.31-1.79,8-2.19,10.87-2.84,2.17-.49,4.33-.94,6.51-1.38,1.25-.25,3.49-1.18,4.66-.88A2.08,2.08,0,0,1,35,21.26c.47-1,.45-1.18-.09-.66-.39,1-1.55,1.8-1.93,2.95s-.69,6.05,1.22,6.53c.15,0,3.3-1.84,0-1.22-1.88.36-3.46,1.34-5.44,1.53-7.23.7-14.62-1.24-21.89-1.07l3.33,4.36c.78-4.05,1.43-8.33,3.14-12.11,1-2.22,2.21-3.87,4.58-4.76a7.54,7.54,0,0,1,3.61-.45c.49.05,3.24,1,3.07.25l4-4C21.46,10.12,9.35,9.3,6,17.76c-1.7,4.3-10,14.67-1,16.91,2.34.58,4.06-2.94,1.71-4.06Z" transform="translate(-0.08 -0.06)" fill="#ffd29c"/>
  <path d="M31.71,12.66a10.24,10.24,0,0,0-4.09-2.3,22,22,0,0,0-5.54-1.24,21.38,21.38,0,0,0-10.4,1.56C9,11.82,6.27,14,5.45,16.92a3.63,3.63,0,0,0-.1,1.27c0,.16,0,.31,0,.46s0,0,0,0a.65.65,0,0,1,0,.13c-.12.26.06-.1,0,.07a5,5,0,0,1-1.39,1.43A8.86,8.86,0,0,0,2.6,21.68,12.3,12.3,0,0,0,.09,29.43,8.83,8.83,0,0,0,1,33.24a7.15,7.15,0,0,0,3.17,3A19.44,19.44,0,0,0,9.1,37.69a34.57,34.57,0,0,0,5.56.75,114.41,114.41,0,0,0,12.42.23c2-.12,4.07-.38,6.08-.7a12.49,12.49,0,0,0,4.45-1.51,7.56,7.56,0,0,0,3.18-3.76,9.91,9.91,0,0,0,.31-5.21,20.55,20.55,0,0,0-.61-2.55,1,1,0,0,0-2,.56c.82,2.79,1.41,6.23-1,8.44a8.26,8.26,0,0,1-3.74,1.77,39.87,39.87,0,0,1-5,.72,80.4,80.4,0,0,1-11.3,0c-1.83-.08-3.67-.1-5.48-.36a46.62,46.62,0,0,1-4.81-1,7.7,7.7,0,0,1-3.71-2A5.21,5.21,0,0,1,2.24,30.5a10,10,0,0,1,1.37-6.7,14.15,14.15,0,0,1,2.55-2.75A3.49,3.49,0,0,0,7.4,18.46c0-.15,0-.3,0-.46s0-.52,0-.31A4.51,4.51,0,0,1,8,16.12a8.53,8.53,0,0,1,2.71-2.67,18.25,18.25,0,0,1,9.75-2.63,21.26,21.26,0,0,1,5.78.73,15.3,15.3,0,0,1,4.79,1.95c.5.36,1-.42.64-.84Z" transform="translate(-0.08 -0.06)" fill="#222"/>
  <path d="M27.17,17.05c.65-.5,1.18-1.12,1.81-1.65a12.91,12.91,0,0,1,2.07-1.35,10.81,10.81,0,0,1,4.1-1.5,2.34,2.34,0,0,1,1.65.7c.6.47,1.2.93,1.77,1.43,1.14,1,2.39,2.16,2.46,3.78A8.23,8.23,0,0,1,39.4,23a8.5,8.5,0,0,1-2.58,2.69,14.56,14.56,0,0,1-6.91,1.78,8.7,8.7,0,0,1-3.53-.29,2.89,2.89,0,0,1-1.28-.85,5.17,5.17,0,0,1-.89-1.75c-.28-1-2-.84-1.84.24a4.61,4.61,0,0,0,2.28,4,7.61,7.61,0,0,0,4.06.89,28.82,28.82,0,0,0,4.34-.48,13.64,13.64,0,0,0,4.2-1.38,11.45,11.45,0,0,0,5.6-8.41,6.25,6.25,0,0,0-2.07-5.11,25.2,25.2,0,0,0-2.1-1.77,9.62,9.62,0,0,0-2.12-1.48c-1.79-.7-3.79.36-5.39,1.1-1.82.83-4.15,2.24-4.81,4.26-.13.42.42.91.81.61Z" transform="translate(-0.08 -0.06)" fill="#222"/>
  <path d="M21.36,13.62c-.44-1.12-1.78-1-2.79-1a13.4,13.4,0,0,0-2.82.47A9.65,9.65,0,0,0,13.5,14a3.69,3.69,0,0,0-1,.88,1.6,1.6,0,0,0-.45,1.4v-.44c-.14.38-.34.88.07,1.18s.79-.06,1.13-.25l-.63.08c.78.17,1.51-.49,2.14-.86a6.57,6.57,0,0,1,1.87-.73A11.62,11.62,0,0,1,18.94,15a7.54,7.54,0,0,0,1.43-.06c.51-.13,1.25-.64,1-1.27Z" transform="translate(-0.08 -0.06)" fill="#fff"/>
  <path d="M4.5,21.79c.4.1.7-.19,1-.42s.4-.34.61-.5A9.44,9.44,0,0,1,7.61,20a4.19,4.19,0,0,1,.72-.3c.32-.11.65-.17,1-.26a8.44,8.44,0,0,1,1-.25,1.68,1.68,0,0,0,1.12-.43.3.3,0,0,0,.05-.38,1.48,1.48,0,0,0-1.22-.51,9,9,0,0,0-1.27,0,6.33,6.33,0,0,0-2.23.75,7.92,7.92,0,0,0-1.62,1.26,8.81,8.81,0,0,0-.66.71,1.2,1.2,0,0,0-.33.59.53.53,0,0,0,.36.61Z" transform="translate(-0.08 -0.06)" fill="#222"/>
  <path d="M22.31,13.82a1.16,1.16,0,0,0,.76,0l-.16,0a1.69,1.69,0,0,1,.45,0l-.17,0,.36.08c.13,0,.26.1.39.12a.69.69,0,0,0,.49-.06.74.74,0,0,0,.27-.31.61.61,0,0,0,0-.42.68.68,0,0,0-.3-.39,1.87,1.87,0,0,0-.35-.16l-.22-.07a2.12,2.12,0,0,0-.56-.05,2.43,2.43,0,0,0-.55.09,1.07,1.07,0,0,0-.32.16.73.73,0,0,0-.35.4.53.53,0,0,0,.23.57Z" transform="translate(-0.08 -0.06)" fill="#fff"/>
</svg>
