<?xml version="1.0" encoding="utf-8"?>
<!-- Generator: Adobe Illustrator 16.0.0, SVG Export Plug-In . SVG Version: 6.00 Build 0)  -->
<!DOCTYPE svg PUBLIC "-//W3C//DTD SVG 1.1//EN" "http://www.w3.org/Graphics/SVG/1.1/DTD/svg11.dtd">
<svg version="1.1" id="Layer_1" xmlns="http://www.w3.org/2000/svg" xmlns:xlink="http://www.w3.org/1999/xlink" x="0px" y="0px"
	 width="23.182px" height="45.39px" viewBox="0 0 23.182 45.39" enable-background="new 0 0 23.182 45.39" xml:space="preserve">
<g>
	<defs>
		<rect id="SVGID_1_" width="23.182" height="45.39"/>
	</defs>
	<clipPath id="SVGID_2_">
		<use xlink:href="#SVGID_1_"  overflow="visible"/>
	</clipPath>
	<path clip-path="url(#SVGID_2_)" fill="#FFFFFF" d="M4.76,1.679c6.671-1.118,9.556-0.465,13.964-0.168
		c-0.06,1.456,0.536,3.025,0.476,4.48c0.016-0.326,1.272,0.639,1.462,0.775c1.005,0.714,1.498,1.708,1.47,2.95
		c-0.057,2.344-0.841,3.778-3.695,3.61c0.509,0.128-0.351,5.49,0.592,5.71c0.353,0.083,0.639,0.28,0.94,0.491
		c1.477,1.035,2.527,2.951,2.001,5.013c-0.47,1.84-1.795,3.359-3.62,3.37c-0.004,0,0.084,4.909,0.139,5.3
		c3.708-0.275,3.581,2.968,3.45,4.67c-0.104,1.339-1.868,2.543-3.239,2.521c0.232,1.531-0.065,2.256,0.25,3.771
		c-5.377-0.549-4.182,0.795-14.705-0.228c0.244-1.207,0.244-2.468,0-3.675c-1.475,0.323-2.963-0.978-2.604-3.45
		c0.227-1.568,1.765-3.484,3.147-2.854c-0.382-2.199,0.152-3.405-0.039-5.632c0.004,0.068-1.188-0.431-1.393-0.535
		c-4.075-2.064-2.336-9.454,2.013-8.396c-0.237-3.046-0.284-3.063-0.45-6.114c0.005,0.108-0.369,0.011-0.523-0.03
		c-0.931-0.25-1.568-0.821-2.108-1.715c-1.993-3.294,0.139-4.94,2.584-5.079c0.008-1.691-0.127-3.06-0.119-4.752"/>
	
		<path clip-path="url(#SVGID_2_)" fill="none" stroke="#000000" stroke-width="2.1" stroke-linecap="round" stroke-linejoin="round" stroke-miterlimit="10" d="
		M4.76,1.679c6.671-1.118,9.556-0.465,13.964-0.168c-0.06,1.456,0.536,3.025,0.476,4.48c0.016-0.326,1.272,0.639,1.462,0.775
		c1.005,0.714,1.498,1.708,1.47,2.95c-0.057,2.344-0.841,3.778-3.695,3.61c0.509,0.128-0.351,5.49,0.592,5.71
		c0.353,0.083,0.639,0.28,0.94,0.491c1.477,1.035,2.527,2.951,2.001,5.013c-0.47,1.84-1.795,3.359-3.62,3.37
		c-0.004,0,0.084,4.909,0.139,5.3c3.708-0.275,3.581,2.968,3.45,4.67c-0.104,1.339-1.868,2.543-3.239,2.521
		c0.232,1.531-0.065,2.256,0.25,3.771c-5.377-0.549-4.182,0.795-14.705-0.228c0.244-1.207,0.244-2.468,0-3.675
		c-1.475,0.323-2.963-0.978-2.604-3.45c0.227-1.568,1.765-3.484,3.147-2.854c-0.382-2.199,0.152-3.405-0.039-5.632
		c0.004,0.068-1.188-0.431-1.393-0.535c-4.075-2.064-2.336-9.454,2.013-8.396c-0.237-3.046-0.284-3.063-0.45-6.114
		c0.005,0.108-0.369,0.011-0.523-0.03c-0.931-0.25-1.568-0.821-2.108-1.715c-1.993-3.294,0.139-4.94,2.584-5.079
		c0.008-1.691-0.127-3.06-0.119-4.752"/>
	<path clip-path="url(#SVGID_2_)" d="M5.968,17.178c1.828,0.086,3.594-0.33,5.401-0.521c2.509-0.263,4.961,0.467,7.421,0.248
		c0.574-0.052,0.903-0.846,0.315-1.163c-3.891-2.097-8.988-0.634-13.137-0.213C4.927,15.635,4.889,17.127,5.968,17.178"/>
	<path clip-path="url(#SVGID_2_)" d="M4.288,32.359c3.092,0.55,6.398-0.929,9.619-0.586c1.478,0.156,3.657,0.991,4.984,0.047
		c0.4-0.285,0.442-0.857,0-1.133c-1.221-0.764-3.696-0.802-5.145-0.928c-2.835-0.246-7.271,0.042-9.579,1.685
		C3.856,31.667,3.824,32.276,4.288,32.359"/>
	<path clip-path="url(#SVGID_2_)" d="M8.533,8.079C8.202,8.952,8.185,9.968,8.137,10.89c-0.09,1.72,2.765,1.723,2.675,0
		c-0.049-0.923-0.066-1.937-0.396-2.811C10.067,7.156,8.883,7.155,8.533,8.079"/>
	<path clip-path="url(#SVGID_2_)" d="M8.358,22.595c-0.226,0.814-0.208,1.689-0.105,2.523c0.086,0.709,0.546,1.324,1.323,1.324
		c0.665,0,1.388-0.608,1.323-1.324c-0.076-0.83-0.139-1.733-0.41-2.523C10.146,21.593,8.663,21.498,8.358,22.595"/>
	<path clip-path="url(#SVGID_2_)" d="M8.552,36.372c-0.458,0.75-0.339,2-0.27,2.85c0.049,0.599,0.478,1.113,1.114,1.113
		c0.57,0,1.156-0.51,1.114-1.113c-0.033-0.464-0.075-0.925-0.1-1.389c-0.027-0.512-0.028-0.999-0.27-1.461
		C9.812,35.742,8.897,35.807,8.552,36.372"/>
</g>
</svg>
