<svg xmlns="http://www.w3.org/2000/svg" viewBox="0 0 39.57 40.2">
  <title>category-spa</title>
  <path d="M1.81,16.68l35.26,0L32.32,38.27,9.15,39S4.87,36.75,1.81,16.68Z" transform="translate(0 -0.01)" fill="#9e7157"/>
  <path d="M1.64,16.86c12.32-.58,22.58-.35,34.88-.29a.93.93,0,0,1,1,1.05c-1.2,5.65-3.21,15.61-5.6,21a116.44,116.44,0,0,1-22.85.25A2.26,2.26,0,0,1,8,38.63a1.38,1.38,0,0,1-.42-.48C5.85,35,5.48,32.06,3.64,26.26a67.88,67.88,0,0,1-2.13-9.38" transform="translate(0 -0.01)" fill="none" stroke="#222" stroke-linecap="round" stroke-linejoin="round" stroke-width="1.88"/>
  <path d="M9.93,16.59a30.89,30.89,0,0,0,1.36,6.7c1,3.91,2.05,7.8,3.09,11.7a13.93,13.93,0,0,0,1.37,4.19.37.37,0,0,0,.68-.19,13,13,0,0,0-.72-3.63c-.47-1.85-.93-3.69-1.39-5.54-.9-3.67-1.69-7.4-2.81-11a10.9,10.9,0,0,0-.89-2.41.38.38,0,0,0-.69.19Z" transform="translate(0 -0.01)" fill="#222"/>
  <path d="M27.16,16.29c-.89,3.79-1.28,7.74-2,11.57-.41,2.2-.84,4.39-1.32,6.57a46.61,46.61,0,0,0-1,4.78c0,.39.51.48.69.19a16.65,16.65,0,0,0,1.51-4.63c.52-2.23,1-4.47,1.39-6.71s.85-4.49,1.17-6.75a28.76,28.76,0,0,0,.5-4.89.49.49,0,0,0-.95-.13Z" transform="translate(0 -0.01)" fill="#222"/>
  <path d="M3.71,30.39c9.23-.11,5.69.22,14.37.22,2,0,15.64-.22,17.63-.22.45,0,.78.31.67.64l-.92,2.76a.68.68,0,0,1-.67.4c-11.57-.38-11.36.27-20.28.27-1.11,0-8.72-.27-9.83-.27A.69.69,0,0,1,4,33.8L3,31C2.92,30.71,3.25,30.39,3.71,30.39Z" transform="translate(0 -0.01)" fill="#bfa094" stroke="#222" stroke-linecap="round" stroke-linejoin="round" stroke-width="1.5"/>
  <path d="M1.6,21.65c10.49-.11,15.89.25,25.75.25,2.26,0,8.36-.25,10.62-.25.51,0,.88.33.76.68l-1,2.91a.77.77,0,0,1-.76.41c-13.14-.39-16.06.27-26.2.27-1.26,0-7-.29-8.25-.29a.78.78,0,0,1-.76-.4l-.87-2.9C.71,22,1.09,21.66,1.6,21.65Z" transform="translate(0 -0.01)" fill="#bfa094" stroke="#222" stroke-linecap="round" stroke-linejoin="round" stroke-width="1.64"/>
  <path d="M20.38,1c.58.49,1.66.29,2,1.13A.89.89,0,0,1,22,3.15c-.9.64-2.18.74-3.12,1.45a3.27,3.27,0,0,0-.68,4.69c.31.38,1.14.92,1.16,1.47,0,.28-.22.51-.38.72a6.69,6.69,0,0,0-.72,1,.63.63,0,0,0,.7.91A2.71,2.71,0,0,0,21.28,10a4.66,4.66,0,0,0-1.23-1.72,1.2,1.2,0,0,1-.37-1.47,1.83,1.83,0,0,1,1.05-.89c.47-.2,1.05-.39,1.55-.63A2.78,2.78,0,0,0,24,2.63,2.73,2.73,0,0,0,23,.59c-.61-.44-1.82-.85-2.49-.36a.47.47,0,0,0-.1.72Z" transform="translate(0 -0.01)" fill="#aaa"/>
  <path d="M8.07,4.54c-.58-.08-1.27.7-1.62,1.1A3.66,3.66,0,0,0,5.6,7.3a2.84,2.84,0,0,0,1.8,3.28,3.47,3.47,0,0,0,1.47.13l.6,0h.26s.38.05.19,0c0,0,.29.08.21.05s.22.16.07,0a1.23,1.23,0,0,1,.32.47,2,2,0,0,1,.23.64,2.22,2.22,0,0,1-.2,1,.57.57,0,0,0,.94.55,2.12,2.12,0,0,0,.66-1.74,4,4,0,0,0-.39-1.73A2.68,2.68,0,0,0,9.08,8.85C8.27,8.91,7.48,9,7.32,8a2,2,0,0,1,.33-1.33A4.54,4.54,0,0,1,8.13,6a1.45,1.45,0,0,0,.49-.89.55.55,0,0,0-.55-.54Z" transform="translate(0 -0.01)" fill="#aaa"/>
  <path d="M31.51,4.94a1.92,1.92,0,0,0,.6.82,5.22,5.22,0,0,1,.54.7,1.83,1.83,0,0,1,.24,1.4c-.28,1-1.16.93-2,.93a2.79,2.79,0,0,0-2.69,1.29,4.4,4.4,0,0,0-.36,1.83,2.13,2.13,0,0,0,.81,1.73c.39.3,1-.19.83-.63a2.28,2.28,0,0,1-.24-.91,2.09,2.09,0,0,1,.2-.7,1.75,1.75,0,0,1,.37-.57c-.1.08.1-.07.12-.07l0,0,.17-.05a5.45,5.45,0,0,1,1.13-.06,4.19,4.19,0,0,0,1.49-.19,3,3,0,0,0,1.92-3.22,3.35,3.35,0,0,0-.85-1.81C33.42,5,32.68,4.19,32,4.24a.57.57,0,0,0-.53.7Z" transform="translate(0 -0.01)" fill="#aaa"/>
</svg>
