<svg xmlns="http://www.w3.org/2000/svg" width="31" height="45" viewBox="0 0 31 45">
  <title>category-swedish</title>
  <path d="M17.11,2.53l-.3.1-.24.05h-.48s-.18,0-.08,0V4.09a8.86,8.86,0,0,1,2.11-.28V2.29a27.29,27.29,0,0,1-3.5-.11V3.75c1.21,0,2.41-.11,3.61-.23A.83.83,0,0,0,19,2.71a.83.83,0,0,0-.81-.81H15.49l.22,1.61.51-.09c.28,0-.15,0,.13,0l.26,0c.34,0,.69-.06,1-.08a.82.82,0,0,0,.82-.82.84.84,0,0,0-.82-.82L14.1,1.27a.78.78,0,0,0-.65.33.88.88,0,0,0-.15.72l.18,1.24c.07.5.09,1,.56,1.34a2.61,2.61,0,0,0,1.41.18h1.27c.83,0,2,.19,2.51-.65a2.84,2.84,0,0,0,.26-1.35,10,10,0,0,0,0-1.22A.86.86,0,0,0,18.65,1a.87.87,0,0,0-.86.85c0,1,0,2.09,0,3.13l1.12-.85a22.9,22.9,0,0,0-4.6-.35.94.94,0,0,0-.92.92c0,.45.4,1,.92.92A1.25,1.25,0,0,0,15,5.35l.18-.16a.69.69,0,0,0,0-1L15,4.07a1.19,1.19,0,0,0-.73-.28V5.63c.71,0,1.43,0,2.14,0,.36,0,.7,0,1.05.09l.53.06h.11l.3,0a.89.89,0,0,0,.77-.16A.86.86,0,0,0,19.52,5c0-1,0-2.09,0-3.13H17.79c0,.33,0,.67,0,1,0,.16,0,.32,0,.48a2.11,2.11,0,0,1,0,.26c0-.11,0-.07,0,0s.1-.18.19-.22,0,0,0,0c.1,0,.13,0,.06,0H15.14a2.57,2.57,0,0,0-.48,0c.41.49.59.61.54.37a.5.5,0,0,1,0-.12c0-.09,0-.18,0-.26l-.07-.45-.16-1.06L14.1,2.93l3.54.36V1.65a18.74,18.74,0,0,0-2.36.27.82.82,0,0,0,.21,1.61h2.74V1.9c-1.2.14-2.4.23-3.61.28a.8.8,0,0,0-.79.79.8.8,0,0,0,.79.78,24.06,24.06,0,0,0,3.5.06.77.77,0,0,0,.77-.76.78.78,0,0,0-.77-.76,11.83,11.83,0,0,0-2.5.39.73.73,0,0,0,.2,1.43,3,3,0,0,0,1.79-.38.64.64,0,0,0,.27-.82.66.66,0,0,0-.77-.38Z" transform="translate(-1.5 0)" fill="#af764f"/>
  <g>
    <path d="M25.06,22.28c-3.12-2.52-5.2-3.6-5.77-7.35-.45-3,0-6-.17-9-2.59,0-4.59-.1-7.18-.11.08,3.15.48,2.47.56,5.61a31.39,31.39,0,0,1-1.23,6.38c-.3,1.16-2.21,2.92-4.39,5.7-.52.66-3.34,6.33-3.34,6.33l0,.07a14.32,14.32,0,0,0,3,11.39h0A4.75,4.75,0,0,0,9.57,43c3.06.41,9,1,11.33.65C34.27,41.6,32.68,29.62,25.06,22.28Z" transform="translate(-1.5 0)" fill="#fff"/>
    <path d="M25.92,21.41c-1.86-1.48-4.25-2.88-5.08-5.24-1.13-3.21-.31-6.94-.5-10.27a1.24,1.24,0,0,0-1.22-1.22c-2.4,0-4.79-.09-7.18-.1a1.24,1.24,0,0,0-1.22,1.21c0,1.36.3,2.63.46,4a13.9,13.9,0,0,1-.38,4.89,10.23,10.23,0,0,1-1.21,3.68c-1.11,1.55-2.54,2.87-3.67,4.42a39.06,39.06,0,0,0-3,5.56c-1.24,2.46-1,5.5-.27,8.11.9,3.24,3,7.17,6.59,7.78A58.34,58.34,0,0,0,19,45c5.23,0,11.19-2.49,12.75-7.88,1.66-5.73-1.79-11.81-5.78-15.71-1.12-1.09-2.85.63-1.72,1.73,3.13,3.06,6,7.55,5.4,12.12-.62,4.93-5.85,7.24-10.35,7.3a62.24,62.24,0,0,1-8.83-.65A4.63,4.63,0,0,1,6.8,39.63a13.54,13.54,0,0,1-2.07-5.08A13,13,0,0,1,4.54,32c0-.5.13-1,.12-1.52,0-.66-.12.12,0-.14A22.15,22.15,0,0,1,5.71,28.2a28,28,0,0,1,3.38-5.51,23.09,23.09,0,0,0,3-3.76,16.23,16.23,0,0,0,1.17-4.18,15.53,15.53,0,0,0,.37-4.9c-.14-1.37-.43-2.67-.48-4.06L11.94,7c2.39,0,4.78.09,7.18.1L17.89,5.9c.22,3.68-.63,7.69.71,11.23,1,2.71,3.42,4.27,5.6,6C25.41,24.11,27.15,22.4,25.92,21.41Z" transform="translate(-1.5 0)" fill="#fff"/>
  </g>
  <path d="M26.71,27.59a16,16,0,0,0-3-4.07C22,21.76,19.29,19,17.12,21.71a5.69,5.69,0,0,1-1.52,1.57c-1.2.65-2.39-.14-3.51-.56a1.19,1.19,0,0,0-1.2.27C7,26.63,3.89,33.77,8.3,38.29c2.91,3,10.25,3.08,14,2.25C28.75,39.13,29.07,32.61,26.71,27.59Z" transform="translate(-1.5 0)" fill="#e0cb89"/>
  <path d="M20.28,5.48c-.69,6.25.13,12.73,4.64,17.32,4,4.1,7.57,9.06,4.41,14.92C26.57,42.84,21.2,43.23,15.94,43c-2.23-.12-5.1-.17-7.2-1.08C4.41,40,2.87,34.83,4.08,30.72c1.43-4.86,5.19-8.28,7.2-12.81,1.7-3.81,2.56-8.6,1.3-12.68l-1,1.34c3.16-.05,6.37.17,9.51-.14a1,1,0,0,0,0-1.9,77.35,77.35,0,0,0-9.51-.08,1.07,1.07,0,0,0-1,1.34C13.78,16.23,3,22.65,1.62,32.06A11.76,11.76,0,0,0,5.24,42.22c3,2.66,8.38,2.76,12.2,2.78,7.72,0,15.05-3.16,15.06-12,0-4-2.08-7.36-4.77-10.19-2.14-2.25-4-3.85-4.94-7a26.08,26.08,0,0,1-.94-10.39C21.94,4.48,20.39,4.5,20.28,5.48Z" transform="translate(-1.5 0)" fill="#222"/>
  <path d="M11.64,8.7a5.09,5.09,0,0,0-1-.13c-.35,0-.69-.06-1-.07a6,6,0,0,0-2.07.22,3.58,3.58,0,0,0-2.34,2.37,4.65,4.65,0,0,0,2.25,5.44,5.72,5.72,0,0,0,3.84.46A1,1,0,0,0,12,15.74,1,1,0,0,0,10.71,15l-.2.05h-.33a4.85,4.85,0,0,1-.66,0s-.17,0,0,0H9.38L9.12,15,8.82,15c-.06,0-.35-.14-.16,0a2.77,2.77,0,0,1-.48-.26l-.24-.16c.17.12-.07-.06-.12-.1s-.24-.26-.36-.38l0,0-.1-.13c-.05-.08-.1-.16-.14-.24l-.13-.25c.09.17,0,0,0-.1A5.73,5.73,0,0,1,7,12.76c0-.14,0,.17,0,0a.57.57,0,0,0,0-.13c0-.1,0-.21,0-.32s0-.18,0-.28,0-.21,0-.09,0-.07,0-.09a2.69,2.69,0,0,1,.17-.55c-.08.18,0-.07.07-.11l.06-.11s.15-.2.07-.11l.16-.16s.19-.16.07-.07a2.26,2.26,0,0,1,.26-.16L8,10.54l.07,0a6.23,6.23,0,0,1,1.72-.26,5.19,5.19,0,0,0,2-.31.69.69,0,0,0-.16-1.24Z" transform="translate(-1.5 0)" fill="#222"/>
  <path d="M14.35,5.28A18.14,18.14,0,0,1,13.6,1l-.82.82a36.71,36.71,0,0,1,6.63.07L18.49,1a8,8,0,0,1-.3,2.47c-.1.43-.22.86-.33,1.29a1.44,1.44,0,0,0,0,1,.92.92,0,0,0,.82.57c.73,0,.95-.67,1.1-1.25.11-.43.23-.86.33-1.3A7.92,7.92,0,0,0,20.33,1a1,1,0,0,0-.92-.92,38.65,38.65,0,0,0-6.63.13A.84.84,0,0,0,12,1a18.11,18.11,0,0,0,.93,4.65.76.76,0,0,0,1.46-.4Z" transform="translate(-1.5 0)" fill="#222"/>
  <path d="M22,26.92c-.34.6,0,1.07.41,1.53a11.21,11.21,0,0,1,.87,1.18,3.58,3.58,0,0,1,.53,1.24,4.42,4.42,0,0,1-.08,1.58l1.33.37a3.44,3.44,0,0,0-.2-1.93,6,6,0,0,1-.26-.71c-.08-.31-.08-.63-.15-.95a6.25,6.25,0,0,0-1.84-2.8.69.69,0,0,0-1.16.48,3.22,3.22,0,0,0,.76,1.69c.32.47.67.92,1,1.4a3.92,3.92,0,0,1,.41,3.1.69.69,0,0,0,1.33.36,5.28,5.28,0,0,0-.29-3.67,8.81,8.81,0,0,0-.94-1.48c-.17-.24-.34-.47-.5-.72s-.37-.47-.37-.68l-1.16.48a5,5,0,0,1,1.47,2.21,8,8,0,0,0,.33,1.45,2.63,2.63,0,0,1,.28,1.4.71.71,0,0,0,.48.85.69.69,0,0,0,.85-.48A6.85,6.85,0,0,0,25.22,31a4.57,4.57,0,0,0-.45-1.53,7.3,7.3,0,0,0-.85-1.28c-.15-.2-.31-.39-.48-.58s-.4-.36-.43-.52a.55.55,0,0,0-1-.13Z" transform="translate(-1.5 0)" fill="#fff"/>
  <path d="M23,35.81h0l.09-.07-.07,0,.25-.07h0a.52.52,0,0,0-.27.07l0,0,.13,0h.26l-.15,0a.34.34,0,0,0-.16,0h-.05l-.11,0,.17,0h0a.76.76,0,0,0-.36.11l1,.4h0l0,.18h0l0,.18h0l-.06.16h0l-.11.14h0l-.14.1h0l-.16.07h0l-.18,0h0l-.18,0h0L22.66,37h0l-.14-.11v0l-.1-.14h0l-.06-.16h0l0-.18h0l0-.18v0l.07-.16s0,0,0,0l.11-.14,0,0,.14-.11-.05,0,.16-.07-.07,0,.53,1.26.17-.12a.49.49,0,0,0,.2-.18.46.46,0,0,0,.12-.23l0-.19a.58.58,0,0,0-.06-.26.51.51,0,0,0-.09-.16.7.7,0,0,0-.2-.18.71.71,0,0,0-.53-.07l-.26.09-.13,0-.1,0-.11.06-.06,0-.14.11a.6.6,0,0,0-.14.21.37.37,0,0,0,0,.18.5.5,0,0,0,0,.27L22,37l.1.14a.74.74,0,0,0,.22.14.49.49,0,0,0,.27.05h.08l.19,0h0l.13-.06.26-.1-.54-1.27-.17.13a.47.47,0,0,0-.19.18.58.58,0,0,0-.13.23l0,.19a.58.58,0,0,0,.06.26.38.38,0,0,0,.09.15.47.47,0,0,0,.19.18.75.75,0,0,0,.53.07l.05,0,.2-.08,0,0a1.09,1.09,0,0,0,.17-.13.67.67,0,0,0,.15-.25.54.54,0,0,0,.07-.29.44.44,0,0,0,0-.1.77.77,0,0,0,0-.1.87.87,0,0,0-.18-.31l-.16-.12a.56.56,0,0,0-.18-.07h0l-.19,0a.65.65,0,0,0-.2,0h0a.51.51,0,0,0-.17.07.71.71,0,0,0-.14.1l-.11.14a.41.41,0,0,0,0,.09.53.53,0,0,0-.06.26.64.64,0,0,0,0,.2.69.69,0,0,0,.17.3.55.55,0,0,0,.22.14.45.45,0,0,0,.26.05.69.69,0,0,0,.34-.09.8.8,0,0,0,.27-.28.16.16,0,0,0,0-.07l0-.06,0,0a.54.54,0,0,0,.08-.28.41.41,0,0,0,0-.16l-.05.41,0,0,0-.07a.22.22,0,0,0,0-.13s0-.06,0-.1l-.07.25.05-.09a.55.55,0,0,0,.05-.36l-.05-.11a.3.3,0,0,0-.12-.13.46.46,0,0,0-.29-.11l-.13,0a.37.37,0,0,0-.2.12Z" transform="translate(-1.5 0)" fill="#fff"/>
</svg>
