<?xml version="1.0" encoding="utf-8"?>
<!-- Generator: Adobe Illustrator 24.0.0, SVG Export Plug-In . SVG Version: 6.00 Build 0)  -->
<svg version="1.1" id="Layer_1" xmlns="http://www.w3.org/2000/svg" xmlns:xlink="http://www.w3.org/1999/xlink" x="0px" y="0px"
	 width="45px" height="41px" viewBox="0 0 45 41" style="enable-background:new 0 0 45 41;" xml:space="preserve">
<style type="text/css">
	.st0{fill:#38547F;}
	.st1{fill:none;}
	.st2{clip-path:url(#SVGID_4_);}
	.st3{clip-path:url(#SVGID_5_);}
	.st4{clip-path:url(#SVGID_6_);}
	.st5{fill:#222222;}
	.st6{fill:#B2BCCE;}
	.st7{fill:#FFFFFF;}
	.st8{fill:#FFCE00;}
</style>
<g>
	<title>category-franchise</title>
	<polyline class="st0" points="11.7,20.4 21.8,37.1 29.1,40.2 32.1,35.1 35.2,15.5 	"/>
	<line class="st1" x1="18.9" y1="9.7" x2="10" y2="10"/>
	<g>
		<polyline class="st0" points="29.6,38.7 36.1,38.7 32.3,28 35.4,18.5 		"/>
		<polyline class="st0" points="10,18 13.3,27.6 9,38.2 29.5,40.2 		"/>
		<path class="st0" d="M35.1,22.7l7.5-2.7C41.4,16,39.9,12,37.9,8.2c-0.7-1.6-1.8-2.9-3.2-3.8c-1.6-0.9-3.6-0.6-5.4-0.6
			c-0.4-0.8-0.9-1.6-1.5-2.2c-0.9-0.8-8.7-0.3-9.7-0.3c-1,0-1.8,2.6-1.8,2.6s-2.6-0.1-3-0.1c-1,0-1.9,0.2-2.8,0.5
			c-2.3,1-3.3,3.5-4.3,5.7c-1.3,2.8-2.5,5.7-3.4,8.6c-0.1,0.5-0.3,0.9-0.4,1.4l7.8,2.1"/>
		<g>
			<defs>
				<polyline id="SVGID_1_" points="29.6,38.7 36.1,38.7 32.3,28 35.4,18.5 				"/>
			</defs>
			<defs>
				<polyline id="SVGID_2_" points="10,18 13.3,27.6 9,38.2 29.5,40.2 				"/>
			</defs>
			<defs>
				<path id="SVGID_3_" d="M35.1,22.7l7.5-2.7C41.4,16,39.9,12,37.9,8.2c-0.7-1.6-1.8-2.9-3.2-3.8c-1.6-0.9-3.6-0.6-5.4-0.6
					c-0.4-0.8-0.9-1.6-1.5-2.2c-0.9-0.8-8.7-0.3-9.7-0.3c-1,0-1.8,2.6-1.8,2.6s-2.6-0.1-3-0.1c-1,0-1.9,0.2-2.8,0.5
					c-2.3,1-3.3,3.5-4.3,5.7c-1.3,2.8-2.5,5.7-3.4,8.6c-0.1,0.5-0.3,0.9-0.4,1.4l7.8,2.1"/>
			</defs>
			<clipPath id="SVGID_4_">
				<use xlink:href="#SVGID_1_"  style="overflow:visible;"/>
			</clipPath>
			<clipPath id="SVGID_5_" class="st2">
				<use xlink:href="#SVGID_2_"  style="overflow:visible;"/>
			</clipPath>
			<clipPath id="SVGID_6_" class="st3">
				<use xlink:href="#SVGID_3_"  style="overflow:visible;"/>
			</clipPath>
			<g class="st4">
				<g>
					<polyline class="st0" points="15.8,4 17.2,1.5 26.6,0.8 29.3,3.3 23.3,10.2 					"/>
					<polygon class="st5" points="24,10.8 22.6,9.6 28,3.4 26.3,1.7 17.7,2.4 16.6,4.5 15,3.6 16.6,0.6 26.9,-0.2 30.6,3.2 					"/>
				</g>
			</g>
		</g>
		<path class="st5" d="M36.1,39.6h-6.5c-0.5,0-0.9-0.4-0.9-0.9c0-0.5,0.4-0.9,0.9-0.9h5.2l-3.4-9.4c-0.1-0.2-0.1-0.4,0-0.6l3.1-9.5
			c0.2-0.5,0.7-0.7,1.1-0.6c0.5,0.2,0.7,0.7,0.6,1.2l-3,9.2l3.7,10.4c0.1,0.3,0.1,0.6-0.1,0.8C36.7,39.4,36.4,39.6,36.1,39.6z"/>
		<path class="st5" d="M29.5,41.2C29.4,41.2,29.4,41.2,29.5,41.2l-20.6-2c-0.3,0-0.5-0.2-0.7-0.4C8,38.5,8,38.2,8.1,37.9l4.2-10.3
			l-3.2-9.3c-0.2-0.5,0.1-1,0.6-1.2c0.5-0.2,1,0.1,1.2,0.6l3.3,9.6c0.1,0.2,0.1,0.4,0,0.7l-3.8,9.5l19.3,1.9c0.5,0,0.9,0.5,0.8,1
			C30.3,40.8,29.9,41.2,29.5,41.2z"/>
		<path class="st5" d="M35.1,23.6c-0.4,0-0.7-0.2-0.9-0.6c-0.2-0.5,0.1-1,0.6-1.2l6.7-2.4c-1.1-3.7-2.6-7.4-4.3-10.9
			c-0.6-1.5-1.6-2.7-2.9-3.5c-1.1-0.6-2.6-0.5-4.1-0.5c-0.3,0-0.5,0-0.8,0c-0.3,0-0.7-0.2-0.8-0.5c-0.4-0.7-0.8-1.4-1.3-1.9
			C26.6,2,24,1.9,19.3,2.1c-0.5,0-0.9,0-1.1,0c-0.3,0.2-0.8,1.1-1,2c-0.1,0.4-0.5,0.7-0.9,0.6c-1.3-0.1-2.7-0.1-2.9-0.1
			c-0.9,0-1.7,0.1-2.5,0.4C8.9,6,8,8.1,7.1,10.1L7,10.4c-1.3,2.8-2.4,5.6-3.4,8.5l-0.1,0.4l6.9,1.8c0.5,0.1,0.8,0.6,0.7,1.1
			c-0.1,0.5-0.6,0.8-1.1,0.7l-7.8-2.1c-0.2-0.1-0.4-0.2-0.6-0.4c-0.1-0.2-0.1-0.5-0.1-0.7c0.1-0.3,0.2-0.6,0.2-0.9l0.1-0.5
			c1-3,2.1-5.9,3.5-8.8l0.1-0.2c0.9-2.2,2.1-4.8,4.6-6c1-0.4,2.1-0.6,3.2-0.6c0.2,0,1.5,0,2.3,0.1c0.4-1.1,1.2-2.6,2.5-2.6
			c0.2,0,0.6,0,1.1,0c6.1-0.3,8.4-0.1,9.2,0.5c0,0,0.1,0,0.1,0.1c0.5,0.6,1,1.2,1.4,1.9c0.1,0,0.1,0,0.2,0c1.6-0.1,3.5-0.1,5.1,0.7
			c1.7,1.1,2.9,2.5,3.7,4.3c1.9,3.8,3.5,7.8,4.7,12c0.1,0.5-0.1,1-0.6,1.1l-7.5,2.7C35.3,23.6,35.2,23.6,35.1,23.6z"/>
	</g>
	<polygon class="st6" points="16.8,3 17.8,1.8 27.4,1.6 28.7,2.6 23.3,13.5 	"/>
	<g>
		<polygon class="st7" points="28.2,2 32.1,8.3 22.1,15.9 		"/>
		<path class="st5" d="M22.1,16.8c-0.2,0-0.4-0.1-0.6-0.2c-0.3-0.3-0.4-0.7-0.3-1.1l6.1-13.9c0.1-0.3,0.4-0.5,0.8-0.5
			c0.3,0,0.7,0.1,0.8,0.4l3.9,6.4c0.2,0.4,0.1,0.9-0.2,1.2l-10,7.5C22.5,16.7,22.3,16.8,22.1,16.8z M28.3,3.9l-4,9.1l6.5-4.9
			L28.3,3.9z"/>
	</g>
	<g>
		<polygon class="st7" points="16.9,2.3 12.7,8.6 28.7,23.2 		"/>
		<path class="st5" d="M28.7,24.1c-0.2,0-0.4-0.1-0.6-0.2l-16-14.6C11.8,9,11.7,8.4,12,8.1l4.2-6.3c0.2-0.3,0.5-0.4,0.8-0.4
			c0.3,0,0.6,0.2,0.8,0.5l11.8,20.9c0.2,0.4,0.1,0.9-0.2,1.2C29.1,24,28.9,24.1,28.7,24.1z M13.9,8.4l11.2,10.2L16.9,4L13.9,8.4z"/>
	</g>
	<path class="st5" d="M29.5,41.2c-0.5,0-0.9-0.4-0.9-0.9l-0.8-17.1c0-0.5,0.4-0.9,0.9-1c0.5,0,0.9,0.4,0.9,0.9l0.8,17.1
		C30.4,40.7,30,41.1,29.5,41.2C29.5,41.2,29.5,41.2,29.5,41.2z"/>
	<g>
		<rect x="13.7" y="18.5" class="st8" width="6.1" height="2.9"/>
		<path class="st5" d="M19.8,22.1h-6.1c-0.4,0-0.7-0.3-0.7-0.7v-2.9c0-0.4,0.3-0.7,0.7-0.7h6.1c0.4,0,0.7,0.3,0.7,0.7v2.9
			C20.5,21.8,20.2,22.1,19.8,22.1z M14.4,20.7h4.6v-1.5h-4.6V20.7z"/>
	</g>
	<g>
		<path class="st7" d="M13,25.3h19.5c0.6,0,1.1,0.5,1.1,1.2v1.4c0,0.6-0.5,1.2-1.1,1.2H13c-0.6,0-1.1-0.5-1.1-1.2v-1.4
			C11.8,25.9,12.3,25.3,13,25.3z"/>
		<path class="st5" d="M32.5,29.9H13c-1,0-1.9-0.9-1.9-1.9v-1.4c0-1.1,0.9-1.9,1.9-1.9h19.5c1,0,1.9,0.9,1.9,1.9v1.4
			C34.4,29,33.5,29.9,32.5,29.9z M13,26.1c-0.2,0-0.4,0.2-0.4,0.4v1.4c0,0.2,0.2,0.4,0.4,0.4h19.5c0.2,0,0.4-0.2,0.4-0.4v-1.4
			c0-0.2-0.2-0.4-0.4-0.4H13z"/>
	</g>
</g>
</svg>
