<?xml version="1.0" encoding="utf-8"?>
<!-- Generator: Adobe Illustrator 24.0.0, SVG Export Plug-In . SVG Version: 6.00 Build 0)  -->
<svg version="1.1" id="Layer_1" xmlns="http://www.w3.org/2000/svg" xmlns:xlink="http://www.w3.org/1999/xlink" x="0px" y="0px"
	 width="29.9px" height="45.83px" viewBox="0 0 29.9 45.83" enable-background="new 0 0 29.9 45.83" xml:space="preserve">
<g>
	<g>
		<defs>
			<rect id="SVGID_1_" width="29.9" height="45.83"/>
		</defs>
		<clipPath id="SVGID_2_">
			<use xlink:href="#SVGID_1_"  overflow="visible"/>
		</clipPath>
		<path clip-path="url(#SVGID_2_)" fill="#838383" d="M14.78,2.43c-0.42,0.13-0.79,0.16-1.23,0.12c0.06,0.48,0.13,0.95,0.19,1.43
			c0.67-0.16,1.33-0.24,2.02-0.26c0.97-0.03,0.98-1.55,0-1.52c-1.13,0.03-2.24,0-3.36-0.11v1.57c1.16-0.04,2.31-0.11,3.46-0.23
			c1.01-0.1,1.06-1.61,0-1.61c-0.87,0-1.75,0-2.62-0.01c0.07,0.53,0.14,1.06,0.22,1.59c0.61-0.1,1.22-0.16,1.84-0.2
			c1.06-0.05,1.03-1.52,0-1.63c-1.13-0.12-2.26-0.24-3.39-0.37c-0.59-0.06-0.86,0.58-0.79,1.04c0.1,0.73,0.03,2.05,0.73,2.5
			c0.63,0.41,1.77,0.18,2.47,0.18c0.74,0,1.79,0.18,2.36-0.42c0.61-0.64,0.46-1.91,0.44-2.71c-0.03-1.09-1.68-1.09-1.69,0
			c-0.01,1.01-0.03,2.01-0.04,3.02c0.37-0.28,0.74-0.56,1.11-0.84c-1.47-0.25-2.94-0.37-4.43-0.33c-1.46,0.04-0.91,2.38,0.46,1.69
			c0.17-0.09,0.3-0.18,0.43-0.31c0.26-0.24,0.27-0.73,0-0.96c-0.14-0.12-0.26-0.22-0.43-0.3c-0.15,0.56-0.31,1.13-0.46,1.69
			c1.33-0.05,2.65,0,3.96,0.2c0.55,0.08,1.11-0.22,1.11-0.84c-0.01-1.01-0.02-2.01-0.02-3.02h-1.69c0.01,0.27,0.15,1.13-0.02,1.35
			c0.11,0.17,0.02,0.2-0.28,0.11c-0.16,0-0.33,0-0.49,0c-0.38,0-0.76,0-1.14,0.01c-0.22,0-0.44,0-0.65,0
			c-0.38-0.03-0.43-0.01-0.16,0.06c0.13,0.17,0.26,0.33,0.38,0.5c-0.24-0.6-0.26-1.36-0.36-2c-0.27,0.35-0.53,0.69-0.8,1.04
			c1.13,0.11,2.26,0.23,3.39,0.35V1.58c-0.77,0.04-1.52,0.13-2.28,0.26c-0.92,0.16-0.68,1.6,0.22,1.59c0.87,0,1.75,0,2.62-0.01V1.82
			c-1.15,0.13-2.3,0.22-3.46,0.27c-1.02,0.05-1,1.49,0,1.57c1.12,0.09,2.24,0.11,3.36,0.06V2.2c-0.82,0.05-1.61,0.17-2.41,0.38
			c-0.83,0.22-0.6,1.37,0.19,1.43c0.64,0.05,1.17-0.09,1.74-0.37C15.95,3.31,15.49,2.2,14.78,2.43"/>
	</g>
	<g>
		<defs>
			<rect id="SVGID_3_" width="29.9" height="45.83"/>
		</defs>
		<clipPath id="SVGID_4_">
			<use xlink:href="#SVGID_3_"  overflow="visible"/>
		</clipPath>
		<path clip-path="url(#SVGID_4_)" fill="#FFFFFF" d="M6.73,23.44c1.44-0.88,2.32-2.38,2.72-3.93c0.39-1.55,1.02-6.33,0.98-7.91
			c-0.07-3.03-0.26-2.97-0.33-6c2.48,0,4.41,0.09,6.89,0.1c0.2,2.9-0.26,5.82,0.17,8.7c0.54,3.61,2.54,7.03,5.53,9.45
			c-4.67,1.41-9.75,0.61-14.58-0.2"/>
	</g>
	<g>
		<defs>
			<rect id="SVGID_5_" width="29.9" height="45.83"/>
		</defs>
		<clipPath id="SVGID_6_">
			<use xlink:href="#SVGID_5_"  overflow="visible"/>
		</clipPath>
		<path clip-path="url(#SVGID_6_)" fill="#FFFFFF" d="M7.02,23.93c6.05-2.66,4.23-13.19,4-18.33c-0.31,0.31-0.61,0.61-0.92,0.92
			c2.3,0.05,4.59,0.25,6.89,0.37c-0.4-0.4-0.8-0.8-1.2-1.2c-0.23,7.57-0.16,13.8,5.85,19.2c0.22-0.82,0.44-1.65,0.65-2.47
			c-4.57,1.05-9.18,0.34-13.74-0.4c-2.12-0.34-3.04,2.88-0.9,3.25c5.22,0.89,10.26,1.5,15.43,0c1-0.29,1.53-1.73,0.65-2.47
			c-2.44-2.06-4.28-4.56-5.02-7.7c-0.72-3.09-0.18-6.28-0.53-9.4c-0.07-0.62-0.49-1.23-1.2-1.2c-2.29,0.09-4.59,0.16-6.89,0.18
			C9.6,4.68,9.16,5.09,9.17,5.59c0.12,5.73,1.1,12.75-2.84,17.44C5.9,23.54,6.43,24.19,7.02,23.93"/>
	</g>
	<g>
		<defs>
			<rect id="SVGID_7_" width="29.9" height="45.83"/>
		</defs>
		<clipPath id="SVGID_8_">
			<use xlink:href="#SVGID_7_"  overflow="visible"/>
		</clipPath>
		<path clip-path="url(#SVGID_8_)" fill="#CDCDCD" d="M10.21,25.34c1.94,1.02,4.23,1.47,5.8-0.48c0.46-0.58,0.89-1.18,1.42-1.69
			c0.12-0.11,0.25-0.23,0.4-0.3c0.69-0.32,1.34,0.71,1.67,1.16c2.57,3.42,5.32,7.44,4.56,11.9c-0.35,2.07-1.92,2.84-3.79,3.88
			c-0.87,0.48-9.44,0.25-11.13-0.58c-2.29-1.13-3.09-3.3-3.11-5.81c-0.01-2.51,2.09-6.2,4.05-7.83c-0.04,0.55-1,2.3-1.04,2.84"/>
	</g>
	<g>
		<defs>
			<rect id="SVGID_9_" width="29.9" height="45.83"/>
		</defs>
		<clipPath id="SVGID_10_">
			<use xlink:href="#SVGID_9_"  overflow="visible"/>
		</clipPath>
		<path clip-path="url(#SVGID_10_)" fill="#CDCDCD" d="M9.79,26.06c2.87,1.6,4.39,1.13,6.92-0.5c1.56-1,1.26-1.26,2.64-0.09
			c0.81,0.69,1.44,2.08,1.96,3.03c1.64,3.04,3.33,8.24-1.14,10.01c-2.45,0.98-6.28,0.4-8.85,0.01c-6.69-1.03-3.8-9-0.43-12.15
			c-0.63-0.36-1.26-0.73-1.89-1.1c-0.26,0.98-0.81,1.85-1.09,2.82c-0.42,1.47,1.93,2.11,2.29,0.63c0.24-0.99,0.73-1.88,0.98-2.86
			c0.29-1.11-1.07-1.86-1.89-1.1C5.67,28.17,2.82,34.8,6.9,38.99c2.69,2.77,9.49,2.86,12.98,2.09c5.95-1.31,6.25-7.37,4.06-12.03
			c-0.89-1.89-2.96-6.33-5.18-7.08c-0.83-0.28-1.18-0.01-1.83,0.33c-0.72,0.38-0.98,1.42-1.63,1.85c-1.52,1.01-3.28,1-4.87,0.39
			C9.55,24.2,8.99,25.6,9.79,26.06"/>
	</g>
	<g>
		<defs>
			<rect id="SVGID_11_" width="29.9" height="45.83"/>
		</defs>
		<clipPath id="SVGID_12_">
			<use xlink:href="#SVGID_11_"  overflow="visible"/>
		</clipPath>
		<path clip-path="url(#SVGID_12_)" d="M17.77,5.74c-0.27,3.47-0.74,6.93,0.37,10.31c1.16,3.55,3.64,6.4,5.79,9.37
			c3.18,4.39,5.51,9.14,2.16,14.27c-3.3,5.04-10.98,4.4-16.17,3.53c-8.7-1.46-8.7-9.5-5.19-15.77c1.54-2.75,3.69-5.1,4.99-7.99
			c1.97-4.4,2.36-9.82,0.87-14.44c-0.37,0.48-0.73,0.96-1.1,1.44c1.15-0.02,8.21-0.15,8.14-0.45c0.25,1.14,1.9,0.82,1.96-0.27
			c0.01-0.2,0.02-0.4,0.03-0.6c0.03-0.59-0.52-1.07-1.08-1.08c-3.02-0.05-6.03,0.06-9.05,0.12C8.78,4.19,8.15,4.9,8.39,5.62
			c1.19,3.67,1.07,8.01-0.2,11.63c-1.8,5.11-6.05,8.9-7.67,14.17c-1.12,3.63-0.41,7.41,1.95,10.41c2.61,3.33,6.98,3.75,10.98,3.95
			c7.51,0.38,15.53-1.49,16.4-10.32c0.46-4.71-1.99-8.17-4.68-11.79c-1.78-2.39-3.78-4.77-4.95-7.53
			c-1.46-3.45-1.05-6.77-0.82-10.41C19.47,4.69,17.86,4.7,17.77,5.74"/>
	</g>
	<g>
		<defs>
			<rect id="SVGID_13_" width="29.9" height="45.83"/>
		</defs>
		<clipPath id="SVGID_14_">
			<use xlink:href="#SVGID_13_"  overflow="visible"/>
		</clipPath>
		<path clip-path="url(#SVGID_14_)" d="M10.57,8.87c-1.02-0.98-3.97-0.7-5.2-0.25c-1.56,0.56-2.53,2.03-2.68,3.65
			c-0.15,1.6,0.38,3.45,1.5,4.62c1.38,1.45,3.24,1.25,5.05,0.88c1.46-0.3,0.84-2.54-0.61-2.23c-1.15,0.24-2.32,0.5-3.06-0.61
			C5,14.08,4.74,12.78,5.07,11.81c0.88-2.56,4.21-0.46,5.5-2.12C10.76,9.44,10.82,9.11,10.57,8.87"/>
	</g>
	<g>
		<defs>
			<rect id="SVGID_15_" width="29.9" height="45.83"/>
		</defs>
		<clipPath id="SVGID_16_">
			<use xlink:href="#SVGID_15_"  overflow="visible"/>
		</clipPath>
		<path clip-path="url(#SVGID_16_)" d="M12.16,5.09c-0.27-1.36-0.73-2.68-0.71-4.08c-0.27,0.27-0.54,0.54-0.81,0.82
			C12.76,1.7,14.88,1.65,17,1.89c-0.3-0.3-0.61-0.61-0.91-0.91c0.05,1.47-0.74,2.89-0.6,4.31c0.07,0.78,1.05,1.12,1.51,0.41
			c0.8-1.25,1.04-3.26,0.92-4.72C17.87,0.47,17.53,0.09,17,0.07c-2.13-0.09-4.24-0.12-6.37,0.13C10.2,0.24,9.81,0.53,9.82,1.01
			c0.03,1.55,0.49,3,0.89,4.48C10.97,6.43,12.35,6.03,12.16,5.09"/>
	</g>
	<g>
		<defs>
			<rect id="SVGID_17_" width="29.9" height="45.83"/>
		</defs>
		<clipPath id="SVGID_18_">
			<use xlink:href="#SVGID_17_"  overflow="visible"/>
		</clipPath>
		<path clip-path="url(#SVGID_18_)" fill="#FFFFFF" d="M18.49,28.16c-0.15,0.75,0.25,1.1,0.7,1.68c0.87,1.11,1.25,2.1,1.02,3.53
			c0.44,0.06,0.89,0.12,1.33,0.18c0.05-0.55,0.01-1.04-0.17-1.56c-0.21-0.61-0.3-1.19-0.47-1.81c-0.28-1.04-1.01-1.86-1.74-2.63
			c-0.47-0.5-1.27,0.02-1.11,0.65c0.23,0.92,0.83,1.61,1.35,2.38c0.71,1.07,0.98,2.14,0.67,3.4c-0.21,0.84,1.09,1.2,1.3,0.36
			c0.27-1.1,0.27-2.19-0.16-3.25c-0.46-1.15-1.56-2.04-1.88-3.24c-0.37,0.22-0.74,0.43-1.11,0.65c0.72,0.78,1.28,1.45,1.47,2.54
			c0.15,0.86,0.58,1.61,0.5,2.51c-0.07,0.75,1.21,0.93,1.33,0.18c0.17-1.03,0.25-2-0.17-2.98c-0.44-1.04-1.42-1.72-1.87-2.71
			C19.29,27.62,18.58,27.73,18.49,28.16"/>
	</g>
	<g>
		<defs>
			<rect id="SVGID_19_" width="29.9" height="45.83"/>
		</defs>
		<clipPath id="SVGID_20_">
			<use xlink:href="#SVGID_19_"  overflow="visible"/>
		</clipPath>
		<path clip-path="url(#SVGID_20_)" fill="#FFFFFF" d="M19.56,36.52c-0.1,0.03-0.2,0.06-0.3,0.07c0.25,0.32,0.5,0.65,0.75,0.97
			c0.01-0.01,0.02-0.02,0.02-0.04c-0.25,0.1-0.5,0.2-0.75,0.31c0.02,0,0.04,0.01,0.06,0.01c-0.13-0.1-0.27-0.2-0.4-0.31
			c0.01,0.02,0.02,0.03,0.03,0.05c0.03-0.27,0.07-0.54,0.1-0.81c0.05-0.02,0.09-0.04,0.14-0.06c0.17,0.41,0.35,0.83,0.52,1.24
			l0.17-0.11c0.61-0.41,0.25-1.51-0.53-1.25c-0.22,0.08-0.43,0.15-0.63,0.26c-0.69,0.38-0.2,1.37,0.52,1.22
			c0.17-0.04,0.32-0.1,0.48-0.16c-0.18-0.42-0.35-0.83-0.53-1.25c-0.05,0.04-0.11,0.08-0.16,0.12c-0.7,0.53-0.12,1.51,0.68,1.17
			c0.19-0.08,0.29-0.2,0.4-0.37c0.12-0.19,0.13-0.49,0-0.67c-0.18-0.26-0.36-0.36-0.67-0.38c-0.21-0.02-0.48,0.14-0.57,0.33
			c-0.01,0.01-0.01,0.03-0.02,0.04c-0.37,0.77,0.66,1.38,1.14,0.67c0.11-0.16,0.17-0.34,0.24-0.52
			C20.42,36.64,19.89,36.35,19.56,36.52"/>
	</g>
</g>
</svg>
