<svg xmlns="http://www.w3.org/2000/svg" viewBox="0 0 28.45 41.7">
  <title>category-one-person-gray</title>
  <path d="M25.23,30.31c-1.35,0-3.85-.58-5.2-.64.25-4.81.13-7.87.24-12.69,0-.34-.46-13.43-1.51-13.52C18.9,2.28,13,1.67,13,1.67,8.59,3.36,7,5.91,2.72,8c-3.47,1.66,1.08,9,3,8,.46-.27,2.28-1.75,2.74-2a2.49,2.49,0,0,0,1.27,0,5.41,5.41,0,0,0,.69-.19C9.93,20.37,9.54,23.9,9,30.45H6c-.32,0-3.77,1.42-3.77,1.42-.22,0,0,6.17,0,6.37,0,1.14,3.2,1.95,4.48,1.88,1.67-.08,3.34-.11,5-.14a87.25,87.25,0,0,0,10.48-.08c1.37-.13,5.12-1.94,5.12-3.31C27.29,36.4,27.51,30.37,25.23,30.31Z" transform="translate(0.01 -0.01)" fill="#bfbfbf"/>
  <path d="M0,9.59a8,8,0,0,0,3.07,6.72A3.8,3.8,0,0,0,6.72,17C8,16.55,9,15.61,10.21,15.06l-1.57-.9C8.36,17.62,8,21.13,8,24.6v2.28A8.85,8.85,0,0,1,8,28a3.38,3.38,0,0,1,0,.45c0,.1-.08.55,0,.24a2.11,2.11,0,0,0-.06.29,3.13,3.13,0,0,0,.22-.36,1.24,1.24,0,0,1-.2.1c-.65.13-1.3.21-1.95.3a6.53,6.53,0,0,0-3.4,1.25C-.15,32.41,0,36.86,1.9,39.36A4.84,4.84,0,0,0,4,41a10.9,10.9,0,0,0,3.21.48c2.51.18,5,.18,7.53.21a45.39,45.39,0,0,0,7.09-.34c2-.29,4.34-.84,5.59-2.59s1.21-4.3.64-6.25a4.85,4.85,0,0,0-3.93-3.64c-1-.15-2-.08-3-.17-.23,0-.12,0,0,.15-.11-.13,0,.16,0,0V28.7a6.42,6.42,0,0,1-.09-.87c-.08-1.73.07-3.46.16-5.19.18-3,.27-6.06.28-9.09V9a25.55,25.55,0,0,0-.24-4.19A6.25,6.25,0,0,0,16.93.29a8.87,8.87,0,0,0-5.64.42C7.68,2.05,4.82,4.58,2,7.16A11.19,11.19,0,0,0,.27,9.07c-.78,1.17,1.1,2.26,1.88,1.1A13,13,0,0,1,3.74,8.53c.54-.48,1.09-.95,1.62-1.44A23.15,23.15,0,0,1,9.51,3.94c2.68-1.56,6.78-3.07,9.12-.15a5.34,5.34,0,0,1,.72,3.36c0,1.43.06,2.87.06,4.3q0,4.31-.17,8.6c-.09,2-.25,3.93-.31,5.89a19.22,19.22,0,0,0,0,2.4,2.92,2.92,0,0,0,.62,1.88c1.37,1.33,3.57.16,5.12,1,1.38.79,1.6,2.79,1.54,4.24a3.52,3.52,0,0,1-.84,2.32,4.71,4.71,0,0,1-2.2,1,24.49,24.49,0,0,1-6.27.66c-2.2,0-4.4,0-6.61-.07-1.3,0-2.61-.08-3.91-.21a4.25,4.25,0,0,1-2.2-.57,4.64,4.64,0,0,1-1.47-3.12A4,4,0,0,1,3.84,32a2.58,2.58,0,0,1,.74-.42,7.2,7.2,0,0,1,1.83-.39C7.53,31,9.12,31,9.79,29.89a3.8,3.8,0,0,0,.34-1.66c0-.75.07-1.5.09-2.24.06-3,.26-6,.39-9,0-1,.07-2,.1-3a1.05,1.05,0,0,0-1.09-1,1,1,0,0,0-.48.13c-.93.48-1.72,1.17-2.63,1.67a2,2,0,0,1-2.42-.23,6.28,6.28,0,0,1-1.74-2.22,5.67,5.67,0,0,1-.8-2.89c.08-1-1.42-1-1.53,0Z" transform="translate(0.01 -0.01)" fill="#222"/>
  <path d="M12.45,5.88c.14.76.85.82,1.43,1.08a.91.91,0,0,1,.37.21c-.1-.22-.1-.19,0,.08a1.2,1.2,0,0,1,.08.46c.13,1.27.09,2.54.21,3.81s.43,2.76.53,4.16a15.66,15.66,0,0,0,.08,1.94,6,6,0,0,0,.45,2.06.65.65,0,0,0,.83.4.64.64,0,0,0,.4-.4,5.69,5.69,0,0,0,.46-2.19c0-.74,0-1.48.06-2.21.07-1.58.23-3.13.22-4.71a11.11,11.11,0,0,0-.5-4.51,3.06,3.06,0,0,0-3.8-1.53,1.12,1.12,0,0,0-.8.8,1.28,1.28,0,0,0,0,.55Z" transform="translate(0.01 -0.01)" fill="#e5e5e5"/>
  <path d="M16.2,23.8a.84.84,0,0,0,.44-.1.67.67,0,0,0,.37-.24.75.75,0,0,0,.24-.37.75.75,0,0,0,.1-.44v-.31a1,1,0,0,0-.3-.51l-.23-.18a1.08,1.08,0,0,0-.58-.16.87.87,0,0,0-.45.1,1.08,1.08,0,0,0-.61.61.87.87,0,0,0-.1.45V23a1.26,1.26,0,0,0,.3.51l.23.18A1.11,1.11,0,0,0,16.2,23.8Z" transform="translate(0.01 -0.01)" fill="#e5e5e5"/>
</svg>
