<svg xmlns="http://www.w3.org/2000/svg" viewBox="0 0 38.24 37.53">
  <title>category-china</title>
  <path d="M24.36,1.8C14.06-1.91,2.49,5.73,2,16c-2.32,6.62,1,13.37,7,17.35a19.56,19.56,0,0,0,19.64,1C42.67,27.25,37.47,6.53,24.36,1.8Z" transform="translate(0)" fill="#ed2e29"/>
  <path d="M1.15,20.32a15.64,15.64,0,0,1,1.12-8.2A21.93,21.93,0,0,1,6.38,6.36a18.77,18.77,0,0,1,4.53-3.88C14.71.35,19.37.79,23.5,2.1a23.65,23.65,0,0,1,8,4.19,15.73,15.73,0,0,1,5.16,7.55c1.68,5.66-.53,12-4.26,16.4a17.73,17.73,0,0,1-2.95,2.86,16,16,0,0,1-3.59,2,17.9,17.9,0,0,1-15.25-.6,26.62,26.62,0,0,1-5.34-4.08,10.82,10.82,0,0,1-2.51-3.12A12,12,0,0,1,2,24.73c-.69-3.1-1.38-6.33-.71-9.44" transform="translate(0)" fill="none" stroke="#222" stroke-miterlimit="10" stroke-width="2"/>
  <path d="M11.89,17.23a.45.45,0,0,0,0-.9.45.45,0,0,0,0,.9Z" transform="translate(0)" fill="#ffc200"/>
  <path d="M14.91,12.82l-2.82.26-.33-.87a5.41,5.41,0,0,0-1.1-1.9.7.7,0,0,0-1.16.31c-.29.9-.52,1.82-.72,2.75l-.37,0c-.71.11-1.41.25-2.12.31A.65.65,0,0,0,6,14.93l2.21,1.31c-.16.8-.32,1.6-.51,2.4a.76.76,0,0,0,1.26.73c.58-.54,1.17-1.07,1.76-1.59,1,.63,2,1.27,3,1.95.59.41,1.32-.38,1-1a19.48,19.48,0,0,1-1.53-3.15,6.52,6.52,0,0,1,.77-.59,11.24,11.24,0,0,0,1.35-.89.62.62,0,0,0,.23-.53C15.54,13.26,15.34,12.79,14.91,12.82Z" transform="translate(0)" fill="#ffc200"/>
  <path d="M23.1,12.65a9.45,9.45,0,0,1-1.37-.34c0-.13,0-.26,0-.39a4.81,4.81,0,0,0,.08-.65.29.29,0,0,0-.09-.2.25.25,0,0,0-.44-.05c-.21.31-.43.62-.64.94l-.28-.09a2.25,2.25,0,0,0-1-.18.29.29,0,0,0-.25.43c.22.34.46.66.71,1l-.09.14c-.16.26-.3.53-.48.79a.27.27,0,0,0,.31.39l1-.37c.21.26.42.51.61.77a.31.31,0,0,0,.59-.15c0-.34,0-.68-.05-1,.46-.16.92-.31,1.39-.44a.29.29,0,0,0-.08-.57Z" transform="translate(0)" fill="#ffc200"/>
  <path d="M18.18,6.62,17,6.43c0-.12,0-.24,0-.35a2.21,2.21,0,0,0-.25-.91.29.29,0,0,0-.5,0c-.21.33-.4.68-.58,1l-.14,0c-.29,0-.6,0-.89-.09a.27.27,0,0,0-.26.45l.75.76c-.14.3-.29.61-.45.91a.31.31,0,0,0,.43.42L16,8.18c.34.36.68.72,1,1.09s.57,0,.49-.28a7.89,7.89,0,0,1-.29-1.43,2.28,2.28,0,0,1,.36-.15,6,6,0,0,0,.64-.22A.25.25,0,0,0,18.3,7C18.38,6.86,18.36,6.65,18.18,6.62Z" transform="translate(0)" fill="#ffc200"/>
  <path d="M21.43,22.64a8.08,8.08,0,0,1-.24-1.39,2.75,2.75,0,0,1,.36-.15,4.57,4.57,0,0,0,.63-.19.26.26,0,0,0,.15-.16.25.25,0,0,0-.13-.42l-1.11-.22,0-.29a2.44,2.44,0,0,0-.22-.95.29.29,0,0,0-.5-.05c-.22.33-.42.68-.61,1l-.16,0c-.31,0-.62-.06-.92-.12a.27.27,0,0,0-.24.44l.75.8c-.15.29-.31.58-.47.87a.33.33,0,0,0,0,.38.32.32,0,0,0,.37.09l.91-.44c.32.36.65.72.95,1.1a.29.29,0,0,0,.38.06A.3.3,0,0,0,21.43,22.64Z" transform="translate(0)" fill="#ffc200"/>
  <path d="M15.5,23.88a8.21,8.21,0,0,1-1.41.12c0-.12-.08-.25-.11-.38s-.07-.43-.14-.64a.39.39,0,0,0-.15-.16.25.25,0,0,0-.43.1L13,24h-.29a2.29,2.29,0,0,0-1,.14.29.29,0,0,0-.09.49,11.56,11.56,0,0,0,1,.7s0,.1,0,.15c-.07.31-.11.61-.2.91a.27.27,0,0,0,.41.27l.86-.68.84.53a.31.31,0,0,0,.49-.34c-.13-.31-.24-.62-.36-.94.38-.29.77-.59,1.17-.86S15.8,23.82,15.5,23.88Z" transform="translate(0)" fill="#ffc200"/>
</svg>
