<svg xmlns="http://www.w3.org/2000/svg" xmlns:xlink="http://www.w3.org/1999/xlink" viewBox="0 0 37.7 44.78">
  <defs>
    <clipPath id="a" transform="translate(0 0.01)">
      <path d="M23.3,13.7l3.49,3.19s3.37,15.89-8.58,14.58-7.08-13.78-7.08-13.78" fill="none"/>
    </clipPath>
  </defs>
  <title>category-korea-gray</title>
  <polyline points="1.16 44.42 2.06 39.2 8.9 37.75 12.52 39.74 12.38 44.42" fill="#a1a1a1"/>
  <polyline points="36.6 44.42 35.7 39.2 28.86 37.75 25.25 39.74 25.38 44.42" fill="#a1a1a1"/>
  <g>
    <path d="M23.3,13.7l3.49,3.19s3.37,15.89-8.58,14.58-7.08-13.78-7.08-13.78" transform="translate(0 0.01)" fill="#dadada"/>
    <g clip-path="url(#a)">
      <g>
        <circle cx="11.89" cy="26.05" r="3.6" fill="#bdbdbd"/>
        <circle cx="25.48" cy="26.05" r="3.6" fill="#bdbdbd"/>
      </g>
    </g>
  </g>
  <polyline points="10.34 19.74 7.5 19.74 7.25 21.2 7.79 23.58 10.71 24.18" fill="#dadada"/>
  <polyline points="26.93 24.18 29.86 23.58 30.39 21.2 30.16 19.74 27.3 19.74" fill="#dadada"/>
  <path d="M8.15,18.55S8.49,7.47,14.62,6.21c0,0-.26-6.24,4.55-5.82s4.45,5.69,4.45,5.69,7.49,3.68,6,12.18l-.23,1.28H27.73l-4.45-6.37L17,16.54l-6.26,1.53-1.11,1Z" transform="translate(0 0.01)" fill="#595959"/>
  <polyline points="14.88 30.22 14.43 34.53 10.14 36.77 13.13 40.21 19.64 42.06 24.8 40.03 28.21 37.57 23.11 34.92 23.11 29.77" fill="#dadada"/>
  <polygon points="12.38 39.93 18.45 42.55 24.8 40.39 24.8 44.42 12.51 44.42 12.38 39.93" fill="#fff"/>
  <path d="M10.85,18a7.53,7.53,0,0,0-.47,2.61v3a8.2,8.2,0,0,0,8.4,8h0a8.21,8.21,0,0,0,8.39-8v-3A7.88,7.88,0,0,0,23,13.7" transform="translate(0 0.01)" fill="none" stroke="#222" stroke-linecap="round" stroke-linejoin="round" stroke-width="1.7"/>
  <path d="M10.34,19.73a1.85,1.85,0,0,0-.8-.19h-.6A2,2,0,0,0,7,21.6H7v.66a2,2,0,0,0,1.91,2.07h.6a1.82,1.82,0,0,0,.79-.18" transform="translate(0 0.01)" fill="none" stroke="#222" stroke-miterlimit="10" stroke-width="1.85"/>
  <path d="M27.31,19.73a1.85,1.85,0,0,1,.8-.19h.61a2,2,0,0,1,1.9,2.07v.66a2,2,0,0,1-1.9,2.07h-.61a1.82,1.82,0,0,1-.79-.18" transform="translate(0 0.01)" fill="none" stroke="#222" stroke-miterlimit="10" stroke-width="1.85"/>
  <path d="M14.43,30.64v3.87c0,1.32-6.68,2.79-9.58,4s-3.92,1-3.92,5.33" transform="translate(0 0.01)" fill="none" stroke="#222" stroke-linecap="round" stroke-miterlimit="10" stroke-width="1.85"/>
  <path d="M23.28,30.64v3.87c0,1.32,6.4,2.9,9.36,3.93,2.42.84,4.14,1.09,4.14,5.4" transform="translate(0 0.01)" fill="none" stroke="#222" stroke-linecap="round" stroke-miterlimit="10" stroke-width="1.85"/>
  <path d="M8.74,37.22s4,1.81,4,2.51v4.11" transform="translate(0 0.01)" fill="none" stroke="#222" stroke-linecap="round" stroke-linejoin="round" stroke-width="1.85"/>
  <path d="M28.78,37.22s-4,2.13-4,2.81v3.81" transform="translate(0 0.01)" fill="none" stroke="#222" stroke-linecap="round" stroke-linejoin="round" stroke-width="1.85"/>
  <path d="M24.16,10.78c-.9.7-1.66,1.58-2.59,2.26a14.6,14.6,0,0,1-3.29,1.8A37.57,37.57,0,0,1,10.55,17c-1,.17-.56,1.63.4,1.46,1.43-.27,2.85-.59,4.28-.91a23.57,23.57,0,0,0,4.19-1.2c2.18-.92,5.06-2.56,5.74-5a.6.6,0,0,0-1-.58Z" transform="translate(0 0.01)" fill="#222"/>
  <path d="M14.83,5.74a5.86,5.86,0,0,1,1.28-2.86,4,4,0,0,1,2.81-1.41,3.75,3.75,0,0,1,3,1.14,3.29,3.29,0,0,1,.76,1.44c.16.59.13,1.24.32,1.81s1.18.71,1.32,0A5.35,5.35,0,0,0,24,3.52a4.93,4.93,0,0,0-1-1.89,5.31,5.31,0,0,0-9.15,4c.07.51.86.74,1,.13Z" transform="translate(0 0.01)" fill="#222"/>
  <path d="M8.86,19.82a40,40,0,0,0,.19-4.24,9.29,9.29,0,0,1,1-3.86,10.06,10.06,0,0,1,4.7-4.85,12.29,12.29,0,0,1,7-.45A7.66,7.66,0,0,1,25,7.67a8.62,8.62,0,0,1,2.28,2.74c1.45,2.6,2.18,6,.88,8.85-.42.92.91,1.72,1.37.8,1.43-2.83,1.06-6.34-.16-9.2a9.47,9.47,0,0,0-5.82-5.62A15.67,15.67,0,0,0,15.34,5a10.77,10.77,0,0,0-6,4.66A10.48,10.48,0,0,0,7.4,14.42a11.08,11.08,0,0,0,.39,5.39c.19.46,1,.61,1.1,0Z" transform="translate(0 0.01)" fill="#222"/>
  <path d="M12.55,40.53a11.38,11.38,0,0,0,2.6,1.69,8.76,8.76,0,0,0,2.89.71,13.62,13.62,0,0,0,7.06-1.7c.8-.42.25-1.79-.62-1.47-2.05.75-4.05,1.66-6.3,1.52a14.06,14.06,0,0,1-5-1.62c-.52-.25-1.2.45-.67.87Z" transform="translate(0 0.01)" fill="#222"/>
  <path d="M17,25.61a1.25,1.25,0,0,0,.59.93,1.83,1.83,0,0,0,1,.37,1.92,1.92,0,0,0,1-.21,1.8,1.8,0,0,0,.92-.84.34.34,0,0,0-.12-.48.33.33,0,0,0-.36,0c-.29.2-.48.45-.77.61l-.1.05h0l-.2.06h-.42l-.2-.06h-.08L18,26a1.38,1.38,0,0,1-.26-.22,1.89,1.89,0,0,0-.37-.32.24.24,0,0,0-.36.21Z" transform="translate(0 0.01)" fill="#222"/>
  <path d="M18.49,22.79v.12a.61.61,0,0,0,0,.19.43.43,0,0,0,0,.16.29.29,0,0,0,.07.18.28.28,0,0,0,.1.09.22.22,0,0,0,.16,0h.06a.18.18,0,0,0,.07-.05A.27.27,0,0,0,19,23.4a.41.41,0,0,0,.05-.19v-.37a.24.24,0,0,0-.22-.24.22.22,0,0,0-.16,0h-.05a.24.24,0,0,0-.06.11Z" transform="translate(0 0.01)" fill="#222"/>
  <path d="M14.84,20.17l.1-.09h0l.11-.06h.06l.24-.05h.34L16,20h0l.11.06.1.07h.05a.38.38,0,0,0,.54,0h0a.39.39,0,0,0,0-.55,1.83,1.83,0,0,0-1.25-.41,1.42,1.42,0,0,0-.67.2,1.47,1.47,0,0,0-.46.5.24.24,0,0,0,.38.3Z" transform="translate(0 0.01)" fill="#222"/>
  <path d="M20.76,20.17l.09-.09h0L21,20h.07l.23,0h.36l.24.07h0l.1.06.11.07h.05a.39.39,0,0,0,.55,0,.38.38,0,0,0,0-.51,1.83,1.83,0,0,0-1.25-.41,1.22,1.22,0,0,0-.67.2,1.4,1.4,0,0,0-.47.5.25.25,0,0,0,.11.34.26.26,0,0,0,.28,0Z" transform="translate(0 0.01)" fill="#222"/>
  <circle cx="15.8" cy="22.2" r="1.13" fill="#222"/>
  <circle cx="21.57" cy="22.2" r="1.13" fill="#222"/>
</svg>
