<svg xmlns="http://www.w3.org/2000/svg" viewBox="0 0 35.74 44.25">
  <title>category-skin-care</title>
  <g>
    <path d="M2.25,23.87s-5.62-13,10.67-22.29c6.45-2,8.31.59,8.31.59S27.1,4,27.16,7.6a14,14,0,0,1,7.43,12.69c-.15,9.13-3.21,11.81-3.21,11.81S32.1,16.7,23,17.51,7.59,22.07,4.92,31.19C4.92,31.19.91,35.43,2.25,23.87Z" transform="translate(0)" fill="#d4eefc"/>
    <path d="M5.66,29s4-7.52,17.36-15.07l-.29,6.8L7.56,32.57" transform="translate(0)" fill="#ffd29c"/>
    <path d="M23.49,15c4.59,2.23,7.64,7.39,7.64,13.47,0,8.14-5.78,14.74-12.92,14.74C11.48,43.2,6,37.32,5.35,29.82" transform="translate(0)" fill="#ffd29c" stroke="#222" stroke-linecap="round" stroke-miterlimit="10" stroke-width="2.11"/>
    <path d="M2.3,25.48a15.24,15.24,0,0,1,.54-13.31,23.24,23.24,0,0,1,9.69-9.51c2.16-1.08,7.36-3,9-.09" transform="translate(0)" fill="none" stroke="#222" stroke-linecap="round" stroke-miterlimit="10" stroke-width="2.06"/>
    <path d="M16.68,6.28c1.13-2.83,5.07-4.39,7.65-3A5.5,5.5,0,0,1,27.16,7.6a6.93,6.93,0,0,1-1.36,4.52,13.72,13.72,0,0,1-5.13,4.36c-2,1.08-4.1,1.91-6.09,3a21.51,21.51,0,0,0-6.4,5.17,15.4,15.4,0,0,0-3.42,7.49" transform="translate(0)" fill="none" stroke="#222" stroke-linecap="round" stroke-miterlimit="10" stroke-width="2.06"/>
    <path d="M27.48,8.63c5,1.83,8.8,8.43,6.57,14.26" transform="translate(0)" fill="none" stroke="#222" stroke-linecap="round" stroke-miterlimit="10" stroke-width="2.06"/>
    <path d="M31.58,19.37A10.25,10.25,0,0,1,33,31.47a1.37,1.37,0,0,1-.13.2c-.35.56-1.06,1.07-1.72.72" transform="translate(0)" fill="none" stroke="#222" stroke-linecap="round" stroke-miterlimit="10" stroke-width="1.74"/>
    <path d="M7.38,19.37a13.46,13.46,0,0,0-4.8,5.4,7.34,7.34,0,0,0-.5,4.75c.22.92,1.28,3.95,2.68,3" transform="translate(0)" fill="none" stroke="#222" stroke-linecap="round" stroke-miterlimit="10" stroke-width="2.06"/>
  </g>
  <g>
    <path d="M28.3,27.84a16.41,16.41,0,0,0-.59-3.12,11.63,11.63,0,0,0-2-3.95c-.84-1.05-2.24-2.56-3.73-2a23.81,23.81,0,0,0-2.79,1.55c-1.24.69-2.55,1.23-3.8,1.89a17.6,17.6,0,0,0-4.08,3,16,16,0,0,0-2.74,3.44c-1,1.74-.12,4.11.73,5.72a11.76,11.76,0,0,0,4.91,4.87,9,9,0,0,0,4.26,1.18,9.52,9.52,0,0,0,5.83-2.2,11.39,11.39,0,0,0,3.85-6.66A13.46,13.46,0,0,0,28.3,27.84Z" transform="translate(0)" fill="#fff"/>
    <path d="M16.63,27.73a3.43,3.43,0,0,0-3-1.79,3.75,3.75,0,0,0-3.1,1.4,2.34,2.34,0,0,0-.49,1.6,2.3,2.3,0,0,0,1.12,1.76,4.43,4.43,0,0,0,3.37.35,2.84,2.84,0,0,0,2.17-1.9A2.2,2.2,0,0,0,16.63,27.73Z" transform="translate(0)" fill="#ffd29c"/>
    <path d="M27,27.51a2.25,2.25,0,0,0-.3-.6,3.39,3.39,0,0,0-2.57-1.29,3.47,3.47,0,0,0-3,1.48,2.66,2.66,0,0,0-.46,1.69,2.47,2.47,0,0,0,1.07,1.86c1.48,1,4.17.66,5.07-1A2.67,2.67,0,0,0,27,27.51Z" transform="translate(0)" fill="#ffd29c"/>
    <path d="M20.57,33.62c-.75,0-1.5,0-2.25.05a5,5,0,0,0-1.92.27h0a1.51,1.51,0,0,0-1.16,1,2.6,2.6,0,0,0-.08,1.24,1.57,1.57,0,0,0,.76,1.11,2.19,2.19,0,0,0,1.38.19h.07l.27,0,.45,0,1,0a10.07,10.07,0,0,0,2.05-.16,1.92,1.92,0,0,0,1.38-1.87A1.77,1.77,0,0,0,20.57,33.62Zm-3.19,3.8h0Z" transform="translate(0)" fill="#ffd29c"/>
    <path d="M11.74,29.1a3.78,3.78,0,0,0,.91.37,4.37,4.37,0,0,0,1,.18,2.65,2.65,0,0,0,1-.15,4.17,4.17,0,0,0,.57-.26,1,1,0,0,0,.56-.89.81.81,0,0,0-.55-.72.67.67,0,0,0-.24,0l-.21,0,.12,0a1.4,1.4,0,0,0-.51.17,1.18,1.18,0,0,1-.19.11l-.08.05c-.1.05.16-.06.06,0l-.36.11-.18,0c-.07,0-.29,0,0,0a6.09,6.09,0,0,1-.74,0h-.09c-.12,0,0,0,0,0l-.21,0-.38-.08a.65.65,0,0,0-.75.37.63.63,0,0,0,.26.79Z" transform="translate(0)" fill="#222"/>
    <path d="M22,29a1.74,1.74,0,0,0,.85.44,3.84,3.84,0,0,0,.89.14,4.42,4.42,0,0,0,1.85-.45.89.89,0,0,0,.4-.53.87.87,0,0,0-.08-.67.9.9,0,0,0-1.2-.32l-.3.14.2-.08a3.82,3.82,0,0,1-.88.24l.22,0a3.93,3.93,0,0,1-.84,0l.21,0c-.28,0-.53-.13-.82-.14A.72.72,0,0,0,22,29Z" transform="translate(0)" fill="#222"/>
    <path d="M17.15,36.17l.05,0c.11.05-.25-.1,0,0a1.28,1.28,0,0,0,.34.06h.3l.75,0c.46,0,.92,0,1.38,0a.73.73,0,0,0,0-1.46,12.93,12.93,0,0,0-1.39.06l-.74.09-.33,0a1.18,1.18,0,0,0-.38.09l-.11.06a.55.55,0,0,0-.26.55.57.57,0,0,0,.4.47Z" transform="translate(0)" fill="#222"/>
    <path d="M18.36,27.89l0,0,.22-.18c-.36.13-.36.53-.36.85s0,.44,0,.66c0,.49,0,1,0,1.46a.55.55,0,0,0,.54.54.56.56,0,0,0,.54-.54c0-.49,0-1,0-1.46l-.06-.66c0-.28-.12-.8-.47-.85l.17.1,0,0a.35.35,0,0,0-.54.07Z" transform="translate(0)" fill="#222"/>
  </g>
</svg>
