<svg xmlns="http://www.w3.org/2000/svg" viewBox="0 0 38.22 37.52">
  <title>category-china-gray</title>
  <path d="M24.36,1.8C14.06-1.91,2.49,5.73,2,16-.32,22.62,3,29.37,9,33.35a19.56,19.56,0,0,0,19.64,1C42.67,27.25,37.47,6.53,24.36,1.8Z" transform="translate(-0.01 0)" fill="#676767"/>
  <path d="M1.15,20.32a15.67,15.67,0,0,1,1.12-8.2A21.93,21.93,0,0,1,6.38,6.36a18.5,18.5,0,0,1,4.53-3.88C14.71.35,19.37.79,23.5,2.1a23.59,23.59,0,0,1,8,4.19,15.71,15.71,0,0,1,5.16,7.55c1.68,5.66-.53,12-4.26,16.4a18.15,18.15,0,0,1-2.95,2.86,16,16,0,0,1-3.59,2,17.87,17.87,0,0,1-15.25-.6,26.51,26.51,0,0,1-5.34-4.08A10.85,10.85,0,0,1,2.76,27.3,12.23,12.23,0,0,1,2,24.73c-.69-3.1-1.38-6.33-.71-9.44" transform="translate(-0.01 0)" fill="none" stroke="#222" stroke-miterlimit="10" stroke-width="2"/>
  <path d="M11.89,17.23a.45.45,0,1,0-.45-.45A.45.45,0,0,0,11.89,17.23Z" transform="translate(-0.01 0)" fill="#bfbfbf"/>
  <path d="M14.91,12.82l-2.82.26-.33-.87a5.41,5.41,0,0,0-1.1-1.9.7.7,0,0,0-1,0,.66.66,0,0,0-.17.29c-.29.9-.52,1.82-.72,2.75H8.41c-.71.11-1.41.25-2.12.31A.65.65,0,0,0,6,14.93l2.21,1.31c-.16.8-.32,1.6-.51,2.4A.76.76,0,0,0,9,19.37c.58-.54,1.17-1.07,1.76-1.59,1,.63,2,1.27,3,1.95.59.41,1.32-.38,1-1a19.48,19.48,0,0,1-1.53-3.15A6.28,6.28,0,0,1,14,15a10.85,10.85,0,0,0,1.35-.89.61.61,0,0,0,.23-.53C15.54,13.26,15.34,12.79,14.91,12.82Z" transform="translate(-0.01 0)" fill="#bfbfbf"/>
  <path d="M23.1,12.65a9.45,9.45,0,0,1-1.37-.34v-.39a4.62,4.62,0,0,0,.08-.65.25.25,0,0,0-.09-.2.24.24,0,0,0-.32-.14.27.27,0,0,0-.12.09c-.21.31-.43.62-.64.94l-.28-.09a2.17,2.17,0,0,0-1-.18.29.29,0,0,0-.29.29.33.33,0,0,0,0,.14c.22.34.46.66.71,1l-.09.14c-.16.26-.3.53-.48.79a.28.28,0,0,0,.11.37.27.27,0,0,0,.2,0l1-.37c.21.26.42.51.61.77a.32.32,0,0,0,.41.15.3.3,0,0,0,.18-.3,6.57,6.57,0,0,0-.05-1c.46-.16.92-.31,1.39-.44a.29.29,0,0,0,.2-.36.29.29,0,0,0-.28-.21Z" transform="translate(-0.01 0)" fill="#bfbfbf"/>
  <path d="M18.18,6.62,17,6.43V6.08a2.21,2.21,0,0,0-.25-.91.29.29,0,0,0-.4-.1.32.32,0,0,0-.1.1c-.21.33-.4.68-.58,1h-.14a3,3,0,0,1-.89-.09.27.27,0,0,0-.33.2.26.26,0,0,0,.07.25l.75.76c-.14.3-.29.61-.45.91a.3.3,0,0,0,.11.42.31.31,0,0,0,.32,0L16,8.18c.34.36.68.72,1,1.09s.57,0,.49-.28a7.89,7.89,0,0,1-.29-1.43l.36-.15a4.83,4.83,0,0,0,.64-.22A.24.24,0,0,0,18.3,7C18.38,6.86,18.36,6.65,18.18,6.62Z" transform="translate(-0.01 0)" fill="#bfbfbf"/>
  <path d="M21.43,22.64a8.25,8.25,0,0,1-.24-1.39,2.75,2.75,0,0,1,.36-.15,5,5,0,0,0,.63-.19.26.26,0,0,0,.15-.16.25.25,0,0,0,0-.35.24.24,0,0,0-.13-.07l-1.11-.22v-.29a2.4,2.4,0,0,0-.22-.95.29.29,0,0,0-.38-.15.4.4,0,0,0-.12.1c-.22.33-.42.68-.61,1H19.6a4.73,4.73,0,0,1-.92-.12.27.27,0,0,0-.3.24.25.25,0,0,0,.06.2l.75.8c-.15.29-.31.58-.47.87a.33.33,0,0,0,0,.38.32.32,0,0,0,.37.09l.91-.44c.32.36.65.72.95,1.1a.29.29,0,0,0,.38.06A.31.31,0,0,0,21.43,22.64Z" transform="translate(-0.01 0)" fill="#bfbfbf"/>
  <path d="M15.5,23.88a8.39,8.39,0,0,1-1.41.12,2,2,0,0,0-.11-.38,6.45,6.45,0,0,0-.14-.64.39.39,0,0,0-.15-.16.25.25,0,0,0-.35,0,.2.2,0,0,0-.08.12L13,24h-.29a2.27,2.27,0,0,0-1,.14.28.28,0,0,0-.17.37.25.25,0,0,0,.08.12,11.9,11.9,0,0,0,1,.7v.15c-.07.31-.11.61-.2.91a.27.27,0,0,0,.23.31.28.28,0,0,0,.18,0l.86-.68.84.53a.32.32,0,0,0,.44,0,.36.36,0,0,0,0-.3c-.13-.31-.24-.62-.36-.94.38-.29.77-.59,1.17-.86S15.8,23.82,15.5,23.88Z" transform="translate(-0.01 0)" fill="#bfbfbf"/>
</svg>
