<?xml version="1.0" encoding="utf-8"?>
<!-- Generator: Adobe Illustrator 24.0.0, SVG Export Plug-In . SVG Version: 6.00 Build 0)  -->
<svg version="1.1" id="Layer_1" xmlns="http://www.w3.org/2000/svg" xmlns:xlink="http://www.w3.org/1999/xlink" x="0px" y="0px"
	 width="48.24px" height="38.74px" viewBox="0 0 48.24 38.74" enable-background="new 0 0 48.24 38.74" xml:space="preserve">
<g>
	<g>
		<defs>
			<rect id="SVGID_1_" width="48.24" height="38.74"/>
		</defs>
		<clipPath id="SVGID_2_">
			<use xlink:href="#SVGID_1_"  overflow="visible"/>
		</clipPath>
		<path clip-path="url(#SVGID_2_)" fill="#FFFFFF" d="M23.36,10.18c0.47-1.03,1.93-2.57,2.73-3.56c0.15-0.2,0.16-0.49,0-0.67
			c-0.32-0.39-0.72-1.08-0.77-1.17c-0.98-1.68-0.18-3.78,1.77-3.88c1.36-0.07,3.16,1.14,2.65,2.84c0.04-0.14,0.93-0.24,1.06-0.25
			c0.39-0.05,0.78-0.06,1.16,0c1.88,0.32,1.88,3.48-0.26,4.43c-0.96,0.43-1.32-0.52-2.22,0.03c-0.5,0.3-0.76,0.97-1.05,1.47
			c-0.42,0.74-0.88,1.45-1.32,2.18"/>
	</g>
	<g>
		<defs>
			<rect id="SVGID_3_" width="48.24" height="38.74"/>
		</defs>
		<clipPath id="SVGID_4_">
			<use xlink:href="#SVGID_3_"  overflow="visible"/>
		</clipPath>
		<path clip-path="url(#SVGID_4_)" d="M23.74,10.56c0.86-1.07,3.17-2.73,3.3-4.17c0.06-0.72-0.51-1.21-0.82-1.8
			c-0.34-0.65-0.69-1.39-0.27-2.12c0.69-1.17,3.26-0.88,2.94,1.03c-0.12,0.72,0.58,1.4,1.29,0.99c1.18-0.69,2.81,0.33,2.04,1.73
			c-0.63,1.16-1.45,0.51-2.4,0.61c-1.84,0.2-2.76,2.93-3.59,4.25c-0.69,1.09,1.06,2.12,1.73,1.01c0.55-0.9,1.14-2.51,2.06-2.98
			c0.68-0.34,1.4-0.06,2.14-0.39c1.17-0.53,1.96-1.79,2.04-3.06c0.17-2.64-2.72-3.96-4.91-2.69c0.43,0.33,0.86,0.66,1.29,0.99
			c0.5-3.13-3.63-5.47-5.81-2.81c-1.01,1.23-0.79,2.7-0.2,4.05c0.56,1.27,0.66,1.12-0.23,2.32c-0.59,0.8-1.19,1.56-1.5,2.51
			C22.69,10.52,23.4,10.98,23.74,10.56"/>
	</g>
	<g>
		<defs>
			<rect id="SVGID_5_" width="48.24" height="38.74"/>
		</defs>
		<clipPath id="SVGID_6_">
			<use xlink:href="#SVGID_5_"  overflow="visible"/>
		</clipPath>
		<path clip-path="url(#SVGID_6_)" fill="#FFFFFF" d="M36.88,13.64c1.22-1.3,2.44-2.61,3.67-3.91c-0.16,0.07-0.35-0.27-0.49-0.39
			c-0.81-0.67-1.44-1.84-1.23-2.96c0.36-1.99,3.51-2.7,4.53-0.74c0.38,0.73,0.41,1.62,0.42,2.44c0-0.23,1.67-0.01,1.81,0
			c1.19,0.11,1.93,1.18,1.76,2.66c-0.24,2.04-2.6,2.84-3.98,1.92c-0.15-0.1-0.28-0.21-0.45-0.26c-0.66-0.18-1.47,1.16-1.89,1.6
			c-0.76,0.8-1.49,1.63-2.32,2.34"/>
	</g>
	<g>
		<defs>
			<rect id="SVGID_7_" width="48.24" height="38.74"/>
		</defs>
		<clipPath id="SVGID_8_">
			<use xlink:href="#SVGID_7_"  overflow="visible"/>
		</clipPath>
		<path clip-path="url(#SVGID_8_)" d="M37.31,14.08c1.37-1.16,2.58-2.46,3.81-3.77c0.34-0.36,0.33-1.05-0.17-1.29
			c-1.35-0.65-1.67-3.2-0.1-3.62c1.65-0.43,2.06,1.39,2.08,2.68c0.01,0.61,0.71,1.07,1.25,0.72c1.32-0.86,3.05,1.54,1.7,2.81
			c-1.25,1.17-2.06-0.23-3.32-0.06c-0.72,0.1-1.19,0.66-1.66,1.17c-0.94,1.02-1.83,2.05-2.86,2.98c-0.88,0.79,0.42,2.08,1.29,1.29
			c0.91-0.82,1.77-1.69,2.56-2.62c0.95-1.12,0.83-0.77,2.05-0.51c1.56,0.33,3.26-0.47,3.94-1.91c0.65-1.38,0.41-3.31-0.9-4.22
			c-0.8-0.56-2.78-0.94-3.64-0.36c0.42,0.24,0.84,0.48,1.26,0.72c-0.09-2.67-1.69-5.51-4.78-4.07c-2.68,1.25-2.23,5.2,0.3,6.43
			c-0.06-0.43-0.11-0.86-0.17-1.29c-1.26,1.35-2.51,2.69-3.62,4.18C35.9,13.93,36.81,14.51,37.31,14.08"/>
	</g>
	<g>
		<defs>
			<rect id="SVGID_9_" width="48.24" height="38.74"/>
		</defs>
		<clipPath id="SVGID_10_">
			<use xlink:href="#SVGID_9_"  overflow="visible"/>
		</clipPath>
		<path clip-path="url(#SVGID_10_)" fill="#DADADA" d="M14.02,30.93c7.3,1.46,14.62,1.22,21.87-0.32c3.9-0.83,2.25-6.8-1.65-5.98
			c-6.12,1.3-12.41,1.56-18.58,0.32C11.78,24.18,10.11,30.15,14.02,30.93"/>
	</g>
	<g>
		<defs>
			<rect id="SVGID_11_" width="48.24" height="38.74"/>
		</defs>
		<clipPath id="SVGID_12_">
			<use xlink:href="#SVGID_11_"  overflow="visible"/>
		</clipPath>
		<path clip-path="url(#SVGID_12_)" fill="#DADADA" d="M6.64,30.6c-1.4-0.67,0.68-3.1,1.12-3.65c0.18-0.22,1.28-1.41,0.93-1.01
			c1.39-1.54,1.97-2.68,2.73-4.68c2.16-5.68,10.69-4.02,15.4-2.32c2.54,0.92,4.56-1.81,4.08-4.08c-1.57-7.39-14.46-5.8-18.97-2.54
			c-5.94,4.29-7.22,12.8-8.47,19.49c-0.41,2.18,0.95,4.56,3.42,4.49c5.97-0.17,11.8,0.83,17.74,1.12c4.27,0.21,7.82-0.84,11.83-1.71
			c3.33-0.72,5.84-2.08,5.31-6.15c-0.19-1.42-0.66-1.7-1.28-2.9c-0.55-1.06-0.87-0.19-0.7-0.86c0.42-1.63,2.26-2.27,2.31-4.47
			c0.06-3.2-2.54-7.05-5.4-8.38c-3.88-1.8-9.66,0.46-13.63,1.22c-4.95,0.95-11.88,1.41-16.26,4.07c-1.35,0.82-2.34,2.12-2.79,3.62
			c-0.22,0.74-0.26,1.88-0.26,2.65c0,0.22-0.09,2.36,0.15,1.28h7.37c-0.03-0.11-0.07-0.23-0.1-0.34c-1.23,1.61-2.46,3.23-3.69,4.84
			c6.49-0.4,12.9-1.5,19.38-2.05c4.44-0.38,9.07-0.05,10.85-4.95c1.87-5.15-6.5-7.49-8.24-2.27c-0.08,0.23-0.15,0.46-0.23,0.69
			c0.65-0.85,1.31-1.7,1.96-2.55c-2.15,1.55-7.8,1.25-10.49,1.69c-4.4,0.72-8.79,1.42-13.23,1.78c-2.35,0.19-4.51,2.31-3.69,4.84
			c0.04,0.11,0.07,0.23,0.11,0.34c1.08,3.35,6.59,3.92,7.37,0c0.18-0.91,0.25-1.95,0.09-2.87c-0.14-0.86,0.47-1.46-0.27-0.79
			c-1.25,1.13,2.26-0.22,2.67-0.33c4.76-1.33,9.6-2.38,14.44-3.35c2.21-0.44,3.85-0.78,6-0.4c0.39,1.37,0.66,1.59,0.81,0.66
			c0.29-0.6,0.23-0.68-0.2-0.24c-0.31,0.52-0.93,1.01-1.26,1.57c-0.8,1.34-1.18,2.94-1,4.51c0.04,0.31,1.39,4.43,2.07,3.55
			c0.71-0.55,1.42-1.1,2.13-1.64c-9.97,3.03-19.65,0.47-29.89,0.71c1.14,1.5,2.28,2.99,3.42,4.49c0.78-4.05,1.43-8.33,3.14-12.11
			c0.99-2.2,2.18-3.82,4.52-4.71c1.21-0.46,2.27-0.56,3.55-0.44c0.51,0.05,3.2,1.07,3,0.17c1.36-1.36,2.72-2.72,4.08-4.08
			c-7.23-2.54-19.39-3.33-22.73,5.19C4.15,22.06-4,32.44,4.93,34.66C7.27,35.24,8.99,31.72,6.64,30.6"/>
	</g>
	<g>
		<defs>
			<rect id="SVGID_13_" width="48.24" height="38.74"/>
		</defs>
		<clipPath id="SVGID_14_">
			<use xlink:href="#SVGID_13_"  overflow="visible"/>
		</clipPath>
		<path clip-path="url(#SVGID_14_)" d="M31.84,12.84c-4.88-4.69-14.11-4.76-20.01-2.28c-2.66,1.12-5.61,3.26-6.44,6.2
			c-0.22,0.77,0.02,1.6-0.31,2.32c-0.36,0.78-1.52,1.38-2.1,2.02c-0.46,0.5-0.87,1.06-1.22,1.64c-2.96,4.89-2.42,11.72,3.42,13.96
			c3.6,1.38,7.64,1.67,11.45,1.84c4.48,0.2,8.96,0.41,13.41-0.18c3.67-0.49,7.34-0.58,10.09-3.4c2.79-2.86,2.33-6.82,0.73-10.14
			c-0.59-1.23-2.42-0.16-1.83,1.07c2.27,4.7,0.03,9.16-5.16,9.82c-3.85,0.49-7.59,0.96-11.48,0.91c-4.37-0.06-8.82-0.09-13.11-1
			c-3.71-0.78-7.16-2.08-7.23-6.43c-0.02-1.67,0.42-3.4,1.19-4.88c0.8-1.53,2.07-2.3,3.14-3.58c0.55-0.66,0.82-1.27,0.94-2.12
			c0.2-1.5,0.46-2.54,1.62-3.75c5.34-5.55,16.18-5.11,22.26-1.18C31.71,14.01,32.28,13.26,31.84,12.84"/>
	</g>
	<g>
		<defs>
			<rect id="SVGID_15_" width="48.24" height="38.74"/>
		</defs>
		<clipPath id="SVGID_16_">
			<use xlink:href="#SVGID_15_"  overflow="visible"/>
		</clipPath>
		<path clip-path="url(#SVGID_16_)" d="M27.18,16.96c2.6-2.17,6.29-5.67,9.81-3.5c1.3,0.8,2.88,2.23,3.52,3.6
			c0.99,2.13-0.17,4.44-1.4,6.24c-1.86,2.72-4.72,3.68-7.86,4.04c-2.92,0.34-5.97,0.52-7.14-2.76c-0.33-0.92-1.97-0.87-1.84,0.25
			c0.56,4.62,4.73,5.16,8.65,4.69c4.6-0.54,8.48-2.13,10.68-6.45c1.06-2.08,1.68-4.5,0.62-6.7c-0.94-1.95-2.95-3.4-4.69-4.62
			c-3.38-2.37-9.69,1.19-11.2,4.55C26.07,16.86,26.69,17.37,27.18,16.96"/>
	</g>
	<g>
		<defs>
			<rect id="SVGID_17_" width="48.24" height="38.74"/>
		</defs>
		<clipPath id="SVGID_18_">
			<use xlink:href="#SVGID_17_"  overflow="visible"/>
		</clipPath>
		<path clip-path="url(#SVGID_18_)" fill="#FFFFFF" d="M21.36,12.92c-1.67-1.12-4.58-0.37-6.34,0.29c-1.59,0.6-3.25,1.57-3.19,3.48
			c0.01,0.28,0.29,0.55,0.59,0.45c1.39-0.5,2.52-1.45,3.94-1.86c1.64-0.48,3.48-0.17,5.01-0.86C22,14.13,21.84,13.25,21.36,12.92"/>
	</g>
	<g>
		<defs>
			<rect id="SVGID_19_" width="48.24" height="38.74"/>
		</defs>
		<clipPath id="SVGID_20_">
			<use xlink:href="#SVGID_19_"  overflow="visible"/>
		</clipPath>
		<path clip-path="url(#SVGID_20_)" d="M4.79,21.73c1-0.45,1.77-1.32,2.8-1.77c1.16-0.51,2.62-0.48,3.68-1.14
			c0.22-0.14,0.19-0.41,0-0.55c-2.16-1.55-6.31,0.7-7.2,2.91C3.88,21.62,4.45,21.89,4.79,21.73"/>
	</g>
	<g>
		<defs>
			<rect id="SVGID_21_" width="48.24" height="38.74"/>
		</defs>
		<clipPath id="SVGID_22_">
			<use xlink:href="#SVGID_21_"  overflow="visible"/>
		</clipPath>
		<path clip-path="url(#SVGID_22_)" fill="#FFFFFF" d="M23.17,13.7c0.29-0.01,0.56-0.04,0.84,0.03c0.33,0.08,0.55,0.17,0.9,0.08
			c0.35-0.09,0.51-0.51,0.33-0.82c-0.44-0.77-1.68-0.76-2.35-0.32C22.46,12.95,22.6,13.72,23.17,13.7"/>
	</g>
</g>
</svg>
