<?xml version="1.0" encoding="utf-8"?>
<!-- Generator: Adobe Illustrator 24.0.0, SVG Export Plug-In . SVG Version: 6.00 Build 0)  -->
<svg version="1.1" id="레이어_2" xmlns="http://www.w3.org/2000/svg" xmlns:xlink="http://www.w3.org/1999/xlink" x="0px"
	 y="0px" width="29px" height="45px" viewBox="0 0 29 45" style="enable-background:new 0 0 29 45;" xml:space="preserve">
<style type="text/css">
	.st0{fill:#FFC200;}
	.st1{fill:#222222;}
	.st2{fill:#FFE3AB;}
</style>
<g>
	<path class="st0" d="M25.8,33.5c-1.4,0-3.9-0.6-5.3-0.6c0.3-4.8,0.1-7.9,0.2-12.8c0-0.3-0.5-13.5-1.5-13.6c0.1-1.2-5.9-1.8-5.9-1.8
		C8.8,6.4,7.1,9,2.8,11c-3.6,1.7,1.1,9.1,3.1,8.1c0.5-0.2,2.3-1.7,2.8-2c0.4,0.1,0.8,0.1,1.3,0c0.5-0.1,0.2,0,0.7-0.2
		c-0.5,6.6-0.9,10.2-1.5,16.8c-1.4,0-1.7,0-3,0c-0.3,0-3.9,1.4-3.8,1.4c-0.2,0,0,6.2,0,6.4c0,1.1,3.3,2,4.6,1.9
		c1.7-0.1,3.4-0.1,5.1-0.1c3.4,0.1,7.3,0.3,10.7-0.1c1.4-0.1,5.2-2,5.2-3.3C27.9,39.7,28.1,33.6,25.8,33.5z"/>
	<path class="st1" d="M0,12.7c-0.3,2.5,1.2,5.3,3.1,6.8c1.1,0.8,2.4,1.1,3.7,0.7c1.3-0.4,2.3-1.4,3.6-2c-0.5-0.3-1.1-0.6-1.6-0.9
		c-0.3,3.5-0.6,7-0.7,10.5c0,0.8,0,1.5,0,2.3c0,0.4,0,0.8,0,1.2c0,0.1,0,0.3,0,0.4c0,0.1-0.1,0.6,0,0.2c0,0-0.1,0.3-0.1,0.3
		c0-0.1,0.2-0.4,0.2-0.4C8.2,31.9,8,32,8,32c-0.7,0.1-1.3,0.2-2,0.3c-1.3,0.2-2.5,0.5-3.5,1.3c-2.7,2.1-2.5,6.6-0.6,9.1
		C2.5,43.4,3.2,44,4,44.3c1,0.4,2.2,0.4,3.3,0.5C9.9,45,12.5,45,15,45c2.4,0,4.8,0,7.2-0.3c2.1-0.3,4.4-0.8,5.7-2.6
		c1.3-1.7,1.2-4.3,0.7-6.3c-0.6-1.9-2-3.4-4-3.7c-1-0.2-2-0.1-3-0.2c-0.2,0-0.1,0,0,0.1c-0.1-0.1,0,0.2,0,0c0-0.1,0-0.1,0-0.2
		c0-0.1,0-0.2,0-0.2c0,0,0,0.2,0,0c0-0.2,0-0.4,0-0.6c-0.1-1.7,0.1-3.5,0.2-5.2c0.2-3.1,0.3-6.1,0.3-9.2c0-1.5,0-3.1,0-4.6
		c0-1.4,0-2.8-0.2-4.2c-0.4-2.1-2.3-3.9-4.4-4.5c-1.9-0.6-4-0.2-5.8,0.4c-3.7,1.4-6.6,3.9-9.5,6.5c-0.6,0.6-1.3,1.2-1.8,1.9
		c-0.8,1.2,1.1,2.3,1.9,1.1c0.3-0.5,1.1-1.1,1.6-1.6c0.5-0.5,1.1-1,1.7-1.5C6.8,8.9,8.2,7.9,9.7,7c2.7-1.6,6.9-3.1,9.3-0.1
		c0.8,1,0.7,2.2,0.7,3.4c0,1.4,0.1,2.9,0.1,4.3c0,2.9-0.1,5.8-0.2,8.7c-0.1,2-0.3,4-0.3,5.9c0,0.8,0,1.6,0,2.4
		c0.1,0.6,0.1,1.4,0.6,1.9c1.4,1.3,3.7,0.2,5.2,1.1c1.4,0.8,1.6,2.8,1.6,4.3c0,0.8-0.3,1.7-0.9,2.3c-0.6,0.6-1.5,0.9-2.3,1.1
		c-2.1,0.6-4.3,0.6-6.4,0.7c-2.2,0-4.5,0-6.8-0.1c-1.3,0-2.7-0.1-4-0.2c-0.9-0.1-1.6-0.1-2.3-0.6c-0.8-0.6-1.4-2-1.5-3.1
		c-0.1-1.4,0.2-2.7,1.2-3.5c0.1-0.1,0.5-0.3,0.8-0.4c0.6-0.2,1.2-0.3,1.9-0.4c1.1-0.1,2.8-0.2,3.4-1.3c0.3-0.5,0.3-1.1,0.3-1.7
		c0.1-0.8,0.1-1.5,0.1-2.3c0.1-3,0.3-6,0.4-9c0-1,0.1-2,0.1-3c0-0.8-0.9-1.3-1.6-0.9c-0.9,0.5-1.8,1.2-2.7,1.7
		c-0.9,0.5-1.7,0.4-2.5-0.2c-0.8-0.6-1.3-1.4-1.8-2.2c-0.5-0.9-0.9-1.9-0.8-2.9C1.7,11.6,0.2,11.7,0,12.7L0,12.7z"/>
	<path class="st2" d="M12.7,8.9c0.1,0.8,0.9,0.8,1.5,1.1c0.2,0.1,0.3,0.1,0.4,0.2c-0.1-0.2-0.1-0.2,0,0.1c0,0.2,0.1,0.3,0.1,0.5
		c0.1,1.3,0.1,2.6,0.2,3.8c0.1,1.4,0.4,2.8,0.5,4.2c0,0.7,0,1.3,0.1,2c0,0.8,0.2,1.4,0.5,2.1c0.3,0.6,1,0.6,1.3,0
		c0.3-0.7,0.4-1.4,0.5-2.2c0-0.7,0-1.5,0.1-2.2c0.1-1.6,0.2-3.2,0.2-4.7c0-1.4,0.1-3.2-0.5-4.5c-0.7-1.5-2.3-2-3.9-1.6
		c-0.4,0.1-0.7,0.4-0.8,0.8C12.7,8.6,12.7,8.7,12.7,8.9L12.7,8.9z"/>
	<path class="st2" d="M16.5,27c0.2,0,0.3,0,0.5-0.1c0.1,0,0.3-0.1,0.4-0.2c0.1-0.1,0.2-0.2,0.2-0.4c0.1-0.1,0.1-0.3,0.1-0.4
		c0-0.1,0-0.2,0-0.3c-0.1-0.2-0.2-0.4-0.3-0.5c-0.1-0.1-0.2-0.1-0.2-0.2c-0.2-0.1-0.4-0.2-0.6-0.2c-0.2,0-0.3,0-0.5,0.1
		c-0.1,0-0.3,0.1-0.4,0.2c-0.1,0.1-0.2,0.2-0.2,0.4c-0.1,0.1-0.1,0.3-0.1,0.4c0,0.1,0,0.2,0,0.3c0.1,0.2,0.2,0.4,0.3,0.5
		c0.1,0.1,0.2,0.1,0.2,0.2C16.1,26.9,16.3,27,16.5,27L16.5,27z"/>
</g>
</svg>
