<svg xmlns="http://www.w3.org/2000/svg" viewBox="0 0 30.41 44.36">
  <title>category-women-only-gray</title>
  <g>
    <path d="M18.32,32.27c0-.73-.23-3.19-.23-3.92,0-2.14-.23-1.81-.83-3.11s-4.32-1.62-4.69-.62c-.47,1.26-.76,2.17-.28,5.72a20.7,20.7,0,0,1,.2,2.07l-1.36,0c-.78,0-3.55-.14-4.1,0-1.09.26-.27,3.34-.26,3.7,0,1.23,3,.91,3.91.9.69,0,1.38.06,2.08.06,0,.78.06.56.08,1.33a14.63,14.63,0,0,0,.23,3.37c.12,1.41.81,1.76,3.21,1.6.58,0,1.4,0,1.63-.64A3.63,3.63,0,0,0,18,41.4c0-1.08-.11-2.17-.11-3.25,0-.72-.05-.45-.08-1.17,1.05,0,2.09-.1,3.13-.17a16.6,16.6,0,0,0,3-.37c.55-.17.43-1.09.21-2.94-.09-.8-.12-1.39-.89-1.59C23,31.86,18.32,32.27,18.32,32.27Z" transform="translate(0 -0.01)" fill="#8f8f8f"/>
    <path d="M19.22,32.27c-.22-3.61.39-8.58-4.37-9.06-5.19-.53-3.49,6.06-3.26,9.21l.9-.9c-2.84.05-7-1.23-6.89,2.74.12,4.53,3.57,3.64,7.16,3.75l-.9-.9c.19,3-.58,7,3.36,7.24C20,44.65,19,40.59,18.74,37l-.9.9c4-.19,8.75.51,7.16-5-.85-2.93-4.27-1.77-6.68-1.55-1.14.11-1.15,1.91,0,1.8s3-.63,4.06-.32c1.62.46,1.43,2.26-.36,3-1.08.44-3,.19-4.19.24a.91.91,0,0,0-.9.9c.11,1.64,1,5.27-1.19,5.53-2.59.32-2-3.83-2.09-5.42a.92.92,0,0,0-.9-.9c-1.39,0-6.72.74-5.39-2.31.5-1.14,3.7-.55,5.12-.57a.91.91,0,0,0,.9-.9c-.12-1.66-1.56-6.72.69-7.45,3.66-1.19,3.24,5.49,3.35,7.31C17.49,33.43,19.29,33.43,19.22,32.27Z" transform="translate(0 -0.01)" fill="#222"/>
  </g>
  <g>
    <path d="M12,28.52C4.88,26.85-.18,19.68,1.09,12.69A15,15,0,0,1,16.58.92,14.88,14.88,0,0,1,27.4,7,14.15,14.15,0,0,1,26,24.87a13,13,0,0,1-7.78,3.93M15.56,7.07C10,7,5.5,12.69,7.62,18.08c1.35,3.43,5.38,5.57,9.1,5.2a8,8,0,0,0,3.42-1.16c5.83-3.64,4.39-12.37-2-14.59A8.07,8.07,0,0,0,15.56,7.07Z" transform="translate(0 -0.01)" fill="#8f8f8f"/>
    <g>
      <path d="M12.23,27.65C-1.84,23.6-.8,3.73,14,1.94c16.7-2,20.55,22.92,3.94,26-1.14.21-.66,1.95.48,1.74C36.69,26.29,33-1.25,14.54.05,7.65.53,1.37,5.82.19,12.69c-1.33,7.79,4.36,14.62,11.55,16.69a.9.9,0,0,0,.49-1.73Z" transform="translate(0 -0.01)" fill="#222"/>
      <path d="M15.56,6.17c-5,.22-9.48,4.11-9.37,9.36s5.53,9.19,10.65,8.63a8.76,8.76,0,0,0,7.82-9.53,9.43,9.43,0,0,0-9.1-8.46c-1.16-.08-1.15,1.73,0,1.8,7.7.5,10.51,11.88,2.26,14.17-4.09,1.14-9.13-1.5-9.72-5.89S11.23,8.15,15.56,8C16.72,7.92,16.72,6.12,15.56,6.17Z" transform="translate(0 -0.01)" fill="#222"/>
    </g>
  </g>
</svg>
