<svg xmlns="http://www.w3.org/2000/svg" viewBox="0 0 33.37 44.23">
  <title>category-aroma</title>
  <g>
    <polygon points="20.24 11.25 20 14.54 16.59 15.54 15.77 22.24 32.21 22.57 31.66 15.78 27.99 14.7 27.36 11.25 20.24 11.25" fill="#9e7157"/>
    <polyline points="16.14 32.79 31.66 32.71 31.66 38.29 16.14 39.03" fill="#9e7157"/>
    <rect x="16.3" y="23.03" width="15.35" height="9.27" fill="#fff"/>
    <path d="M26.82,3.07l-.31.1-.24.05h-.48s-.18,0-.08,0V4.65a8.53,8.53,0,0,1,2.13-.28V2.83a29.91,29.91,0,0,1-3.54-.11V4.31c1.22,0,2.44-.11,3.65-.24a.82.82,0,1,0,0-1.64H25.19l.22,1.63L25.93,4c.28,0-.16,0,.12,0l.26,0c.35,0,.7-.07,1.05-.08A.85.85,0,0,0,28.19,3a.85.85,0,0,0-.83-.83l-3.58-.39a.8.8,0,0,0-.66.33.92.92,0,0,0-.15.74l.18,1.26c.08.5.1,1,.57,1.35a2.66,2.66,0,0,0,1.43.19h1.27c.84,0,2,.19,2.54-.66a3,3,0,0,0,.27-1.36c0-.42,0-.83,0-1.24a.86.86,0,1,0-1.72,0c0,1,0,2.11,0,3.17L28.6,4.7A22.67,22.67,0,0,0,24,4.35a1,1,0,0,0-.93.93c0,.45.41,1,.93.93a1.22,1.22,0,0,0,.73-.28,1.54,1.54,0,0,0,.19-.17.69.69,0,0,0,0-1l-.19-.16A1.14,1.14,0,0,0,24,4.35V6.21c.72,0,1.44,0,2.17,0l1.06.09.52.06h0l.14,0,.3,0a.9.9,0,0,0,.78-.16.85.85,0,0,0,.35-.7c0-1.06,0-2.12,0-3.17H27.51c0,.33,0,.67,0,1l0,.49c0,.09,0,.18,0,.27,0-.12,0-.08,0,0s.1-.17.19-.22,0,0,0,0c.11,0,.13,0,.07,0H24.83a2.57,2.57,0,0,0-.48,0c.41.5.59.62.54.37a.5.5,0,0,1,0-.12,2.51,2.51,0,0,1,0-.27l-.07-.44-.17-1.08-.81,1.06,3.58.37V2.18A19.21,19.21,0,0,0,25,2.45a.83.83,0,0,0,.22,1.63H28V2.43c-1.21.14-2.43.24-3.65.29a.8.8,0,0,0-.79.79.82.82,0,0,0,.79.8,24.64,24.64,0,0,0,3.54.06.77.77,0,1,0,0-1.54,10.76,10.76,0,0,0-2.52.39.74.74,0,0,0,.19,1.45,3,3,0,0,0,1.82-.38.67.67,0,0,0-.51-1.22Z" transform="translate(-1.82 -0.39)" fill="#fff"/>
    <path d="M24.15,7.06a20.66,20.66,0,0,1-.29-2.88s0-.19,0,0l0-.14c0-.1.05-.21.08-.32L24,3.49s-.06.12,0,0l.17-.28h0l.08-.1c.06-.07.13-.13.2-.2s.29-.22.11-.11a2.61,2.61,0,0,1,.28-.17L25,2.53s.14-.06,0,0l.19-.07.31-.07s-.17,0,0,0l.2,0H26s.21,0,.08,0,0,0,0,0l.33.08.11,0c.11,0-.13-.08,0,0a2,2,0,0,1,.25.14c.07,0,.25.18.1.06l.25.22a.73.73,0,0,0,.08.09c.09.08-.07-.13,0,0a2.13,2.13,0,0,1,.16.25l.07.15c0,.11,0-.05,0-.06a3,3,0,0,1,.16.66s0-.24,0,0c0,0,0,.11,0,.17a2.67,2.67,0,0,1,0,.4c0,.25,0,.5,0,.76,0,0,0,.17,0,0s0,.09,0,.12l-.06.35-.15.74a1.15,1.15,0,0,0,.5,1.24,1.22,1.22,0,0,0,.56.14,1.11,1.11,0,0,0,1-.8,10,10,0,0,0,.26-3.48A4,4,0,0,0,27.85.92a3.86,3.86,0,0,0-5.66,2.26,8.91,8.91,0,0,0,.27,4.1.87.87,0,0,0,.95.62.85.85,0,0,0,.74-.84Z" transform="translate(-1.82 -0.39)" fill="#222"/>
    <path d="M30.74,11a4,4,0,0,1-2.54.56c-1.89,0-3.77.15-5.66.06a2.8,2.8,0,0,1-1.95-.74c-.77-.81-.82-3.56.55-3.94a4.56,4.56,0,0,1,1.28-.1q3.84,0,7.68.14c1.53,0,1.35,2.19,1.12,3.19A1.43,1.43,0,0,1,30.74,11Z" transform="translate(-1.82 -0.39)" fill="#444" stroke="#222" stroke-linecap="round" stroke-linejoin="round" stroke-width="1.85"/>
    <path d="M21.81,12.26a5.37,5.37,0,0,1-.24,2.44,1.37,1.37,0,0,1-.38.34c-.78.54-1.43.21-2.26.56a2.21,2.21,0,0,0-1.34,2v16a19.69,19.69,0,0,0,0,3.76c.32,1.56,1.55,2.08,3,2.08h6.18c1.77,0,4.25.46,5.89-.34C34.83,38,34,35,34,33.1c.1-4.44,0-8.89-.07-13.33,0-1.35.21-3.35-1.26-4.08-.68-.34-1.49-.17-2.16-.5-1.1-.54-.74-1.93-.74-2.93" transform="translate(-1.82 -0.39)" fill="none" stroke="#222" stroke-linecap="round" stroke-linejoin="round" stroke-width="2.06"/>
    <path d="M18.83,23.5a20.45,20.45,0,0,0,3.59.26l3.46.07c2.38,0,4.77.05,7.16,0,1.17,0,1.16-1.87,0-1.81-2.39.13-4.77.23-7.16.29l-3.46,0a22.61,22.61,0,0,0-3.59.15.49.49,0,0,0,0,.95Z" transform="translate(-1.82 -0.39)" fill="#222"/>
    <path d="M18,33.06a2.89,2.89,0,0,0,1.61.58c.65.1,1.31.16,2,.21,1.31.12,2.63.19,3.95.23,2.64.1,5.28.12,7.91,0,1.27-.06,1.28-2,0-2-2.59.07-5.19.11-7.79,0-1.27,0-2.55-.09-3.83-.13-.65,0-1.31-.06-2-.06a3,3,0,0,0-1.74.28.53.53,0,0,0-.1.81Z" transform="translate(-1.82 -0.39)" fill="#222"/>
  </g>
  <line x1="9.18" y1="14.83" x2="9.18" y2="43.36" fill="none" stroke="#222" stroke-linecap="round" stroke-linejoin="round" stroke-width="1.73"/>
  <path d="M8.2,13.86a10,10,0,0,1,.13-2.13A11.77,11.77,0,0,1,10,7.24a.79.79,0,0,1,1.34-.08,9.82,9.82,0,0,1,2.07,4.92,5.58,5.58,0,0,1-.21,2.81,2.63,2.63,0,0,1-4.41.63A2.9,2.9,0,0,1,8.2,13.86Z" transform="translate(-1.82 -0.39)" fill="#ac59d8" stroke="#222" stroke-linecap="round" stroke-linejoin="round" stroke-width="1.73"/>
  <path d="M9.89,17a9.58,9.58,0,0,0-1.74-1.24,11.61,11.61,0,0,0-4.54-1.54.79.79,0,0,0-.91,1,9.83,9.83,0,0,0,2.51,4.71,5.75,5.75,0,0,0,2.31,1.62,2.63,2.63,0,0,0,3.27-3A2.89,2.89,0,0,0,9.89,17Z" transform="translate(-1.82 -0.39)" fill="#c597dd" stroke="#222" stroke-linecap="round" stroke-linejoin="round" stroke-width="1.73"/>
  <path d="M11.79,17a9.58,9.58,0,0,1,1.74-1.24,11.61,11.61,0,0,1,4.54-1.54.79.79,0,0,1,.91,1,9.83,9.83,0,0,1-2.51,4.71,5.75,5.75,0,0,1-2.31,1.62,2.63,2.63,0,0,1-3.27-3A2.82,2.82,0,0,1,11.79,17Z" transform="translate(-1.82 -0.39)" fill="#ac59d8" stroke="#222" stroke-linecap="round" stroke-linejoin="round" stroke-width="1.73"/>
  <path d="M9.89,22.81a10.66,10.66,0,0,0-1.74-1.24A11.94,11.94,0,0,0,3.61,20a.8.8,0,0,0-.91,1,9.83,9.83,0,0,0,2.51,4.71,5.63,5.63,0,0,0,2.31,1.61,2.63,2.63,0,0,0,3.27-3A3,3,0,0,0,9.89,22.81Z" transform="translate(-1.82 -0.39)" fill="#ac59d8" stroke="#222" stroke-linecap="round" stroke-linejoin="round" stroke-width="1.73"/>
  <path d="M11.79,22.81a10.66,10.66,0,0,1,1.74-1.24A11.94,11.94,0,0,1,18.07,20,.8.8,0,0,1,19,21a9.83,9.83,0,0,1-2.51,4.71,5.63,5.63,0,0,1-2.31,1.61,2.63,2.63,0,0,1-3.27-3A2.89,2.89,0,0,1,11.79,22.81Z" transform="translate(-1.82 -0.39)" fill="#c597dd" stroke="#222" stroke-linecap="round" stroke-linejoin="round" stroke-width="1.73"/>
  <path d="M9.89,28.61a9.58,9.58,0,0,0-1.74-1.24,11.94,11.94,0,0,0-4.54-1.54.79.79,0,0,0-.91,1,9.79,9.79,0,0,0,2.51,4.71,5.75,5.75,0,0,0,2.31,1.62,2.63,2.63,0,0,0,3.27-3A2.91,2.91,0,0,0,9.89,28.61Z" transform="translate(-1.82 -0.39)" fill="#c597dd" stroke="#222" stroke-linecap="round" stroke-linejoin="round" stroke-width="1.73"/>
  <path d="M11.79,28.61a9.58,9.58,0,0,1,1.74-1.24,11.94,11.94,0,0,1,4.54-1.54.79.79,0,0,1,.91,1,9.79,9.79,0,0,1-2.51,4.71,5.75,5.75,0,0,1-2.31,1.62,2.63,2.63,0,0,1-3.27-3A2.85,2.85,0,0,1,11.79,28.61Z" transform="translate(-1.82 -0.39)" fill="#ac59d8" stroke="#222" stroke-linecap="round" stroke-linejoin="round" stroke-width="1.73"/>
  <path d="M11.79,34.41a9.58,9.58,0,0,1,1.74-1.24,11.61,11.61,0,0,1,4.54-1.54.79.79,0,0,1,.91,1,9.79,9.79,0,0,1-2.51,4.71A5.75,5.75,0,0,1,14.16,39a2.63,2.63,0,0,1-3.27-3A2.81,2.81,0,0,1,11.79,34.41Z" transform="translate(-1.82 -0.39)" fill="#c597dd" stroke="#222" stroke-linecap="round" stroke-linejoin="round" stroke-width="1.73"/>
  <path d="M9.89,34.41a9.58,9.58,0,0,0-1.74-1.24,11.61,11.61,0,0,0-4.54-1.54.79.79,0,0,0-.91,1,9.79,9.79,0,0,0,2.51,4.71A5.75,5.75,0,0,0,7.52,39a2.63,2.63,0,0,0,3.27-3A2.88,2.88,0,0,0,9.89,34.41Z" transform="translate(-1.82 -0.39)" fill="#ac59d8" stroke="#222" stroke-linecap="round" stroke-linejoin="round" stroke-width="1.73"/>
</svg>
