<svg xmlns="http://www.w3.org/2000/svg" viewBox="0 0 38 41">
  <title>category-group</title>
  <g>
    <g>
      <g>
        <path d="M11.85,35v2a3,3,0,0,1-3,3h0a3,3,0,0,1-3-3V35.49" transform="translate(0)" fill="#565656"/>
        <path d="M8.86,41a4,4,0,0,1-4-4V35.49h2V37a2,2,0,0,0,4,0V35h2v2A4,4,0,0,1,8.86,41Z" transform="translate(0)" fill="#222"/>
      </g>
      <g>
        <path d="M32.16,35v2a3,3,0,0,1-3,3h0a3,3,0,0,1-3-3V35.49" transform="translate(0)" fill="#565656"/>
        <path d="M29.16,41a4,4,0,0,1-4-4V35.49h2V37a2,2,0,0,0,3.95,0V35h2v2A4,4,0,0,1,29.16,41Z" transform="translate(0)" fill="#222"/>
      </g>
    </g>
    <polygon points="36.16 7.63 1.86 7.63 3.06 2.28 33.85 1.97 36.16 7.63" fill="#2f78d1"/>
    <polygon points="35.34 34.99 19.47 36.55 2.64 34.9 1.62 23.96 36.4 23.96 35.34 34.99" fill="#2f78d1"/>
    <rect x="1.38" y="8.2" width="35.27" height="16.22" fill="#c9e9f4"/>
    <path d="M20.9,37.68c-2.66,0-5.33-.08-8-.22-1.25-.06-2.71-.15-4.14-.34-.8-.1-1.59-.22-2.38-.34l-.15,0c-2-.31-4.46-.69-5.41-3.33a10.48,10.48,0,0,1-.54-3.35c0-.3,0-.61,0-.94A115,115,0,0,1,.09,17l.07-3c0-2,.07-3.14.15-5.61C.44,4.3,2.76,1.28,6.37.56A49.75,49.75,0,0,1,15.61,0L29,0c1.77,0,4,0,5.65,1.22,3.25,2.37,3.32,6.54,3.37,9.58.07,3.85,0,6.3-.1,9.68l0,2c0,.55,0,1.42,0,2.62,0,.89,0,2,0,3.23l0,1.37c0,.56,0,1.13,0,1.69v.32a4.36,4.36,0,0,1-.62,2.65,4.64,4.64,0,0,1-2,1.77,9.48,9.48,0,0,1-2.29.74h0c-.58.11-1.17.19-1.75.27a50,50,0,0,1-5,.39C24.32,37.65,22.62,37.68,20.9,37.68ZM14.71,2.22a43.44,43.44,0,0,0-7.89.51c-2.58.52-4.17,2.68-4.27,5.79-.08,2.46-.11,3.63-.15,5.59l-.07,3A113.5,113.5,0,0,0,2.48,29c0,.35,0,.69,0,1A8.28,8.28,0,0,0,3,32.69c.47,1.33,1.69,1.58,3.64,1.88l.15,0c.77.12,1.55.23,2.32.33,1.36.18,2.76.27,4,.33,4.31.23,8.65.27,12.91.12A46,46,0,0,0,30.75,35c.53-.07,1.07-.14,1.6-.25h0a6.87,6.87,0,0,0,1.74-.55,2.55,2.55,0,0,0,1.07-.9,2.28,2.28,0,0,0,.3-1.51v-.34c0-.58,0-1.17,0-1.75s0-.89,0-1.34q0-1.87,0-3.21,0-1.83,0-2.67l.05-2c.1-3.36.17-5.78.1-9.59-.06-3.34-.28-6.23-2.46-7.82-1.08-.79-2.88-.79-4.32-.79l-13.35,0Z" transform="translate(0)" fill="#222"/>
    <path d="M19,8.2" transform="translate(0)" fill="none" stroke="#222" stroke-miterlimit="10" stroke-width="2"/>
    <path d="M19,8.2" transform="translate(0)" fill="none" stroke="#222" stroke-miterlimit="10" stroke-width="2"/>
    <path d="M2,8.41A39.24,39.24,0,0,0,8.6,9c2.18.1,4.35.16,6.53.2,4.36.07,8.73,0,13.1,0,2.53,0,5.05,0,7.57-.1a.92.92,0,0,0,0-1.84c-8.73-.07-17.46.23-26.19,0L6,7a31.42,31.42,0,0,0-3.76-.06C1.41,7,1.11,8.21,2,8.41Z" transform="translate(0)" fill="#222"/>
    <path d="M1.38,24.91c1.14.12,2.25.35,3.4.42l3.31.19c2.3.12,4.61.17,6.91.23,4.54.12,9.08.22,13.62.27q1.9,0,3.81,0h2a5.62,5.62,0,0,0,1.92-.15.84.84,0,0,0,0-1.62,4.53,4.53,0,0,0-1.56-.15H32.92l-3.31,0c-2.31,0-4.61-.06-6.92-.1-4.54-.08-9.08-.2-13.62-.28-1.26,0-2.53,0-3.8,0s-2.59.15-3.89.21a.49.49,0,0,0,0,1Z" transform="translate(0)" fill="#222"/>
    <g>
      <path d="M7.92,28.19c1.84,0,3.5.2,5.32.26a.76.76,0,0,1,.7.69A9.82,9.82,0,0,1,14,30.78a1.31,1.31,0,0,1-1.25,1.32c-1,0-2.4-.14-3.46-.2A1.48,1.48,0,0,1,8,30.34c0-.65,0-1.3,0-1.87" transform="translate(0)" fill="#ffc200"/>
      <path d="M7.69,28.56a4.25,4.25,0,0,0,1.87.33l1.83.11.86,0a5.38,5.38,0,0,1,.9,0c.07,0,.08,0,.09.07,0,.29,0,.61,0,.91a6.88,6.88,0,0,1,0,.71s-.09.29-.05.21l-.08.14,0,.07c0-.05,0-.05,0,0s.08-.06,0,0l-.1,0c.14-.07-.2,0,0,0a5.49,5.49,0,0,1-.7-.05L10.56,31C10.29,31,10,31,9.75,31l-.33,0s-.23,0-.09,0-.06,0-.09,0,.18.1,0,0-.2-.14-.09-.05,0,0,0-.05L9,30.66c.12.16,0-.08-.07-.14.12.21-.06-.31,0-.09a18.32,18.32,0,0,1-.05-2,.87.87,0,0,0-1.73,0A19,19,0,0,0,7,30.6a2.43,2.43,0,0,0,1,1.89,3.41,3.41,0,0,0,1.89.44c.68,0,1.37,0,2.05,0a3,3,0,0,0,1.81-.37,2.3,2.3,0,0,0,.95-1.77,7.33,7.33,0,0,0,0-1,3.25,3.25,0,0,0-.24-1.16,1.42,1.42,0,0,0-.62-.64,2.73,2.73,0,0,0-1.1-.17l-2.52-.17L9,27.6a2.48,2.48,0,0,0-1.29.21.44.44,0,0,0,0,.75Z" transform="translate(0)" fill="#222"/>
    </g>
    <g>
      <path d="M23.94,28.57c1.84,0,3.51.09,5.32.1a.75.75,0,0,1,.72.66,9.7,9.7,0,0,1,.1,1.64,1.31,1.31,0,0,1-1.21,1.36c-1,0-2.41-.07-3.47-.09A1.47,1.47,0,0,1,24,30.72c0-.64,0-1.29,0-1.87" transform="translate(0)" fill="#ffc200"/>
      <path d="M23.71,29a4.22,4.22,0,0,0,1.87.27l1.83.05h1.27a1.88,1.88,0,0,1,.58,0c-.05,0,0,.1,0,0a3.91,3.91,0,0,1,0,.91,5.58,5.58,0,0,1,0,.82c0-.11-.08.23,0,.1a1.09,1.09,0,0,1-.08.15l0,.06h0l-.07.06c.06,0-.05,0-.05,0-.16.06,0,0,0,0l-.15,0c.18,0-.15,0-.19,0l-.37,0-1.63-.13-.81-.05h-.52c-.12,0,.19,0,0,0s-.13-.07,0,0c0,0-.22-.11-.09,0s0,0-.05,0L25.1,31s.11.16,0,0L25,30.9c-.09-.16,0,0,0,0a2.33,2.33,0,0,1-.07-.25s0,.14,0,0a2.83,2.83,0,0,0,0-.29c0-.17,0-.34,0-.51,0-.34,0-.68-.05-1a.87.87,0,0,0-1.73,0,16.86,16.86,0,0,0,0,2.13,2.46,2.46,0,0,0,1.06,1.87,3.29,3.29,0,0,0,1.9.39c.69,0,1.38,0,2.06,0a3,3,0,0,0,1.9-.5,2.21,2.21,0,0,0,.82-1.7A7.54,7.54,0,0,0,30.79,30a3.21,3.21,0,0,0-.26-1.14,1.42,1.42,0,0,0-.63-.63A2.33,2.33,0,0,0,28.79,28C28,28,27.11,28,26.27,28H25a2.41,2.41,0,0,0-1.29.25.44.44,0,0,0,0,.75Z" transform="translate(0)" fill="#222"/>
    </g>
    <path d="M16.29,5.45a9.79,9.79,0,0,0,2.35.26c.37,0,.75,0,1.12,0a11.42,11.42,0,0,0,1.17,0,.8.8,0,1,0,0-1.59c-.39,0-.78.07-1.17.09l-1.12,0a16.76,16.76,0,0,0-2.35.15c-.54.1-.47.87,0,1Z" transform="translate(0)" fill="#222"/>
  </g>
  <path d="M13.81,24.46a2.79,2.79,0,0,0-.75-1c-.28-.28-.55-.55-.82-.84-.58-.61-1.18-1.2-1.75-1.82s-1.15-1.29-1.69-2l-.32-.41-.37-.5A5.62,5.62,0,0,0,7,16.6a1.19,1.19,0,0,0-1.29.09,1.15,1.15,0,0,0-.41,1.21,4.49,4.49,0,0,0,.93,1.41c.27.32.53.64.81,1,.6.68,1.22,1.33,1.87,2a25.08,25.08,0,0,0,1.86,1.72c.31.26.61.51.92.75a2.86,2.86,0,0,0,1.15.7.77.77,0,0,0,.94-.93Z" transform="translate(0)" fill="#222"/>
  <path d="M26.52,24.47a2.42,2.42,0,0,0-.77-1.06c-.3-.31-.6-.61-.89-.92-.65-.68-1.31-1.34-1.95-2s-1.35-1.47-2-2.22c-.31-.36-.63-.73-.93-1.1a5.3,5.3,0,0,0-1.14-1.22c-.82-.49-2.06.34-1.7,1.29a4.73,4.73,0,0,0,1.09,1.47c.33.36.65.71,1,1,.72.75,1.46,1.49,2.2,2.21s1.39,1.33,2.12,1.95c.32.28.65.55,1,.81a2.43,2.43,0,0,0,1.31.69.74.74,0,0,0,.71-.93Z" transform="translate(0)" fill="#222"/>
</svg>
