<svg xmlns="http://www.w3.org/2000/svg" viewBox="0 0 40.72 40.32">
  <title>category-sport</title>
  <polygon points="13.97 9.88 16.72 9.28 18.32 10.2 23.14 6.99 20.62 1.37 17.98 0.79 8.69 4 6.17 9.16 1.03 28.41 2.85 31.41 5.37 32.1 12.36 36.91 18.9 38.18 27.84 37.03 35.18 39.32 40.1 39.22 40.1 19.95 34.49 18.68 30.25 19.26 26.47 22.01 21.65 21.2 17.75 21.09 14.01 22.35 13.85 19.14 13.97 9.88" fill="#ffd29c"/>
  <path d="M13.21,25.16A9.37,9.37,0,0,1,21,22c2.59.11,6.9,1,6.35,4.5-.19,1.19,1.64,1.71,1.82.5.63-4-2.56-6.05-6.16-6.67-4.11-.72-8.3.29-11.11,3.49-.8.91.53,2.25,1.34,1.34Z" transform="translate(0 -0.05)" fill="#222"/>
  <path d="M27.42,22.82c2.29-3.76,8.22-2.93,11.66-1.45,1.25.54,2.35-1.31,1.08-1.85-4.6-2-11.6-2.7-14.59,2.21a1.07,1.07,0,0,0,1.85,1.09Z" transform="translate(0 -0.05)" fill="#222"/>
  <path d="M12.72,10.91c1.21.05,2.6-.56,3.66-.53,1.69.06,2.3,1.3,4.27.27,2.87-1.5,3.05-4.64,1.47-7-3.38-5.15-6-3.82-10.89-1.6C5.29,4.72,4.66,10.33,2.72,16.28,1.62,19.65-1.62,27.41,1,30.92c1.4,1.89,4.19,1.81,6,3.25,1.59,1.28,2.55,2.52,4.53,3.32A22.41,22.41,0,0,0,21,38.81c1.81-.08,5.19-1.19,6.64-.93.91.16,2.07,1.06,3,1.36a31.73,31.73,0,0,0,9,1.13.9.9,0,0,0,0-1.8,28.5,28.5,0,0,1-10-1.62c-.6-.24-1-.72-1.66-.84-1.8-.34-4.3.74-6.19.86A27.91,27.91,0,0,1,17,37a13.63,13.63,0,0,1-7.28-2.54C8.86,33.71,8.29,32.63,7.4,32c-2.88-2.13-5.54-.78-5.1-6.48.28-3.77,1.78-7.71,3-11.22,1.73-4.9,2.61-8.85,7.88-11.15C15.55,2.11,16.7.7,19.3,3c2.43,2.16,2,8.7-2.44,5.5a.88.88,0,0,0-.91,0,5.13,5.13,0,0,1-3.23.59c-1.16,0-1.16,1.75,0,1.8Z" transform="translate(0 -0.05)" fill="#222"/>
  <path d="M10.58,31.87c0,.65.63,1,1.11,1.39a7.14,7.14,0,0,0,1.76.9,9.46,9.46,0,0,0,1.89.45c.67.09,1.33.26,2,.33a11.54,11.54,0,0,0,4.09-.4c.66-.16,1.32-.35,2-.56s1.68-.43,2.07-1.19a1.17,1.17,0,0,0-.42-1.58c-1.19-.54-2.64.3-3.83.62s-2.47.55-3.69.84a6,6,0,0,1-1.68.29,8.19,8.19,0,0,1-1.7-.3A8.83,8.83,0,0,1,12.53,32c-.53-.27-1-.71-1.59-.6a.5.5,0,0,0-.36.47Z" transform="translate(0 -0.05)" fill="#d8a16f"/>
  <path d="M31,32.86a3.82,3.82,0,0,1,.31.47l-.16-.39a1.65,1.65,0,0,0,.08.59,1.6,1.6,0,0,0,.32.45,3.48,3.48,0,0,0,.74.64,7.21,7.21,0,0,0,1.54.72,5.31,5.31,0,0,0,3.25-.05,2.36,2.36,0,0,0,1-.53,2.19,2.19,0,0,0,.55-.83,1,1,0,0,0-.14-.94,1.2,1.2,0,0,0-.93-.42,5,5,0,0,0-1.57.24c-.22.06-.44.1-.67.14s.25,0-.06,0l-.36,0h-.53c-.06,0-.3,0-.06,0a4.22,4.22,0,0,1-.79-.23s.18.09,0,0l-.19-.09a4.35,4.35,0,0,0-.54-.22l-.43-.13a1.23,1.23,0,0,0-.8.1h.3c-.21,0-.39,0-.55-.07a.31.31,0,0,0-.3.52Z" transform="translate(0 -0.05)" fill="#d8a16f"/>
  <path d="M13.43,9.82a5.82,5.82,0,0,0-.35,3.07c0,1.1-.07,2.2-.08,3.3s-.08,2.19-.07,3.29c0,.54.09,1.09.09,1.63s0,1.09,0,1.63c.05,1.31,2.1,1,1.75-.24a8.26,8.26,0,0,1-.37-1.62c0-.54,0-1.09,0-1.64A30.37,30.37,0,0,1,14.67,16c.13-1.1.19-2.19.26-3.29a3.93,3.93,0,0,0-.67-2.95.54.54,0,0,0-.83.11Z" transform="translate(0 -0.05)" fill="#222"/>
</svg>
