<?xml version="1.0" encoding="utf-8"?>
<!-- Generator: Adobe Illustrator 24.0.0, SVG Export Plug-In . SVG Version: 6.00 Build 0)  -->
<svg version="1.1" id="레이어_1" xmlns="http://www.w3.org/2000/svg" xmlns:xlink="http://www.w3.org/1999/xlink" x="0px"
	 y="0px" width="7.7px" height="7.8px" viewBox="0 0 7.7 7.8" style="enable-background:new 0 0 7.7 7.8;" xml:space="preserve">
<style type="text/css">
	.st0{fill:#CCCCCC;}
</style>
<g>
	<path class="st0" d="M7.3,5.4C7.1,5.1,6.9,4.9,6.7,4.6C6.3,4.2,5.9,3.7,5.5,3.3c0,0,0-0.1,0.1-0.1c0.3-0.4,0.8-0.7,1.1-1.1
		C6.8,1.9,6.8,1.6,7,1.4C7.1,1.2,7.2,1,7.2,0.7c0-0.3-0.2-0.4-0.5-0.3C5.9,0.5,5.2,1.2,4.6,1.7C4.4,1.8,4.3,2,4.2,2.1
		C4,1.9,3.8,1.8,3.6,1.6C3.3,1.3,3,1.1,2.6,0.9C2.5,0.8,2.4,0.7,2.2,0.6c0,0,0,0,0,0C2-0.1,1-0.2,0.7,0.5C0.5,1.4,1.3,2,1.9,2.5
		C2.2,2.7,2.4,3,2.7,3.3c0.1,0.1,0.1,0.1,0.2,0.2C2.4,4,1.8,4.6,1.3,5.2C1.2,5.3,1.1,5.4,1,5.5C1,5.6,0.9,5.7,0.8,5.8c0,0,0,0,0,0.1
		c0,0,0,0,0,0c0,0,0,0,0,0c0,0,0,0,0,0c0,0,0,0,0,0C0.5,6.1,0.4,6.1,0.3,6.2c0,0,0,0,0,0C0.2,6.4,0.1,6.5,0,6.6
		c-0.1,0.5,0.2,1,0.6,1.1c0.6,0.1,1.2-0.2,1.5-0.6C2.3,7,2.3,6.9,2.4,6.8c0,0,0,0,0,0c0,0,0,0,0,0c0,0,0.1-0.1,0.1-0.1
		c0.3-0.4,0.6-0.7,1-1.1C3.7,5.3,4,5.1,4.2,4.8c0.3,0.3,0.6,0.7,0.9,1c0.5,0.6,1.1,1.1,2,1.2c0.3,0,0.6-0.2,0.6-0.5
		C7.8,6,7.6,5.7,7.3,5.4z"/>
	<path class="st0" d="M2.4,6.8C2.6,6.6,2.5,6.7,2.4,6.8L2.4,6.8z"/>
</g>
</svg>
