<?xml version="1.0" encoding="utf-8"?>
<!-- Generator: Adobe Illustrator 16.0.0, SVG Export Plug-In . SVG Version: 6.00 Build 0)  -->
<!DOCTYPE svg PUBLIC "-//W3C//DTD SVG 1.1//EN" "http://www.w3.org/Graphics/SVG/1.1/DTD/svg11.dtd">
<svg version="1.1" id="Layer_1" xmlns="http://www.w3.org/2000/svg" xmlns:xlink="http://www.w3.org/1999/xlink" x="0px" y="0px"
	 width="29.904px" height="45.829px" viewBox="0 0 29.904 45.829" enable-background="new 0 0 29.904 45.829" xml:space="preserve">
<g>
	<defs>
		<rect id="SVGID_1_" width="29.904" height="45.829"/>
	</defs>
	<clipPath id="SVGID_2_">
		<use xlink:href="#SVGID_1_"  overflow="visible"/>
	</clipPath>
	<path clip-path="url(#SVGID_2_)" fill="#AF764F" d="M14.778,2.43c-0.422,0.135-0.791,0.16-1.229,0.116
		c0.064,0.477,0.129,0.953,0.193,1.43c0.671-0.157,1.332-0.242,2.02-0.263c0.974-0.028,0.978-1.545,0-1.516
		c-1.125,0.032-2.242-0.001-3.362-0.106v1.565c1.156-0.036,2.31-0.111,3.46-0.226c1.013-0.101,1.06-1.607,0-1.611
		c-0.874-0.004-1.748-0.004-2.622-0.006c0.072,0.531,0.143,1.062,0.216,1.594c0.612-0.104,1.224-0.165,1.844-0.198
		c1.065-0.054,1.03-1.519,0-1.63c-1.132-0.121-2.263-0.242-3.395-0.366c-0.592-0.064-0.862,0.576-0.794,1.043
		c0.105,0.731,0.027,2.051,0.725,2.503c0.627,0.406,1.766,0.176,2.47,0.176c0.736-0.001,1.79,0.179,2.365-0.421
		c0.613-0.639,0.462-1.913,0.438-2.711c-0.032-1.085-1.677-1.091-1.689,0c-0.013,1.006-0.027,2.012-0.041,3.017
		c0.369-0.282,0.736-0.562,1.106-0.843c-1.467-0.253-2.936-0.371-4.425-0.333c-1.464,0.037-0.911,2.383,0.458,1.692
		c0.169-0.085,0.295-0.18,0.434-0.306c0.259-0.237,0.266-0.727,0-0.961c-0.141-0.124-0.264-0.219-0.434-0.301
		c-0.153,0.564-0.305,1.128-0.458,1.692c1.326-0.053,2.647,0.004,3.96,0.203c0.548,0.083,1.111-0.221,1.107-0.843
		c-0.007-1.005-0.016-2.011-0.019-3.017H15.42c0.009,0.267,0.149,1.131-0.015,1.346c0.109,0.17,0.015,0.205-0.282,0.106
		c-0.163,0-0.327,0.001-0.49,0.002c-0.381,0.001-0.763,0.003-1.144,0.005c-0.218,0-0.436,0.002-0.654,0.003
		c-0.38-0.031-0.433-0.013-0.159,0.057c0.127,0.166,0.255,0.331,0.383,0.497c-0.243-0.597-0.262-1.364-0.359-2
		c-0.265,0.347-0.53,0.695-0.795,1.043c1.132,0.114,2.264,0.231,3.395,0.347v-1.63c-0.765,0.042-1.521,0.133-2.276,0.263
		c-0.916,0.157-0.679,1.595,0.216,1.593c0.874-0.001,1.748-0.002,2.622-0.005V1.819c-1.15,0.131-2.304,0.221-3.46,0.272
		c-1.015,0.045-0.998,1.485,0,1.565c1.12,0.089,2.239,0.11,3.362,0.057V2.197c-0.817,0.046-1.614,0.168-2.407,0.376
		c-0.826,0.216-0.6,1.372,0.194,1.428c0.636,0.046,1.168-0.089,1.736-0.368C15.954,3.305,15.486,2.204,14.778,2.43"/>
	<path clip-path="url(#SVGID_2_)" fill="#FFFFFF" d="M6.731,23.436c1.444-0.88,2.322-2.383,2.715-3.927
		c0.393-1.545,1.016-6.326,0.976-7.911c-0.075-3.03-0.255-2.973-0.331-6.003c2.481,0.003,4.406,0.095,6.886,0.098
		c0.204,2.896-0.262,5.822,0.169,8.699c0.541,3.614,2.542,7.032,5.533,9.451c-4.666,1.413-9.747,0.614-14.583-0.199"/>
	<path clip-path="url(#SVGID_2_)" fill="#FFFFFF" d="M7.017,23.926c6.046-2.655,4.234-13.19,3.996-18.331
		c-0.308,0.308-0.615,0.614-0.922,0.922c2.299,0.055,4.59,0.251,6.886,0.374c-0.398-0.4-0.799-0.799-1.198-1.198
		c-0.23,7.571-0.163,13.796,5.854,19.196c0.217-0.824,0.436-1.65,0.653-2.474c-4.571,1.049-9.181,0.34-13.742-0.396
		c-2.116-0.342-3.039,2.884-0.896,3.249c5.225,0.891,10.256,1.497,15.425,0.002c0.997-0.289,1.533-1.73,0.652-2.474
		c-2.438-2.058-4.276-4.557-5.016-7.701c-0.724-3.085-0.184-6.282-0.534-9.402c-0.069-0.624-0.492-1.229-1.199-1.2
		c-2.294,0.093-4.589,0.156-6.886,0.181C9.601,4.68,9.159,5.092,9.17,5.595c0.121,5.728,1.1,12.752-2.841,17.439
		C5.902,23.543,6.425,24.187,7.017,23.926"/>
	<path clip-path="url(#SVGID_2_)" fill="#E2D086" d="M10.213,25.339c1.937,1.022,4.231,1.473,5.796-0.481
		c0.46-0.576,0.885-1.183,1.421-1.693c0.121-0.115,0.249-0.228,0.401-0.298c0.688-0.317,1.336,0.713,1.674,1.162
		c2.572,3.415,5.315,7.44,4.559,11.896c-0.352,2.07-1.915,2.84-3.788,3.878c-0.874,0.484-9.439,0.247-11.125-0.585
		c-2.286-1.129-3.092-3.3-3.107-5.807c-0.015-2.507,2.086-6.204,4.049-7.83c-0.037,0.545-1.002,2.296-1.039,2.841"/>
	<path clip-path="url(#SVGID_2_)" fill="#E2D086" d="M9.794,26.056c2.866,1.602,4.393,1.13,6.917-0.495
		c1.558-1.001,1.264-1.264,2.642-0.086c0.805,0.688,1.441,2.085,1.956,3.034c1.644,3.04,3.327,8.235-1.138,10.013
		c-2.451,0.977-6.282,0.403-8.851,0.01c-6.687-1.028-3.797-9.001-0.432-12.152c-0.629-0.365-1.257-0.731-1.886-1.097
		c-0.256,0.98-0.814,1.848-1.094,2.824c-0.42,1.473,1.932,2.113,2.287,0.632c0.236-0.985,0.726-1.881,0.983-2.856
		c0.291-1.109-1.069-1.861-1.885-1.097c-3.623,3.385-6.473,10.01-2.396,14.206c2.692,2.771,9.49,2.862,12.976,2.093
		c5.948-1.312,6.246-7.368,4.062-12.028c-0.887-1.888-2.964-6.33-5.176-7.084c-0.828-0.282-1.179-0.01-1.83,0.335
		c-0.724,0.382-0.981,1.416-1.625,1.847c-1.517,1.013-3.285,0.995-4.872,0.386C9.547,24.2,8.987,25.604,9.794,26.056"/>
	<path clip-path="url(#SVGID_2_)" d="M17.774,5.738c-0.273,3.474-0.736,6.932,0.367,10.306c1.159,3.548,3.637,6.396,5.791,9.371
		c3.176,4.388,5.515,9.145,2.162,14.274c-3.296,5.04-10.983,4.405-16.169,3.533c-8.698-1.462-8.702-9.496-5.194-15.772
		c1.538-2.753,3.692-5.097,4.987-7.991c1.966-4.396,2.362-9.825,0.867-14.443c-0.367,0.481-0.733,0.961-1.099,1.443
		c1.153-0.023,8.208-0.153,8.141-0.455c0.253,1.136,1.901,0.817,1.956-0.266c0.011-0.2,0.021-0.401,0.031-0.602
		c0.03-0.589-0.519-1.067-1.078-1.077c-3.016-0.053-6.034,0.057-9.05,0.12C8.777,4.194,8.151,4.9,8.387,5.623
		c1.195,3.667,1.074,8.012-0.196,11.625C6.396,22.36,2.145,26.148,0.52,31.42c-1.119,3.634-0.412,7.41,1.946,10.412
		c2.612,3.325,6.981,3.753,10.983,3.952c7.514,0.375,15.53-1.485,16.399-10.316c0.464-4.708-1.987-8.174-4.677-11.792
		c-1.776-2.389-3.783-4.768-4.953-7.531c-1.464-3.454-1.046-6.772-0.818-10.407C19.465,4.69,17.856,4.705,17.774,5.738"/>
	<path clip-path="url(#SVGID_2_)" d="M10.571,8.871C9.554,7.887,6.599,8.174,5.367,8.618c-1.559,0.563-2.528,2.029-2.681,3.647
		c-0.151,1.596,0.375,3.449,1.496,4.625c1.382,1.449,3.241,1.248,5.049,0.875c1.456-0.301,0.841-2.538-0.615-2.231
		c-1.153,0.243-2.322,0.504-3.059-0.61c-0.556-0.84-0.819-2.147-0.488-3.113c0.876-2.555,4.212-0.458,5.502-2.123
		C10.76,9.444,10.818,9.11,10.571,8.871"/>
	<path clip-path="url(#SVGID_2_)" d="M12.162,5.09c-0.274-1.36-0.726-2.682-0.713-4.082c-0.272,0.272-0.543,0.544-0.815,0.815
		C12.756,1.697,14.883,1.649,17,1.887c-0.303-0.303-0.607-0.607-0.91-0.909c0.05,1.469-0.737,2.886-0.603,4.314
		c0.072,0.783,1.051,1.115,1.505,0.407c0.803-1.254,1.041-3.258,0.917-4.721C17.866,0.47,17.527,0.091,17,0.068
		c-2.132-0.094-4.243-0.123-6.366,0.126c-0.431,0.049-0.826,0.332-0.816,0.814c0.032,1.548,0.492,2.999,0.894,4.481
		C10.968,6.431,12.351,6.03,12.162,5.09"/>
	<path clip-path="url(#SVGID_2_)" fill="#FFFFFF" d="M18.493,28.162c-0.15,0.752,0.253,1.104,0.701,1.678
		c0.869,1.114,1.245,2.097,1.016,3.528c0.441,0.061,0.885,0.119,1.326,0.18c0.054-0.551,0.011-1.036-0.168-1.558
		c-0.209-0.609-0.302-1.188-0.468-1.806c-0.282-1.044-1.011-1.862-1.741-2.626c-0.473-0.495-1.271,0.019-1.115,0.648
		c0.227,0.917,0.832,1.609,1.348,2.381c0.714,1.068,0.982,2.136,0.67,3.398c-0.209,0.843,1.092,1.203,1.303,0.359
		c0.272-1.095,0.267-2.194-0.159-3.251c-0.463-1.153-1.564-2.041-1.875-3.242c-0.371,0.216-0.742,0.433-1.114,0.648
		c0.721,0.784,1.285,1.455,1.472,2.54c0.15,0.865,0.584,1.607,0.497,2.507c-0.072,0.75,1.206,0.933,1.328,0.18
		c0.167-1.029,0.247-2.003-0.165-2.984c-0.438-1.04-1.419-1.719-1.87-2.71C19.288,27.617,18.581,27.726,18.493,28.162"/>
	<path clip-path="url(#SVGID_2_)" fill="#FFFFFF" d="M19.563,36.522c-0.097,0.034-0.196,0.061-0.298,0.074
		c0.249,0.323,0.498,0.647,0.746,0.971c0.008-0.013,0.016-0.024,0.023-0.038c-0.249,0.102-0.499,0.203-0.748,0.306
		c0.021,0.003,0.04,0.006,0.061,0.01c-0.132-0.102-0.266-0.204-0.398-0.305c0.01,0.016,0.02,0.033,0.028,0.05
		c0.035-0.271,0.07-0.541,0.104-0.812c0.045-0.021,0.091-0.042,0.136-0.063c0.174,0.413,0.348,0.827,0.521,1.239l0.167-0.112
		c0.609-0.409,0.248-1.51-0.527-1.25c-0.219,0.075-0.427,0.146-0.631,0.258c-0.688,0.379-0.203,1.372,0.516,1.222
		c0.174-0.036,0.315-0.095,0.479-0.161c-0.176-0.416-0.351-0.833-0.526-1.248c-0.054,0.04-0.107,0.08-0.161,0.121
		c-0.7,0.531-0.122,1.513,0.684,1.171c0.186-0.078,0.287-0.2,0.395-0.365c0.12-0.186,0.13-0.491,0-0.675
		c-0.178-0.255-0.36-0.359-0.671-0.384c-0.214-0.017-0.479,0.136-0.572,0.328c-0.006,0.015-0.014,0.027-0.02,0.041
		c-0.371,0.766,0.664,1.377,1.141,0.667c0.108-0.162,0.166-0.337,0.24-0.516C20.422,36.644,19.886,36.355,19.563,36.522"/>
</g>
</svg>
