<svg xmlns="http://www.w3.org/2000/svg" viewBox="0 0 40.72 40.29">
  <title>category-sport-gray</title>
  <polygon points="13.97 9.85 16.72 9.24 18.32 10.16 23.14 6.96 20.62 1.33 17.98 0.76 8.69 3.96 6.17 9.13 1.03 28.38 2.85 31.38 5.37 32.06 12.36 36.88 18.9 38.15 27.84 36.99 35.18 39.28 40.1 39.19 40.1 19.91 34.49 18.64 30.25 19.23 26.47 21.98 21.65 21.16 17.75 21.05 14.01 22.32 13.85 19.11 13.97 9.85" fill="#dadada"/>
  <path d="M13.21,25.11A9.37,9.37,0,0,1,21,22c2.59.11,6.9,1,6.35,4.5-.19,1.19,1.64,1.71,1.82.5.63-4-2.56-6.05-6.16-6.67-4.11-.72-8.3.29-11.11,3.49-.8.91.53,2.25,1.34,1.34Z" transform="translate(0 -0.04)" fill="#222"/>
  <path d="M27.42,22.77c2.29-3.76,8.22-2.93,11.66-1.45,1.25.54,2.35-1.31,1.08-1.85-4.6-2-11.6-2.7-14.59,2.21a1.07,1.07,0,0,0,1.85,1.09Z" transform="translate(0 -0.04)" fill="#222"/>
  <path d="M12.72,10.86c1.21.05,2.6-.56,3.66-.53,1.69.06,2.3,1.3,4.27.27,2.87-1.5,3.05-4.64,1.47-7-3.38-5.15-6-3.82-10.89-1.6C5.29,4.67,4.66,10.28,2.72,16.23,1.62,19.6-1.62,27.36,1,30.87c1.4,1.89,4.19,1.81,6,3.25,1.59,1.28,2.55,2.52,4.53,3.32A22.29,22.29,0,0,0,21,38.76c1.81-.08,5.19-1.19,6.64-.93.91.16,2.07,1.06,3,1.36a31.44,31.44,0,0,0,9,1.13.9.9,0,0,0,0-1.8,28.61,28.61,0,0,1-10-1.62c-.6-.24-1-.72-1.66-.84-1.8-.34-4.3.74-6.19.86A27.37,27.37,0,0,1,17,37a13.64,13.64,0,0,1-7.28-2.54C8.86,33.66,8.29,32.58,7.4,32c-2.88-2.13-5.54-.78-5.1-6.48.28-3.77,1.78-7.71,3-11.22C7,9.35,7.91,5.4,13.18,3.1,15.55,2.06,16.7.65,19.3,3c2.43,2.16,2,8.7-2.44,5.5a.88.88,0,0,0-.91,0A5.11,5.11,0,0,1,12.72,9a.9.9,0,0,0,0,1.8Z" transform="translate(0 -0.04)" fill="#222"/>
  <path d="M10.58,31.82c0,.65.63,1,1.11,1.39a7.14,7.14,0,0,0,1.76.9,9.46,9.46,0,0,0,1.89.45c.67.09,1.33.26,2,.33a11.52,11.52,0,0,0,4.09-.4c.66-.16,1.32-.35,2-.56s1.68-.43,2.07-1.19a1.17,1.17,0,0,0-.42-1.58c-1.19-.54-2.64.3-3.83.62s-2.47.55-3.69.84a6,6,0,0,1-1.68.29,8.07,8.07,0,0,1-1.7-.3A9,9,0,0,1,12.53,32c-.53-.27-1-.71-1.59-.6A.49.49,0,0,0,10.58,31.82Z" transform="translate(0 -0.04)" fill="#acacac"/>
  <path d="M31,32.81a4.76,4.76,0,0,1,.31.47l-.16-.39a1.68,1.68,0,0,0,.08.59,1.6,1.6,0,0,0,.32.45,3.48,3.48,0,0,0,.74.64,7.21,7.21,0,0,0,1.54.72,5.31,5.31,0,0,0,3.25,0,2.31,2.31,0,0,0,1-.53,2.23,2.23,0,0,0,.55-.83,1,1,0,0,0-.14-.94,1.18,1.18,0,0,0-.93-.42,5.25,5.25,0,0,0-1.57.24c-.22.06-.44.1-.67.14s.25,0-.06,0h-.95a4.45,4.45,0,0,1-.79-.23h0l-.19-.09a3.6,3.6,0,0,0-.54-.22l-.43-.13a1.23,1.23,0,0,0-.8.1h.3a1.36,1.36,0,0,1-.55-.07.3.3,0,0,0-.38.22.31.31,0,0,0,.08.3Z" transform="translate(0 -0.04)" fill="#acacac"/>
  <path d="M13.43,9.77a5.84,5.84,0,0,0-.35,3.07c0,1.1-.07,2.2-.08,3.3s-.08,2.19-.07,3.29c0,.54.09,1.09.09,1.63v1.63c.05,1.31,2.1,1,1.75-.24a8.26,8.26,0,0,1-.37-1.62V19.19A29.28,29.28,0,0,1,14.67,16c.13-1.1.19-2.19.26-3.29a3.92,3.92,0,0,0-.67-2.95.55.55,0,0,0-.76,0l-.07.09Z" transform="translate(0 -0.04)" fill="#222"/>
</svg>
