<svg xmlns="http://www.w3.org/2000/svg" viewBox="0 0 44.89 39.36">
  <title>category-deep-tissue-gray</title>
  <g>
    <path d="M33.16.5c-1,.48-1.71,2-2.54,2.33a21.26,21.26,0,0,1-4.49,1.33c-4,.66-8.33,2.5-11,5.51-1.18,1.33-3.5,3.23-3.63,5s-.43,2.19.74,2.89a2.35,2.35,0,0,0-.05.37A4.27,4.27,0,0,0,15.24,22c-1.23,1.37-2.59,1.3-4.34,2.07-1.14.5-1.73.37-2.62,1.37a2.66,2.66,0,0,0,.08,3.22A3.43,3.43,0,0,0,10.8,30.2a2.41,2.41,0,0,0,2.08,4.05c1.24-.24,2.79,0,4.09-.61A11.94,11.94,0,0,0,19.08,33a8.49,8.49,0,0,0,4-2.35c1.27-1.25,2.14-2.75,3.29-4.09a24.85,24.85,0,0,1,1.91-1.93,3.75,3.75,0,0,0,.91-.36c.64-.38,1.28-.77,1.89-1.18,0,.1,0,.19-.07.29-.35,2-.09,5.34-1.29,7A2.61,2.61,0,0,0,30.36,34a2.66,2.66,0,0,0,1.19.45c5.73.7,7.3-10.43,8.39-14.33.4-1.42.32-3.36.88-4.66a36,36,0,0,1,3-5.08C44.34,9.76,34.89-.37,33.16.5ZM11.86,29.28C11.51,29.55,11.5,29.42,11.86,29.28Z" transform="translate(0)" fill="#dadada"/>
    <path d="M13.4,17.31c-2-.68-2.4-2.46-1.1-4.09a29.67,29.67,0,0,1,3.83-3.34C19.48,7,23.53,4.13,28.22,4.29c2.71.09,3.49-1.87,5.05-3.29" transform="translate(0)" fill="none" stroke="#222" stroke-linecap="round" stroke-linejoin="round" stroke-width="2"/>
    <path d="M18.61,13c-1.55.21-2.94,1.43-4.12,2.4s-2.37,1.91-2.62,3.34a3.38,3.38,0,0,0,2.73,3.91,3.47,3.47,0,0,0,1.47-.07c1.26-.34.69-2.07-.52-1.9a1.39,1.39,0,0,1-1.5-1.89c.28-.69,1.38-1.43,1.91-1.91,1.07-1,2.46-1.88,3.2-3.16C19.4,13.31,19,13,18.61,13Z" transform="translate(0)" fill="#222"/>
    <path d="M21.58,17.21c-1.35,1.08-2.79,2.05-4.15,3.13a49.17,49.17,0,0,1-3.89,3.33c-1.37.86-3,1-4.48,1.69s-2.29,1.72-1.64,3.22S9.36,30.2,10.74,30" transform="translate(0)" fill="none" stroke="#222" stroke-linecap="round" stroke-linejoin="round" stroke-width="1.81"/>
    <path d="M24.19,21.41c-3.24,3-6.27,6.64-10.61,8a24.66,24.66,0,0,1-3.07.66A1.29,1.29,0,0,0,9.36,31.2a2,2,0,0,0,.31,1.22c1.85,3,6.4,2.25,9.1,1a27.6,27.6,0,0,0,8.87-7,20.61,20.61,0,0,0,1.6-2c.38-.57.87-1.37,1.63-1.46a10,10,0,0,1-.67,4.33C29.58,29.1,28,33,30,34.45c1.52,1.17,3.51.13,4.59-1.1A13.66,13.66,0,0,0,36.72,29a79.64,79.64,0,0,0,2.64-7.56c.74-2.56,1-5.14,1.56-7.73A2.9,2.9,0,0,1,42,12.13a11.36,11.36,0,0,0,1.89-2.42" transform="translate(0)" fill="none" stroke="#222" stroke-linecap="round" stroke-linejoin="round" stroke-width="2"/>
    <path d="M3.41,27.09c-.66-.05-1.5.69-1.95,1.12a4.61,4.61,0,0,0-1.2,2,6.41,6.41,0,0,0,.53,4.87,8.08,8.08,0,0,0,3.79,3.54,8.46,8.46,0,0,0,2.7.73,4.5,4.5,0,0,0,1.46-.13A3.69,3.69,0,0,0,10,38.88a.37.37,0,0,0,.11-.53.43.43,0,0,0-.2-.15,10,10,0,0,0-1.1-.09,7.15,7.15,0,0,1-1.17-.24,9.79,9.79,0,0,1-2.06-.62,7.22,7.22,0,0,1-3.29-2.77,5,5,0,0,1-.71-3.82,6.42,6.42,0,0,1,.75-1.77,2.57,2.57,0,0,1,.57-.74,4,4,0,0,0,.74-.62.29.29,0,0,0-.1-.4.26.26,0,0,0-.15,0Z" transform="translate(0)" fill="#222"/>
    <path d="M4.13,30.41a2.3,2.3,0,0,0-.68,1.79A3.26,3.26,0,0,0,4.07,34a4,4,0,0,0,3.52,1.66.86.86,0,0,0,.8-.6V35l-.28.36h.05a.58.58,0,0,0,.21-.79.53.53,0,0,0-.21-.21H8.11l.28.37v0a.86.86,0,0,0-.8-.6H7a4.64,4.64,0,0,1-.73-.2h0L6,33.56l-.27-.17c-.17-.11.12.11,0,0l-.13-.11A2.37,2.37,0,0,1,5.33,33l-.1-.12c-.05,0-.08-.1,0,0-.06-.1-.13-.19-.18-.29s0-.1-.08-.14-.09-.21,0-.06a2.66,2.66,0,0,1-.2-1,4.82,4.82,0,0,1,0-.76.34.34,0,0,0-.35-.33.31.31,0,0,0-.22.09Z" transform="translate(0)" fill="#222"/>
  </g>
</svg>
