<svg xmlns="http://www.w3.org/2000/svg" xmlns:xlink="http://www.w3.org/1999/xlink" viewBox="0 0 41.64 40.31">
  <defs>
    <clipPath id="a">
      <polyline points="27.85 37.88 34.29 37.88 30.52 27.49 33.59 18.21" fill="none"/>
    </clipPath>
    <clipPath id="b">
      <polyline points="8.42 17.68 11.66 27.07 7.39 37.46 27.73 39.41" fill="none" clip-path="url(#a)"/>
    </clipPath>
    <clipPath id="c" transform="translate(0 0.01)">
      <path d="M33.32,22.32l7.42-2.6A66.07,66.07,0,0,0,36.13,8.14a8.51,8.51,0,0,0-3.22-3.75c-1.6-.84-3.58-.62-5.31-.58a9.53,9.53,0,0,0-1.51-2.16c-.94-.79-8.67-.26-9.66-.26s-1.81,2.54-1.81,2.54-2.62-.11-2.93-.1a7.55,7.55,0,0,0-2.78.49C6.6,5.32,5.6,7.78,4.67,9.91a69.31,69.31,0,0,0-3.38,8.41c-.13.44-.25.89-.39,1.33l7.7,2" fill="none" clip-path="url(#b)"/>
    </clipPath>
  </defs>
  <title>category-franchise-gray</title>
  <polyline points="10.12 20.03 20.11 36.37 27.35 39.41 30.32 34.44 33.41 15.28" fill="#505050"/>
  <line x1="17.23" y1="9.62" x2="8.41" y2="9.91" fill="none"/>
  <g>
    <polyline points="27.85 37.88 34.29 37.88 30.52 27.49 33.59 18.22" fill="#505050"/>
    <polyline points="8.42 17.69 11.66 27.08 7.39 37.47 27.73 39.41" fill="#505050"/>
    <path d="M33.32,22.32l7.42-2.6A66.07,66.07,0,0,0,36.13,8.14a8.51,8.51,0,0,0-3.22-3.75c-1.6-.84-3.58-.62-5.31-.58a9.53,9.53,0,0,0-1.51-2.16c-.94-.79-8.67-.26-9.66-.26s-1.81,2.54-1.81,2.54-2.62-.11-2.93-.1a7.55,7.55,0,0,0-2.78.49C6.6,5.32,5.6,7.78,4.67,9.91a69.31,69.31,0,0,0-3.38,8.41c-.13.44-.25.89-.39,1.33l7.7,2" transform="translate(0 0.01)" fill="#505050"/>
    <g clip-path="url(#c)">
      <polyline points="14.18 4.12 15.54 1.61 24.88 0.93 27.58 3.37 21.59 10.12" fill="#505050" stroke="#222" stroke-miterlimit="10" stroke-width="1.8"/>
    </g>
    <polyline points="27.85 37.88 34.29 37.88 30.52 27.49 33.59 18.22" fill="none" stroke="#222" stroke-linecap="round" stroke-linejoin="round" stroke-width="1.8"/>
    <polyline points="8.42 17.69 11.66 27.08 7.39 37.47 27.73 39.41" fill="none" stroke="#222" stroke-linecap="round" stroke-linejoin="round" stroke-width="1.8"/>
    <path d="M33.32,22.32l7.42-2.6A66.07,66.07,0,0,0,36.13,8.14a8.51,8.51,0,0,0-3.22-3.75c-1.6-.84-3.58-.62-5.31-.58a9.53,9.53,0,0,0-1.51-2.16c-.94-.79-8.67-.26-9.66-.26s-1.81,2.54-1.81,2.54-2.62-.11-2.93-.1a7.55,7.55,0,0,0-2.78.49C6.6,5.32,5.6,7.78,4.67,9.91a69.31,69.31,0,0,0-3.38,8.41c-.13.44-.25.89-.39,1.33l7.7,2" transform="translate(0 0.01)" fill="none" stroke="#222" stroke-linecap="round" stroke-linejoin="round" stroke-width="1.8"/>
  </g>
  <polygon points="15.12 3.14 16.18 1.88 25.66 1.74 26.96 2.73 21.62 13.32 15.12 3.14" fill="#bbb"/>
  <polygon points="26.46 2.09 30.31 8.29 20.43 15.65 26.46 2.09" fill="#fff" stroke="#222" stroke-linecap="round" stroke-linejoin="round" stroke-width="1.8"/>
  <polygon points="15.3 2.4 11.14 8.54 26.96 22.77 15.3 2.4" fill="#fff" stroke="#222" stroke-linecap="round" stroke-linejoin="round" stroke-width="1.8"/>
  <line x1="26.96" y1="22.77" x2="27.73" y2="39.41" fill="none" stroke="#222" stroke-linecap="round" stroke-linejoin="round" stroke-width="1.8"/>
  <rect x="12.12" y="18.22" width="6" height="2.82" stroke-width="1.4" stroke="#222" stroke-linecap="round" stroke-linejoin="round" fill="#c6c6c6"/>
  <rect x="10.25" y="24.88" width="21.6" height="3.67" rx="1.13" stroke-width="1.51" stroke="#222" stroke-linecap="round" stroke-linejoin="round" fill="#fff"/>
</svg>
