<?xml version="1.0" encoding="utf-8"?>
<!-- Generator: Adobe Illustrator 16.0.0, SVG Export Plug-In . SVG Version: 6.00 Build 0)  -->
<!DOCTYPE svg PUBLIC "-//W3C//DTD SVG 1.1//EN" "http://www.w3.org/Graphics/SVG/1.1/DTD/svg11.dtd">
<svg version="1.1" id="Layer_1" xmlns="http://www.w3.org/2000/svg" xmlns:xlink="http://www.w3.org/1999/xlink" x="0px" y="0px"
	 width="49.068px" height="45.149px" viewBox="0 0 49.068 45.149" enable-background="new 0 0 49.068 45.149" xml:space="preserve">
<g>
	<defs>
		<rect id="SVGID_1_" width="49.069" height="45.149"/>
	</defs>
	<clipPath id="SVGID_2_">
		<use xlink:href="#SVGID_1_"  overflow="visible"/>
	</clipPath>
	<path clip-path="url(#SVGID_2_)" fill="#77CC71" d="M18.214,33.547c0.027-0.432,0.327-0.842,0.556-1.198
		c0.341-0.533,0.698-1.057,1.048-1.584c0.506-0.762,0.15-1.873-0.607-2.317c-0.829-0.483-1.81-0.155-2.317,0.608
		c-0.936,1.411-1.956,2.74-2.066,4.491c-0.057,0.914,0.819,1.692,1.693,1.692C17.485,35.24,18.156,34.464,18.214,33.547"/>
	<path clip-path="url(#SVGID_2_)" fill="#29823A" d="M32.911,17.322c1.053-0.37,2.075-0.48,3.192-0.429
		c0.72,0.033,0.888-1.115,0.172-1.268c-0.831-0.177-1.642-0.384-2.479-0.531c0.103,0.389,0.205,0.778,0.308,1.166
		c1.457-1.336,3.461-1.253,5.283-1.167c0.818,0.04,0.954-1.186,0.189-1.404c-0.895-0.256-1.745-0.616-2.645-0.861v1.438
		c2.15-0.693,4.223-1.041,6.492-1.071c0.82-0.012,1.069-1.336,0.201-1.487c-1.181-0.207-2.359-0.416-3.541-0.612
		c0.063,0.482,0.126,0.962,0.188,1.444c1.913-0.928,3.827-1.507,5.923-1.833c0.684-0.107,0.704-1.093,0.184-1.404
		c-1.414-0.846-3.007-1.465-4.627-0.932c-0.516,0.169-0.577,0.966,0,1.106c1.356,0.331,2.612,0.426,3.852,1.152l0.183-1.404
		c-2.209,0.359-4.278,1.018-6.311,1.951c-0.592,0.273-0.466,1.337,0.189,1.443c1.185,0.191,2.37,0.369,3.558,0.549
		c0.067-0.496,0.134-0.992,0.201-1.488c-2.355,0.067-4.639,0.446-6.889,1.148c-0.688,0.214-0.731,1.244,0,1.438
		c0.898,0.24,1.76,0.574,2.661,0.802c0.063-0.468,0.127-0.936,0.19-1.404c-2.255-0.065-4.531,0.014-6.27,1.61
		c-0.361,0.332-0.21,1.078,0.309,1.165c0.897,0.151,1.773,0.336,2.677,0.454v-1.291c-1.294,0.14-2.345,0.375-3.527,0.925
		C32.133,16.733,32.446,17.486,32.911,17.322"/>
	<path clip-path="url(#SVGID_2_)" fill="#9E7157" d="M23.526,24.445c2.592,5.628,4.589,11.626,0.904,17.332
		c-0.707,1.094,0.215,2.65,1.498,2.609c2.423-0.077,5.42,0.245,7.774-0.422c0.533-0.151,1.03-0.597,1.154-1.155
		c0.668-3.019-0.559-7.061-1.704-9.833c-1.771-4.283-5.301-6.852-7.411-10.813c-0.863,0.666-1.728,1.333-2.59,1.999
		c2.341,2.464,5.665,5.37,6.36,8.739c0.461,2.231,0.353,4.673,0.544,6.942c1.327-0.179,2.655-0.358,3.981-0.539
		c-0.477-1.991-1.021-3.906-1.857-5.777c-0.866-1.938-3.659-0.802-3.733,1.012c-0.081,1.928-0.331,3.807-1.176,5.566
		c-1.451,3.025,3.107,4.983,4.254,1.794c0.856-2.382,1.145-4.844,0.93-7.36c-1.245,0.337-2.49,0.674-3.735,1.01
		c0.669,1.545,1.008,3.208,1.41,4.834c0.535,2.166,4.193,1.777,3.981-0.539c-0.272-2.96-0.164-6.418-1.235-9.222
		c-1.348-3.528-4.907-6.106-7.39-8.793c-1.333-1.443-3.379,0.388-2.591,1.999c1.43,2.921,3.969,4.981,5.57,7.802
		c1.289,2.271,3.882,7.549,3.205,10.301c0.385-0.384,0.77-0.77,1.155-1.154c-2.036,0.526-4.781,0.109-6.896,0.142
		c0.499,0.87,0.998,1.74,1.497,2.61c4.074-6.308,2.04-14.696-2.362-20.27C24.325,22.326,23.098,23.514,23.526,24.445"/>
	<path clip-path="url(#SVGID_2_)" fill="#77CC71" d="M25.961,19.791c-2.486-2.353-3.652-5.678-3.409-9.108
		c0.328-4.61,4.601-5.596,8.176-6.858c-0.39-0.506-0.778-1.012-1.167-1.517c-0.661,1.44-2.267,1.618-3.257,2.677
		c-0.866,0.927-1.131,2.008-1.322,3.236c-0.625,4.015-0.317,8.393,0.699,12.316c0.891-0.685,1.78-1.37,2.672-2.055
		c-3.547-1.634-5.455-7.96-2.24-10.729c-0.98-0.571-1.961-1.142-2.942-1.713c-0.711,3.136-1.16,6.699,0.452,9.606
		c0.53,0.957,2.375,0.893,2.542-0.332c0.381-2.775-0.068-5.526,0.4-8.337c0.287-1.721-1.563-2.938-2.942-1.713
		c-4.852,4.304-2.358,13.438,2.893,16.36c1.459,0.812,2.967-0.521,2.672-2.055c-0.608-3.157-0.082-7.391-0.056-10.624
		c0.001-0.135-1.116-0.018-1.113-0.153c0.036-2.019,1.262-1.195,2.559-2.491c0.62-0.619,3.159-3.838,4.032-4.537
		c0.651-0.52-3.492-0.226-4.433,0.069c-4.283,1.341-9.045,2.574-9.911,7.715c-0.718,4.269,1.105,9.1,4.716,11.511
		C25.748,21.568,26.624,20.417,25.961,19.791"/>
	<path clip-path="url(#SVGID_2_)" fill="#663D21" d="M27.336,35.117c0.964-0.288,1.823-0.842,2.806-1.109
		c0.916-0.249,1.906-0.169,2.77-0.545c0.5-0.218,0.26-0.881-0.136-1.036c-0.939-0.371-2.24,0.025-3.165,0.33
		c-0.971,0.321-2.071,0.765-2.735,1.567C26.592,34.666,26.847,35.262,27.336,35.117"/>
	<path clip-path="url(#SVGID_2_)" fill="#663D21" d="M26.965,30.387c-0.011-0.021-0.021-0.04-0.032-0.062
		c-0.025,0.198-0.051,0.396-0.076,0.591c0.999-1.247,2.376-1.66,3.803-2.158c0.625-0.219,0.536-1.151-0.159-1.173
		c-1.117-0.031-2.306,0.573-3.171,1.242c-0.43,0.334-1.853,1.523-1.108,2.133C26.623,31.292,27.237,30.884,26.965,30.387"/>
	<path clip-path="url(#SVGID_2_)" fill="#663D21" d="M26.073,40.844c1.371-0.094,2.672-0.864,3.998-1.221
		c1.372-0.367,3.024-0.219,4.238-0.947c0.463-0.277,0.527-1.056,0-1.315c-1.41-0.697-3.336-0.129-4.775,0.313
		c-1.419,0.436-3.115,1.024-3.952,2.313C25.354,40.335,25.648,40.873,26.073,40.844"/>
	<path clip-path="url(#SVGID_2_)" fill="#29823A" d="M25.361,18.618c1.437-7.251,11.572-8.967,17.714-7.798
		c0.123-0.905,0.244-1.809,0.367-2.714c-4.382,0.324-7.065,2.155-10.805,4.275c-3.496,1.982-4.634,4.787-5.676,8.619
		c1.237,0.168,2.475,0.335,3.712,0.502c-0.292-3.447,2.137-6.878,4.619-9.036c1.247-1.084,0.112-2.76-1.209-2.919
		c-1.355-0.163-3.297,1.327-4.307,2.107c-2.32,1.794-3.854,4.709-4.055,7.601h3.758c-0.071-1.6-0.303-2.927-0.841-4.451
		c-0.882-2.498-4.618-0.909-3.332,1.405c0.138,0.249,0.277,0.499,0.415,0.748c0.479,0.859,1.894,0.916,2.356,0
		c0.125-0.249,0.251-0.499,0.377-0.748c-1.111-0.146-2.222-0.29-3.332-0.436c0.477,1.105,0.676,2.265,0.599,3.482
		c0.031,2.046,3.267,2.643,3.691,0.499c0.416-2.1,1.227-3.994,2.826-5.431c0.325-0.293,0.725-0.527,1.076-0.787
		c0.432-0.318,1.275-0.519,0.768-0.569c-0.403-0.974-0.807-1.947-1.209-2.919c-2.974,2.688-6.311,7.26-5.98,11.454
		c0.161,2.05,3.112,2.656,3.711,0.503c0.932-3.347,1.772-4.905,4.694-6.878c2.484-1.678,4.982-4.038,8.143-4.258
		c1.457-0.102,1.99-2.397,0.367-2.714c-7.101-1.383-20.42,0.708-19.979,10.256C23.869,19.246,25.183,19.521,25.361,18.618"/>
	<path clip-path="url(#SVGID_2_)" fill="#29823A" d="M22.187,22.634c5.693-6.828,15.8-2.03,19.099,4.485
		c0.599-0.461,1.195-0.922,1.794-1.383c-6.133-5.435-17.877-6.98-25.249-3.683c0.769,0.998,1.539,1.997,2.309,2.994
		c4.585-4.251,10.952-3.236,16.372-1.45c-0.358-0.879-0.716-1.758-1.074-2.638l-0.174,0.41c-0.203,0.481-0.279,1.194,0.203,1.57
		c0.084,0.065,0.168,0.131,0.252,0.196c2.318,1.809,4.446-1.972,1.748-3.001c-6.287-2.396-14.024-1.936-19.636,1.92
		c-2.047,1.405-0.301,4.298,1.923,3.292c3.329-1.506,7.083-1.595,10.665-1.221c3.345,0.35,8.411,0.938,11.046,3.227
		c0.784,0.681,2.331,0.049,1.909-1.112c-3.108-8.543-16.632-13.65-22.148-4.346C20.88,22.474,21.73,23.181,22.187,22.634"/>
	<path clip-path="url(#SVGID_2_)" fill="#29823A" d="M24.975,17.172c-4.782-2.631-10.722-4.877-16.12-2.603
		c-4.002,1.687-7.37,5.54-7.818,9.902c-0.119,1.157,1.303,1.726,2.184,1.254c2.705-1.451,5.503-3.114,8.524-3.815
		c3.633-0.843,7.38,0.335,10.969,0.903c1.395,0.22,2.337-0.754,2.136-2.135c-1.287-8.821-15.245-5.001-20.103-2.476
		c-2.402,1.249-0.293,4.667,2.094,3.582c2.827-1.285,5.808-1.37,8.8-1.973c2.043-0.413,1.456-3.412-0.474-3.5
		c-3.37-0.154-6.79,0.441-9.924,1.681c0.533,1.265,1.065,2.529,1.598,3.792c2.638-1.202,13.601-5.636,14.661-0.183
		c0.712-0.712,1.424-1.423,2.135-2.135c-3.828-0.523-7.783-1.671-11.662-1.011C8.3,19.081,4.776,21.132,1.755,23.218
		c0.728,0.418,1.456,0.836,2.184,1.253c-0.208-4.1,5.897-7.736,9.259-7.965c3.733-0.256,7.431,1.622,10.832,2.904
		C25.339,19.903,26.174,17.831,24.975,17.172"/>
	<path clip-path="url(#SVGID_2_)" fill="#77CC71" d="M21.953,20.158c-7.627-0.963-10.413,11.101-8.445,16.498
		c0.546,1.496,2.781,1.309,2.835-0.385c0.115-3.656,2.594-5.574,5.069-7.84c0.87-0.795,1.678-1.655,2.617-2.373
		c1.087-0.833,1.927-0.755,3.17-1.225c2.532-0.957,2.362-4.282,0.73-6.228c-2.115-2.521-5.049,0.729-5.765,2.899
		c-0.173,0.527-0.189,1.166-0.237,1.718c-0.094,1.004-0.061,0.92,0.1-0.25c-0.477-0.094-0.958-0.104-1.443-0.032
		c-1.92,0.278-2.821,1.91-4.241,3.025c1.089,0.633,2.178,1.267,3.268,1.902c0.664-2.496,2.295-4.271,4.853-4.875
		c-0.484-1.148-0.968-2.296-1.452-3.444c-3.962,2.815-6.696,6.371-9.49,10.255c-1.28,1.778,1.647,4.063,3.057,2.358
		c2.744-3.316,5.569-6.697,8.717-9.653c1.351-1.268-0.043-3.732-1.834-3.151c-3.781,1.228-6.165,3.81-7.622,7.469
		c-0.63,1.583,1.522,3.106,2.872,2.208c1.162-0.774,1.782-1.971,3.219-2.134c1.152-0.13,1.952,0.441,2.925-0.487
		c1.603-1.531-0.093-4.656,2.166-5.76h-1.636c0.391,0.04,0.549,0.363,0.476,0.971c0.143,0.803,0.202,0.874,0.177,0.216
		c-0.362,0.236-1.061,0.215-1.512,0.389c-1.94,0.742-3.423,2.373-4.871,3.792c-3.092,3.032-5.881,5.672-6.201,10.249
		c0.945-0.128,1.89-0.256,2.835-0.384c-2.01-5.74,0.917-11.845,5.952-14.661C22.787,20.922,22.474,20.223,21.953,20.158"/>
	<path clip-path="url(#SVGID_2_)" fill="#FFCE00" d="M23.374,24.018c-0.195,0.214-0.43-0.787-0.445-0.804
		c-0.197-0.212-2.134-0.015-0.096,0.216c-0.109-0.014-0.001-0.271,0.236-0.051c0.609,0.574-0.058,1.485-0.787,1.551
		c-0.643,0.058-1.29-0.566-1.136-1.234c0.205-0.893,0.975-0.664,1.615-0.407c1.217,0.489,2.538-0.964,2.136-2.136
		c-0.945-2.758-4.315-2.802-6.3-1.099c-1.974,1.692-2.402,4.788-0.923,6.933c1.485,2.151,4.578,2.914,6.842,1.557
		c2.15-1.289,3.121-4.027,2.098-6.341c-1.005-2.269-4.057-3.288-6.04-1.575c-1.816,1.569-1.544,4.972,0.975,5.685
		c2.495,0.707,4.352-2.547,3.086-4.579c-1.24-1.991-4.086-1.116-4.221,1.14c-0.129,2.167,2.678,4.499,4.309,2.266
		c1.179-1.616-1.074-3.697-2.432-2.206C21.626,23.663,22.707,24.749,23.374,24.018"/>
	<path clip-path="url(#SVGID_2_)" fill="#FFCE00" d="M28.258,20.502c0.286-0.139,0.092,0.233,0.043,0.298
		c-0.111,0.146-0.156,0.197-0.354,0.178c-0.33-0.035-0.71-0.655-0.591-0.966c0.339-0.888,1.481,0.787,1.164,1.066
		c-0.057,0.05-0.709-0.291-0.813-0.386c-0.223-0.203-0.41-0.522-0.328-0.835c0.133-0.5,0.865-0.803,1.302-0.533
		c0.351,0.218,0.486,0.741,0.564,1.116c0.072,0.347,0.107,0.382-0.283,0.4c-0.535,0.024-1.298-0.001-1.69-0.434
		c-0.543-0.598,0.213-0.71,0.715-0.677c0.731,0.045,1.316,0.544,1.001,1.311c-0.389,0.95,1.052,1.708,1.699,0.988
		c1.883-2.095-0.268-4.517-2.571-4.756c-1.191-0.124-2.531,0.207-3.249,1.234c-0.699,1-0.618,2.36,0.023,3.369
		c1.172,1.847,4.666,2.387,6.184,0.712c1.557-1.717-0.236-5.067-2.297-5.431c-2.084-0.368-4.083,1.627-3.447,3.714
		c0.315,1.033,1.187,1.881,2.222,2.186c1.085,0.318,2.456-0.123,2.823-1.278c0.618-1.941-1.441-4.314-3.45-3.644
		c-2.19,0.731-1.443,4.071,0.563,4.512c1.098,0.24,2.224-0.395,2.431-1.522c0.188-1.023-0.513-2.061-1.604-2.052
		c-1.028,0.01-1.932,1.002-1.547,2.03c0.37,0.988,1.626,1.292,2.376,0.546C29.755,21.039,28.982,20.151,28.258,20.502"/>
	<path clip-path="url(#SVGID_2_)" d="M24.369,28.009c0.109,0.838,0.416,1.443,0.718,2.217c0.657,1.684,0.662,3.571,0.589,5.364
		c-0.073,1.763-0.407,3.307-1.359,4.81c-0.67,1.057-1.273,1.979-1.662,3.176c-0.228,0.702,0.375,1.334,1.043,1.37
		c3.269,0.17,7.164,0.482,10.374-0.333c2.15-0.545,2.195-2.105,1.909-4.011c-0.519-3.455-1.44-6.857-2.617-10.145
		c-0.953-2.665-1.89-5.573-4.074-7.493c-1.098-0.963-2.715,0.645-1.609,1.608c1.686,1.471,2.431,3.583,3.201,5.625
		c0.913,2.426,1.684,4.895,2.283,7.416c0.247,1.048,0.69,2.26,0.727,3.336c0.03,0.911,0.422,0.721-0.486,1.277
		c-0.601,0.368-0.967,0.261-1.602,0.345c-2.667,0.359-5.423,0.329-8.105,0.21c0.348,0.456,0.695,0.913,1.042,1.37
		c0.455-1.438,1.449-2.544,2.054-3.907c0.655-1.477,0.83-3.051,0.837-4.654c0.006-1.395,0.011-2.933-0.321-4.298
		c-0.33-1.356-1.143-2.376-1.773-3.6C25.267,27.167,24.288,27.384,24.369,28.009"/>
	<path clip-path="url(#SVGID_2_)" fill="none" stroke="#000000" stroke-width="1.779" stroke-miterlimit="10" d="M24.407,19.762
		c-1.239-0.824-2.857-0.896-4.304-0.547c-0.435,0.106-0.866,0.248-1.252,0.477c-0.944,0.559-1.523,1.578-1.898,2.609
		c-0.362,0.995-0.57,2.109-0.208,3.106c0.3,0.821,0.954,1.465,1.668,1.968c1.162,0.82,2.561,1.34,3.982,1.315
		c1.422-0.025,2.854-0.633,3.742-1.743c0.23-0.288,0.425-0.611,0.515-0.967c0.105-0.42,0.274-1.5,0.228-1.93
		c-0.14-1.284-0.515-1.988-1.249-3.05c-0.333-0.482-1.139-1.15-1.571-1.546"/>
	<path clip-path="url(#SVGID_2_)" d="M25.216,20.505c0.47-0.72,0.728-1.618,1.498-2.09c0.857-0.525,1.911-0.388,2.693,0.208
		c0.836,0.637,1.326,1.777,0.724,2.736c-0.716,1.139-2.021,0.908-3.161,0.839c-0.917-0.055-1.221,1.266-0.46,1.698
		c1.751,0.994,4.063,0.383,5.216-1.242c1.104-1.556,0.773-3.621-0.536-4.952c-1.175-1.192-3.028-1.755-4.629-1.168
		c-1.545,0.567-2.684,2.191-2.327,3.843C24.336,20.855,24.979,20.87,25.216,20.505"/>
	<path clip-path="url(#SVGID_2_)" fill="#29823A" d="M12.499,21.599c-1.077,0.55-1.605,1.231-2.175,2.313
		c-0.255,0.483,0.372,1.015,0.775,0.599c1.175-1.215,2.729-2.353,4.306-2.994c0.731-0.297,0.456-1.292-0.324-1.176
		c-2.981,0.444-5.788,2.036-8.209,3.762c0.281,0.28,0.562,0.561,0.843,0.843c0.547-0.968,1.182-1.787,1.989-2.553
		c0.438-0.416-0.012-1.251-0.608-1.043c-2.8,0.977-5.248,2.542-7.681,4.211c0.326,0.187,0.651,0.374,0.977,0.56
		c0.041-1.89,0.806-3.062,2.107-4.303c0.455-0.433-0.128-1.178-0.666-0.864c-1.905,1.114-2.643,3.041-2.74,5.167
		c-0.021,0.476,0.575,0.834,0.977,0.562c2.345-1.59,4.68-3.154,7.358-4.128c-0.202-0.349-0.405-0.696-0.607-1.044
		c-0.855,0.878-1.541,1.763-2.17,2.814c-0.305,0.509,0.321,1.195,0.843,0.842c2.364-1.597,5.095-3.09,7.911-3.649
		c-0.156-0.371-0.313-0.743-0.469-1.114c-1.666,0.772-3.322,2.034-4.535,3.409c0.258,0.199,0.516,0.397,0.775,0.598
		c0.423-0.898,1.008-1.638,1.635-2.407C12.993,21.781,12.77,21.46,12.499,21.599"/>
	<path clip-path="url(#SVGID_2_)" d="M24.56,17.491c-0.025-2.003,2.067-3.903,3.497-5.17c1.656-1.469,3.774-2.207,5.894-2.722
		c3.705-0.898,9.861-1.938,12.963,1.138c0.173-0.418,0.346-0.835,0.519-1.253c-2.021,0.258-4.012,0.408-5.921,1.172
		c-0.606,0.242-0.807,1.29,0,1.441c0.969,0.182,2.183,0.294,2.856,1.115c0.087-0.329,0.173-0.658,0.26-0.988
		c-2.3,0.436-4.77,0.297-7.101,0.458c-0.854,0.059-1.076,1.266-0.206,1.525c0.57,0.169,2.251,0.476,2.646,0.946
		c0.078-0.295,0.156-0.591,0.234-0.887c-1.8,0.292-3.672,0.059-5.497,0.233c-0.802,0.077-1.144,1.371-0.207,1.533
		c1,0.173,2.165,0.567,3.082,1.004l0.218-0.806c-1.649,0.037-3.299,0.164-4.929,0.421c-1.103,0.174-0.654,2.014,0.471,1.708
		c1.588-0.431,3.205-0.551,4.676-1.323c0.235-0.123,0.293-0.5,0.088-0.679c-0.972-0.845-1.895-1.57-3.19-1.83v1.505
		c1.775-0.278,3.648-0.563,5.43-0.723c0.423-0.038,0.633-0.417,0.459-0.798c-0.446-0.978-2.095-1.533-3.068-1.801
		c-0.069,0.508-0.138,1.016-0.206,1.524c2.524-0.221,4.933-0.356,7.415-0.871c0.474-0.099,0.519-0.671,0.261-0.986
		c-0.776-0.946-2.116-1.498-3.294-1.721v1.441c1.779-0.72,3.633-0.895,5.523-1.145c0.593-0.078,1.018-0.763,0.52-1.253
		C44.31,6.115,37.149,7.026,32.729,8.264c-3.857,1.081-9.625,4.513-9.235,9.227C23.549,18.166,24.567,18.188,24.56,17.491"/>
	<path clip-path="url(#SVGID_2_)" d="M24.797,17.855c-1.813-2.361-3.264-4.129-6.347-4.838c-3.148-0.724-7.106-0.859-10.044,0.588
		c-5.023,2.474-9.699,9.031-7.229,14.667c0.205,0.467,0.956,0.316,1.066-0.141c0.532-2.205,3.308-3.249,5.146-4.256
		c-0.314-0.314-0.628-0.628-0.943-0.943c-0.654,1.313-0.681,2.458-0.106,3.799c0.224,0.521,1.064,0.467,1.306,0
		c0.756-1.464,1.699-2.707,3.025-3.703c-0.35-0.27-0.7-0.538-1.049-0.807C9.403,23.269,9.426,24,9.762,25.011
		c0.141,0.429,0.666,0.717,1.084,0.441c1.806-1.189,2.593-3.323,4.311-4.606c-0.337-0.259-0.674-0.517-1.01-0.776
		c-0.262,1.005-0.383,2.082-0.322,3.117c0.034,0.6,0.763,0.962,1.217,0.504c1.379-1.392,2.892-2.598,4.649-3.481
		c0.848-0.426,0.093-1.742-0.749-1.281c-1.779,0.975-3.482,2.316-4.909,3.754c0.406,0.168,0.812,0.336,1.217,0.504
		c-0.124-0.949-0.059-1.828,0.223-2.752c0.168-0.549-0.511-1.12-1.01-0.776c-1.753,1.206-2.579,3.378-4.362,4.518
		c0.362,0.147,0.723,0.294,1.084,0.442c-0.062-0.673-0.124-1.345-0.186-2.017c0.131-0.726-0.63-1.15-1.194-0.695
		c-1.446,1.169-2.563,2.433-3.465,4.062h1.306c-0.004-0.779-0.007-1.56-0.01-2.341c0.331-0.655-0.319-1.208-0.943-0.942
		c-2.29,0.973-5.108,2.471-5.574,5.137c0.324-0.086,0.649-0.172,0.974-0.258c-1.708-2.201,0.449-5.8,1.755-7.724
		c1.446-2.129,3.601-4.079,6.045-4.973c2.471-0.905,6.337-0.748,8.889-0.023c2.384,0.677,3.456,2.023,4.985,3.804
		C24.245,19.207,25.251,18.449,24.797,17.855"/>
	<path clip-path="url(#SVGID_2_)" d="M20.99,14.339c-0.88-4.903,1.514-9.14,6.26-10.891c1.77-0.653,3.632-1.068,5.503-1.293
		c0.898-0.107,2.122-0.408,2.924,0.288l0.431-1.632c-1.975,0.602-4.354,1.165-3.724,3.73c0.21-0.276,0.421-0.552,0.631-0.828
		c-1.191,0.068-2.131,0.477-3.111,1.167c-0.364,0.256-0.501,0.932,0,1.154c0.111,0.049,0.249,0.088,0.351,0.153
		c1.487,0.942,0.563-0.026,0.404,0.043c-0.615,0.266-1.277,0.442-1.897,0.713c-0.794,0.345-1.866,0.73-2.295,1.547
		c-0.288,0.548,0.061,1.317,0.739,1.288c0.206-0.008,0.753-0.145,0.909-0.114c0.642,0.125,0.326-0.733,0.126,0.608
		c-0.189,1.259,1.641,1.513,1.729,0.233c0.186-2.715-0.336-2.539-2.764-2.438c0.246,0.428,0.493,0.858,0.739,1.288
		c0.79-1.506,4.124-1.194,4.252-3.221c0.014-0.232-0.137-0.436-0.32-0.556c-0.455-0.301-0.951-0.562-1.458-0.765
		c0.099,0.372,0.197,0.744,0.295,1.117c0.664-0.594,1.432-0.897,2.302-0.909c0.412-0.038,0.756-0.388,0.631-0.828
		c-0.406-1.425,2.159-1.203,2.98-1.5c0.608-0.22,1.063-1.137,0.432-1.631c-1.315-1.028-2.842-0.952-4.419-0.732
		c-2.784,0.39-5.569,1.174-8.064,2.49c-3.401,1.795-7.879,8.503-4.413,12.001C20.532,15.196,21.073,14.803,20.99,14.339"/>
	<path clip-path="url(#SVGID_2_)" d="M18.51,21.077c-3.832,0.961-5.733,5.432-6.193,9.052c-0.337,2.652,0.391,7.436,2.855,9.035
		c0.415,0.269,1.075-0.078,1.032-0.592c-0.106-1.259-0.083-2.175,0.63-3.268c-0.313,0.126-0.627,0.254-0.94,0.382
		c0.527,0.046,1.033,0.172,1.519,0.381c0.318,0.107,0.799-0.064,0.943-0.384c0.671-1.482,0.57-2.928,0.352-4.523
		c-0.354,0.354-0.708,0.708-1.061,1.062c0.543,0.069,1.059,0.229,1.546,0.48c0.376,0.154,0.947-0.171,1.007-0.571
		c0.03-1.209,0.656-2.142,1.877-2.798c0.988-0.065,0.995-1.485,0-1.541c-2.311-0.131-3.142,1.948-3.456,3.903l1.202-0.489
		c-0.751-0.358-0.915-0.43-1.718-0.649c-0.682-0.186-1.168,0.434-1.061,1.063c0.197,1.157,0.205,2.317-0.214,3.422
		c0.342-0.194,0.684-0.39,1.027-0.583c-0.527-0.045-1.034-0.17-1.52-0.377c-0.349-0.117-0.76,0.078-0.941,0.383
		c-0.763,1.281-0.713,2.642-0.564,4.108c0.39-0.162,0.781-0.323,1.171-0.485c-1.974-1.581-2.364-6.024-1.941-8.271
		c0.287-1.527,1-2.946,1.643-4.349c0.765-1.669,1.875-2.521,3.148-3.8C19.105,21.415,18.849,20.992,18.51,21.077"/>
	<path clip-path="url(#SVGID_2_)" d="M33.651,18.315c4.274,1.942,7.003,5.115,8.393,9.629c0.539-0.415,1.078-0.829,1.617-1.243
		c-0.79-0.38-1.492-0.532-2.346-0.753c-1.256-0.325-1.722-0.907-2.66-1.911c-0.264-0.281-0.682-0.229-0.951,0
		c-0.6,0.508-0.85,0.94-0.96,1.715l0.949-0.387c-1.096-0.805-1.913-1.928-3.244-2.219c-1.586-0.348-3.018,0.375-4.59-0.278
		c-1.007-0.418-1.561,1.426-0.456,1.652c1.135,0.231,2.118,0.297,3.262,0.259c1.468-0.049,1.933,0.234,3.059,1.046
		c0.512,0.368,0.88,0.534,1.473,0.721c0.426,0.134,0.789-0.223,0.817-0.624c0.168-0.275,0.336-0.553,0.505-0.83
		c-0.306-0.08-0.612-0.161-0.92-0.24c0.528,0.781,1.03,2.071,1.82,2.642c0.885,0.638,1.881,0.138,2.908,0.936
		c0.793,0.615,2.195,0.091,1.84-1.07c-1.32-4.301-5.049-10.313-10.294-9.862C33.487,17.53,33.215,18.118,33.651,18.315"/>
</g>
</svg>
