<svg xmlns="http://www.w3.org/2000/svg" viewBox="0 0 33.39 44.22">
  <title>category-aroma-gray</title>
  <g>
    <polygon points="20.25 11.24 20.01 14.53 16.6 15.53 15.78 22.23 32.22 22.56 31.67 15.77 28 14.69 27.37 11.24 20.25 11.24" fill="#7c7c7c"/>
    <polyline points="16.15 32.78 31.67 32.7 31.67 38.28 16.15 39.02" fill="#7c7c7c"/>
  </g>
  <g>
    <rect x="16.31" y="23.02" width="15.35" height="9.27" fill="#fff"/>
    <path d="M25,2.68l-.3.1-.24.05h-.57V4.26A8.83,8.83,0,0,1,26,4V2.44a29.91,29.91,0,0,1-3.54-.11V3.92a34,34,0,0,0,3.64-.24.83.83,0,0,0,.9-.74V2.86A.85.85,0,0,0,26.18,2H23.37l.22,1.62.52-.08c.28,0-.16,0,.13,0h.26c.34,0,.69-.06,1-.08a.85.85,0,0,0,.83-.83.85.85,0,0,0-.83-.83L22,1.4a.77.77,0,0,0-.66.34.87.87,0,0,0-.15.73l.18,1.26c.07.5.09,1.05.57,1.36a2.66,2.66,0,0,0,1.42.18h1.28c.84,0,2,.19,2.53-.67a2.88,2.88,0,0,0,.27-1.36V2a.88.88,0,0,0-.86-.86.89.89,0,0,0-.87.86V5.17l1.13-.86A22.48,22.48,0,0,0,22.13,4a1,1,0,0,0-.93.93.92.92,0,0,0,.93.93,1.14,1.14,0,0,0,.74-.28l.18-.17a.69.69,0,0,0,0-1l0,0-.18-.16A1.22,1.22,0,0,0,22.13,4V5.82H24.3a4.69,4.69,0,0,1,1.06.08l.53.06h0L26,6h.31a1,1,0,0,0,.78-.16.9.9,0,0,0,.35-.71V2H25.69V3.71h0c0,.08.1-.17.19-.22H23a3.84,3.84,0,0,0-.48,0c.41.49.59.62.54.37V3.47L23,3l-.21-1L22,3.09l3.57.36V1.79a19.21,19.21,0,0,0-2.39.27.83.83,0,0,0,.22,1.63h2.76V2c-1.21.14-2.42.24-3.64.29a.82.82,0,0,0-.8.8.81.81,0,0,0,.8.79A25.3,25.3,0,0,0,26,4a.77.77,0,0,0,0-1.54,12.11,12.11,0,0,0-2.53.39.75.75,0,0,0-.53.81.78.78,0,0,0,.73.65,3.09,3.09,0,0,0,1.81-.39A.67.67,0,0,0,25,2.68Z" transform="translate(0.01 -0.01)" fill="#fff"/>
    <path d="M22.33,6.67a21.28,21.28,0,0,1-.28-2.88h0a.33.33,0,0,1,0-.14,1.32,1.32,0,0,1,.08-.33,1.34,1.34,0,0,1,.07-.18h0a2.61,2.61,0,0,0,.17-.28h0l.08-.09c.07-.07.13-.14.2-.2s.29-.23.12-.11L23,2.28l.14-.07h0l.19-.06a.48.48,0,0,0,.32-.08c.11-.08-.18,0-.06,0h.57l.32.08h.12c.11,0-.14-.08,0,0l.26.14c.06,0,.24.18.1.06l.24.22.09.1c.08.07-.08-.14,0,0l.15.25a1,1,0,0,1,.07.15c.06.11,0,0,0-.06a3.76,3.76,0,0,1,.17.66h0v.57a3.89,3.89,0,0,1,0,.76h0v.12l-.06.35a3.72,3.72,0,0,1-.14.74A1.13,1.13,0,0,0,26,7.45a1.08,1.08,0,0,0,.55.15,1.13,1.13,0,0,0,1.05-.8,9.78,9.78,0,0,0,.27-3.49A3.94,3.94,0,0,0,26,.54a3.83,3.83,0,0,0-5.63,2.25,8.81,8.81,0,0,0,.28,4.11.86.86,0,0,0,1.08.56A.85.85,0,0,0,22.33,6.67Z" transform="translate(0.01 -0.01)" fill="#222"/>
    <g>
      <path d="M28.93,10.61a4,4,0,0,1-2.55.55c-1.88,0-3.77.15-5.65.06a2.8,2.8,0,0,1-1.95-.73c-.77-.82-.82-3.57.54-3.94a4.24,4.24,0,0,1,1.28-.11q3.84,0,7.68.15c1.53,0,1.36,2.19,1.13,3.19A1.59,1.59,0,0,1,28.93,10.61Z" transform="translate(0.01 -0.01)" fill="#444"/>
      <path d="M22,12.17c-.45,0-.9,0-1.34,0a3.6,3.6,0,0,1-2.53-1,4.2,4.2,0,0,1-.68-3.74,2.36,2.36,0,0,1,1.6-1.77,5,5,0,0,1,1.58-.14c2.49,0,5.09.05,7.66.15h0a2,2,0,0,1,1.58.75c.89,1.11.54,3,.41,3.57a2.47,2.47,0,0,1-.76,1.31.71.71,0,0,1-.14.1,4.89,4.89,0,0,1-3.08.68l-2.09.05C23.51,12.15,22.77,12.17,22,12.17Zm6.9-1.56h0Zm-8.22-.31c1.18,0,2.35,0,3.47,0,.73,0,1.47,0,2.2,0h.11a3,3,0,0,0,1.87-.37.73.73,0,0,0,.15-.29,3.12,3.12,0,0,0-.06-2s0-.06-.17-.06c-2.58-.09-5.15-.15-7.68-.15a3.59,3.59,0,0,0-1.06.09c-.09,0-.21.21-.28.48a2.64,2.64,0,0,0,.19,1.93A1.81,1.81,0,0,0,20.71,10.3Z" transform="translate(0.01 -0.01)" fill="#222"/>
    </g>
    <path d="M28.16,40.2c-.61,0-1.22,0-1.8-.07s-1-.06-1.41-.06H18.77c-2.18,0-3.64-1.06-4-2.91a19.83,19.83,0,0,1,0-4V17.21a3.28,3.28,0,0,1,2-3A3.86,3.86,0,0,1,18.06,14a1.24,1.24,0,0,0,.73-.18l.05,0A4.19,4.19,0,0,0,19,12a1,1,0,1,1,2-.28,6.25,6.25,0,0,1-.3,2.91.94.94,0,0,1-.15.28,2.58,2.58,0,0,1-.61.58,3.23,3.23,0,0,1-1.77.53,1.91,1.91,0,0,0-.67.12,1.2,1.2,0,0,0-.72,1.07v16a.34.34,0,0,1,0,.1,19.14,19.14,0,0,0,0,3.55c.06.27.24,1.15,2,1.15H25c.47,0,1,0,1.53.06a8.74,8.74,0,0,0,3.9-.29c1-.51,1-1.77.87-3.63,0-.52-.07-1-.06-1.47.09-3.73,0-7.53,0-11.21l0-2.08V18.9c0-1.32,0-2.35-.7-2.69a2.29,2.29,0,0,0-.74-.15,4.3,4.3,0,0,1-1.41-.34c-1.51-.74-1.4-2.35-1.34-3.3a5.36,5.36,0,0,0,0-.55,1,1,0,0,1,2.06,0q0,.33,0,.69c-.06.91,0,1.2.18,1.31a2.63,2.63,0,0,0,.74.14,4.33,4.33,0,0,1,1.44.36c1.88.94,1.85,3.12,1.83,4.56v.44l0,2.06c.07,3.7.13,7.53,0,11.3A11.54,11.54,0,0,0,33.31,34c.13,1.89.31,4.47-2,5.62A7.13,7.13,0,0,1,28.16,40.2ZM19.75,14.31h0Z" transform="translate(0.01 -0.01)" fill="#222"/>
    <path d="M9.18,44.23a.87.87,0,0,1-.87-.87V14.83a.87.87,0,1,1,1.74,0V43.36A.87.87,0,0,1,9.18,44.23Z" transform="translate(0.01 -0.01)" fill="#222"/>
    <g>
      <path d="M6.38,13.47a10,10,0,0,1,.13-2.12,11.92,11.92,0,0,1,1.68-4.5.79.79,0,0,1,1.09-.3.71.71,0,0,1,.26.23,9.73,9.73,0,0,1,2.06,4.91,5.75,5.75,0,0,1-.2,2.82,2.63,2.63,0,0,1-3.48,1.31A2.6,2.6,0,0,1,7,15.13,3,3,0,0,1,6.38,13.47Z" transform="translate(0.01 -0.01)" fill="gray"/>
      <path d="M9,16.92a3.46,3.46,0,0,1-1.44-.31,3.55,3.55,0,0,1-1.22-.92,3.7,3.7,0,0,1-.82-2.18h0a10.52,10.52,0,0,1,.14-2.31,12.71,12.71,0,0,1,1.8-4.81,1.65,1.65,0,0,1,2.24-.6,1.72,1.72,0,0,1,.55.49,10.57,10.57,0,0,1,2.21,5.31,6.44,6.44,0,0,1-.24,3.19A3.45,3.45,0,0,1,9,16.92ZM7.24,13.43a2,2,0,0,0,.44,1.16,1.59,1.59,0,0,0,.6.44,1.74,1.74,0,0,0,2.33-.88,4.93,4.93,0,0,0,.14-2.31A9,9,0,0,0,8.86,7.32a12.25,12.25,0,0,0-1.5,4.17,9,9,0,0,0-.12,1.94Z" transform="translate(0.01 -0.01)" fill="#222"/>
    </g>
    <g>
      <path d="M10,16.63a9.65,9.65,0,0,1,1.74-1.24,11.83,11.83,0,0,1,4.54-1.54.79.79,0,0,1,.93.62.81.81,0,0,1,0,.38,9.75,9.75,0,0,1-2.51,4.71,5.68,5.68,0,0,1-2.31,1.62,2.63,2.63,0,0,1-3.22-1.86,2.58,2.58,0,0,1-.05-1.14A2.88,2.88,0,0,1,10,16.63Z" transform="translate(0.01 -0.01)" fill="gray"/>
      <path d="M11.7,22.12A3.47,3.47,0,0,1,8.25,18a3.69,3.69,0,0,1,1.17-2h0a10.61,10.61,0,0,1,1.9-1.36A12.69,12.69,0,0,1,16.17,13a1.65,1.65,0,0,1,1.89,1.32,1.76,1.76,0,0,1,0,.79,10.55,10.55,0,0,1-2.72,5.06A6.51,6.51,0,0,1,12.68,22,3.72,3.72,0,0,1,11.7,22.12Zm4.63-7.41a11,11,0,0,0-4.15,1.43,8.37,8.37,0,0,0-1.6,1.13h0A1.93,1.93,0,0,0,10,18.36a1.87,1.87,0,0,0,0,.74,1.78,1.78,0,0,0,2.17,1.24A4.71,4.71,0,0,0,14,19,8.94,8.94,0,0,0,16.33,14.71ZM10,16.63h0Zm6.45-1.93h0Z" transform="translate(0.01 -0.01)" fill="#222"/>
    </g>
    <g>
      <path d="M8.07,16.63a10.1,10.1,0,0,0-1.73-1.24,11.87,11.87,0,0,0-4.55-1.54.78.78,0,0,0-.92.61.74.74,0,0,0,0,.39,9.73,9.73,0,0,0,2.5,4.71A5.76,5.76,0,0,0,5.7,21.17a2.63,2.63,0,0,0,3.22-1.86A2.58,2.58,0,0,0,9,18.17,2.76,2.76,0,0,0,8.07,16.63Z" transform="translate(0.01 -0.01)" fill="#acacac"/>
      <path d="M6.39,22.13A3.5,3.5,0,0,1,5.48,22a6.72,6.72,0,0,1-2.74-1.88A10.53,10.53,0,0,1,0,15,1.65,1.65,0,0,1,2,13a12.73,12.73,0,0,1,4.82,1.64A11.11,11.11,0,0,1,8.64,16a3.73,3.73,0,0,1,1.18,2,3.62,3.62,0,0,1-.06,1.54,3.5,3.5,0,0,1-3.37,2.6ZM1.74,14.71A9,9,0,0,0,4,19a4.93,4.93,0,0,0,2,1.4,1.73,1.73,0,0,0,1.25-.2,1.81,1.81,0,0,0,.83-1.07,2,2,0,0,0,0-.77,2,2,0,0,0-.62-1h0a8.89,8.89,0,0,0-1.58-1.13A11,11,0,0,0,1.74,14.71Z" transform="translate(0.01 -0.01)" fill="#222"/>
    </g>
    <g>
      <path d="M10,22.42a10.58,10.58,0,0,1,1.74-1.24,11.81,11.81,0,0,1,4.54-1.53.79.79,0,0,1,.93.62.81.81,0,0,1,0,.38,9.83,9.83,0,0,1-2.51,4.71A5.51,5.51,0,0,1,12.34,27a2.63,2.63,0,0,1-3.22-1.86,2.58,2.58,0,0,1,0-1.14A3,3,0,0,1,10,22.42Z" transform="translate(0.01 -0.01)" fill="#acacac"/>
      <path d="M11.64,28a3.48,3.48,0,0,1-3.42-4.1,3.87,3.87,0,0,1,1.2-2.08h0a11.27,11.27,0,0,1,1.88-1.34,12.56,12.56,0,0,1,4.87-1.64,1.64,1.64,0,0,1,1.88,1.31,1.8,1.8,0,0,1,0,.8A10.68,10.68,0,0,1,15.3,26a6.31,6.31,0,0,1-2.66,1.85A4,4,0,0,1,11.64,28Zm-1.07-4.88a2.14,2.14,0,0,0-.66,1.12,2,2,0,0,0,0,.73A1.81,1.81,0,0,0,10.78,26a1.74,1.74,0,0,0,1.34.17A4.6,4.6,0,0,0,14,24.8a8.94,8.94,0,0,0,2.31-4.29,11,11,0,0,0-4.15,1.42A9.73,9.73,0,0,0,10.57,23.07Zm5.88-2.57h0Z" transform="translate(0.01 -0.01)" fill="#222"/>
    </g>
    <g>
      <path d="M8.07,22.42a11.13,11.13,0,0,0-1.73-1.24,11.86,11.86,0,0,0-4.55-1.53.78.78,0,0,0-.92.61.74.74,0,0,0,0,.39,9.73,9.73,0,0,0,2.5,4.71A5.66,5.66,0,0,0,5.7,27a2.62,2.62,0,0,0,3.22-1.83A2.72,2.72,0,0,0,9,24,2.9,2.9,0,0,0,8.07,22.42Z" transform="translate(0.01 -0.01)" fill="gray"/>
      <path d="M6.4,28a3.31,3.31,0,0,1-.93-.13,6.5,6.5,0,0,1-2.74-1.91A10.61,10.61,0,0,1,0,20.83,1.65,1.65,0,0,1,.73,19,1.62,1.62,0,0,1,2,18.8a12.54,12.54,0,0,1,4.82,1.63,12.18,12.18,0,0,1,1.86,1.34h0a3.79,3.79,0,0,1,1.17,2,3.56,3.56,0,0,1-.07,1.56A3.43,3.43,0,0,1,8.12,27.5,3.52,3.52,0,0,1,6.4,28ZM1.74,20.51A9,9,0,0,0,4,24.76a4.91,4.91,0,0,0,2,1.43A1.72,1.72,0,0,0,7.26,26a1.76,1.76,0,0,0,.83-1.06,1.87,1.87,0,0,0,0-.78,2.07,2.07,0,0,0-.62-1.09,11,11,0,0,0-1.59-1.14A11.11,11.11,0,0,0,1.74,20.51Z" transform="translate(0.01 -0.01)" fill="#222"/>
    </g>
    <g>
      <path d="M10,28.22A10.84,10.84,0,0,1,11.71,27a12,12,0,0,1,4.54-1.54.79.79,0,0,1,.93.62.81.81,0,0,1,0,.38,9.92,9.92,0,0,1-2.51,4.71,5.5,5.5,0,0,1-2.31,1.61,2.63,2.63,0,0,1-3.22-1.86,2.58,2.58,0,0,1,0-1.14A2.92,2.92,0,0,1,10,28.22Z" transform="translate(0.01 -0.01)" fill="gray"/>
      <path d="M11.64,33.73a3.48,3.48,0,0,1-3.42-4.1,3.74,3.74,0,0,1,1.21-2.06,11.51,11.51,0,0,1,1.85-1.32,12.87,12.87,0,0,1,4.86-1.65A1.65,1.65,0,0,1,18,26.71a10.68,10.68,0,0,1-2.72,5.06,6.36,6.36,0,0,1-2.63,1.82A4,4,0,0,1,11.64,33.73Zm4.66-7.41a11.26,11.26,0,0,0-4.15,1.43,9.38,9.38,0,0,0-1.58,1.12h0A2.09,2.09,0,0,0,9.91,30a2,2,0,0,0,0,.73,1.81,1.81,0,0,0,.83,1.07,1.74,1.74,0,0,0,1.34.17A4.62,4.62,0,0,0,14,30.61,9,9,0,0,0,16.3,26.32ZM10,28.22h0Zm6.42-1.91h0Z" transform="translate(0.01 -0.01)" fill="#222"/>
    </g>
    <g>
      <path d="M8.07,28.22A11.49,11.49,0,0,0,6.34,27a12.1,12.1,0,0,0-4.55-1.54.79.79,0,0,0-.92.64.88.88,0,0,0,0,.36,9.82,9.82,0,0,0,2.5,4.71A5.62,5.62,0,0,0,5.7,32.76,2.63,2.63,0,0,0,8.92,30.9,2.58,2.58,0,0,0,9,29.76,2.82,2.82,0,0,0,8.07,28.22Z" transform="translate(0.01 -0.01)" fill="#acacac"/>
      <path d="M6.38,33.71a3.47,3.47,0,0,1-.9-.11,6.62,6.62,0,0,1-2.74-1.86A10.66,10.66,0,0,1,0,26.64a1.61,1.61,0,0,1,0-.7,1.65,1.65,0,0,1,1.92-1.33,12.7,12.7,0,0,1,4.84,1.64,12.62,12.62,0,0,1,1.85,1.31h0a3.8,3.8,0,0,1,1.18,2,3.62,3.62,0,0,1-.06,1.54A3.51,3.51,0,0,1,6.38,33.71ZM1.74,26.33A9,9,0,0,0,4,30.57,4.85,4.85,0,0,0,6,32a1.77,1.77,0,0,0,2.09-1.27,1.75,1.75,0,0,0-.59-1.81,9.89,9.89,0,0,0-1.59-1.12A11.11,11.11,0,0,0,1.74,26.33Z" transform="translate(0.01 -0.01)" fill="#222"/>
    </g>
    <g>
      <path d="M10,34a9.65,9.65,0,0,1,1.74-1.24,11.83,11.83,0,0,1,4.54-1.54.79.79,0,0,1,.93.62.81.81,0,0,1,0,.38,9.75,9.75,0,0,1-2.51,4.71,5.68,5.68,0,0,1-2.31,1.62,2.63,2.63,0,0,1-3.22-1.86,2.58,2.58,0,0,1-.05-1.14A2.88,2.88,0,0,1,10,34Z" transform="translate(0.01 -0.01)" fill="#acacac"/>
      <path d="M11.7,39.49A3.47,3.47,0,0,1,8.25,35.4a3.75,3.75,0,0,1,1.17-2h0A10.61,10.61,0,0,1,11.32,32a12.74,12.74,0,0,1,4.85-1.64,1.66,1.66,0,0,1,1.89,1.32,1.76,1.76,0,0,1,0,.79,10.55,10.55,0,0,1-2.72,5.06,6.51,6.51,0,0,1-2.62,1.83A3.72,3.72,0,0,1,11.7,39.49Zm-1.12-4.85A2,2,0,0,0,10,35.73a1.87,1.87,0,0,0,0,.74,1.76,1.76,0,0,0,2.17,1.24A4.71,4.71,0,0,0,14,36.37a8.94,8.94,0,0,0,2.31-4.29,11,11,0,0,0-4.15,1.43A8.37,8.37,0,0,0,10.58,34.64Zm5.87-2.57h0Z" transform="translate(0.01 -0.01)" fill="#222"/>
    </g>
    <g>
      <path d="M8.07,34a10.1,10.1,0,0,0-1.73-1.24,11.87,11.87,0,0,0-4.55-1.54.78.78,0,0,0-.92.61.74.74,0,0,0,0,.39,9.73,9.73,0,0,0,2.5,4.71A5.71,5.71,0,0,0,5.7,38.56,2.63,2.63,0,0,0,8.92,36.7,2.58,2.58,0,0,0,9,35.56,2.85,2.85,0,0,0,8.07,34Z" transform="translate(0.01 -0.01)" fill="gray"/>
      <path d="M6.39,39.52a3.5,3.5,0,0,1-.91-.12,6.69,6.69,0,0,1-2.75-1.91A10.52,10.52,0,0,1,0,32.4a1.65,1.65,0,0,1,1.92-2A12.73,12.73,0,0,1,6.78,32a11.09,11.09,0,0,1,1.87,1.35,3.74,3.74,0,0,1,1.17,2,3.57,3.57,0,0,1-.06,1.53,3.5,3.5,0,0,1-3.37,2.6ZM1.74,32.08A9,9,0,0,0,4,36.33a5,5,0,0,0,2,1.42,1.78,1.78,0,0,0,1.25-.2,1.81,1.81,0,0,0,.83-1.07,2,2,0,0,0,0-.77,2,2,0,0,0-.62-1.06h0a8.89,8.89,0,0,0-1.58-1.13A11,11,0,0,0,1.74,32.08Z" transform="translate(0.01 -0.01)" fill="#222"/>
    </g>
    <path d="M17,23.12a19.65,19.65,0,0,0,3.59.25l3.46.07q3.59.06,7.16,0c1.17,0,1.16-1.87,0-1.8-2.38.13-4.77.23-7.16.28-1.15,0-2.31,0-3.46.06a22.65,22.65,0,0,0-3.59.14.5.5,0,0,0,0,1Z" transform="translate(0.01 -0.01)" fill="#222"/>
    <path d="M16.23,32.67a2.78,2.78,0,0,0,1.61.58c.65.1,1.3.16,1.95.22,1.32.11,2.63.18,3.95.23,2.64.09,5.28.11,7.92,0a1,1,0,0,0,0-2c-2.6.07-5.19.11-7.79.05-1.28,0-2.55-.08-3.83-.13-.66,0-1.32-.06-2-.06a3.16,3.16,0,0,0-1.74.29.52.52,0,0,0-.18.7.39.39,0,0,0,.08.1Z" transform="translate(0.01 -0.01)" fill="#222"/>
  </g>
</svg>
