<svg xmlns="http://www.w3.org/2000/svg" viewBox="0 0 37.24 40.7">
  <title>category-group-gray</title>
  <g>
    <path d="M11.62,34.74v2a2.94,2.94,0,0,1-2.93,2.94h0a2.94,2.94,0,0,1-2.94-2.94V35.21" transform="translate(-0.03 0.02)" fill="#565656" stroke="#222" stroke-miterlimit="10" stroke-width="2"/>
    <path d="M31.54,34.74v2a2.94,2.94,0,0,1-2.94,2.94h0a2.94,2.94,0,0,1-2.94-2.94V35.21" transform="translate(-0.03 0.02)" fill="#565656" stroke="#222" stroke-miterlimit="10" stroke-width="2"/>
  </g>
  <polygon points="35.43 7.59 1.79 7.59 2.97 2.29 33.17 1.98 35.43 7.59" fill="#6c6c6c"/>
  <polygon points="34.62 34.74 19.07 36.3 2.56 34.66 1.56 23.8 35.67 23.8 34.62 34.74" fill="#6c6c6c"/>
  <rect x="1.32" y="8.16" width="34.58" height="16.1" fill="#e1e1e1"/>
  <path d="M32,35.56c-.55.11-1.1.19-1.64.26-1.61.22-3.22.32-4.83.38-4.25.14-8.52.1-12.76-.13-1.33-.07-2.66-.15-4-.33-.77-.1-1.53-.21-2.3-.33-1.91-.3-3.86-.55-4.59-2.61a13.53,13.53,0,0,1-.52-4,130.54,130.54,0,0,1-.11-13.27c.07-3,.09-4.1.18-7.14.08-3.39,1.86-6.12,5-6.76A48.33,48.33,0,0,1,15.3,1.1H28.39c1.58,0,3.54,0,4.89,1,2.68,2,2.81,5.55,2.86,8.63.08,4.52,0,7.06-.15,11.58,0,1,0,2.89-.05,5.81,0,1-.06,2-.06,3.06a3.9,3.9,0,0,1-.45,2.39,3.56,3.56,0,0,1-1.5,1.32A8.18,8.18,0,0,1,32,35.56Z" transform="translate(-0.03 0.02)" fill="none" stroke="#222" stroke-miterlimit="10" stroke-width="2.2"/>
  <path d="M18.64,8.14" transform="translate(-0.03 0.02)" fill="none" stroke="#222" stroke-miterlimit="10" stroke-width="2"/>
  <path d="M18.64,8.14" transform="translate(-0.03 0.02)" fill="none" stroke="#222" stroke-miterlimit="10" stroke-width="2"/>
  <path d="M2,8.35a36.93,36.93,0,0,0,6.47.54c2.13.1,4.26.16,6.39.2,4.29.07,8.57,0,12.86,0,2.47,0,5,0,7.42-.1a.93.93,0,0,0,0-1.85C26.55,7,18,7.33,9.42,7.06L5.86,6.92a32.46,32.46,0,0,0-3.69-.07c-.8.07-1.1,1.3-.2,1.5Z" transform="translate(-0.03 0.02)" fill="#222"/>
  <path d="M1.35,24.72c1.12.15,2.21.35,3.34.42l3.24.19c2.26.12,4.52.17,6.79.23,4.45.12,8.9.22,13.35.27h5.64a5.52,5.52,0,0,0,1.9-.15.86.86,0,0,0,.54-1.09.9.9,0,0,0-.54-.54,4.44,4.44,0,0,0-1.54-.15H29l-6.78-.1c-4.46-.08-8.91-.2-13.36-.28H5.17c-1.24,0-2.54.13-3.82.23a.5.5,0,0,0,0,1Z" transform="translate(-0.03 0.02)" fill="#222"/>
  <g>
    <path d="M7.76,28c1.82,0,3.44.2,5.22.26a.73.73,0,0,1,.69.68,9.87,9.87,0,0,1,.05,1.63,1.3,1.3,0,0,1-1.22,1.31c-1,0-2.36-.14-3.4-.2A1.45,1.45,0,0,1,7.81,30.1V28.25" transform="translate(-0.03 0.02)" fill="#bfbfbf"/>
    <path d="M7.54,28.34a4,4,0,0,0,1.84.32c.59.05,1.19.08,1.79.11H12a6.46,6.46,0,0,1,.88,0c.07,0,.09,0,.09.07a4.61,4.61,0,0,1,0,.91v.7c0,.12-.09.28-.06.21a.64.64,0,0,1-.08.14v.06h0l-.1.06c.14-.07-.2,0,0,0A3.65,3.65,0,0,1,12,31l-1.6-.18-.8-.08H9.1s.18.11,0,0-.2-.13-.09,0,0,0,0,0l-.13-.15c.13.16,0-.07-.06-.13.12.21-.06-.31,0-.09-.08-.63,0-1.3-.05-1.94a.86.86,0,1,0-1.72,0A18.62,18.62,0,0,0,7,30.49a2.44,2.44,0,0,0,1,1.89,3.18,3.18,0,0,0,1.86.43h2a2.85,2.85,0,0,0,1.78-.38,2.3,2.3,0,0,0,.93-1.75,9.19,9.19,0,0,0,0-1.05,3.18,3.18,0,0,0-.23-1.14,1.4,1.4,0,0,0-.61-.64,2.64,2.64,0,0,0-1.08-.17c-.82,0-1.65-.12-2.47-.16a10.29,10.29,0,0,1-1.24-.05,2.43,2.43,0,0,0-1.27.21.44.44,0,0,0-.14.61.47.47,0,0,0,.14.14Z" transform="translate(-0.03 0.02)" fill="#222"/>
  </g>
  <g>
    <path d="M23.47,28.35c1.82,0,3.45.09,5.23.09a.75.75,0,0,1,.7.66,9.85,9.85,0,0,1,.1,1.63,1.29,1.29,0,0,1-1.19,1.35c-1,0-2.36-.07-3.4-.09a1.46,1.46,0,0,1-1.34-1.51V28.63" transform="translate(-0.03 0.02)" fill="#bfbfbf"/>
    <path d="M23.26,28.72a3.83,3.83,0,0,0,1.83.27c.6,0,1.19,0,1.79.05h1.24a1.88,1.88,0,0,1,.58,0c-.06,0,0,.1,0,0a3.47,3.47,0,0,1,0,.91,5.48,5.48,0,0,1,0,.81c0-.11-.07.22,0,.1a.64.64,0,0,1-.08.14v.07h0c0,.05-.13.11-.06.06h0a4,4,0,0,1-.69,0L26.21,31H25.09a.54.54,0,0,0-.18,0h0c-.19,0-.12-.08,0,0s-.22-.11-.09,0h0l-.13-.14h0a.64.64,0,0,1-.08-.14h0a.44.44,0,0,0-.07-.24c-.07-.08,0,.15,0,0v-.79a6.57,6.57,0,0,0-.05-1,.86.86,0,0,0-1.72,0,18.57,18.57,0,0,0,0,2.11,2.5,2.5,0,0,0,1.05,1.87,3.21,3.21,0,0,0,1.87.39h2a2.9,2.9,0,0,0,1.87-.5,2.29,2.29,0,0,0,.8-1.69,7.41,7.41,0,0,0-.07-1.05A3.2,3.2,0,0,0,30,28.68a1.33,1.33,0,0,0-.62-.62,2.47,2.47,0,0,0-1.08-.15c-.83,0-1.65-.07-2.48-.09H24.62a2.29,2.29,0,0,0-1.26.25.43.43,0,0,0-.15.59.54.54,0,0,0,.15.15Z" transform="translate(-0.03 0.02)" fill="#222"/>
  </g>
  <path d="M16,5.42a9.89,9.89,0,0,0,2.3.26h1.1a10.84,10.84,0,0,0,1.14,0,.81.81,0,0,0,.8-.79.82.82,0,0,0-.8-.8c-.38,0-.76.07-1.14.09H18.3a16.05,16.05,0,0,0-2.3.14.52.52,0,0,0,0,1Z" transform="translate(-0.03 0.02)" fill="#222"/>
  <path d="M16.76,24.27a2.59,2.59,0,0,0-.73-1c-.26-.28-.53-.55-.8-.83-.57-.61-1.15-1.2-1.71-1.81s-1.13-1.28-1.66-1.95l-.31-.41c-.13-.16-.25-.33-.37-.5a5.49,5.49,0,0,0-1.06-1.29,1.16,1.16,0,0,0-1.69,1.3,4.7,4.7,0,0,0,.92,1.41c.26.32.52.63.79.94.59.68,1.2,1.32,1.83,1.95s1.2,1.17,1.83,1.71l.91.73a2.81,2.81,0,0,0,1.13.69.76.76,0,0,0,.92-.56.73.73,0,0,0,0-.36Z" transform="translate(-0.03 0.02)" fill="#222"/>
  <path d="M29.23,24.28a2.48,2.48,0,0,0-.75-1.06l-.87-.91-1.91-2c-.67-.72-1.33-1.46-2-2.2L22.81,17a5,5,0,0,0-1.12-1.21,1.16,1.16,0,0,0-1.58.45,1.19,1.19,0,0,0-.11.85,5,5,0,0,0,1.08,1.47l1,1q1.07,1.11,2.16,2.19c.68.66,1.36,1.32,2.07,1.93.36.3.71.6,1.08.89a2.25,2.25,0,0,0,1.18.59.73.73,0,0,0,.73-.73,1.08,1.08,0,0,0,0-.19Z" transform="translate(-0.03 0.02)" fill="#222"/>
</svg>
