<svg xmlns="http://www.w3.org/2000/svg" viewBox="0 0 41.59 40.05">
  <title>category-homecare-gray</title>
  <g>
    <path d="M7.16,17c4.1-2.08,8.2-5.19,12.29-7.27A3.57,3.57,0,0,1,21,9.21a3.41,3.41,0,0,1,1.33.39c4.13,1.86,8.27,4.75,12.4,6.62L34,36.37a245.15,245.15,0,0,1-26-.54c-.17-6-.47-12-.31-18.06" transform="translate(0 -0.02)" fill="#fff"/>
    <path d="M7.46,18.07A34,34,0,0,0,14,14.58l3.18-2c.52-.31,1.05-.62,1.58-.91a6.3,6.3,0,0,1,1.78-.93,4.77,4.77,0,0,1,1.63.69c.42.21,1.06.55,1.59.84,1.07.59,2.12,1.2,3.17,1.82,2.22,1.31,4.42,2.64,6.75,3.74l-1-1.65c-.36,6.71-.54,13.43-.74,20.15l2-2a256.33,256.33,0,0,1-26-.54l1.95,2c-.24-6-.34-12-.5-18.06a1.76,1.76,0,0,0-3.52,0c-.46,6,0,12.06.11,18.06a2,2,0,0,0,2,2,237.42,237.42,0,0,0,26,.53,2,2,0,0,0,1.95-2c.27-6.72.57-13.44.67-20.15a1.86,1.86,0,0,0-1-1.66c-2.5-1.11-4.87-2.47-7.26-3.79C27.2,10.06,26,9.4,24.76,8.81s-2.64-1.48-4-1.23a11.62,11.62,0,0,0-3.42,1.55c-1.21.68-2.39,1.41-3.56,2.16-2.41,1.52-4.85,3-7.18,4.66-1,.68-.42,2.52.87,2.07Z" transform="translate(0 -0.02)" fill="#fff"/>
  </g>
  <path d="M3.79,17.69c3.14-1,6-3.13,8.78-4.9C14,11.85,15.49,10.91,17,10c.63-.37,1.27-.74,1.92-1.09A8.26,8.26,0,0,1,21,7.82c-.5,0,.34.35.47.4.38.16.77.31,1.15.48.73.31,1.44.66,2.15,1,1.44.74,2.83,1.56,4.22,2.39A96.26,96.26,0,0,0,37.8,17a2.2,2.2,0,0,0,2.93-.76A2.15,2.15,0,0,0,40,13.34c-3.21-1.46-6.21-3.29-9.27-5C29.12,7.45,27.58,6.6,26,5.84s-3.53-1.94-5.22-2S17.61,5,16.29,5.78c-1.56.88-3.08,1.84-4.58,2.82l-4.58,3c-1.53,1-3.19,1.88-4.65,3s-.69,3.74,1.31,3.12Z" transform="translate(0 -0.02)" fill="#939393"/>
  <path d="M.18,15.24a33.63,33.63,0,0,0,2.17,3.35,1.89,1.89,0,0,0,1.4.82,1,1,0,0,0,.38-.09c.16-.06.52-.26.17-.08l.23-.13C6.32,18,8,16.8,9.79,15.66,12.33,14,14.9,12.4,17.58,11c.57-.3,1.16-.59,1.75-.85a3.15,3.15,0,0,1,1.89-.46,8.64,8.64,0,0,1,2.54,1.18c.82.46,1.62.94,2.42,1.42a129.15,129.15,0,0,0,12.24,6.79,1,1,0,0,0,1.37-.35h0A16.6,16.6,0,0,0,41.56,14a.89.89,0,0,0-.39-1C35.44,9.5,30,5.48,23.76,2.81A6.89,6.89,0,0,0,19.61,2a14.81,14.81,0,0,0-3.4,1.64C13.68,5,11.21,6.45,8.73,8A58.85,58.85,0,0,0,.3,13.89c-.85.76.28,2.27,1.24,1.6,2.38-1.68,4.72-3.41,7.18-5s4.87-3,7.35-4.37c1-.58,2.06-1.14,3.1-1.71a3.4,3.4,0,0,1,1.41-.56,4.46,4.46,0,0,1,2,.41,45.75,45.75,0,0,1,4.13,2.1Q28.86,7.53,31,8.81c3.12,1.88,6.22,3.82,9.38,5.64l-.39-1a13.25,13.25,0,0,1-1.86,4.21l1.38-.36C36.17,15.72,33,13.89,29.89,12c-1.38-.84-2.77-1.69-4.18-2.49s-3.06-2-4.72-1.92a10,10,0,0,0-3.62,1.33c-1.12.55-2.21,1.17-3.29,1.8C11.82,12,9.62,13.45,7.44,14.89L4.69,16.73a11.29,11.29,0,0,1-1.39.89l.48-.13H3.51c1-.34.51.12.54,0s.14.15,0,0l-.16-.18a9.2,9.2,0,0,1-.69-.95c-.48-.7-.92-1.43-1.43-2.11A1,1,0,0,0,.51,14a.93.93,0,0,0-.33,1.27Z" transform="translate(0 -0.02)" fill="#222"/>
  <path d="M29.19,6.9a13.67,13.67,0,0,0,.06-3,25.08,25.08,0,0,0-.12-3l-.51.67A10,10,0,0,1,31,1.35a4.8,4.8,0,0,1,.75.09L32,1.5c.16,0,.12.07,0,0l-.27-.27c-.08-.12,0-.21-.07,0v.19a3.38,3.38,0,0,0,0,.45V6.68a7.48,7.48,0,0,0,.09,1.89.86.86,0,0,0,1.65,0,6.66,6.66,0,0,0,.06-1.67V5.15c0-1.13,0-2.26-.11-3.38,0-.52,0-1.25-.53-1.54a2.3,2.3,0,0,0-1-.17A15.89,15.89,0,0,0,28.24.2a.71.71,0,0,0-.51.68V5.52A4.63,4.63,0,0,0,28,6.9c.18.54,1.06.64,1.2,0Z" transform="translate(0 -0.02)" fill="#222"/>
  <path d="M34.75,15.87a6.05,6.05,0,0,0-.31,2.46v2.59c0,1.69,0,3.38.07,5.06s.16,3.38.17,5.06v2.47c0,.82-.09,1.82,0,2.72a1,1,0,0,0,2,0,22.55,22.55,0,0,0,0-2.6V31c0-1.68.08-3.37.09-5.06s-.07-3.37-.15-5.06c0-.82-.1-1.64-.17-2.46A6.35,6.35,0,0,0,36,15.87a.75.75,0,0,0-1-.26.81.81,0,0,0-.26.26Z" transform="translate(0 -0.02)" fill="#222"/>
  <path d="M6,16.46a5,5,0,0,0-.4,2.48v2.61l.09,5c0,1.66.07,3.32.14,5L6,34.11a10.69,10.69,0,0,0,.18,2.65.81.81,0,0,0,1,.52.79.79,0,0,0,.52-.52,11.76,11.76,0,0,0,.09-2.65V31.5c0-1.66,0-3.31-.06-5l-.12-5c0-.87-.07-1.74-.12-2.61A4.86,4.86,0,0,0,7,16.46a.57.57,0,0,0-1,0Z" transform="translate(0 -0.02)" fill="#222"/>
  <path d="M27.55,22.46a5.73,5.73,0,0,0-5.26-.66,4.49,4.49,0,0,0-2.24,1.69,10,10,0,0,0-1.2,3.12,23.49,23.49,0,0,0-.65,4,13.5,13.5,0,0,0,.18,4.11.77.77,0,0,0,1.38.27.8.8,0,0,0,.3.09,38.68,38.68,0,0,0,5.05,0c1.69-.07,3.37-.18,5.05-.34a1.08,1.08,0,0,0,1.06-1.06C30.89,29.78,31.19,25,27.55,22.46Z" transform="translate(0 -0.02)" fill="#ccc"/>
  <path d="M18.74,36.59c.37-.33.22-.85.18-1.28s-.09-1-.13-1.55c-.09-1.1-.15-2.2-.19-3.3a11.48,11.48,0,0,1,.92-5.78,5.73,5.73,0,0,1,1.94-2.23,5.89,5.89,0,0,1,3.64-.64,3.58,3.58,0,0,1,2.84,1.31,7.34,7.34,0,0,1,1.14,2.72,26,26,0,0,1,.6,4.47A31.64,31.64,0,0,0,30,35.07a1,1,0,0,0,1.3.55,1,1,0,0,0,.55-.55,19.92,19.92,0,0,0,0-4.88,33.08,33.08,0,0,0-.69-4.64c-.59-2.51-1.94-4.94-4.68-5.43S20.79,20,18.9,22.27a10.16,10.16,0,0,0-2.13,6.65,31.2,31.2,0,0,0,.35,4.32c.09.64.18,1.3.33,1.93s.15,1.32.77,1.56A.52.52,0,0,0,18.74,36.59Z" transform="translate(0 -0.02)" fill="#222"/>
  <path d="M3.16,38.34a33.9,33.9,0,0,0,8.88,1c2.88.09,5.79.1,8.69.06,5.91-.09,11.83-.4,17.74-.72,2.07-.12,2.08-3.36,0-3.24-5.91.33-11.83.64-17.74.72-2.82,0-5.64,0-8.46,0a51.34,51.34,0,0,0-9.11.09c-1.15.18-1,1.83,0,2.13Z" transform="translate(0 -0.02)" fill="#707070"/>
  <path d="M3.16,36.29c2.57.17,5.15.16,7.72.21s5,.07,7.56.07q7.62,0,15.24-.2l3.73-.12h1.5c.11,0,.46.06.09-.11s-.15-.07-.13.17a3.63,3.63,0,0,1,0,.47v.92a3.47,3.47,0,0,0,0,.91c.11.18.16-.31.18-.27a4,4,0,0,0-.49,0H8.86c-1.46,0-2.92,0-4.37.06H3.72c.11,0,.06-.24.06-.29V35.76c-.07-1-1.59-1-1.56,0V37.5a3.55,3.55,0,0,0,.15,1.71C3,40.39,4.68,40,5.76,40H37.62a8.36,8.36,0,0,0,2,0c1.14-.33,1-2,1-2.94s0-2.38-1.34-2.45-2.8.09-4.18.13l-4.34.12L22.34,35c-3.14,0-6.28,0-9.42.06s-6.47-.07-9.7,0a.65.65,0,0,0,0,1.29Z" transform="translate(0 -0.02)" fill="#222"/>
  <path d="M22.29,29a1.11,1.11,0,0,0-.66-.48,1.07,1.07,0,0,0-1,.23.89.89,0,0,0-.31.71.75.75,0,0,0,.05.26.85.85,0,0,0,.1.47v.06l.13.15a.87.87,0,0,0,.37.19h0a.92.92,0,0,0,.67.1,1,1,0,0,0,.59-.39,2.44,2.44,0,0,0,.14-.28,1.57,1.57,0,0,0,.05-.3.29.29,0,0,0,0-.13A1.11,1.11,0,0,0,22.29,29Zm-.06.35-.06-.06-.05-.06Z" transform="translate(0 -0.02)" fill="#222"/>
  <path d="M16.14,21.93a3.07,3.07,0,0,0,.07-1,6.17,6.17,0,0,0,0-.86,3.58,3.58,0,0,0-.52-1.52,2.84,2.84,0,0,0-2.55-1.35,3,3,0,0,0-2.4,1.67,3.47,3.47,0,0,0-.38,1.58q0,.4,0,.81a1.88,1.88,0,0,0,.1.47c0,.11.09.21.14.32s0,.08,0,0l.1.24s.23.27.08.1a.86.86,0,0,0,.62.35h.16a2,2,0,0,0,.35,0h3.24a.78.78,0,0,0,0-1.56H13.23a11.17,11.17,0,0,0-2,.16l.77,1a1.08,1.08,0,0,0,.09-.86L12,21.27a.29.29,0,0,1,0-.13h0v-.78a.29.29,0,0,1,0-.13h0a1.17,1.17,0,0,1,.1-.41c0-.06.06-.29,0-.09a1.24,1.24,0,0,1,.1-.2l.12-.2h0l0-.06.13-.15.08-.07h.05l.09-.06.19-.11c.12-.06-.14,0,0,0l.24-.06h.24a.86.86,0,0,1,.23.06h.08c.15.05,0,0,0,0s.16.09.19.1L14,19h0l.12.11a.93.93,0,0,1,.14.14v.06c-.06-.13,0-.07,0,0s.16.26.23.4h0v.14l.06.24v.12h0v.25a3.31,3.31,0,0,0,.26,1.67.68.68,0,0,0,.95.21.67.67,0,0,0,.29-.37Z" transform="translate(0 -0.02)" fill="#222"/>
</svg>
