<svg xmlns="http://www.w3.org/2000/svg" viewBox="0 0 52.28 40.28">
  <title>category-sleep-gray</title>
  <g>
    <path d="M8.43,37.72A11.14,11.14,0,0,1,4,28.58C4.14,21.22,11.66,18,17.9,17a53.08,53.08,0,0,1,13.85-.33c6.63.64,15.44,3.75,15.88,11.71C48,34.07,42.87,40.13,36.86,39.2c-5-.78-6-4.74-12.13-4.11-2.32.24-4,1.65-5.93,2.83A9.25,9.25,0,0,1,8.43,37.72Z" transform="translate(-0.02 -0.03)" fill="#d6d6d6"/>
    <path d="M9.11,37C4,32.7,3.49,25.24,9.11,21.19c3.48-2.49,8-3.36,12.19-3.73,7.2-.65,17.39-.58,22.77,5.1a9.56,9.56,0,0,1-2.58,14.86C37,39.78,34.13,36.75,30.32,35c-8.08-3.66-13.61,6.46-21.4,1.87a1,1,0,0,0-1,1.66,10.87,10.87,0,0,0,6.65,1.76c3.62-.32,5.73-3,9.07-4,5.9-1.76,9.91,4.79,15.88,3.83,9.26-1.49,11.76-13.89,5.07-19.68C36.82,13.7,22,14,12.86,17.26,3.49,20.6-.77,31.24,7.75,38.4,8.69,39.19,10.06,37.84,9.11,37Z" transform="translate(-0.02 -0.03)" fill="#222"/>
  </g>
  <path d="M36.66,10.46c1.3.4,3-.12,4.36-.16L40,9a13,13,0,0,0-1,4.52,1,1,0,0,0,1,1,.93.93,0,0,0,.33,0c1.12-.31,2.26-.56,3.4-.79s.65-1.93-.48-1.75-2.12.44-3.19.54l1,1.29A38.61,38.61,0,0,0,42,9.3a1.07,1.07,0,0,0-1.12-1,.85.85,0,0,0-.23,0c-1.38.28-3.3.21-4.32,1.31a.56.56,0,0,0,0,.79.58.58,0,0,0,.24.14Z" transform="translate(-0.02 -0.03)" fill="#222"/>
  <path d="M43.93,1.76A38,38,0,0,1,49.37,2L48.42.73c-.17.93-1.23,2-1.78,2.77A40.5,40.5,0,0,0,44.2,7a1.08,1.08,0,0,0,.41,1.47,1.07,1.07,0,0,0,.52.14c2.09-.08,4.49.31,6.53-.22a.9.9,0,0,0,.59-1.13.89.89,0,0,0-.59-.59c-2-.52-4.44-.13-6.53-.2l.75,1.83a27.08,27.08,0,0,0,2.91-3.92c.55-.85,1.69-2.26,1.56-3.35a1.05,1.05,0,0,0-1-1c-1.82.19-3.62.35-5.44.58-.73.09-.78,1.2,0,1.18Z" transform="translate(-0.02 -0.03)" fill="#222"/>
  <path d="M47.47,25.89l1.18.16c.37.06.76.09,1.12.18a1.83,1.83,0,0,0,.25.06s-.22-.24-.17-.26,0,.45,0,.49v1.2a14.77,14.77,0,0,1-.35,2.18,1.91,1.91,0,0,0-.14.52c0-.13.23-.31.34-.26a.81.81,0,0,0-.22,0h-1.3l.73,1a24.14,24.14,0,0,1,1.78-4.23.75.75,0,0,0-.29-1l-.15-.06q-.44-.06-.87-.09h-.61a.74.74,0,0,0-.9.54.88.88,0,0,0,0,.17c0,1.17.31,2.3.21,3.47a.74.74,0,0,0,.37.65.75.75,0,0,0,.57.07.78.78,0,0,0,.55-.72,33.52,33.52,0,0,0-.24-3.47l-.92.71a6.42,6.42,0,0,0,.87.09h.6l-.44-1.08a33.12,33.12,0,0,0-2,4.57.76.76,0,0,0,.5,1,.62.62,0,0,0,.23,0c.49,0,1,0,1.48,0a1.27,1.27,0,0,0,1.2-1,13.2,13.2,0,0,0,.49-3.06V26.24a1.31,1.31,0,0,0-.82-1.31,3,3,0,0,0-.73,0H47.45a.5.5,0,0,0,0,1Z" transform="translate(-0.02 -0.03)" fill="#222"/>
  <g>
    <path d="M3.85,25.41l-2,.1a1.2,1.2,0,0,0-.64.16,1.09,1.09,0,0,0-.32.82L.65,29.27a1.87,1.87,0,0,0,.22,1.31c.43.56,2,.76,2.76.65a.32.32,0,0,0,.24-.11.33.33,0,0,0,0-.14c-.11-1.41-1.15-3.06-1.63-4.4a4.24,4.24,0,0,0,.18,3.5c0,.05.06.1.11.11s.11-.07.07-.1" transform="translate(-0.02 -0.03)" fill="#222"/>
    <path d="M3.85,25H1.74A1.35,1.35,0,0,0,.35,26.1a19.35,19.35,0,0,0-.23,2.15,7.44,7.44,0,0,0-.06,2c.23,1.16,1.45,1.46,2.46,1.58a3.41,3.41,0,0,0,1.35,0c.81-.2.66-1.07.5-1.69a36,36,0,0,0-1.51-3.71.64.64,0,0,0-1.22,0,5,5,0,0,0-.19,2.87,2.65,2.65,0,0,0,.63,1.38.74.74,0,0,0,.91,0,.73.73,0,0,0,.18-.93c-.29-.67-1.46-.18-1.19.51H2l.07-.51v.05l.39-.3h0l.51.07-.07-.05.23.24a3.49,3.49,0,0,1-.18-3.07H1.64a23.36,23.36,0,0,0,1,2.23c.15.35.29.69.41,1a4.44,4.44,0,0,1,.15.52v.4l.16-.28c.14-.06.15-.07,0-.05H2.81a4.28,4.28,0,0,1-.87-.15.33.33,0,0,1-.27-.09c-.09-.09.08.05-.09,0l-.18-.1h0a.23.23,0,0,1-.07-.07,1.89,1.89,0,0,1-.06-1c0-.53.09-1,.12-1.57a10.66,10.66,0,0,1,.09-1.38c0-.15.06-.18.21-.21a4.05,4.05,0,0,0,.7-.08L4,25.74c.56-.07.33-.8-.11-.82Z" transform="translate(-0.02 -0.03)" fill="#222"/>
  </g>
  <g>
    <path d="M7.74,28a9.12,9.12,0,0,1,.42-1.44" transform="translate(-0.02 -0.03)" fill="none" stroke="#222" stroke-linecap="round" stroke-linejoin="round" stroke-width="0.5"/>
    <path d="M9.8,23.94a11.62,11.62,0,0,1,6-3,41.74,41.74,0,0,1,14.9-.82,31.81,31.81,0,0,1,5.88,1.13,14,14,0,0,1,4.88,2.39,7.64,7.64,0,0,1,2.83,4.69,6.74,6.74,0,0,1-2.29,6,5.36,5.36,0,0,1-4.31,1.34A12,12,0,0,1,33.6,33.9a14.27,14.27,0,0,0-12.92-.71c-3.08,1.37-6.61,4-10.06,2A6,6,0,0,1,7.8,31" transform="translate(-0.02 -0.03)" fill="none" stroke="#222" stroke-linecap="round" stroke-linejoin="round" stroke-width="0.5" stroke-dasharray="3.06 3.06"/>
    <path d="M7.65,29.45A8.83,8.83,0,0,1,7.74,28" transform="translate(-0.02 -0.03)" fill="none" stroke="#222" stroke-linecap="round" stroke-linejoin="round" stroke-width="0.5"/>
  </g>
</svg>
