<?xml version="1.0" encoding="utf-8"?>
<!-- Generator: Adobe Illustrator 24.0.0, SVG Export Plug-In . SVG Version: 6.00 Build 0)  -->
<svg version="1.1" id="레이어_1" xmlns="http://www.w3.org/2000/svg" xmlns:xlink="http://www.w3.org/1999/xlink" x="0px"
	 y="0px" width="47.4px" height="60.6px" viewBox="0 0 47.4 60.6" style="enable-background:new 0 0 47.4 60.6;"
	 xml:space="preserve">
<style type="text/css">
	.st0{fill:#FFD29C;}
	.st1{fill:#FFC200;}
	.st2{fill:#222222;}
	.st3{fill:#474747;stroke:#222222;stroke-width:1.9045;stroke-linecap:round;stroke-linejoin:round;stroke-miterlimit:10;}
	.st4{fill:#A3A3A3;}
	.st5{fill:none;stroke:#222222;stroke-width:2.2;stroke-linecap:round;stroke-linejoin:round;stroke-miterlimit:10;}
	.st6{fill:none;stroke:#222222;stroke-width:1.8709;stroke-linecap:round;stroke-linejoin:round;stroke-miterlimit:10;}
	.st7{fill:#2AC1BC;}
	.st8{fill:#F9F9F9;stroke:#222222;stroke-width:1.9098;stroke-linecap:round;stroke-linejoin:round;stroke-miterlimit:10;}
</style>
<polyline class="st0" points="39,46.9 22.6,40.2 19.8,42.7 20.9,45.4 27.2,48 20.4,50.9 14.5,44.5 12.4,44.5 10.8,46.1 10.4,48 
	13,52 10.4,51.8 4.8,48.5 2.4,49 1.1,51.1 2.5,53.9 12.8,57.9 20.5,58.9 39.2,58.2 "/>
<g>
	<path class="st1" d="M28.1,24.6l0.2-1.5c4.4-1.6,7.8-5.8,7.5-10.7C35.5,4.8,31.1,1.1,24.5,1.1c-10.2,0-15.3,9.6-8.9,18.4
		c1.2,1.7,3.1,2.9,5,3.6l0.3,1.2"/>
	<g>
		<path class="st2" d="M29.1,24.9c0.3-2,4.6-3.7,6-5.8c1.8-2.8,2.1-6.2,1.5-9.4C35.3,3.3,30.2-0.2,23.8,0
			c-5.9,0.2-11.4,4.1-12.1,10.3c-0.3,3.2,0.7,6.5,2.5,9.1c0.8,1.2,1.8,2.3,3,3.1c1.1,0.8,2.3,0.8,2.6,2c0.4,1.3,2.5,0.8,2.1-0.6
			c-0.2-0.8-0.3-1.3-0.8-1.9c-1-1-2.9-1.4-4-2.5c-1.2-1.3-2.4-3.4-2.9-5.1c-2-7,3.3-12.4,10.2-12.4C31.3,2.1,36,8,34.6,14.7
			c-0.8,3.9-3.5,5.1-6.2,7.2c-1.1,0.9-1.1,0.8-1.3,2.4C26.9,25.6,28.9,26.2,29.1,24.9L29.1,24.9z"/>
	</g>
</g>
<path class="st3" d="M21.3,32.9c0.4,1.8,1.8,3.1,3.5,3.1c1.7,0,3.1-1.3,3.5-3.1"/>
<g>
	<path class="st4" d="M19.9,28.9c-1.3-0.3-1.5,2.5-0.2,3c0.6,0.2,1.2,0.3,1.9,0.3c2.3,0.1,4.7,0.1,7,0c1,0,1.9-0.3,2.2-1.5
		c0.3-1.4-0.7-2.7-2-2.4"/>
	<g>
		<path class="st2" d="M20.1,28.4c-1.2-0.8-2,0.9-2.1,1.8c-0.1,0.6,0.1,1.2,0.4,1.7c0.5,0.7,1.3,0.9,2.1,1c2.2,0.3,4.4,0.2,6.6,0.2
			c1.7,0,3.7,0,4.3-2c0.6-1.8-0.9-4.3-3-3.6c-0.9,0.3-0.8,1.8,0.2,1.7c0.5-0.1,0.9,0.1,1.1,0.7c0.1,0.5,0,1.1-0.5,1.3
			c-0.6,0.3-1.5,0.2-2.2,0.2c-1,0-2,0-3,0c-1,0-1.9,0-2.9-0.1c-0.5,0-1.3,0-1.5-0.4c-0.2-0.3-0.3-0.8-0.2-1.1c0-0.4,0.1-0.4,0.5-0.5
			C20.5,29.3,20.4,28.7,20.1,28.4L20.1,28.4z"/>
	</g>
</g>
<g>
	<path class="st4" d="M18.8,27.2c-0.2-0.8,0.1-1.6,0.6-2.1c0.6-0.5,1.5-0.4,2.2-0.4c1.1,0,2.1-0.1,3.2-0.1c0.9,0,1.7,0,2.6,0
		c0.4,0,0.9,0.1,1.3,0.1c0.4,0,0.7,0.1,1,0.4c0.5,0.4,0.5,1.3,0.3,1.9c-0.1,0.5-0.4,0.9-0.8,1.1c-0.5,0.2-1,0.1-1.4,0.2
		c-1.2,0.2-2.5,0.1-3.7,0.1c-1.3,0-2.7,0-4-0.2c-0.6-0.1-1-0.3-1.2-0.9"/>
	<g>
		<path class="st2" d="M19.5,27.4c0.1-0.8,0.2-1.7,1.2-1.8c1-0.1,2.1-0.1,3.1-0.1c1.1,0,2.2-0.1,3.3,0c0.5,0,1.1,0.1,1.6,0.2
			c0.2,0,0.4,0.1,0.5,0.2c-0.1-0.1,0,0,0,0.1c0,0.4-0.1,0.6-0.2,1c0,0.1-0.1,0.1-0.1,0.1c0.2-0.1,0.1-0.1-0.1,0
			c-0.2,0-0.4,0-0.6,0.1c-1.1,0.1-2.1,0.1-3.2,0.1c-1.1,0-2.3,0-3.4,0c-0.5,0-1,0-1.4-0.2c-0.1,0-0.3-0.2-0.2,0
			c-0.1-0.1-0.3-0.3-0.4-0.4c-0.6-0.6-1.6-0.2-1.6,0.7c0,1.1,0.9,1.8,1.9,2c1.2,0.2,2.4,0.3,3.6,0.3c1.2,0,2.5,0.1,3.7,0
			c1-0.1,2.5,0,3.2-0.8c0.7-0.7,1-1.8,0.9-2.8c-0.1-1.1-0.7-1.9-1.8-2.2c-1.1-0.3-2.4-0.2-3.5-0.2c-1.2,0-2.4,0.1-3.7,0.2
			c-1.1,0-2.4-0.1-3.3,0.6c-0.9,0.7-1.4,2.1-0.7,3.1C18.5,28,19.4,28,19.5,27.4L19.5,27.4z"/>
	</g>
</g>
<path class="st5" d="M10.8,51.7l-5.4-2.8C4,48.1,2.3,48.6,1.5,50l0,0c-0.8,1.4-0.3,3.2,1.1,3.9l0,0c6,3.5,12.8,5.2,19.8,4.9
	c1.6-0.1,3.3-0.1,5.2-0.2c6.4-0.3,8.8-0.5,11.9-0.6"/>
<path class="st5" d="M13.4,51.7L11,49c-1.1-1.2-0.9-3,0.2-4.1l0,0c1.2-1.1,3-0.9,4.1,0.2l5.1,5.7"/>
<path class="st6" d="M27.2,48"/>
<path class="st5" d="M27.2,48l-5.6-2.2c-1.4-0.6-2.1-2.2-1.6-3.6l0-0.1c0.6-1.5,2.3-2.2,3.8-1.6l7.5,2.9c1.7,0.7,4.8,2.4,7.8,3.6"/>
<path class="st5" d="M10.8,51.7l2.7,0.1c3.4,0.2,6.9-0.4,10-1.7c1.4-0.6,2.6-1.3,3.7-2l0,0"/>
<g>
	<path class="st7" d="M39.2,43.9c1.3-0.1,3.6-0.2,4.9-0.3c0.8-0.1,1.5,0.5,1.6,1.4c0.6,4.4,0.7,8.8,0.4,13.3c0,0.6-0.5,1.1-1,1.1
		c-1,0.1-3,0.1-4,0.1c-0.2,0-0.5,0-0.7-0.1c-0.2-0.1-0.5-1.1-0.6-1.3c-0.9-2.7-0.2-4.6-0.5-7.4c-0.2-2.1-0.2-4.5-0.1-6.5"/>
	<g>
		<path class="st2" d="M39,44.4c1,0.3,1.9,0.2,2.9,0.2c0.4,0,1.2-0.2,1.6-0.1c1.5,0.5,1.3,2.1,1.4,3.3c0.1,1.7,0.2,3.5,0.2,5.2
			c0,1.2,0.5,4.5-0.7,5.3c-0.5,0.3-3.2,0.2-3.6-0.2c-0.9-0.9-0.5-3.6-0.5-4.8c0.1-3,0-6.1-0.2-9.1c-0.1-1-1.7-1.4-1.9-0.3
			c-0.4,2.4-0.1,4.8,0,7.3c0.1,2.4-0.2,4.8,0.5,7.2c0.4,1.3,0.8,2.1,2.3,2.2c1.4,0.1,4,0.3,5.2-0.5c1.6-1.1,1.1-4,1.1-5.6
			c0-2.9-0.1-5.8-0.5-8.7c-0.2-1.4-0.6-2.8-2.2-3.1c-1.5-0.3-4.2,0-5.7,0.6C38.5,43.5,38.4,44.3,39,44.4L39,44.4z"/>
	</g>
</g>
<rect x="22.9" y="14.3" class="st8" width="3" height="10.3"/>
<g>
	<g>
		<path class="st2" d="M21.4,11.6c-0.1-0.1-0.2-0.1-0.2-0.2c-0.1-0.1-0.2-0.2-0.3-0.2c0,0-0.1-0.1-0.1-0.1c-0.1-0.1-0.2-0.1-0.3-0.2
			c-0.1-0.1-0.3-0.1-0.4-0.2c0,0,0,0-0.1,0c-0.2-0.1-0.4,0-0.6,0c-0.2,0.1-0.3,0.1-0.5,0.3c-0.1,0.1-0.2,0.2-0.2,0.3
			c-0.1,0.1-0.1,0.3-0.1,0.4c0,0.2,0,0.4,0.1,0.5c0.1,0.2,0.3,0.3,0.5,0.5c0,0,0.1,0.1,0.1,0.1c0.1,0,0.2,0.1,0.3,0.1
			c0.2,0.1,0.3,0.2,0.5,0.2c0.1,0,0.2,0.1,0.3,0.1c0.1,0,0.2,0,0.3,0c0.1,0,0.3,0,0.4-0.1c0.1,0,0.2-0.1,0.2-0.1
			c0.1-0.1,0.2-0.2,0.3-0.3c0-0.1,0.1-0.2,0.1-0.2c0-0.1,0-0.2,0-0.3c0-0.1,0-0.3-0.1-0.4C21.5,11.8,21.5,11.7,21.4,11.6L21.4,11.6z
			"/>
	</g>
</g>
<g>
	<g>
		<path class="st2" d="M25.2,10.8c0.1-0.2,0.1-0.4,0.1-0.7c0-0.2,0-0.4,0-0.6c0-0.2,0-0.4,0-0.6c0-0.1,0-0.2,0-0.3c0,0,0-0.1,0-0.1
			c0-0.3-0.1-0.6-0.3-0.8c-0.2-0.2-0.5-0.3-0.7-0.3c-0.1,0-0.2,0-0.3,0c-0.2,0-0.3,0.1-0.5,0.3c-0.3,0.3-0.3,0.8-0.3,1.2
			c0,0.2,0,0.4,0,0.6c0,0.3,0.1,0.5,0.1,0.8c0,0.2,0.1,0.4,0.3,0.6c0.2,0.3,0.5,0.4,0.8,0.4c0.2,0,0.3-0.1,0.4-0.2
			C25,11.2,25.1,11,25.2,10.8L25.2,10.8z"/>
	</g>
</g>
<g>
	<g>
		<path class="st2" d="M28.2,13.1c0.1,0,0.1,0,0.2,0c-0.1,0-0.3-0.1-0.4-0.1c0.2,0.1,0.5,0.1,0.7,0.1c0.2,0,0.4,0,0.6-0.1
			c0.1,0,0.2,0,0.3-0.1c0.1,0,0.3-0.1,0.4-0.2c0.1-0.1,0.2-0.2,0.3-0.3c0.1-0.1,0.2-0.2,0.2-0.4c0-0.1,0-0.2,0-0.3
			c0-0.2,0-0.3-0.1-0.4c0-0.1-0.1-0.3-0.2-0.4c-0.1-0.1-0.2-0.1-0.2-0.2c-0.3-0.1-0.6-0.2-0.9-0.1c-0.1,0-0.3,0.1-0.4,0.2
			c-0.1,0.1-0.2,0.1-0.3,0.2c-0.2,0.1-0.3,0.2-0.4,0.3c0,0-0.1,0.1-0.1,0.1c-0.1,0.1-0.3,0.3-0.3,0.5c0.1-0.1,0.2-0.3,0.2-0.4
			c0,0-0.1,0.1-0.1,0.1c-0.1,0.1-0.2,0.2-0.2,0.4c0,0.1,0,0.1,0,0.2c0,0.1,0,0.2,0.1,0.3c0,0.1,0.1,0.1,0.1,0.2
			c0,0.1,0.1,0.1,0.1,0.1c0.1,0.1,0.1,0.1,0.2,0.1C28,13.1,28.1,13.1,28.2,13.1L28.2,13.1z"/>
	</g>
</g>
</svg>
