<svg xmlns="http://www.w3.org/2000/svg" viewBox="0 0 80.01 60.49">
  <title>company-introduce-01</title>
  <g>
    <path d="M20.61,40.48a54.6,54.6,0,0,0,17-3c9.67-3.39,12.47-15.11,8.38-23.6C42.26,6.19,32.72,4,24.64,4.25c-9.07.31-19,2.66-22.34,13.49a16,16,0,0,0-.74,4.6c-.07,5.81,2.69,9.85,7.29,12.93,2.53,1.7,3.5,2.58,4,5.47a27.75,27.75,0,0,1,.54,6.61,47,47,0,0,0,7.08-6.47" transform="translate(-0.01)" fill="#ceb2b2"/>
    <path d="M20.61,41.32a51.15,51.15,0,0,0,17-2.43A16,16,0,0,0,47,31.08c3.89-7.36,2.5-17.48-4.1-22.84s-16.77-5.85-25-4.46A23.9,23.9,0,0,0,6.7,8.48,18.6,18.6,0,0,0,.1,20.94,15.6,15.6,0,0,0,6.1,35c1.7,1.31,4.29,2.12,5.28,4.17,1.15,2.39,1.17,5.6,1,8.18a1,1,0,0,0,1.42.82,51.39,51.39,0,0,0,7.3-6.6c.84-.94-.52-2.31-1.38-1.38a62.86,62.86,0,0,1-7.06,6.49l1.61.67a44,44,0,0,0-.58-6.78,7.72,7.72,0,0,0-2-4.58c-1.41-1.45-3.18-2.52-4.62-4a13.44,13.44,0,0,1-3.24-4.84A15.63,15.63,0,0,1,5.7,13.84a16.47,16.47,0,0,1,8.63-6.72A35.65,35.65,0,0,1,25.46,5.3,27.82,27.82,0,0,1,37.65,7.52a14.33,14.33,0,0,1,7.94,8.57A18.26,18.26,0,0,1,45.78,27a14.06,14.06,0,0,1-7.9,9,50.14,50.14,0,0,1-17.27,3.63.84.84,0,0,0,0,1.67Z" transform="translate(-0.01)" fill="#222"/>
  </g>
  <g>
    <line x1="36.02" y1="25.3" x2="35.37" y2="26.14" fill="none" stroke="#ff5764" stroke-linecap="round" stroke-linejoin="round" stroke-width="0.5"/>
    <line x1="37.29" y1="25.3" x2="36.64" y2="26.13" fill="none" stroke="#ff5764" stroke-linecap="round" stroke-linejoin="round" stroke-width="0.5"/>
  </g>
  <path d="M14,11.72c1.17.35,2.1.95,3.29,1.3,5.75,1.71,12.48-.08,13.27-6.33.35-2.85-1.59-5.91-5-5.6-3,.27-4.6,2.86-4.56,5.54,0,0,0,.07,0,.1C21.29,13.2,14.45,11.82,14,11.72Z" transform="translate(-0.01)" fill="#ffdb45" stroke="#222" stroke-linecap="round" stroke-linejoin="round" stroke-width="2.13"/>
  <path d="M59.64,53.48c-2.63,0-5.55.23-8.37,0C37.62,52.11,28.5,41.87,33.18,29.77c.15-.39.32-.78.49-1.15,3.74-8,13.28-10.3,21.36-10,5.34.19,11.21.34,15.84,3.35,4.06,2.64,6.77,5.92,7.55,10.61A19.13,19.13,0,0,1,77.6,43a11.09,11.09,0,0,1-3.07,4.22c-1.57,1.32-3.57,2-5,3.57a10.17,10.17,0,0,0-2.71,8.5c-2.67-3.05-5-4.16-7.23-5.76" transform="translate(-0.01)" fill="#ffe4de" stroke="#222" stroke-linecap="round" stroke-linejoin="round" stroke-width="2.5"/>
  <path d="M43.45,21.81a4.25,4.25,0,0,0,6.29,3.54,4.27,4.27,0,0,0,8.08-.57,4.26,4.26,0,0,0,6.69-3.71,4.29,4.29,0,0,0-2.87-3.83c0-.1,0-.2,0-.3a4.26,4.26,0,0,0-7.84-2.12,4.26,4.26,0,0,0-7.61,2.8A4.26,4.26,0,0,0,43.45,21.81Z" transform="translate(-0.01)" fill="#af8468" stroke="#222" stroke-linecap="round" stroke-linejoin="round" stroke-width="2.2"/>
  <g>
    <path d="M51.56,35.37a.8.8,0,0,0,.21-.53.83.83,0,0,0-.42-.7.8.8,0,0,0,.26-.58.88.88,0,0,0-.06-.28.94.94,0,0,0,.06-.29.91.91,0,0,0-1-.85H46.14a.91.91,0,0,0-1,.85.72.72,0,0,0,.06.29.67.67,0,0,0-.06.28.72.72,0,0,0,.06.29h-.54a.86.86,0,1,0,0,1.7h.16a.87.87,0,0,0-.29.62.91.91,0,0,0,1,.85h5.68a.91.91,0,0,0,1-.85A.86.86,0,0,0,51.56,35.37Z" transform="translate(-0.01)" fill="#222"/>
    <path d="M48.81,34A.92.92,0,1,1,47.9,33a.92.92,0,0,1,.91.92" transform="translate(-0.01)" fill="#fff"/>
    <path d="M49.61,35.79a.52.52,0,1,1-.52-.52.52.52,0,0,1,.52.52" transform="translate(-0.01)" fill="#fff"/>
  </g>
  <g>
    <path d="M58.69,35.37a.8.8,0,0,1-.21-.53.82.82,0,0,1,.41-.7.83.83,0,0,1-.25-.58.67.67,0,0,1,.06-.28.72.72,0,0,1-.06-.29.9.9,0,0,1,1-.85H64.1a.91.91,0,0,1,1,.85.94.94,0,0,1-.06.29.88.88,0,0,1,.06.28.94.94,0,0,1-.06.29h.54a.86.86,0,1,1,0,1.7h-.17a.83.83,0,0,1,.29.62.91.91,0,0,1-1,.85H59a.91.91,0,0,1-1-.85A.85.85,0,0,1,58.69,35.37Z" transform="translate(-0.01)" fill="#222"/>
    <path d="M61.43,34a.92.92,0,1,0,.92-.92.92.92,0,0,0-.92.92" transform="translate(-0.01)" fill="#fff"/>
    <path d="M60.63,35.79a.52.52,0,1,0,1,0,.52.52,0,1,0-1,0" transform="translate(-0.01)" fill="#fff"/>
  </g>
  <path d="M56.05,40.31c-.86-.15-1.46.48-1.28,1.06.12.39.62.61,1,.77,0,0-.15.09-.18.1a3,3,0,0,0-.5.27.76.76,0,0,0-.25,1.2,1.27,1.27,0,0,0,1.3.26" transform="translate(-0.01)" fill="none" stroke="#222" stroke-linecap="round" stroke-linejoin="round" stroke-width="1.3"/>
  <line x1="55.3" y1="35.57" x2="55.3" y2="36.72" stroke="#222" stroke-linecap="round" stroke-linejoin="round" stroke-width="1.3"/>
  <g>
    <ellipse cx="70.44" cy="41.33" rx="4.34" ry="4.3" transform="translate(28.97 111.69) rotate(-89.9)" fill="#ffaeba"/>
    <g>
      <line x1="68.25" y1="40.93" x2="67.53" y2="41.85" fill="none" stroke="#ff5764" stroke-linecap="round" stroke-linejoin="round" stroke-width="0.5"/>
      <line x1="69.65" y1="40.93" x2="68.93" y2="41.85" fill="none" stroke="#ff5764" stroke-linecap="round" stroke-linejoin="round" stroke-width="0.5"/>
    </g>
  </g>
  <g>
    <ellipse cx="41.07" cy="41.61" rx="4.34" ry="4.3" transform="translate(-0.62 82.61) rotate(-89.9)" fill="#ffaeba"/>
    <g>
      <line x1="42.39" y1="41.32" x2="41.67" y2="42.24" fill="none" stroke="#ff5764" stroke-linecap="round" stroke-linejoin="round" stroke-width="0.5"/>
      <line x1="43.79" y1="41.31" x2="43.07" y2="42.23" fill="none" stroke="#ff5764" stroke-linecap="round" stroke-linejoin="round" stroke-width="0.5"/>
    </g>
  </g>
  <g>
    <circle cx="30.29" cy="21.66" r="1.65" fill="#222" stroke="#222" stroke-linecap="round" stroke-linejoin="round"/>
    <circle cx="31.03" cy="22.19" r="0.44" fill="#fff"/>
  </g>
  <g>
    <circle cx="19.17" cy="21.66" r="1.65" fill="#222" stroke="#222" stroke-linecap="round" stroke-linejoin="round"/>
    <circle cx="19.91" cy="22.19" r="0.44" fill="#fff"/>
  </g>
  <path d="M23.94,27.07h1.8a.36.36,0,0,1,.36.36V29a1.26,1.26,0,0,1-1.26,1.26h0A1.26,1.26,0,0,1,23.58,29V27.43A.36.36,0,0,1,23.94,27.07Z" fill="#fff" stroke="#222" stroke-linecap="round" stroke-linejoin="round" stroke-width="1.46"/>
  <line x1="24.84" y1="21.81" x2="24.84" y2="22.97" stroke="#222" stroke-linecap="round" stroke-linejoin="round" stroke-width="1.3"/>
  <g>
    <ellipse cx="11.19" cy="26.77" rx="4.34" ry="4.3" transform="translate(-15.61 37.9) rotate(-89.9)" fill="#ffaeba"/>
    <g>
      <line x1="12.5" y1="26.47" x2="11.79" y2="27.39" fill="none" stroke="#ff5764" stroke-linecap="round" stroke-linejoin="round" stroke-width="0.5"/>
      <line x1="13.91" y1="26.47" x2="13.19" y2="27.39" fill="none" stroke="#ff5764" stroke-linecap="round" stroke-linejoin="round" stroke-width="0.5"/>
    </g>
  </g>
</svg>
