<svg xmlns="http://www.w3.org/2000/svg" viewBox="0 0 69.22 59.99">
  <title>company-introduce-04</title>
  <g>
    <polygon points="17.86 1.46 7.82 16.06 28.25 15.51 17.86 1.46" fill="#008cff"/>
    <path d="M8.5,16.26l.37,34.09,8.45.5S22.26,42,28.18,40.33L27.9,16.16Z" transform="translate(0)" fill="#e0e0e0"/>
    <path d="M1,58.64H39.88l-.4-19.09S26,35.81,17.86,50.85C17.86,50.85,1.29,46.37,1,58.64Z" transform="translate(0)" fill="#62a563"/>
    <polygon points="37.51 42.5 51.27 32.71 64.95 42.08 64.8 57.94 38.52 58.65 37.51 42.5" fill="#f2e9c7"/>
  </g>
  <g>
    <path d="M10.11,49.82c-.11-8.09-.33-16.17-.55-24.26-.08-3.11-.15-6.22-.17-9.33V15.07a2.32,2.32,0,0,0,0-.37c-.06-.32-.07.16-.06.15A5.69,5.69,0,0,0,10,13.73c.42-.67.86-1.32,1.31-2C13.61,8.39,16,4.81,19,2H17.32c2.05,2.23,3.93,4.61,5.76,7,.78,1,1.55,2.06,2.31,3.1.26.36.52.73.79,1.09s.25.28.32.48c.47,1.36.3,3.45.36,5,.11,3.05.15,6.09.17,9.14q0,6.25-.09,12.53a1.24,1.24,0,0,0,2.48,0c.1-7.12.07-14.25-.24-21.36a34,34,0,0,0-.43-5.71,4.41,4.41,0,0,0-.89-1.63c-.74-1-1.5-2.07-2.26-3.1C23.5,5.72,21.36,2.93,19,.34a1.2,1.2,0,0,0-1.68,0,52.49,52.49,0,0,0-7.11,8.87C9,10.92,7.07,13,7.06,15.17c0,7,.14,14.08.29,21.1q.15,6.78.28,13.55a1.24,1.24,0,0,0,2.48,0Z" transform="translate(0)" fill="#222"/>
    <path d="M1.84,58.64a5,5,0,0,1,1.7-3.54,15.25,15.25,0,0,1,3.73-2.75,10.27,10.27,0,0,1,4.85-1.26,24.76,24.76,0,0,1,5.44,1A1.2,1.2,0,0,0,19,51.29,10.84,10.84,0,0,1,20,49c.16-.28.36-.53.52-.81s-.13.13,0,0,.29-.33.44-.5a29.36,29.36,0,0,1,4-3.85,14,14,0,0,1,3.9-2.15,15,15,0,0,1,4.56-.7,1.19,1.19,0,0,0,0-2.38,17.3,17.3,0,0,0-5.35.84,16.2,16.2,0,0,0-4.46,2.46c-3,2.26-5.86,5.09-6.92,8.78l1.46-.83A25.29,25.29,0,0,0,11.8,48.7a12.88,12.88,0,0,0-6,1.74C2.86,52.12-.7,55.1.12,58.88a.88.88,0,0,0,1.72-.24Z" transform="translate(0)" fill="#222"/>
    <g>
      <path d="M20.88,16.16a28.12,28.12,0,0,0,3.67,3.4l7-6.39a.39.39,0,0,0,.17-.3.45.45,0,0,0-.15-.21L28.31,9.81a1,1,0,0,0-.41-.26.91.91,0,0,0-.8.28c-1.8,1.75-4.26,4-6.22,6.33" transform="translate(0)" fill="#ffc200"/>
      <path d="M20.24,16.54a7.79,7.79,0,0,0,1.64,2,24.48,24.48,0,0,0,2,1.71,1,1,0,0,0,1.43,0l4.38-4,2.15-2a2.83,2.83,0,0,0,.84-1,1.27,1.27,0,0,0-.3-1.38c-.66-.68-1.46-1.27-2.17-1.9s-1.45-1.54-2.41-1.54-1.44.67-2,1.22L24,11.48c-.7.68-1.4,1.37-2.07,2.08s-1.73,1.55-1.84,2.6a.83.83,0,0,0,1,.79,3,3,0,0,0,1.38-1.13c.4-.44.81-.87,1.23-1.3.82-.85,1.68-1.68,2.53-2.5l1.15-1.1s.45-.4.45-.42l-.29,0,.05,0c0,.07.35.31.41.36l1.46,1.28.74.65c.18.16.55.38.64.57l-.1-.78c.12-.17.13-.2,0-.08l-.24.22-.48.43-.79.73-1.84,1.67-3.57,3.28,1.23-.16c-.65-.5-1.27-1-1.88-1.56a12.24,12.24,0,0,0-1.93-1.6.75.75,0,0,0-1,1Z" transform="translate(0)" fill="#222"/>
    </g>
    <g>
      <path d="M3.7,33.34a28.12,28.12,0,0,0,3.67,3.4l7-6.39a.39.39,0,0,0,.17-.3c0-.09-.09-.15-.15-.21L11.13,27a1,1,0,0,0-.41-.26.91.91,0,0,0-.8.28c-1.79,1.75-4.26,4-6.22,6.33" transform="translate(0)" fill="#ffc200"/>
      <path d="M3.06,33.72a7.63,7.63,0,0,0,1.65,2,22.72,22.72,0,0,0,2,1.71,1,1,0,0,0,1.43,0l4.39-4,2.14-2a2.83,2.83,0,0,0,.84-.95,1.25,1.25,0,0,0-.3-1.38c-.66-.69-1.46-1.27-2.17-1.9s-1.45-1.54-2.41-1.54-1.44.67-2,1.22L6.8,28.65c-.7.69-1.4,1.38-2.07,2.09S3,32.29,2.89,33.34a.83.83,0,0,0,1,.79A3.1,3.1,0,0,0,5.3,33c.4-.44.81-.87,1.23-1.3.82-.85,1.68-1.68,2.53-2.5l1.15-1.1s.45-.4.45-.42l-.29,0,.05.05c0,.07.35.31.41.36l1.47,1.28L13,30c.18.16.55.39.64.58l-.1-.78c.12-.17.13-.2,0-.08l-.24.22-.48.43-.79.73-1.84,1.67L6.66,36l1.23-.15c-.65-.5-1.27-1-1.88-1.56A12.31,12.31,0,0,0,4.08,32.7a.76.76,0,0,0-1,1Z" transform="translate(0)" fill="#222"/>
    </g>
    <g>
      <path d="M24.47,26a27.33,27.33,0,0,0-3.24,3.8l6.67,6.74c.08.09.19.18.3.16a.41.41,0,0,0,.21-.16l2.71-3.38a1,1,0,0,0,.24-.42.91.91,0,0,0-.31-.79c-1.82-1.72-4.17-4.09-6.58-5.95" transform="translate(0)" fill="#ffc200"/>
      <path d="M24.1,25.4a7.3,7.3,0,0,0-2,1.78,21.13,21.13,0,0,0-1.73,2.15,1,1,0,0,0,.16,1.23l4.14,4.2,2.08,2.09a3.28,3.28,0,0,0,1,.81,1.29,1.29,0,0,0,1.38-.31c.65-.67,1.2-1.5,1.78-2.23s1.48-1.49,1.5-2.41-.66-1.45-1.26-2L29.3,29c-.72-.68-1.45-1.35-2.2-2s-1.6-1.66-2.63-1.72a.83.83,0,0,0-.78,1,3.11,3.11,0,0,0,1.21,1.38c.45.38.89.76,1.32,1.15.89.8,1.76,1.62,2.62,2.45L30,32.3a4.32,4.32,0,0,0,.44.42s.17-.26,0-.15-.23.29-.33.4l-1.16,1.45-.65.8c-.14.17-.34.55-.52.64l.51-.14h-.11l.51.14a6.4,6.4,0,0,1-.72-.74l-.82-.82-1.7-1.73-3.42-3.44.16,1.23c.47-.66,1-1.31,1.48-1.94a12.77,12.77,0,0,0,1.53-2,.74.74,0,0,0-1-1Z" transform="translate(0)" fill="#222"/>
    </g>
    <g>
      <path d="M7.1,9.13A28.83,28.83,0,0,0,3.7,12.8l6.4,7c.08.09.18.19.3.17a.38.38,0,0,0,.21-.15l2.85-3.27a1.08,1.08,0,0,0,.25-.41.91.91,0,0,0-.27-.8A87.81,87.81,0,0,0,7.1,9.13" transform="translate(0)" fill="#ffc200"/>
      <path d="M6.73,8.49a7.12,7.12,0,0,0-2,1.64A22.72,22.72,0,0,0,3,12.08a1,1,0,0,0,0,1.43q2,2.21,4,4.39l2,2.14a2.83,2.83,0,0,0,1,.84,1.28,1.28,0,0,0,1.39-.29c.68-.66,1.27-1.46,1.89-2.18S14.72,17,14.72,16s-.67-1.43-1.22-2l-1.71-1.77c-.68-.7-1.38-1.4-2.09-2.07S8.15,8.42,7.1,8.32a.81.81,0,0,0-.78,1,3,3,0,0,0,1.12,1.38c.45.4.88.81,1.31,1.23.85.83,1.67,1.68,2.5,2.54l1.09,1.14c.05,0,.4.46.42.45l0-.29,0,.05c-.08,0-.31.36-.36.41L11.1,17.72l-.64.73c-.16.18-.39.55-.58.64l.79-.1c.17.12.19.13.07,0l-.21-.24-.44-.47-.72-.8L7.7,15.66q-1.63-1.8-3.28-3.58l.16,1.23c.49-.65,1-1.27,1.56-1.88A12.24,12.24,0,0,0,7.74,9.5a.74.74,0,0,0-1-1Z" transform="translate(0)" fill="#222"/>
    </g>
    <path d="M11.93,18.69A4.92,4.92,0,0,0,13,20.13c.37.45.78.87,1.18,1.29.85.89,1.72,1.75,2.6,2.61s1.76,1.71,2.64,2.57,1.65,2,2.73,2.3a1,1,0,0,0,1.19-1.19c-.29-1.09-1.47-2-2.28-2.76s-1.74-1.72-2.64-2.56-1.79-1.68-2.7-2.51c-.41-.37-.82-.75-1.25-1.11A5.72,5.72,0,0,0,13,17.65a.85.85,0,0,0-1,1Z" transform="translate(0)" fill="#222"/>
    <path d="M13.05,28.92a4.62,4.62,0,0,0,.73-.38c.25-.18.49-.37.72-.56a13.05,13.05,0,0,0,1.26-1.1,30.19,30.19,0,0,0,2.36-2.57c.72-.89,1.4-1.81,2.1-2.71.38-.48.76-1,1.13-1.45a10.88,10.88,0,0,0,1-1.36c.35-.68-.43-1.7-1.16-1.16a16.27,16.27,0,0,0-2.34,2.49c-.77.87-1.56,1.73-2.33,2.59s-1.48,1.73-2.23,2.59c-.38.45-.75.9-1.11,1.36l-.5.61a8.24,8.24,0,0,0-.5.8c-.35.55.33,1.13.86.85Z" transform="translate(0)" fill="#222"/>
    <path d="M13.34,17.52a2.44,2.44,0,0,0,1,.24c.27,0,.53.06.79.07.59,0,1.18.06,1.77.07,1.16,0,2.3.07,3.46.05a1.1,1.1,0,0,0,0-2.2c-1.17,0-2.34,0-3.52,0-.58,0-1.18,0-1.76.06a3.6,3.6,0,0,0-1.94.53.79.79,0,0,0,.16,1.22Z" transform="translate(0)" fill="#222"/>
    <path d="M36.75,42.86a61.19,61.19,0,0,0-.08,7.78c0,2.59.13,5.19.2,7.78a1.06,1.06,0,0,0,1,1,119.27,119.27,0,0,0,27.17-.52,1.06,1.06,0,0,0,.76-1c.09-2.7.13-5.41.06-8.11,0-1.31-.1-2.63-.19-3.93a15.54,15.54,0,0,0-.56-4.14.8.8,0,0,0-1.57.21,20.7,20.7,0,0,0,.17,3.93c.1,1.35.16,2.7.19,4.05a78.86,78.86,0,0,1-.17,8l1-1c-4.47.46-8.93.85-13.43.93a128.72,128.72,0,0,1-13.46-.47L39,58.42c-.07-2.64-.12-5.27-.22-7.9a62.48,62.48,0,0,0-.5-7.86c-.15-.91-1.41-.57-1.49.2Z" transform="translate(0)" fill="#222"/>
    <path d="M16.16,51c.11.51.79.85,1.22,1s.83.38,1.23.6.76.41,1.12.66a4.86,4.86,0,0,0,.54.33,2.46,2.46,0,0,1,.47.2l0,0a1.34,1.34,0,0,0,.3.12,1,1,0,0,0,1.16-1.16,1.57,1.57,0,0,0-.12-.3c-.06-.12,0,0,0,.05a1.47,1.47,0,0,0-.25-.48,3,3,0,0,0-.77-.73,6.29,6.29,0,0,0-1.42-.71,13.84,13.84,0,0,0-1.37-.36,6.13,6.13,0,0,0-.84-.14,1.32,1.32,0,0,0-.92.11.75.75,0,0,0-.32.78Z" transform="translate(0)" fill="#222"/>
    <polygon points="34.2 44.46 37.68 45.78 50.83 38.02 64.82 45.74 68.38 44.51 52.18 34.44 50.53 34.44 34.2 44.46" fill="#a02727"/>
    <g>
      <path d="M46.57,58.07c0-1.63,0-3.18,0-4.65a4.75,4.75,0,0,1,4.33-4.83H51a4.72,4.72,0,0,1,4.85,4.84c0,1.55,0,3.08,0,4.49" transform="translate(0)" fill="#ffc200"/>
      <path d="M47.31,58.27c.51-2.81-.6-8.39,3.69-8.6s3.44,5.46,3.48,8.24c0,1.81,2.87,1.81,2.81,0-.09-2.58.39-5.68-1.23-7.9A6.12,6.12,0,0,0,51,47.5c-5.65.21-5.91,6.59-5.17,10.77a.77.77,0,0,0,1.48,0Z" transform="translate(0)" fill="#222"/>
    </g>
    <polyline points="34.2 45.02 37.25 45.74 50.83 37.73 64.82 45.74 68.01 44.45" fill="none" stroke="#222" stroke-linecap="round" stroke-linejoin="round" stroke-width="1.48"/>
    <path d="M34.06,36.27c.12-.18,3.23-2.18,4.26-2.92l10.49-7.57a3.23,3.23,0,0,1,4,.13L68,36v8.29L52.18,34.44c-.78-.51-1.24-1.24-2.3-.35S47.29,36,46.21,36.66c-2.67,1.77-11,7.51-11.9,8.11C34.31,44.77,33.56,37,34.06,36.27Z" transform="translate(0)" fill="#f93a3a"/>
    <circle cx="17.76" cy="23.37" r="2.47" fill="#ce7f00" stroke="#222" stroke-linecap="round" stroke-linejoin="round" stroke-width="1.82"/>
    <path d="M38.44,33.19c.22,1.25.57,2.48.84,3.71a18.45,18.45,0,0,0,.95,3.61.39.39,0,0,0,.72-.19,27.41,27.41,0,0,0-.9-3.89A16,16,0,0,0,38.93,33c-.14-.29-.53-.07-.49.21Z" transform="translate(0)" fill="#ad2323"/>
    <path d="M43.14,29.76c.82,2.32,1.09,4.81,2,7.11.23.6,1.2.35,1-.26-.84-2.35-1.27-4.85-2.28-7.14-.16-.37-.8-.1-.67.29Z" transform="translate(0)" fill="#ad2323"/>
    <path d="M50.46,25.79c0,1.4,0,2.8,0,4.2s-.28,2.9.11,4.09a.5.5,0,0,0,1,0c.37-1.17,0-2.88-.1-4.09-.09-1.4-.17-2.8-.25-4.2a.37.37,0,0,0-.73,0Z" transform="translate(0)" fill="#ad2323"/>
    <path d="M57.62,29.15c-.29,2.37-.25,4.78-.63,7.14a.58.58,0,0,0,1.12.31c.68-2.29.26-5.09.35-7.45,0-.55-.78-.52-.84,0Z" transform="translate(0)" fill="#ad2323"/>
    <path d="M62.05,33.14C62,34.37,62,35.58,62,36.81a29.37,29.37,0,0,0,0,3.51.45.45,0,0,0,.87.12c.69-2.18,0-5,0-7.3a.38.38,0,0,0-.75,0Z" transform="translate(0)" fill="#ad2323"/>
    <path d="M33.61,41.13c3.25-2,6.46-4.13,9.69-6.19,1.62-1,3.21-2.13,4.87-3.09,2.12-1.22,2.43-1.72,4.6-1,5.38,1.77,10.63,6,15.3,9.1.65.44,1.3-.66.62-1.07-5.75-3.42-11.53-6.65-17.34-9.94a.44.44,0,0,0-.47,0c-6,3.71-11.94,7.48-17.57,11.68-.29.22,0,.71.3.51Z" transform="translate(0)" fill="#ad2323"/>
    <path d="M34.77,37c3.32-2.62,7-4.91,10.47-7.39s5.47-3.88,9.43-1.23c3.78,2.52,7.5,5.53,11.5,7.68a4.61,4.61,0,0,1,1.21.82c-.88-1.18-.44.55-.44,1.47v6l1.52-.87c-5.22-3.27-10.33-6.87-15.72-9.84-3.32-1.84-5.34,1-8.27,3C40.9,39,37.4,41.54,33.81,43.9l1.51.87c-.23-2.43-1-5.88-.3-8.23.39-1.24-1.55-1.77-1.93-.54-.82,2.6,0,6.09.22,8.77a1,1,0,0,0,1.51.87c3-2,6-4.13,9-6.18a57.86,57.86,0,0,1,5.36-3.62c1.72-.9,1.81-.77,3.32,0,5.15,2.68,10,6.25,14.9,9.33A1,1,0,0,0,69,44.32c0-2.94,1-7.31-1-9.48-1.47-1.58-4.09-2.74-5.87-3.93-2.41-1.61-4.8-3.28-7.25-4.84-4-2.55-5.87-1.65-9.51,1-4,2.85-8.17,5.51-12,8.52C32.33,36.36,33.76,37.77,34.77,37Z" transform="translate(0)" fill="#222"/>
  </g>
</svg>
