<?xml version="1.0" encoding="utf-8"?>
<!-- Generator: Adobe Illustrator 24.0.0, SVG Export Plug-In . SVG Version: 6.00 Build 0)  -->
<svg version="1.1" xmlns="http://www.w3.org/2000/svg" xmlns:xlink="http://www.w3.org/1999/xlink" x="0px" y="0px" width="42.1px"
	 height="61.4px" viewBox="0 0 42.1 61.4" style="enable-background:new 0 0 42.1 61.4;" xml:space="preserve">
<style type="text/css">
	.st0{fill:#FFD29C;}
	.st1{fill:#FFD29C;stroke:#222222;stroke-width:2;stroke-linecap:round;stroke-linejoin:round;stroke-miterlimit:10;}
	.st2{clip-path:url(#XMLID_3_);fill:#FFFFFF;}
	.st3{fill:#2AC1BC;}
	.st4{fill:#00AAB3;}
	.st5{fill:#FFD29C;stroke:#222222;stroke-width:2;stroke-miterlimit:10;}
	.st6{fill:#222222;}
</style>
<g id="레이어_2">
</g>
<g id="레이어_1">
	<path class="st0" d="M1.6,57.4v3.5h12c0,0,12.6-0.1,18.2-8.9S14.3,34.8,14.3,34.8l-9,2"/>
	<path class="st1" d="M14.2,60.3"/>
	<path class="st1" d="M32.2,51.9"/>
	<path class="st1" d="M12.8,23.6c0,0-4.1,0.7-7.3,4.1c-2.8,3-4.2,7.2-4.4,11.3c-0.4,5.7,1.1,11.4,1.3,17.2c0.1,1.4-0.5,2.6-1,4.2"/>
	<g>
		<defs>
			<path id="XMLID_1_" d="M35.6,54.6c-1.7,0.5-3.6,0.4-5.3,0.5c-2,0.1-3.9,0.1-5.9,0c-4.2-0.1-8.4-0.3-12.5-0.8
				c-1.5-0.2-3.1-0.8-3.1-2.6c0-4.4,0-8.8,0-13.1c0-2,0-3.9,0-5.9c0-1.8-0.9-3.6-0.8-5.5C8.4,19.9,8.3,4.3,9.1,2.9
				c1.3-2.1,4.9-1.6,7-1.7c3.5-0.2,7-0.2,10.5-0.1c2.6,0.1,5.2,0.2,7.9,0.5c1.7,0.2,3.7,0.7,3.7,2.8c0,0.1,0,47.3,0,47.3
				C38.2,53.4,37,54.2,35.6,54.6z"/>
		</defs>
		<use xlink:href="#XMLID_1_"  style="overflow:visible;fill:#494949;"/>
		<clipPath id="XMLID_3_">
			<use xlink:href="#XMLID_1_"  style="overflow:visible;"/>
		</clipPath>
		<rect x="6.9" y="10.6" class="st2" width="33.5" height="33.5"/>
		
			<use xlink:href="#XMLID_1_"  style="overflow:visible;fill:none;stroke:#222222;stroke-width:2;stroke-linecap:round;stroke-linejoin:round;stroke-miterlimit:10;"/>
	</g>
	<g>
		<path class="st3" d="M29.9,27.4C29.9,27.3,29.9,27.3,29.9,27.4c0-3.6-2.9-6.4-6.4-6.4c-3.5,0-6.4,2.9-6.4,6.4h0c0,0,0,0,0,0
			c0,0,0,0,0,0h0c0,3.5,2.9,6.4,6.4,6.4l0,0c0,0,0,0,0,0h0v0v1.8c3.6-0.9,6.3-4.1,6.4-7.9c0,0,0,0,0,0c0,0,0-0.1,0-0.1
			c0,0,0,0.1,0,0.1c0,0,0-0.1,0-0.1c0,0,0,0,0,0c0,0,0,0,0,0C29.9,27.5,29.9,27.4,29.9,27.4C29.9,27.4,29.9,27.4,29.9,27.4z
			 M23.1,28.6c0,0.6-0.5,1-1,1h-1.9c-0.6,0-1-0.5-1-1v-1.9c0-0.6,0.5-1,1-1h1.8h0.5c0.3,0,0.5,0.2,0.5,0.5c0,0.3-0.2,0.5-0.5,0.5H22
			h-1.4c-0.3,0-0.5,0.2-0.5,0.5l0,1c0,0.3,0.2,0.5,0.5,0.5h1.3c0.1,0,0.2-0.1,0.2-0.2l0-0.1c0-0.1,0-0.1-0.1-0.1h-0.5
			c-0.2,0-0.5-0.2-0.5-0.4c0-0.3,0.2-0.5,0.5-0.5h1.2c0.3,0,0.5,0.2,0.5,0.5V28.6z M27.9,28.6c0,0.6-0.5,1-1,1h-1.9
			c-0.6,0-1-0.5-1-1v-1.9c0-0.6,0.5-1,1-1h1.9c0.6,0,1,0.5,1,1V28.6z"/>
		<path class="st4" d="M26.4,26.6h-1c-0.3,0-0.5,0.2-0.5,0.5l0,1c0,0.3,0.2,0.5,0.5,0.5h1c0.3,0,0.5-0.2,0.5-0.5l0-1
			C26.9,26.9,26.7,26.6,26.4,26.6z"/>
	</g>
	<path class="st5" d="M39.7,17.8l-3.3,1.9c-1.4,0.8-3.1,0.3-3.9-1l0,0c-0.8-1.4-0.3-3.1,1-3.9l3.3-1.9c1.4-0.8,3.1-0.3,3.9,1l0,0
		C41.5,15.2,41,17,39.7,17.8z"/>
	<path class="st0" d="M6.4,28.4c0,0,4.8-5.8,9.3-5.8s3,4.7,1.4,5.5c-1.6,0.9-7.3,5-7.3,5s4.7,5.8-1.4,13.7S4.5,51,4.5,51l0.4-19.9"
		/>
	<path class="st1" d="M6.4,26.9c1.8-1.5,6.9-4.2,6.9-4.2c1.8-1,4-0.4,5.1,1.4l0,0c1,1.8,0.4,4-1.4,5.1l-6.9,4"/>
	<path class="st5" d="M39.7,25.4l-3.3,1.9c-1.4,0.8-3.1,0.3-3.9-1l0,0c-0.8-1.4-0.3-3.1,1-3.9l3.3-1.9c1.4-0.8,3.1-0.3,3.9,1l0,0
		C41.5,22.8,41,24.6,39.7,25.4z"/>
	<path class="st5" d="M39.7,32.1L36.3,34c-1.4,0.8-3.1,0.3-3.9-1l0,0c-0.8-1.4-0.3-3.1,1-3.9l3.3-1.9c1.4-0.8,3.1-0.3,3.9,1l0,0
		C41.5,29.6,41,31.3,39.7,32.1z"/>
	<path class="st5" d="M39.7,38.9l-3.3,1.9c-1.4,0.8-3.1,0.3-3.9-1l0,0c-0.8-1.4-0.3-3.1,1-3.9l3.3-1.9c1.4-0.8,3.1-0.3,3.9,1l0,0
		C41.5,36.3,41,38.1,39.7,38.9z"/>
	<path class="st1" d="M10.1,33.2c0,0,3.2,4.9,1,9.6c-2,4.2-4.1,5.4-4.1,5.4"/>
	<g>
		<g>
			<path class="st6" d="M20.5,7.2c0.5,0.2,0.9,0.1,1.4,0.1c0.4,0,0.9,0,1.3,0c0.9,0,1.7,0,2.6,0c0.5,0,1-0.4,1-1c0-0.6-0.4-0.9-1-1
				c-0.9-0.1-1.8,0-2.7,0c-0.4,0-0.9,0-1.3,0.1c-0.5,0-1,0.1-1.5,0.3C20.1,5.9,20,6.3,20,6.6C20,6.9,20.2,7.1,20.5,7.2L20.5,7.2z"/>
		</g>
	</g>
	<g>
		<g>
			<path class="st6" d="M9.3,11.5c2.4,0.3,4.8,0.3,7.2,0.4c2.3,0,4.6,0.1,7,0.1c4.7,0,9.5-0.1,14.2-0.3c1.3,0,1.3-2,0-2
				C33,9.9,28.3,10,23.5,10c-2.3,0-4.6,0-7,0c-2.4,0-4.8-0.1-7.2,0C8.3,10,8.3,11.4,9.3,11.5L9.3,11.5z"/>
		</g>
	</g>
	<g>
		<g>
			<path class="st6" d="M11.4,44.4c1,0.4,2.2,0.4,3.3,0.4c1.1,0.1,2.2,0.1,3.3,0.1c2.1,0.1,4.3,0.1,6.4,0.1c4.4,0,8.8,0,13.1-0.2
				c1.3,0,1.3-2,0-2c-4.4,0.2-8.8,0.2-13.1,0.2c-2.1,0-4.3-0.1-6.4-0.1c-1.1,0-2.1-0.1-3.2-0.1c-1.1,0-2.3-0.1-3.4,0.1
				C10.6,43.2,10.7,44.2,11.4,44.4L11.4,44.4z"/>
		</g>
	</g>
	<g>
		<g>
			<path class="st6" d="M15.9,61.4c2.9-0.1,5.9-0.5,8.7-1.6c1.1-0.4,2.2-1,3.2-1.6c1.2-0.7,2.5-1.5,3.6-2.4c0.8-0.7-0.2-1.9-1.1-1.5
				c-1.2,0.6-2.3,1.5-3.5,2.2c-1,0.6-1.9,1.1-3,1.6c-2.6,1.1-5.4,1.5-8.1,2.1C15.1,60.3,15.2,61.4,15.9,61.4L15.9,61.4z"/>
		</g>
	</g>
</g>
</svg>
