<svg xmlns="http://www.w3.org/2000/svg" xmlns:xlink="http://www.w3.org/1999/xlink" viewBox="0 0 63.4 60.32">
  <defs>
    <linearGradient id="a" data-name="무제 그라디언트 5" x1="32.42" y1="64.07" x2="33.65" y2="78.1" gradientTransform="translate(55.44 -17.8) rotate(51.74)" gradientUnits="userSpaceOnUse">
      <stop offset="0.01" stop-color="#fff"/>
      <stop offset="0.35" stop-color="#ffe3aa"/>
      <stop offset="1" stop-color="#ffab00"/>
    </linearGradient>
    <linearGradient id="b" data-name="무제 그라디언트 10" x1="54.42" y1="36.17" x2="55.65" y2="50.21" gradientTransform="matrix(-0.62, 0.79, 0.79, 0.62, 10.54, -17.8)" gradientUnits="userSpaceOnUse">
      <stop offset="0.09" stop-color="#fff"/>
      <stop offset="0.4" stop-color="#ffe3aa"/>
      <stop offset="1" stop-color="#ffab00"/>
    </linearGradient>
    <linearGradient id="c" data-name="무제 그라디언트 6" x1="14.56" y1="43.97" x2="15.74" y2="57.49" gradientUnits="userSpaceOnUse">
      <stop offset="0.17" stop-color="#fff"/>
      <stop offset="0.46" stop-color="#ffe3aa"/>
      <stop offset="1" stop-color="#ffab00"/>
    </linearGradient>
  </defs>
  <title>company-introduce-02</title>
  <g>
    <path d="M36.66,24.14V10.32L41.3,3.16a1.07,1.07,0,0,0-.8-1.67H23.56a2.55,2.55,0,0,0-2.44,2.66l-.33,19.6a4,4,0,0,1-2.27,3.64c-3.79,1.68-11,6.55-10.09,19C10.57,56.51,18.36,58,27.34,58c6,0,13.66.35,18.63-4,6.39-5.62,2.94-17.16-1.8-22.66a17.14,17.14,0,0,0-2.79-2.6c-1.46-1.08-3.87-1.67-4.55-3.65A3,3,0,0,1,36.66,24.14Z" transform="translate(0)" fill="#fff"/>
    <path d="M37.86,24.14c0-4.19-.66-8.93,0-13.06.19-1.13-.16.1.13-.61a21.64,21.64,0,0,1,2-3.12c1.16-1.79,2.41-3.14,2.54-5.28A1.2,1.2,0,0,0,42,1C39.56-.57,34.9.29,32.05.29S23.33-.89,21,1.48c-2,2.1-1.19,7-1.24,9.57-.06,3.83.77,8.93-.21,12.64-.72,2.7-3.59,3.47-5.55,5A17.6,17.6,0,0,0,9.3,34.51C6.63,39.75,6.14,46.74,9.2,51.9c2.71,4.56,7.51,6.45,12.58,7,6.55.76,14.82,1.1,21-1.57s8.65-8.55,7.63-15.07a24.49,24.49,0,0,0-3.82-9.75,19,19,0,0,0-3.36-3.86c-1.66-1.43-5-2.54-5.4-4.86-.27-1.52-2.59-.88-2.31.63.47,2.64,2.23,3.39,4.3,4.72a18.72,18.72,0,0,1,7.53,10.59c1.13,3.75,1.59,8.36-.78,11.77-3.13,4.53-9.45,5.14-14.47,5.26-7,.17-16.66.84-20.81-6.11s-1-16.81,5.51-21c3.23-2.09,5-3,5.22-7.14.21-4.57.15-9.17.23-13.74,0-1.2-.37-3.37.08-4.5.94-2.41,3.78-1.62,5.85-1.62H35c1,0,3.79-.44,4.55,0,1,.57.48-.21-.09,1.16a23.2,23.2,0,0,1-2.26,3.5,9.28,9.28,0,0,0-1.7,3.32c-.78,4.19,0,9.19,0,13.47A1.2,1.2,0,0,0,37.86,24.14Z" transform="translate(0)" fill="#222"/>
  </g>
  <path d="M22.05,9.59,21.53,9a.83.83,0,0,0-.84-.62l-.33,0-.72-.06-1.38-.08a15,15,0,0,0-3.21.1,4.27,4.27,0,0,0-3.3,4.12,11.18,11.18,0,0,0,1.54,5.17c.71,1.43,1.5,2.81,2.32,4.17q.7,1.17,1.47,2.31a7.47,7.47,0,0,0,1.65,2.08,1.25,1.25,0,0,0,1.83-1.4,3.27,3.27,0,0,0-.64-1l-.7-1c-.51-.76-1-1.52-1.49-2.3a50.78,50.78,0,0,1-2.55-4.55c-.64-1.33-1.75-3.67-.32-4.87.7-.6,1.92-.43,2.78-.43,1.09,0,2.18.11,3.27.13A1.17,1.17,0,0,0,22,9.87l0-.28Z" transform="translate(0)" fill="#222"/>
  <path d="M43.27,39.11a17.29,17.29,0,0,0-3.36-5.93c-1.4-1.66-3.25-3.36-5.46-3.76a3.26,3.26,0,0,0-2.19.31,14.07,14.07,0,0,0-1.32,1.13,4.57,4.57,0,0,1-4.38.53c-.71-.29-1.35-.74-2-1.09a4.7,4.7,0,0,0-3.75-.13c-4,1.45-6.87,6-7.86,10a12.13,12.13,0,0,0-.31,4.53,10.29,10.29,0,0,0,6.46,8.07A22.08,22.08,0,0,0,29,54.42a34.28,34.28,0,0,0,7.32-1,9.7,9.7,0,0,0,5.79-3.39,10.74,10.74,0,0,0,1.85-7A16.79,16.79,0,0,0,43.27,39.11Z" transform="translate(0)" fill="#ffdd50"/>
  <g>
    <g>
      <path d="M47,36.81c-1.2-.32-1.87-1.79-1.91-3.07-.08-3,2.91-3.68,5-3.85a15.88,15.88,0,0,1,5,.19c2,.49,4.39,2,3.75,4.75-.3,1.29-1.2,3-2.55,3" transform="translate(0)" fill="#707070"/>
      <path d="M47.37,36.15a2.77,2.77,0,0,1-1-3.5c.5-1,1.84-1.39,2.92-1.58a13.81,13.81,0,0,1,5.54.1c1.11.3,2.5,1,2.8,2.15a2.79,2.79,0,0,1-.4,1.94,3.68,3.68,0,0,1-.63.9l-.15.13c.1-.09-.21.09-.06,0s-.09,0-.09,0a2,2,0,0,1-.42.1,1.43,1.43,0,0,0,.38,2.8c2.53.11,4-3,3.91-5.14a5.38,5.38,0,0,0-3.69-4.75,14.51,14.51,0,0,0-7.37-.45c-1.73.25-3.61.93-4.52,2.53-1.11,2-.34,5.71,2.23,6.1.77.11,1.43-1,.58-1.4Z" transform="translate(0)" fill="#222"/>
    </g>
    <g>
      <path d="M47,46.16c-2.45,0-4.36-2.58-4.42-5.25a3.31,3.31,0,0,1,2.55-3.49,17.73,17.73,0,0,1,7-.86,16.8,16.8,0,0,1,3.56.79c1.12.37,2.28.61,3.41,1a3.43,3.43,0,0,1,2.37,4,3.05,3.05,0,0,1-1.47,1.88c-2.24,1.48-6.06,1.48-8.66,1.49" transform="translate(0)" fill="#707070"/>
      <path d="M47.22,45.2a8.57,8.57,0,0,1-1.39-.51,4.3,4.3,0,0,1-1.18-1,4.87,4.87,0,0,1-1-3.12,2.23,2.23,0,0,1,1.38-2,12.93,12.93,0,0,1,4.46-1,13.2,13.2,0,0,1,4.56.4c1.5.41,3,.87,4.48,1.41a2.5,2.5,0,0,1,1.81,2.1,2.55,2.55,0,0,1-1.68,2.24,9.43,9.43,0,0,1-3.85.84c-.67,0-1.34,0-2,0a2.7,2.7,0,0,0-2.15.55.92.92,0,0,0,0,1.28,1.83,1.83,0,0,0,1.13.56c.36,0,.74,0,1.11,0,.77,0,1.54-.08,2.31-.17a16,16,0,0,0,4.62-1.09A4.35,4.35,0,0,0,62.65,42a4.48,4.48,0,0,0-2-4.06A7.62,7.62,0,0,0,58.29,37c-.95-.25-1.9-.49-2.84-.76a17.35,17.35,0,0,0-5.86-.68,16.84,16.84,0,0,0-5.48,1.17,4.21,4.21,0,0,0-2.56,3.08,6.89,6.89,0,0,0,1.14,5.1c1,1.38,2.74,2.69,4.53,2.21a1,1,0,0,0,0-1.92Z" transform="translate(0)" fill="#222"/>
    </g>
    <g>
      <path d="M48.63,46.1a16.54,16.54,0,0,0-7.54,1.6,5.52,5.52,0,0,0-.55,9.65A10.64,10.64,0,0,0,45.83,59a41.24,41.24,0,0,0,6.76,0c3.34-.24,7.46.16,9.09-3.93a7,7,0,0,0,.14-4.6,6.86,6.86,0,0,0-4.58-4.32c-2-.63-7.45-.11-9.53,0" transform="translate(0)" fill="#707070"/>
      <path d="M48.89,45.14a16.57,16.57,0,0,0-2.1-.29,9.84,9.84,0,0,0-2.22.27,13.31,13.31,0,0,0-3.19,1A7.78,7.78,0,0,0,37,51a6.9,6.9,0,0,0,2.32,6.84c2.1,1.78,4.85,2.24,7.52,2.39a71,71,0,0,0,7.72-.15,11.63,11.63,0,0,0,5.62-1.28,7.29,7.29,0,0,0,3.26-6,8,8,0,0,0-6.44-8,16.16,16.16,0,0,0-3.26-.08l-3.51.21-1.45.1a2.71,2.71,0,0,0-1.38.49.74.74,0,0,0,0,1.26,2.47,2.47,0,0,0,1,.37,11,11,0,0,0,1.14-.06c.86-.05,1.72-.1,2.58-.13a16.45,16.45,0,0,1,4.64.35,5.67,5.67,0,0,1,3.78,3.23,5.47,5.47,0,0,1-.84,5.5,5.87,5.87,0,0,1-3.87,1.57c-1.94.19-3.91.29-5.86.35a20,20,0,0,1-7.13-.76,5.3,5.3,0,0,1-3.59-4.06A4,4,0,0,1,40,50.24a5.61,5.61,0,0,1,2-1.62,14.51,14.51,0,0,1,3-.81c.56-.1,1.11-.19,1.67-.26.75-.09,1.48-.34,2.21-.5a1,1,0,0,0,0-1.91Z" transform="translate(0)" fill="#222"/>
    </g>
  </g>
  <g>
    <g>
      <path d="M14.57,56.86a9.59,9.59,0,0,1,3.95-9.72c3-2.2,7-3,11-2.81a9.71,9.71,0,0,1-1.4,6,19.73,19.73,0,0,1-4.1,4.7,12.06,12.06,0,0,1-4.07,2.62,6,6,0,0,1-5-.46" transform="translate(0)" fill="url(#a)"/>
      <path d="M15.39,56.86c0-3.63.73-6.6,3.84-8.87s6.65-2.75,10.25-2.76l-.9-.9c0,5.29-6.9,15.05-13.07,11.91-1.3-.66-2.45,1.29-1.15,2,7.63,4,17-6.49,16-13.88a.93.93,0,0,0-.9-.91c-4.35-.15-9,.51-12.4,3.48-2.73,2.4-4.64,6.59-3.31,10.18a.83.83,0,0,0,1.62-.22Z" transform="translate(0)" fill="#222"/>
    </g>
    <g>
      <path d="M15.89,56.86a9.62,9.62,0,0,0-4-9.72c-3-2.2-7-3-11-2.81a9.72,9.72,0,0,0,1.41,6,19.91,19.91,0,0,0,4.09,4.7,12.16,12.16,0,0,0,4.07,2.62,6,6,0,0,0,5-.46" transform="translate(0)" fill="url(#b)"/>
      <path d="M16.69,57.08c1.32-3.59-.58-7.78-3.32-10.18-3.39-3-8-3.63-12.4-3.48a.94.94,0,0,0-.9.91c-1,7.39,8.39,17.86,16,13.88,1.3-.68.15-2.63-1.15-2-6.16,3.14-13-6.62-13.06-11.91l-.91.9c3.59,0,7.3.59,10.26,2.76s3.79,5.23,3.83,8.87a.83.83,0,0,0,1.63.22Z" transform="translate(0)" fill="#222"/>
    </g>
    <g>
      <path d="M15.7,57.68a9.94,9.94,0,0,1-5.41-8.93c0-3.55,1.76-7,4.18-9.78a10.37,10.37,0,0,1,4,4.77,19.56,19.56,0,0,1,1.33,5.92,11.19,11.19,0,0,1-.3,4.61,5.22,5.22,0,0,1-3.28,3.36" transform="translate(0)" fill="url(#c)"/>
      <path d="M16.28,57.09c-6.18-4.87-5.9-11.42-1.17-17.48H13.83c4,3.21,8.25,14.18,1.81,17-1.35.59-.18,2.54,1.15,2,8-3.44,4.06-16.85-1.86-20.42a.94.94,0,0,0-1.1.14C11,41.62,8.8,45.56,9.29,50a10.1,10.1,0,0,0,6.19,8.46c.75.28,1.45-.87.8-1.38Z" transform="translate(0)" fill="#222"/>
    </g>
  </g>
  <path d="M52.7,32.61a2,2,0,0,0,.6.34l.28.1.15.06.06,0a8,8,0,0,1,1,.51l0,0,0,0,.08.07c.05,0-.11-.14,0,0s-.05-.17,0-.05a.35.35,0,0,0,0,.11c0-.12,0-.16,0-.1a.13.13,0,0,1,0,.06,1.93,1.93,0,0,0,0,.24c0,.53.13,1.23.74,1.38a.78.78,0,0,0,.66-.14.71.71,0,0,0,.3-.6,1,1,0,0,0-.17-.51c-.08-.1,0,.18,0,0s0-.07,0-.11,0-.05,0-.07l0,.12a.45.45,0,0,1,0-.12c0-.08,0-.16,0-.24a1.92,1.92,0,0,0-.22-.74,1.59,1.59,0,0,0-.59-.56,3.55,3.55,0,0,0-.65-.22,6.39,6.39,0,0,0-.63-.13L54,32h-.06l-.4-.05a2,2,0,0,0-.35,0,1.87,1.87,0,0,0-.34.07.34.34,0,0,0-.15.56Z" transform="translate(0)" fill="#474747"/>
  <path d="M53.4,39.65a.84.84,0,0,0,.18.73,1.89,1.89,0,0,0,.56.53,4.06,4.06,0,0,0,1.17.45l.55.17.08,0c-.12,0,0,0,.06,0a1.71,1.71,0,0,1,.23.13c.13.09-.1-.09,0,0l.1.09.07.08c.12.12-.1-.17,0,0l.06.09c.09.14,0-.14,0-.05a.56.56,0,0,0,0,.12c0,.15,0-.21,0,0a.91.91,0,0,0,.89.89c.43,0,.95-.4.89-.89a2.25,2.25,0,0,0-.26-.87,2.5,2.5,0,0,0-.47-.56A3.33,3.33,0,0,0,56,39.87c-.42-.1-.83-.19-1.24-.31a1.8,1.8,0,0,0-.28-.09l.08,0-.21-.09s-.15,0-.07,0,0,0,0,0a.82.82,0,0,0-.34-.09.55.55,0,0,0-.53.38Z" transform="translate(0)" fill="#474747"/>
  <path d="M52,40a.62.62,0,0,0,0-1.24A.62.62,0,0,0,52,40Z" transform="translate(0)" fill="#474747"/>
  <path d="M56.66,50.85a3.17,3.17,0,0,0,.41,1.07s.18.4.19.4-.07-.18,0-.07a.78.78,0,0,0,.05.14,2.1,2.1,0,0,1,.06.24l0,.11c0,.1,0-.08,0-.09a.74.74,0,0,0,0,.21v.22a.66.66,0,0,0,0,.14c0-.06,0-.19,0-.06l-.06.21c0,.17.08-.14,0,0l-.11.2s-.08.13,0,0-.06.07-.07.07l-.16.16-.09.08c-.08.08,0,0,0,0s-.35.22-.42.25-.18.09-.06,0,0,0,0,0l-.18.07-.27.07-.33.09a2,2,0,0,0-.34.14l-.08,0c-.09.06.3-.12,0,0l-.25.11a.2.2,0,0,0-.08,0c-.11.08,0,0,0,0a2.59,2.59,0,0,1-.29.14l-.15.08-.42.11a3.11,3.11,0,0,0-.41.11,2.72,2.72,0,0,0-.66.33.3.3,0,0,0,0,.52,3.29,3.29,0,0,0,1.65.19h.23s.14,0,0,0l.17,0c.22,0,.06,0,0,0l.12,0a3,3,0,0,0,.42,0,3.56,3.56,0,0,0,1-.12,4,4,0,0,0,2-1.17,3.16,3.16,0,0,0,.75-2.68,3.05,3.05,0,0,0-.5-1.27,1.84,1.84,0,0,0-1.45-.92c-.34,0-.74.3-.69.69Z" transform="translate(0)" fill="#474747"/>
</svg>
