<?xml version="1.0" encoding="utf-8"?>
<!-- Generator: Adobe Illustrator 24.0.0, SVG Export Plug-In . SVG Version: 6.00 Build 0)  -->
<svg version="1.1" xmlns="http://www.w3.org/2000/svg" xmlns:xlink="http://www.w3.org/1999/xlink" x="0px" y="0px"
	 viewBox="0 0 18 20" style="enable-background:new 0 0 18 20;" xml:space="preserve">
<style type="text/css">
	.st0{fill:#FFC200;}
</style>
<g id="레이어_2">
</g>
<g id="레이어_1">
	<path class="st0" d="M15.85,5.91c0.16-0.16,0.3-0.33,0.48-0.48c0.44-0.37,0.94-0.68,1.33-1.1c0.36-0.39,0.46-0.98,0.19-1.45
		c-0.01-0.02-0.04-0.05-0.06-0.07c-0.1-0.19-0.27-0.33-0.49-0.41c-0.03-0.02-0.06-0.03-0.09-0.04c-0.01,0-0.02-0.01-0.03-0.01
		c-0.22-0.08-0.46-0.11-0.68-0.02c-0.11,0.04-0.21,0.1-0.31,0.15c-0.66,0.13-1.32,0.27-1.97,0.41c-0.11-0.21-0.22-0.41-0.33-0.62
		c-0.37-0.71-0.79-1.44-1.43-1.94c-0.32-0.25-0.66-0.4-1.07-0.28c-0.35,0.1-0.7,0.4-0.77,0.77c-0.19,0.97-0.31,1.95-0.41,2.93
		c-0.05,0.01-0.1,0.02-0.14,0.03c-0.76,0.21-1.53,0.46-2.3,0.62C6.92,4.56,6.7,5.91,7.5,6.27c0.79,0.35,1.59,0.7,2.38,1.05
		C9.81,8.16,9.74,9.01,9.64,9.85c-0.11,1,1.39,1.59,2.02,0.84c0.52-0.61,1.04-1.22,1.57-1.82c1.02,0.49,2.03,0.98,3.03,1.52
		c0.49,0.26,1.1,0.16,1.43-0.29c0.35-0.47,0.27-1.01-0.09-1.46C16.93,7.8,16.37,6.86,15.85,5.91z"/>
	<path class="st0" d="M1.57,15.7c-0.11,0.12-0.22,0.24-0.35,0.35c-0.32,0.27-0.68,0.5-0.97,0.8c-0.26,0.28-0.34,0.71-0.14,1.05
		c0.01,0.02,0.03,0.03,0.04,0.05c0.08,0.14,0.2,0.24,0.36,0.3c0.02,0.01,0.04,0.02,0.07,0.03c0.01,0,0.02,0,0.02,0.01
		c0.16,0.06,0.34,0.08,0.49,0.01c0.08-0.03,0.15-0.07,0.23-0.11C1.8,18.1,2.28,18,2.76,17.9c0.08,0.15,0.16,0.3,0.24,0.45
		c0.27,0.52,0.58,1.05,1.04,1.41c0.23,0.18,0.48,0.29,0.78,0.21c0.25-0.07,0.51-0.29,0.56-0.56c0.14-0.71,0.23-1.42,0.3-2.13
		c0.03-0.01,0.07-0.02,0.1-0.02c0.56-0.15,1.11-0.34,1.68-0.45c0.6-0.12,0.76-1.11,0.18-1.36c-0.58-0.25-1.15-0.51-1.73-0.77
		c0.05-0.61,0.1-1.23,0.17-1.84c0.08-0.73-1.01-1.16-1.47-0.61c-0.38,0.45-0.76,0.88-1.14,1.32c-0.74-0.35-1.48-0.72-2.2-1.1
		c-0.35-0.19-0.8-0.12-1.04,0.21c-0.26,0.35-0.2,0.74,0.06,1.06C0.77,14.33,1.18,15.01,1.57,15.7z"/>
</g>
</svg>
