<?xml version="1.0" encoding="utf-8"?>
<!-- Generator: Adobe Illustrator 24.0.0, SVG Export Plug-In . SVG Version: 6.00 Build 0)  -->
<svg version="1.1" id="레이어_1" xmlns="http://www.w3.org/2000/svg" xmlns:xlink="http://www.w3.org/1999/xlink" x="0px"
	 y="0px" viewBox="0 0 44.81 5.22" style="enable-background:new 0 0 44.81 5.22;" xml:space="preserve">
<style type="text/css">
	.st0{fill:#FFC200;}
</style>
<path class="st0" d="M4.98,1.45C7.77,1.7,10.6,1.52,13.4,1.49c2.42-0.03,4.85-0.03,7.28-0.01c4.62,0.05,9.24,0.19,13.86,0.33
	c3.15,0.09,6.3,0.18,9.45,0.26c1.1,0.03,1.1-1.69,0-1.71c-9.92-0.16-19.84-0.51-29.76-0.27c-3.1,0.07-6.29,0.06-9.35,0.59
	C4.41,0.75,4.57,1.41,4.98,1.45L4.98,1.45z"/>
<path class="st0" d="M38.36,4.05C28.5,3.84,18.65,3.35,8.79,3.26C7.41,3.24,6.04,3.24,4.66,3.25C3.31,3.26,1.8,3.12,0.5,3.51
	c-0.63,0.19-0.69,1.18,0,1.34c1.15,0.27,2.39,0.13,3.56,0.11c1.25-0.02,2.5-0.04,3.76-0.04c2.48-0.01,4.95,0.02,7.43,0.06
	c4.92,0.08,9.84,0.22,14.76,0.24c2.79,0.01,5.57,0.02,8.35-0.09C39.05,5.1,39.06,4.06,38.36,4.05L38.36,4.05z"/>
</svg>
