<svg width="128" height="129" viewBox="0 0 128 129" fill="none" xmlns="http://www.w3.org/2000/svg">
<path d="M46.4785 121.657V108.128C46.4785 93.9657 56.6249 82.4453 69.0966 82.4453C82.9422 82.4453 94.2512 95.234 94.2512 110.876V121.551" fill="white"/>
<path d="M46.4785 121.657V108.128C46.4785 93.9657 56.6249 82.4453 69.0966 82.4453C82.9422 82.4453 94.2512 95.234 94.2512 110.876V121.551" stroke="#222222" stroke-width="2.0098" stroke-miterlimit="10" stroke-linecap="round" stroke-linejoin="round"/>
<path d="M64.9281 94.452C88.2316 94.452 107.123 75.5607 107.123 52.2572C107.123 28.9537 88.2316 10.0625 64.9281 10.0625C41.6246 10.0625 22.7334 28.9537 22.7334 52.2572C22.7334 75.5607 41.6246 94.452 64.9281 94.452Z" fill="white" stroke="#222222" stroke-width="1.83187" stroke-miterlimit="10" stroke-linecap="round" stroke-linejoin="round"/>
<path d="M64.9276 89.5363C79.612 89.5363 91.516 77.6322 91.516 62.9478C91.516 48.2634 79.612 36.3594 64.9276 36.3594C50.2432 36.3594 38.3391 48.2634 38.3391 62.9478C38.3391 77.6322 50.2432 89.5363 64.9276 89.5363Z" fill="#FFE4DE"/>
<path d="M64.9276 89.5363C79.612 89.5363 91.516 77.6322 91.516 62.9478C91.516 48.2634 79.612 36.3594 64.9276 36.3594C50.2432 36.3594 38.3391 48.2634 38.3391 62.9478C38.3391 77.6322 50.2432 89.5363 64.9276 89.5363Z" stroke="#222222" stroke-width="1.83187" stroke-miterlimit="10" stroke-linecap="round" stroke-linejoin="round"/>
<path d="M53.4639 40.8941C53.4639 43.4951 55.5832 45.5181 58.0879 45.5181C58.7623 45.5181 59.533 45.3255 60.111 45.0365C60.7853 46.8668 62.423 48.1192 64.4461 48.1192C66.5654 48.1192 68.2995 46.7705 68.8775 44.8438C69.6481 45.4218 70.6115 45.8072 71.6712 45.8072C74.2722 45.8072 76.2953 43.6878 76.2953 41.1831C76.2953 39.2564 75.0429 37.6187 73.4052 36.9443C73.4052 36.848 73.4052 36.7517 73.4052 36.6553C73.4052 34.0543 71.2858 32.0312 68.7811 32.0312C67.2398 32.0312 65.8911 32.8019 65.0241 33.958C64.1571 32.8019 62.8084 32.0312 61.267 32.0312C58.7623 32.0312 56.6429 34.0543 56.6429 36.6553C54.8126 37.137 53.4639 38.871 53.4639 40.8941Z" fill="#AF8468" stroke="#222222" stroke-width="1.83187" stroke-miterlimit="10" stroke-linecap="round" stroke-linejoin="round"/>
<path opacity="0.1" d="M72.6848 56.5722C74.7078 57.3429 76.6345 58.4026 77.9832 60.1366C79.4282 61.9669 80.0062 64.857 78.3685 66.6874C76.9235 68.3251 74.4188 68.1324 72.4921 67.747C72.2031 67.6507 71.9141 67.6507 71.6251 67.5544C69.1204 66.88 66.712 66.013 64.111 65.9167C61.8953 65.8203 59.3905 66.2057 57.2712 66.88C55.4408 67.5544 53.6104 68.6141 51.5874 68.6141C48.312 68.7104 47.2523 65.0497 47.9267 62.545C48.6974 59.6549 51.8764 57.5355 54.5738 56.4759C56.6932 55.6088 59.1015 55.1272 61.4136 55.0308C64.3036 54.9345 67.1937 55.0308 70.0837 55.8015C70.8544 55.9942 71.8178 56.2832 72.6848 56.5722Z" fill="black"/>
<path d="M62.7784 67.5894L65.2092 67.4498C65.2092 67.4498 66.0028 71.0821 64.3775 71.2647C62.3048 71.4235 62.7784 67.5894 62.7784 67.5894Z" fill="white" stroke="#222222" stroke-width="1.25779" stroke-miterlimit="10" stroke-linecap="round" stroke-linejoin="round"/>
<path d="M46.9261 73.3549C50.3684 73.2419 53.0657 70.3126 52.9508 66.812C52.8359 63.3114 49.9523 60.5652 46.51 60.6782C43.0678 60.7912 40.3705 63.7206 40.4854 67.2212C40.6003 70.7217 43.4839 73.4679 46.9261 73.3549Z" fill="#FFAEBA"/>
<path d="M49.3614 66.4844L48.4102 67.8584" stroke="#FF5764" stroke-width="1.0049" stroke-miterlimit="10" stroke-linecap="round" stroke-linejoin="round"/>
<path d="M51.1573 66.4844L50.2061 67.8584" stroke="#FF5764" stroke-width="1.0049" stroke-miterlimit="10" stroke-linecap="round" stroke-linejoin="round"/>
<path d="M82.5858 73.3422C86.0242 73.148 88.6515 70.1558 88.4539 66.6591C88.2564 63.1624 85.3088 60.4852 81.8704 60.6795C78.4319 60.8738 75.8047 63.8659 76.0022 67.3626C76.1998 70.8593 79.1474 73.5365 82.5858 73.3422Z" fill="#FFAEBA"/>
<path d="M78.4258 66.6953L77.4746 68.0693" stroke="#FF5764" stroke-width="1.0049" stroke-miterlimit="10" stroke-linecap="round" stroke-linejoin="round"/>
<path d="M80.2227 66.5938L79.2715 67.9677" stroke="#FF5764" stroke-width="1.0049" stroke-miterlimit="10" stroke-linecap="round" stroke-linejoin="round"/>
<path d="M58.6061 53.0323L54.7988 52.2969" stroke="#222222" stroke-width="3.01457" stroke-miterlimit="10" stroke-linecap="round" stroke-linejoin="round"/>
<path d="M68.3325 53.0386L72.1356 52.2823" stroke="#222222" stroke-width="3.01457" stroke-miterlimit="10" stroke-linecap="round" stroke-linejoin="round"/>
<path d="M63.5947 62.8359L63.6127 64.0864" stroke="#222222" stroke-width="1.0049" stroke-miterlimit="10" stroke-linecap="round" stroke-linejoin="round"/>
<path d="M59.2939 80.4384C59.2939 80.4384 64.3672 83.5035 69.4404 80.0156" stroke="#222222" stroke-width="2.0098" stroke-miterlimit="10" stroke-linecap="round" stroke-linejoin="round"/>
<path d="M57.3706 63.0923C58.4212 63.0743 59.2583 62.2081 59.2404 61.1575C59.2224 60.1069 58.3562 59.2698 57.3056 59.2878C56.255 59.3057 55.4179 60.172 55.4359 61.2226C55.4538 62.2732 56.3201 63.1103 57.3706 63.0923Z" fill="#222222"/>
<path d="M57.3454 60.8695C57.5788 60.8655 57.7649 60.673 57.7609 60.4395C57.7569 60.2061 57.5644 60.02 57.3309 60.024C57.0975 60.028 56.9114 60.2205 56.9154 60.454C56.9194 60.6874 57.1119 60.8735 57.3454 60.8695Z" fill="#FFFDFD"/>
<path d="M69.9185 63.0923C70.9691 63.0743 71.8062 62.2081 71.7882 61.1575C71.7703 60.1069 70.904 59.2698 69.8534 59.2878C68.8028 59.3057 67.9657 60.172 67.9837 61.2226C68.0017 62.2732 68.8679 63.1103 69.9185 63.0923Z" fill="#222222"/>
<path d="M69.7878 60.8851C70.0212 60.8811 70.2073 60.6886 70.2033 60.4551C70.1993 60.2217 70.0068 60.0357 69.7733 60.0396C69.5398 60.0436 69.3538 60.2361 69.3578 60.4696C69.3618 60.7031 69.5543 60.8891 69.7878 60.8851Z" fill="#FFFDFD"/>
<path d="M61.3048 61.1208C61.3048 61.1208 63.5223 59.5195 65.7481 61.4177" stroke="#222222" stroke-width="1.25779" stroke-miterlimit="10" stroke-linecap="round" stroke-linejoin="round"/>
<path d="M55.9385 66.5187C58.7074 66.6478 61.0567 64.5078 61.1858 61.739C61.315 58.9701 59.175 56.6207 56.4061 56.4916C53.6372 56.3625 51.2879 58.5024 51.1588 61.2713C51.0296 64.0402 53.1696 66.3895 55.9385 66.5187Z" stroke="#222222" stroke-width="1.25779" stroke-miterlimit="10" stroke-linecap="round" stroke-linejoin="round"/>
<path d="M70.6758 66.0421C73.4447 66.1712 75.794 64.0313 75.9231 61.2624C76.0523 58.4935 73.9123 56.1442 71.1434 56.0151C68.3745 55.8859 66.0252 58.0259 65.8961 60.7948C65.7669 63.5637 67.9069 65.913 70.6758 66.0421Z" stroke="#222222" stroke-width="1.25779" stroke-miterlimit="10" stroke-linecap="round" stroke-linejoin="round"/>
<path opacity="0.4" d="M38.9756 82.2407C38.9756 82.2407 38.9756 81.818 39.0813 81.0781" stroke="white" stroke-width="3.01457" stroke-miterlimit="10" stroke-linecap="round" stroke-linejoin="round"/>
<path d="M26.043 92.5C26.25 89.6362 26.3934 84.3973 26.1214 81.5681C26.0878 81.2185 26.3649 80.911 26.7161 80.915C39.6345 81.0614 49.9664 77.1831 59.4809 78.1572C59.7747 78.1872 59.9916 78.441 59.9797 78.7362C59.6805 86.137 58.858 95.7312 58.0355 103.823C57.2829 113.566 52.659 117.94 52.504 118.084L52.497 118.09C52.3439 118.239 46.3515 123.983 37.4657 122.687C33.0026 122.035 27.9636 121.432 24.0786 120.185C21.6488 119.404 21.0865 118.946 20.5217 118.485L20.4899 118.46C20.2328 118.25 20.1726 117.862 20.352 117.583C21.1018 116.417 22.4683 113.863 23.2367 111.384C25.2009 105.045 25.7624 96.3831 26.043 92.5Z" fill="white" stroke="#222222" stroke-width="2"/>
<path d="M47.9619 97.5724C47.9619 93.5822 44.8343 90.3594 40.9619 90.3594C37.0896 90.3594 33.9619 93.5822 33.9619 97.5724C33.9619 97.5724 33.9619 97.5724 33.9619 97.6492C33.9619 101.639 37.0896 104.862 40.9619 104.862V106.934C44.8343 105.936 47.813 102.33 47.9619 98.0328C47.9619 97.9561 47.9619 97.9561 47.9619 97.8794V97.9561C47.9619 97.8794 47.9619 97.8794 47.9619 97.8026C47.9619 97.7259 47.9619 97.6492 47.9619 97.5724ZM40.5896 98.9536C40.5896 99.5675 40.0683 100.105 39.4726 100.105H37.3874C36.7917 100.105 36.2704 99.5675 36.2704 98.9536V96.8051C36.2704 96.1912 36.7917 95.6541 37.3874 95.6541H39.9194C40.2172 95.6541 40.4406 95.8843 40.4406 96.1912C40.4406 96.4981 40.2172 96.8051 39.9194 96.8051H37.8343C37.5364 96.8051 37.313 97.0353 37.313 97.3422V98.4932C37.313 98.8002 37.5364 99.0304 37.8343 99.0304H39.1747C39.3236 99.0304 39.3981 98.9536 39.3981 98.8002V98.6467C39.3981 98.57 39.3236 98.57 39.3236 98.57H38.8023C38.5045 98.57 38.2811 98.3398 38.2811 98.1096C38.2811 97.8026 38.5045 97.5724 38.8023 97.5724H40.0683C40.3662 97.5724 40.5896 97.8026 40.5896 98.1096V98.9536ZM45.8023 98.9536C45.8023 99.5675 45.2811 100.105 44.6853 100.105H42.6002C42.0045 100.105 41.4832 99.5675 41.4832 98.9536V96.8051C41.4832 96.1912 42.0045 95.6541 42.6002 95.6541H44.6853C45.2811 95.6541 45.8023 96.1912 45.8023 96.8051V98.9536Z" fill="#2AC1BC"/>
<path d="M44.164 96.8051H43.047C42.7491 96.8051 42.5257 97.0353 42.5257 97.3422V98.4932C42.5257 98.8002 42.7491 99.0304 43.047 99.0304H44.164C44.4619 99.0304 44.6853 98.8002 44.6853 98.4932V97.3422C44.6853 97.0353 44.4619 96.8051 44.164 96.8051Z" fill="#2AC1BC"/>
<path d="M28.1722 122.025C51.2311 126.242 57.5 116.141 58 104C57.511 106.651 54.9419 109.799 53.275 110.401C51.6081 111.004 50.4969 110.1 49.1078 108.895C48.801 108.629 48.2743 108.715 48.2743 109.197C48.2743 109.799 49.2642 119.158 36.4846 120.965C31.5015 121.669 27.0609 122.025 28.1722 122.025Z" fill="#F8F8F8" stroke="#222222" stroke-width="2"/>
<path d="M38.6146 81.7797C37.2023 81.0736 36.8841 80.1781 37.0338 79.3302C37.287 77.8951 38.7665 77.0734 40.1591 76.6443C44.0761 75.4375 45.6265 76.1749 46.2942 76.8427C46.8428 77.3913 46.2944 80.6826 45.7458 81.7797C45.1972 82.8769 41.906 83.4254 38.6146 81.7797Z" fill="white" stroke="#222222" stroke-width="2.00775" stroke-linecap="round"/>
<path d="M50.2238 102.514C50.4121 102.114 51.013 101.949 51.5307 102.204L64.3016 108.685C64.8193 108.941 65.0643 109.47 64.876 109.87C64.6876 110.269 64.0867 110.435 63.569 110.179L50.8109 103.745C50.2932 103.489 50.0354 102.914 50.2238 102.514Z" fill="#66564F" stroke="#222222" stroke-width="0.897098" stroke-miterlimit="10" stroke-linecap="round" stroke-linejoin="round"/>
<path d="M63.3125 107.129C64.1902 106.69 66.7866 107.495 67.7008 107.678C68.2493 108.044 69.3463 108.885 69.3463 109.324C69.3463 109.762 69.712 110.238 69.8949 110.421L68.7978 112.066H65.5064C63.8607 112.066 62.7637 111.518 62.2152 110.421C61.6666 109.324 62.2154 107.678 63.3125 107.129Z" fill="white"/>
<path d="M83.5114 102.566C78.7298 104.62 67.4355 107.773 64.6097 106.91C61.4185 105.935 59.9535 111.03 63.872 111.801C67.7904 112.572 80.3291 114.543 85.2661 112.349" stroke="#222222" stroke-width="2.00775" stroke-linecap="round"/>
<path d="M101.737 89.9141C101.737 89.9141 100.123 93.1424 103.541 95.3263C103.541 95.3263 99.9328 94.6617 98.6985 97.985C98.6985 97.985 99.8379 94.3768 96.8944 92.7626C96.8944 92.6677 100.408 93.3323 101.737 89.9141Z" fill="#FFE106" stroke="#222222" stroke-width="1.5481" stroke-miterlimit="10" stroke-linecap="round" stroke-linejoin="round"/>
<path d="M107.815 77.1875C107.815 77.1875 109.144 82.4099 115.126 81.4603C115.126 81.4603 110.378 84.2139 112.182 89.1514C112.182 89.1514 109.999 83.9291 105.061 85.0685C105.061 85.0685 109.714 82.4099 107.815 77.1875Z" fill="#FFE106" stroke="#222222" stroke-width="1.5481" stroke-miterlimit="10" stroke-linecap="round" stroke-linejoin="round"/>
<path d="M13.1591 59.0391C13.1591 59.0391 12.9692 64.3564 18.9512 65.3059C18.9512 65.3059 13.6339 66.6352 13.9187 71.8576C13.9187 71.8576 13.349 66.2554 8.22159 65.8756C8.31655 65.8756 13.444 64.6412 13.1591 59.0391Z" fill="#FFE106" stroke="#222222" stroke-width="1.5481" stroke-miterlimit="10" stroke-linecap="round" stroke-linejoin="round"/>
</svg>
