<svg version="1.1" xmlns="http://www.w3.org/2000/svg" xmlns:xlink="http://www.w3.org/1999/xlink" x="0px"
	 y="0px" viewBox="0 0 12 15" style="enable-background:new 0 0 12 15;" xml:space="preserve">
<path fill="#bbb" d="M12,4.7c-0.1-0.6-0.4-1.2-0.6-1.7c-0.7-1.3-2-2.3-3.5-2.8C5.6-0.5,2.3,0.5,1,2.4C0.5,3.1,0.3,3.6,0.1,4.5
	c-0.5,2.5,1.3,5,2.8,7c0.8,1,1.6,2.1,2.3,3.1c0.3,0.5,1.6,0.6,2,0c1.1-1.1,1.3-1.5,2.3-3c0.7-1.1,1.5-2.4,2.1-3.7
	C12,6.9,12.1,5.8,12,4.7z M7.4,7.5C6.9,7.9,6.2,8,5.6,7.9C5,7.8,4.5,7.3,4.2,6.7C4,6.4,4,6,4,5.7C4,5.3,4,5,4.3,4.7l0.1-0.2
	c0.4-0.5,1.2-0.8,1.8-0.7c0,0,0.2,0,0.4,0.1c0.2,0.1,0.4,0.1,0.6,0.3C7.5,4.5,7.9,5.1,8,5.6C8.2,6.3,7.9,7.1,7.4,7.5z"/>
</svg>
