<?xml version="1.0" encoding="utf-8"?>
<!-- Generator: Adobe Illustrator 24.0.0, SVG Export Plug-In . SVG Version: 6.00 Build 0)  -->
<svg version="1.1" id="레이어_1" xmlns="http://www.w3.org/2000/svg" xmlns:xlink="http://www.w3.org/1999/xlink" x="0px"
	 y="0px" viewBox="0 0 12.53 12.3" style="enable-background:new 0 0 12.53 12.3;" xml:space="preserve">
<style type="text/css">
	.st0{fill:#FFC200;}
	.st1{fill:#896A15;}
	.st2{fill:none;stroke:#896A15;stroke-linecap:round;stroke-linejoin:round;stroke-miterlimit:10;}
</style>
<path class="st0" d="M12.52,5.7C12.37,3.82,11.6,2.11,10,1.03c-1.11-0.75-2.6-1.09-3.93-1.03C2.8,0.15-0.15,2.78,0.01,6.18
	c0.04,0.93,0.34,1.85,0.81,2.65c0.1,0.29,0.23,0.56,0.39,0.82c1.07,1.74,3.17,2.67,5.16,2.65C9.88,12.26,12.79,9.23,12.52,5.7z"/>
<path class="st1" d="M9.83,3.77C9.69,3.55,9.4,3.51,9.21,3.69C8.7,4.17,8.5,5.39,8.31,6.04c-0.12,0.4-0.24,0.8-0.35,1.2
	C7.56,6.19,7.48,4.7,6.8,3.8C6.5,3.39,5.94,3.46,5.76,3.93c-0.35,0.9-0.67,2.17-1.07,3.1c-0.2-1.03-0.54-2.44-1.03-3.3
	C3.46,3.38,2.9,3.54,2.9,3.94C2.89,5.37,3.51,7.41,3.93,8.78C4.04,9.15,4.61,9.4,4.9,9.04c0.72-0.92,1.07-2.35,1.44-3.5
	c0.42,1.15,0.61,2.7,1.43,3.65c0.27,0.31,0.89,0.16,0.96-0.25C8.9,8,9.21,7.09,9.47,6.18C9.66,5.52,10.23,4.4,9.83,3.77z"/>
<path class="st2" d="M2.36,6.19c2.75-0.42,5.33-0.4,8.11-0.35"/>
</svg>
