<?xml version="1.0" encoding="utf-8"?>
<!-- Generator: Adobe Illustrator 24.0.0, SVG Export Plug-In . SVG Version: 6.00 Build 0)  -->
<svg version="1.1" id="레이어_2" xmlns="http://www.w3.org/2000/svg" xmlns:xlink="http://www.w3.org/1999/xlink" x="0px"
	 y="0px" width="22px" height="23.5px" viewBox="0 0 22 23.5" style="enable-background:new 0 0 22 23.5;" xml:space="preserve">
<style type="text/css">
	.st0{clip-path:url(#SVGID_2_);fill:#29C333;}
	.st1{fill:#197CCD;}
</style>
<g>
	<defs>
		<circle id="SVGID_1_" cx="11" cy="11.6" r="10"/>
	</defs>
	<use xlink:href="#SVGID_1_"  style="overflow:visible;fill:#0D7AD2;"/>
	<clipPath id="SVGID_2_">
		<use xlink:href="#SVGID_1_"  style="overflow:visible;"/>
	</clipPath>
	<path class="st0" d="M10.5,12.1C10.5,12.1,10.6,12.2,10.5,12.1c0.2,0.1,0.3,0.2,0.4,0.2c0.5,0.3,0.1,0.5,0.2,0.9
		c0,0.1,0.1,0.3,0.2,0.4c0.1,0.1,0.2,0.2,0.4,0.3c0.1,0.1,0.3,0.1,0.4,0.2c0.2,0.2,0.1,0.5-0.1,0.7c-0.1,0.1-0.2,0.2-0.3,0.3
		s-0.1,0.3-0.1,0.4c0.1,0.2,0.2,0.3,0.4,0.3c0.2,0.1,0.3,0.2,0.4,0.4c0,0.1-0.1,0.3,0,0.4c0,0,0.1,0,0.1,0.1c0.2,0,0.4,0.1,0.6,0.1
		c0.2,0,0.5,0.3,0.4,0.6c0.1,0.1,0.2,0.1,0.2,0.2c-0.2,0.1-0.5,0.3-0.7,0.5c0.1,0,0.1,0.1,0.2,0.1c0,0,0,0,0,0c0,0,0,0.1-0.1,0.1
		c-0.2,0.1-0.2,0.3-0.3,0.5c0,0.1,0,0.2-0.1,0.3c-0.1,0.1-0.2,0.1-0.3,0.2c-0.1,0.1-0.2,0.2-0.3,0.3c0,0.1,0,0.1-0.1,0.2
		c-0.1,0.1-0.3,0.2-0.4,0.2c-0.1,0.1-0.3,0.2-0.4,0.3c-0.1,0.1-0.1,0.3-0.1,0.5c0,0-0.1,0.1-0.1,0.1c0,0,0,0.1,0,0.1
		c0.1,0.2,0.2,0.4,0.3,0.6c0.1,0.2,0.2,0.4,0.1,0.6c0,0.1,0,0.2,0,0.2c0,0.1,0.1,0.1,0.2,0.1c0.3,0.1,0.6,0.2,0.9,0.4
		c0.2,0.1,0.3,0.2,0.5,0.3c0.1,0,0.2,0.1,0.3,0.1c0.1,0,0.2-0.1,0.3,0c0.1,0,0.1,0.2,0.2,0.2c0.1,0,0.2,0,0.2,0c0,0,0.1-0.1,0.1-0.1
		c0.2-0.2,0.5-0.4,0.7-0.6c0.7-0.6,1.5-1.2,2.2-1.9c0.2,0,0.6-0.5,0.7-0.6c0.2-0.2,0.5-0.4,0.7-0.6c0.2-0.2,0.5-0.3,0.6-0.6
		c0.1-0.2,0.2-0.5,0.2-0.8c0-0.1,0-0.1,0-0.2c0-0.1-0.1-0.1-0.1-0.2c-0.1-0.2-0.3-0.3-0.4-0.5c-0.1-0.1-0.1-0.1-0.2-0.2
		c-0.2-0.4,0.2-0.8,0.1-1.2c-0.1-0.3-0.4-0.5-0.7-0.6c-0.2-0.1-0.4-0.1-0.6-0.3c-0.1-0.2-0.2-0.5-0.3-0.7c-0.3-0.1-0.6-0.1-0.9,0
		c-0.2,0-0.3,0.1-0.5,0c-0.2-0.1-0.3-0.4-0.4-0.6c-0.1-0.3,0.1-1.2-0.3-1.4c-0.4-0.2-0.8-0.1-1.2-0.1c-0.3,0-0.6,0-0.9-0.1
		c-0.7-0.3-1.6,0-2.2-0.5c-0.2-0.1-0.3-0.4-0.6-0.4c-0.1,0-0.3,0-0.4,0.1c0,0-0.1,0-0.1,0.1c0,0,0,0.1,0,0.1
		C10.3,11.7,10.3,11.9,10.5,12.1z"/>
	<path class="st0" d="M2.8,5.5c-0.2,0.3-0.2,0.7,0,1C3,6.7,3.2,6.7,3.5,6.8C3.6,6.9,3.7,7,3.8,7.1c0.7,0.7,1.4,0.3,2.2,0.4
		c0.1,0,0.2,0,0.3,0.1C6.5,7.8,6.5,8,6.5,8.1c0,0.4-0.1,0.8-0.1,1.2c0,0.1,0,0.1,0,0.1c0,0,0.1,0,0.2,0c0.2,0,0.4,0.1,0.5,0.3
		c0.1,0.2,0.2,0.3,0.3,0.5c0,0.1,0.1,0.1,0.1,0.2c0.1,0.1,0.1,0.1,0.2,0.1c0.2,0.1,0.2,0.4,0.2,0.6c0,0.2,0,0.5,0,0.7
		c0.4,0,0.7-0.1,1-0.3c0-0.1-0.1-0.2-0.2-0.3c-0.2-0.3,0.2-0.3,0.3-0.5c0.2-0.2,0.3-0.7,0.4-1c0.3,0.3,0.7,0.5,1,0.6
		c0.2-0.4,0.3-0.8,0.7-0.9c0.2-0.1,0.4-0.1,0.5-0.3c0-0.1-0.1-0.3-0.1-0.4c-0.1-0.2-0.1-0.6,0.1-0.7c0.3-0.2,0.7-0.2,1-0.2
		c0.4-0.1,0.8-0.1,1.1-0.3c0-0.3,0-1.1-0.3-1.3c-0.2-0.2-0.7,0-0.5-0.6c0,0,0-0.1,0-0.1c0-0.1-0.1-0.1-0.1-0.1
		c-0.2-0.1-0.4-0.2-0.6-0.2c0,0-0.1,0-0.1-0.1c0,0,0-0.1,0-0.1c0-0.1,0-0.2,0-0.3c0.6-0.5,1.3-0.4,2-0.3c0,0.1-0.1,0.2-0.1,0.4
		c0,0.4,1.4,0.6,1.7,0.6c0.7,0.1,1.3,0.7,2,0.8c0.1,0,0.2,0,0.3-0.1c0.1-0.1,0.1-0.2,0.1-0.3c0-0.3,0-0.5,0-0.8c0,0,0-0.1,0-0.1
		c0,0-0.1-0.1-0.1-0.1c-0.3-0.3-0.1-0.8-0.1-1.2c0-0.4-0.1-0.9-0.1-1.3c0-0.8,0-1.6,0.1-2.4c0,0-0.1,0.1-0.1,0.1
		c-0.7,0.3-1.4,0.7-2.1,0.8C15,1,14.4,1.2,13.7,1.3c-0.5,0.1-1.1-0.1-1.6,0c-0.2,0.1-0.4,0.2-0.6,0.4c-0.2,0.2-0.1,0.4-0.3,0.6
		c-0.1,0.1-0.1,0.4,0,0.5c-0.1,0.2-0.2,0.4-0.3,0.5c0,0.1-0.1,0.1-0.1,0.2c-0.1,0-0.1,0-0.2,0c-0.3,0-0.6,0-0.9,0c0,0-0.1,0-0.1,0
		c0,0-0.1,0.1-0.1,0.1C9.2,4.2,8.6,4.3,8,4.4C7.6,4.2,7.5,3.7,7.3,3.4c-0.9-1-1.9-0.1-2.7,0.4C4.2,4.2,3.2,4.8,2.8,5.5z"/>
	<use xlink:href="#SVGID_1_"  style="overflow:visible;fill:none;stroke:#222222;stroke-width:2;stroke-miterlimit:10;"/>
</g>
<path class="st1" d="M11.5,6.6c0,0,0.1-0.1,0.1-0.1c-0.1,0-0.1-0.1-0.1-0.1c0-0.1,0.1-0.1,0.1-0.1s0.1-0.1,0.1-0.2
	c0-0.1-0.2-0.2-0.2-0.3c0-0.1,0.1-0.3,0.1-0.4c-0.1,0-0.1-0.1-0.2-0.1c0,0,0,0-0.1,0c-0.1,0-0.1,0.2-0.2,0.2C11,5.5,11,5.6,11,5.7
	c-0.1,0.3-0.3,0.9,0.2,1C11.3,6.7,11.4,6.7,11.5,6.6z"/>
</svg>
