<?xml version="1.0" encoding="utf-8"?>
<!-- Generator: Adobe Illustrator 24.0.0, SVG Export Plug-In . SVG Version: 6.00 Build 0)  -->
<svg version="1.1" id="레이어_1" xmlns="http://www.w3.org/2000/svg" xmlns:xlink="http://www.w3.org/1999/xlink" x="0px"
	 y="0px" width="27.4px" height="31.4px" viewBox="0 0 27.4 31.4" style="enable-background:new 0 0 27.4 31.4;"
	 xml:space="preserve">
<style type="text/css">
	.st0{fill:#2AC1BC;}
	.st1{fill:#FBCFC0;}
	.st2{fill:none;stroke:#222222;stroke-width:1.2;stroke-linecap:round;stroke-linejoin:round;stroke-miterlimit:10;}
</style>
<path class="st0" d="M27.4,13.7c0-0.1,0-0.1,0-0.2c0-0.1,0-0.2,0-0.3l0,0C27.2,5.9,21.1,0,13.7,0C6.1,0,0,6.1,0,13.7
	c0,7.5,6.1,13.6,13.6,13.7v4c0,0,13.8-2.5,13.9-17.5C27.4,13.9,27.4,13.8,27.4,13.7z"/>
<g>
	<path class="st1" d="M7.1,11.6l3.3,0v0.3l2.4-0.7l2.1-1.9l0.8-2.4l0.5-0.4l1.3,0.7l0.2,1.1l-0.5,3.1l2.7,0.3l0.3,1.1l-0.3,1
		l0.4,0.5L19.9,16l0.5,0.6l-0.1,1l-0.7,1c0,0-0.3,0.4-0.2,0.5c0,0.1,0.2,0.9,0.2,0.9l-1,1l-2.7,0.2l-5.4-0.8L10,20.7L7,20.6
		L7.1,11.6z"/>
	<rect x="6.9" y="11.4" class="st0" width="3.4" height="8.8"/>
	<path class="st2" d="M10,11.7c0.8-0.2,2.3-0.8,2.9-1.3c0.7-0.5,1.2-1.1,1.5-1.9c0.2-0.4,0.3-0.8,0.4-1.2c0.1-0.4,0.2-1.1,0.8-1.1
		c0.2,0,0.3,0,0.5,0.1c0.8,0.3,1.2,1.1,1.2,2c0,1.1-0.3,2-0.8,2.9c0,0-0.1,0.1-0.1,0.1"/>
	<path class="st2" d="M15,11.6h4.5c0.4,0,0.8,0.3,1,0.7c0.1,0.3,0.2,0.6,0,0.9c-0.2,0.4-0.6,0.7-1,0.7h-2.2"/>
	<path class="st2" d="M20.2,13.9L20.2,13.9c0.8,0.8,0.2,2.2-0.9,2.2h-2"/>
	<path class="st2" d="M19.8,16.2L19.8,16.2c0.8,0.8,0.2,2.2-0.9,2.2h-1.7"/>
	<path class="st2" d="M18.3,18.4c1.1,0.1,1.4,2.2-0.6,2.2c-2,0-4.2,0.2-7-0.6"/>
	<rect x="6.9" y="11.4" class="st2" width="3.4" height="8.8"/>
</g>
</svg>
