<svg width="14" height="14" viewBox="0 0 14 14" fill="none" xmlns="http://www.w3.org/2000/svg">
<path d="M1.54799 2.49803C1.52612 3.22222 1.51227 3.9446 1.51227 4.66881C1.51227 4.87163 1.48077 5.09921 1.54005 5.29187C1.61419 5.53284 1.64078 5.52463 1.90515 5.56173C2.33366 5.62187 2.78532 5.57665 3.21874 5.62126C3.7103 5.67186 4.20156 5.67682 4.69503 5.67682C4.88155 5.67682 5.06807 5.67682 5.2546 5.67682C5.34573 5.67682 5.57691 5.72024 5.65145 5.65103C5.75432 5.5555 5.69113 5.20908 5.69113 5.08551C5.69113 4.85996 5.69113 4.63442 5.69113 4.40887C5.69113 3.9287 5.66687 3.42495 5.56811 2.95441C5.50033 2.63147 5.50762 2.31009 5.44112 1.99005C5.41387 1.85894 5.41724 1.59969 5.2546 1.54161C4.63975 1.32202 3.91905 1.5286 3.28025 1.45629C3.20851 1.44816 1.64586 1.16375 1.6214 1.34715C1.55311 1.85932 1.5837 2.40871 1.5837 2.92663" stroke="#2AC1BC" stroke-width="1.14286" stroke-linecap="round"/>
<path d="M1.54799 9.35545C1.52612 10.0796 1.51227 10.802 1.51227 11.5262C1.51227 11.7291 1.48077 11.9566 1.54005 12.1493C1.61419 12.3903 1.64078 12.3821 1.90515 12.4192C2.33366 12.4793 2.78532 12.4341 3.21874 12.4787C3.7103 12.5293 4.20156 12.5342 4.69503 12.5342C4.88155 12.5342 5.06807 12.5342 5.2546 12.5342C5.34573 12.5342 5.57691 12.5777 5.65145 12.5084C5.75432 12.4129 5.69113 12.0665 5.69113 11.9429C5.69113 11.7174 5.69113 11.4918 5.69113 11.2663C5.69113 10.7861 5.66687 10.2824 5.56811 9.81183C5.50033 9.4889 5.50762 9.16752 5.44112 8.84747C5.41387 8.71636 5.41724 8.45712 5.2546 8.39903C4.63975 8.17944 3.91905 8.38602 3.28025 8.31371C3.20851 8.30558 1.64586 8.02117 1.6214 8.20457C1.55311 8.71674 1.5837 9.26613 1.5837 9.78405" stroke="#2AC1BC" stroke-width="1.14286" stroke-linecap="round"/>
<path d="M8.18666 2.49803C8.16479 3.22222 8.15094 3.9446 8.15094 4.66881C8.15094 4.87163 8.11944 5.09921 8.17872 5.29187C8.25286 5.53284 8.27945 5.52463 8.54383 5.56173C8.97233 5.62187 9.42399 5.57665 9.85741 5.62126C10.349 5.67186 10.8402 5.67682 11.3337 5.67682C11.5202 5.67682 11.7067 5.67682 11.8933 5.67682C11.9844 5.67682 12.2156 5.72024 12.2901 5.65103C12.393 5.5555 12.3298 5.20908 12.3298 5.08551C12.3298 4.85996 12.3298 4.63442 12.3298 4.40887C12.3298 3.9287 12.3055 3.42495 12.2068 2.95441C12.139 2.63147 12.1463 2.31009 12.0798 1.99005C12.0525 1.85894 12.0559 1.59969 11.8933 1.54161C11.2784 1.32202 10.5577 1.5286 9.91892 1.45629C9.84718 1.44816 8.28453 1.16375 8.26008 1.34715C8.19179 1.85932 8.22237 2.40871 8.22237 2.92663" stroke="#2AC1BC" stroke-width="1.14286" stroke-linecap="round"/>
<path d="M8.18666 9.35545C8.16479 10.0796 8.15094 10.802 8.15094 11.5262C8.15094 11.7291 8.11944 11.9566 8.17872 12.1493C8.25286 12.3903 8.27945 12.3821 8.54383 12.4192C8.97233 12.4793 9.42399 12.4341 9.85741 12.4787C10.349 12.5293 10.8402 12.5342 11.3337 12.5342C11.5202 12.5342 11.7067 12.5342 11.8933 12.5342C11.9844 12.5342 12.2156 12.5777 12.2901 12.5084C12.393 12.4129 12.3298 12.0665 12.3298 11.9429C12.3298 11.7174 12.3298 11.4918 12.3298 11.2663C12.3298 10.7861 12.3055 10.2824 12.2068 9.81183C12.139 9.4889 12.1463 9.16752 12.0798 8.84747C12.0525 8.71636 12.0559 8.45712 11.8933 8.39903C11.2784 8.17944 10.5577 8.38602 9.91892 8.31371C9.84718 8.30558 8.28453 8.02117 8.26008 8.20457C8.19179 8.71674 8.22237 9.26613 8.22237 9.78405" stroke="#2AC1BC" stroke-width="1.14286" stroke-linecap="round"/>
<rect x="1" y="1" width="4.57143" height="4.57143" fill="#2AC1BC"/>
<path d="M8.14258 1.28564H11.5711L12.1426 5.85707H8.14258V1.28564Z" fill="#2AC1BC"/>
<path d="M8.14258 8.14307H11.5711L12.1426 12.7145H8.14258V8.14307Z" fill="#2AC1BC"/>
<path d="M1.28613 8.14307H5.28613V12.7145H1.28613V8.14307Z" fill="#2AC1BC"/>
</svg>
