<?xml version="1.0" encoding="utf-8"?>
<!-- Generator: Adobe Illustrator 24.0.0, SVG Export Plug-In . SVG Version: 6.00 Build 0)  -->
<svg version="1.1" id="레이어_1" xmlns="http://www.w3.org/2000/svg" xmlns:xlink="http://www.w3.org/1999/xlink" x="0px"
	 y="0px" viewBox="0 0 10.83 10.82" style="enable-background:new 0 0 10.83 10.82;" xml:space="preserve">
<style type="text/css">
	.st0{fill:#CCCCCC;}
	.st1{fill:#FFFFFF;}
</style>
<g>
	<path class="st0" d="M4.34,7.39C1.71,7.74,1.58,4.5,3,3.17c0.96-0.9,2.85-1.4,4.08-0.7c1.44,0.82,1.37,3,0.6,4.23
		C6.84,8.04,5.65,8.34,4.12,8.01c-0.91-0.2-1.49-0.81-1.51-1.74c-0.03-1.3,1.42-2.02,2.44-2.45C5.57,3.6,6.49,3.27,6.94,3.88
		c0.43,0.59-0.25,1.9-0.69,2.31C5.76,6.67,4.21,7.43,4.09,6.11C4.01,5.16,6.05,4.21,6.75,4.58C6.56,4.34,6.37,4.09,6.18,3.85
		c0.27,0.67-0.72,2.5-1.32,2.79C4.47,6.82,4.64,6.51,4.88,6.23c0.21-0.25,0.55-0.54,0.91-0.46C5.53,5.57,5.27,5.38,5.02,5.19
		c0.05-0.26,0.07-0.15,0.07,0.35C5.4,5.66,5.7,5.79,6,5.91C5.94,5.97,5.89,6.02,5.83,6.08c-0.49-0.2-0.98-0.39-1.47-0.59
		C4.38,5.37,4.4,5.24,4.43,5.12c0.55,0.07,1.09,0.14,1.64,0.21C6.14,5.41,6.1,4.35,6.1,4.39C6.06,3.57,4.97,2.98,4.34,3.67
		c-0.91,1-1.31,2.49-0.19,3.53C4.57,7.58,5.3,7.75,5.79,7.41C6.77,6.75,7.35,5.22,6.61,4.2C6.26,3.72,5.73,3.46,5.13,3.61
		c-1.69,0.42-2.35,2.8-1.08,4c1.37,1.29,2.91-0.35,3.37-1.64c0.62-1.74-0.65-3.12-2.5-2.67C3.22,3.7,1.92,5.33,1.97,7.07
		c0.06,1.91,1.93,3.14,3.68,2.19c1.57-0.85,3.09-3.29,3.12-5.05C8.8,2.05,6.4,1.63,4.71,2.31C3.02,2.98,1.29,4.85,1.44,6.75
		C1.6,8.65,3.53,9.51,5.26,9.34c1.92-0.19,3.48-1.48,4.07-3.27c0.61-1.82,0.21-4.15-1.77-4.93c-1.63-0.65-3.59,0.21-5,1.05
		C-0.1,3.8-1.22,8.04,1.84,9.94c3.63,2.26,8.75-0.03,8.98-4.34c0.11-2.13-0.68-4.42-2.83-5.25C6.01-0.42,3.54,0.13,1.95,1.49
		c-1.59,1.37-2.13,3.29-1.4,5.22c0.69,1.81,2.45,2.72,4.28,1.83C5.55,8.2,5,7.3,4.34,7.39L4.34,7.39z"/>
</g>
<g>
	<g>
		<path class="st1" d="M5.41,3.76c1.04,0,1.05-1.62,0-1.62C4.37,2.14,4.37,3.76,5.41,3.76L5.41,3.76z"/>
	</g>
	<g>
		<path class="st1" d="M4.79,5.3C4.48,6.1,4.58,7.07,4.57,7.91c0,0.25,0.16,0.54,0.42,0.66c0.31,0.14,0.54,0.16,0.85,0
			c0.24-0.12,0.44-0.4,0.42-0.66C6.19,7.03,6.23,5.99,5.81,5.18C5.59,4.75,4.93,4.93,4.79,5.3L4.79,5.3z"/>
	</g>
</g>
</svg>
