<?xml version="1.0" encoding="utf-8"?>
<!-- Generator: Adobe Illustrator 16.0.0, SVG Export Plug-In . SVG Version: 6.00 Build 0)  -->
<!DOCTYPE svg PUBLIC "-//W3C//DTD SVG 1.1//EN" "http://www.w3.org/Graphics/SVG/1.1/DTD/svg11.dtd">
<svg version="1.1" id="Layer_1" xmlns="http://www.w3.org/2000/svg" xmlns:xlink="http://www.w3.org/1999/xlink" x="0px" y="0px"
	 width="33.743px" height="25.548px" viewBox="0 0 33.743 25.548" enable-background="new 0 0 33.743 25.548" xml:space="preserve">
<path fill="#3B1C1C" d="M12.021,0c6.639,0,12.021,4.972,12.021,11.105c0,6.135-5.383,11.106-12.021,11.106
	c-0.914,0-1.802-0.097-2.657-0.274l-4.892,3.611V19.75l0.008,0.003C1.75,17.718,0,14.602,0,11.105C0,4.972,5.382,0,12.021,0"/>
<path fill="#FAE100" d="M12.456,12.054c-0.411,2.117-2.224,3.711-4.399,3.711c-2.478,0-4.487-2.069-4.487-4.625
	c0-2.554,2.009-4.625,4.487-4.625c2.161,0,3.963,1.575,4.39,3.671h-1.882c-0.377-1.052-1.356-1.804-2.508-1.804
	c-1.477,0-2.676,1.234-2.676,2.758c0,1.523,1.199,2.759,2.676,2.759c1.168,0,2.157-0.772,2.523-1.846H12.456z M19.585,11.114
	c-0.004-0.045-0.01-0.09-0.02-0.135c-0.027-0.125-0.078-0.245-0.128-0.362c-0.109-0.25-0.251-0.485-0.427-0.693
	c-0.198-0.235-0.441-0.432-0.714-0.574c-0.328-0.17-0.692-0.257-1.061-0.281c-0.07-0.005-0.141-0.007-0.212-0.007
	c-0.743,0-1.261,0.276-1.627,0.659V6.645h-1.74v8.964h1.74v-3.474c0-0.761,0.591-1.427,1.354-1.438h0.024
	c1.043,0,1.086,0.915,1.087,1.043v3.869h1.74c0-0.044-0.008-4.124-0.01-4.254C19.592,11.274,19.593,11.194,19.585,11.114"/>
<path fill="#3B1C1C" d="M33.743,11.141c0,0.552-0.447,1-1,1h-2v2c0,0.553-0.447,1-1,1s-1-0.447-1-1v-2h-2c-0.553,0-1-0.448-1-1
	s0.447-1,1-1h2v-2c0-0.552,0.447-1,1-1s1,0.448,1,1v2h2C33.296,10.141,33.743,10.589,33.743,11.141z"/>
</svg>
