<?xml version="1.0" encoding="utf-8"?>
<!-- Generator: Adobe Illustrator 25.2.3, SVG Export Plug-In . SVG Version: 6.00 Build 0)  -->
<svg version="1.1" id="Layer_1" xmlns="http://www.w3.org/2000/svg" xmlns:xlink="http://www.w3.org/1999/xlink" x="0px" y="0px"
	 viewBox="0 0 216 426" style="enable-background:new 0 0 216 426;" xml:space="preserve">
<style type="text/css">
	.st0{fill:#EAEAEA;}
</style>
<g>
	<path class="st0" d="M187.1,0H28.9h-3.7C11.3,0,0,11.3,0,25.2v3.7v368.2v3.7C0,414.7,11.3,426,25.2,426h3.7h158.2h3.7
		c13.9,0,25.2-11.3,25.2-25.2v-3.7V28.9v-3.7C216,11.3,204.7,0,190.8,0H187.1z M208.9,396.5c0,12.4-10,22.5-22.3,22.5H29.2
		c-12.3,0-22.3-10.1-22.3-22.5v-367C6.9,17.1,16.9,7,29.2,7h28.5v0.6c0,7.2,5.5,13,12.4,13h85.3c6.8,0,12.4-5.8,12.4-13V7h18.8
		c12.3,0,22.3,10.1,22.3,22.5V396.5z"/>
</g>
</svg>
