<?xml version="1.0" encoding="utf-8"?>
<!-- Generator: Adobe Illustrator 24.0.0, SVG Export Plug-In . SVG Version: 6.00 Build 0)  -->
<svg version="1.1" id="레이어_1" xmlns="http://www.w3.org/2000/svg" xmlns:xlink="http://www.w3.org/1999/xlink" x="0px"
	 y="0px" width="217px" height="427px" viewBox="0 0 217 427" style="enable-background:new 0 0 217 427;" xml:space="preserve">
<style type="text/css">
	.st0{display:none;}
	.st1{display:inline;fill:#EAEAEA;}
	.st2{display:inline;}
	.st3{fill:#EAEAEA;}
</style>
<g class="st0">
	<path class="st1" d="M187.5,7.1c12.4,0,22.5,10.1,22.5,22.5v367.7c0,12.4-10.1,22.5-22.5,22.5h-158C17.1,419.9,7,409.8,7,397.4
		V29.6C7,17.2,17.1,7.1,29.5,7.1H187.5 M187.5,0.6h-158c-16,0-29,13-29,29v367.7c0,16,13,29,29,29h158c16,0,29-13,29-29V29.6
		C216.5,13.6,203.5,0.6,187.5,0.6L187.5,0.6z"/>
</g>
<g id="사각형_1820" transform="translate(0 0)" class="st0">
	<g class="st2">
		<path class="st3" d="M188,426.4H29c-15.7,0-28.5-12.8-28.5-28.5V29.1C0.5,13.4,13.3,0.6,29,0.6h159c15.7,0,28.5,12.8,28.5,28.5
			v368.8C216.5,413.6,203.7,426.4,188,426.4z M29,7.4c-12,0-21.7,9.7-21.7,21.7v368.8c0,12,9.7,21.7,21.7,21.7h159
			c12,0,21.7-9.7,21.7-21.7V29.1c0-12-9.7-21.7-21.7-21.7C188,7.4,29,7.4,29,7.4z"/>
	</g>
</g>
<path class="st3" d="M188,0H29H0v29v369v29h29h159h29v-29V29V0H188z M29,420.5c-12.4,0-22.5-10.1-22.5-22.5V29
	C6.5,16.6,16.6,6.5,29,6.5h28.8v0.6c0,7.2,5.6,13,12.5,13h86.2c6.9,0,12.5-5.8,12.5-13V6.5H188c12.4,0,22.5,10.1,22.5,22.5v369
	c0,12.4-10.1,22.5-22.5,22.5H29z"/>
</svg>
