<svg version="1.1" xmlns="http://www.w3.org/2000/svg" xmlns:xlink="http://www.w3.org/1999/xlink" x="0px" y="0px"
	 viewBox="0 0 9 10" style="enable-background:new 0 0 9 10;" xml:space="preserve">
<path fill="#2AC1BC" class="st0" d="M8.9,4.7C8.8,6.2,8.5,7.6,8,9.1C7.9,9.5,7.6,9.9,7.1,10c-0.7,0.1-1.5-0.3-1.6-1.1C5.3,8.8,5.2,8.7,5.1,8.5
	C5,8.4,5,8.1,4.8,7.9c0-0.4-0.3-0.6-0.4-1c0-0.3-0.3-0.6-0.4-1c-0.1-0.3-0.3-0.6-0.5-1C3.3,4.4,3,3.9,2.7,3.4c0,0.4,0,0.9,0,1.3
	c0,1.1,0.1,2.4,0.1,3.6c0,0.8-0.6,1.4-1.4,1.4S0,9.1,0,8.4c0-1.3,0-2.5,0-3.8c0-0.6,0.1-1.4,0.1-2C0.3,2,0.4,1.2,0.8,0.7
	c0.3-0.4,0.6-0.6,1-0.5c0.1,0,0.1,0,0.2,0.1c0.2,0,0.4,0,0.6,0.2c1,1,2,2.1,2.8,3.4c0.3,0.5,0.6,1,0.9,1.5c0,0,0-0.1,0-0.1
	C6.4,4.5,6.5,3.7,6.6,3c0-0.4,0-0.8,0-1.1c0-0.3,0-0.5,0.1-0.8V1c0.1-0.1,0.1-0.3,0.1-0.4C7.1,0,8.1-0.3,8.5,0.5
	C9.2,1.6,9,3.3,8.9,4.7z"/>
</svg>
