<?xml version="1.0" encoding="utf-8"?>
<!-- Generator: Adobe Illustrator 24.0.0, SVG Export Plug-In . SVG Version: 6.00 Build 0)  -->
<svg version="1.1" id="레이어_1" xmlns="http://www.w3.org/2000/svg" xmlns:xlink="http://www.w3.org/1999/xlink" x="0px"
	 y="0px" width="13.5px" height="12.6px" viewBox="0 0 13.5 12.6" style="enable-background:new 0 0 13.5 12.6;"
	 xml:space="preserve">
<style type="text/css">
	.st0{stroke:#000000;stroke-width:0.25;stroke-miterlimit:10;}
</style>
<g>
	<g>
		<path class="st0" d="M7.1,12.5c-0.5,0-1-0.1-1.4-0.4c-2-1.4-4.2-3.2-5.2-5.4C-0.1,5.4,0,3.9,0.6,2.6c0.6-1.2,1.5-2,2.6-2.3
			c1.4-0.4,2.9,0.5,3.9,1.7c0.7-0.7,1.7-1.8,3.1-1.5c1.2,0.2,2.1,0.8,2.6,1.8c0.7,1.3,0.8,3,0.1,4.6c-0.6,1.5-1.8,2.7-3,3.9
			c-0.3,0.3-0.6,0.6-0.9,0.9C8.5,12.2,7.8,12.5,7.1,12.5z M4.2,1.6c-0.2,0-0.4,0-0.6,0.1C2.7,1.9,2.2,2.6,1.9,3.1
			c-0.4,0.9-0.5,2-0.1,3c0.8,2,2.9,3.5,4.7,4.9c0.4,0.3,1.1,0.1,1.5-0.2c0.3-0.3,0.6-0.6,0.9-1c1.1-1.1,2.2-2.1,2.7-3.4
			C12.1,5.3,12,4,11.5,3.1c-0.4-0.6-0.9-1-1.6-1.1C9.1,1.7,8.5,2.4,7.7,3.5C7.6,3.6,7.5,3.7,7.4,3.8C7.2,3.9,6.9,3.9,6.6,3.7
			C6.5,3.6,6.4,3.5,6.4,3.4C6,2.6,5.2,1.6,4.2,1.6z"/>
	</g>
</g>
</svg>
