<svg width="97" height="115" viewBox="0 0 97 115" fill="none" xmlns="http://www.w3.org/2000/svg">
<path d="M27.2568 112.594V99.0659C27.2568 84.9032 37.4033 73.3828 49.8749 73.3828C63.7205 73.3828 75.0296 86.1715 75.0296 101.814V112.489" fill="white"/>
<path d="M27.2568 112.594V99.0659C27.2568 84.9032 37.4033 73.3828 49.8749 73.3828C63.7205 73.3828 75.0296 86.1715 75.0296 101.814V112.489" stroke="#222222" stroke-width="2.0098" stroke-miterlimit="10" stroke-linecap="round" stroke-linejoin="round"/>
<path d="M45.7065 85.3895C69.01 85.3895 87.9012 66.4982 87.9012 43.1947C87.9012 19.8912 69.01 1 45.7065 1C22.4029 1 3.51172 19.8912 3.51172 43.1947C3.51172 66.4982 22.4029 85.3895 45.7065 85.3895Z" fill="white" stroke="#222222" stroke-width="1.83187" stroke-miterlimit="10" stroke-linecap="round" stroke-linejoin="round"/>
<path d="M45.7059 80.4738C60.3903 80.4738 72.2944 68.5697 72.2944 53.8853C72.2944 39.2009 60.3903 27.2969 45.7059 27.2969C31.0215 27.2969 19.1174 39.2009 19.1174 53.8853C19.1174 68.5697 31.0215 80.4738 45.7059 80.4738Z" fill="#FFE4DE"/>
<path d="M45.7059 80.4738C60.3903 80.4738 72.2944 68.5697 72.2944 53.8853C72.2944 39.2009 60.3903 27.2969 45.7059 27.2969C31.0215 27.2969 19.1174 39.2009 19.1174 53.8853C19.1174 68.5697 31.0215 80.4738 45.7059 80.4738Z" stroke="#222222" stroke-width="1.83187" stroke-miterlimit="10" stroke-linecap="round" stroke-linejoin="round"/>
<path d="M34.2422 31.8316C34.2422 34.4326 36.3616 36.4556 38.8663 36.4556C39.5406 36.4556 40.3113 36.263 40.8893 35.974C41.5636 37.8043 43.2013 39.0567 45.2244 39.0567C47.3438 39.0567 49.0778 37.708 49.6558 35.7813C50.4265 36.3593 51.3898 36.7447 52.4495 36.7447C55.0506 36.7447 57.0736 34.6253 57.0736 32.1206C57.0736 30.1939 55.8212 28.5562 54.1835 27.8818C54.1835 27.7855 54.1835 27.6892 54.1835 27.5928C54.1835 24.9918 52.0642 22.9688 49.5595 22.9688C48.0181 22.9688 46.6694 23.7394 45.8024 24.8955C44.9354 23.7394 43.5867 22.9688 42.0453 22.9688C39.5406 22.9688 37.4212 24.9918 37.4212 27.5928C35.5909 28.0745 34.2422 29.8085 34.2422 31.8316Z" fill="#AF8468" stroke="#222222" stroke-width="1.83187" stroke-miterlimit="10" stroke-linecap="round" stroke-linejoin="round"/>
<path opacity="0.1" d="M53.4631 47.5097C55.4861 48.2804 57.4128 49.3401 58.7615 51.0741C60.2065 52.9044 60.7846 55.7945 59.1469 57.6249C57.7018 59.2626 55.1971 59.0699 53.2704 58.6845C52.9814 58.5882 52.6924 58.5882 52.4034 58.4919C49.8987 57.8175 47.4903 56.9505 44.8893 56.8542C42.6736 56.7578 40.1689 57.1432 38.0495 57.8175C36.2191 58.4919 34.3888 59.5516 32.3657 59.5516C29.0903 59.6479 28.0307 55.9872 28.705 53.4825C29.4757 50.5924 32.6547 48.473 35.3521 47.4134C37.4715 46.5463 39.8799 46.0647 42.1919 45.9683C45.0819 45.872 47.972 45.9683 50.862 46.739C51.6327 46.9317 52.5961 47.2207 53.4631 47.5097Z" fill="black"/>
<path d="M43.5567 58.5269L45.9875 58.3873C45.9875 58.3873 46.7811 62.0196 45.1558 62.2022C43.0831 62.361 43.5567 58.5269 43.5567 58.5269Z" fill="white" stroke="#222222" stroke-width="1.25779" stroke-miterlimit="10" stroke-linecap="round" stroke-linejoin="round"/>
<path d="M27.7045 64.2924C31.1467 64.1794 33.844 61.2501 33.7291 57.7495C33.6142 54.2489 30.7306 51.5027 27.2884 51.6157C23.8461 51.7287 21.1488 54.6581 21.2637 58.1587C21.3786 61.6592 24.2622 64.4054 27.7045 64.2924Z" fill="#FFAEBA"/>
<path d="M30.1397 57.4219L29.1885 58.7959" stroke="#FF5764" stroke-width="1.0049" stroke-miterlimit="10" stroke-linecap="round" stroke-linejoin="round"/>
<path d="M31.9356 57.4219L30.9844 58.7959" stroke="#FF5764" stroke-width="1.0049" stroke-miterlimit="10" stroke-linecap="round" stroke-linejoin="round"/>
<path d="M63.3641 64.2797C66.8026 64.0855 69.4298 61.0933 69.2322 57.5966C69.0347 54.0999 66.0871 51.4227 62.6487 51.617C59.2103 51.8113 56.583 54.8034 56.7806 58.3001C56.9781 61.7968 59.9257 64.474 63.3641 64.2797Z" fill="#FFAEBA"/>
<path d="M59.2041 57.6328L58.2529 59.0068" stroke="#FF5764" stroke-width="1.0049" stroke-miterlimit="10" stroke-linecap="round" stroke-linejoin="round"/>
<path d="M61.001 57.5312L60.0498 58.9052" stroke="#FF5764" stroke-width="1.0049" stroke-miterlimit="10" stroke-linecap="round" stroke-linejoin="round"/>
<path d="M39.3844 43.9698L35.5771 43.2344" stroke="#222222" stroke-width="3.01457" stroke-miterlimit="10" stroke-linecap="round" stroke-linejoin="round"/>
<path d="M49.1108 43.9761L52.9139 43.2198" stroke="#222222" stroke-width="3.01457" stroke-miterlimit="10" stroke-linecap="round" stroke-linejoin="round"/>
<path d="M44.373 53.7734L44.3911 55.0239" stroke="#222222" stroke-width="1.0049" stroke-miterlimit="10" stroke-linecap="round" stroke-linejoin="round"/>
<path d="M40.0723 71.3759C40.0723 71.3759 45.1455 74.441 50.2187 70.9531" stroke="#222222" stroke-width="2.0098" stroke-miterlimit="10" stroke-linecap="round" stroke-linejoin="round"/>
<path d="M38.149 54.0298C39.1996 54.0118 40.0367 53.1456 40.0187 52.095C40.0007 51.0444 39.1345 50.2073 38.0839 50.2253C37.0333 50.2432 36.1962 51.1095 36.2142 52.1601C36.2321 53.2107 37.0984 54.0478 38.149 54.0298Z" fill="#222222"/>
<path d="M38.1237 51.807C38.3572 51.803 38.5432 51.6105 38.5392 51.377C38.5352 51.1436 38.3427 50.9575 38.1092 50.9615C37.8758 50.9655 37.6898 51.158 37.6938 51.3915C37.6977 51.6249 37.8902 51.811 38.1237 51.807Z" fill="#FFFDFD"/>
<path d="M50.6968 54.0298C51.7474 54.0118 52.5845 53.1456 52.5666 52.095C52.5486 51.0444 51.6823 50.2073 50.6318 50.2253C49.5812 50.2432 48.7441 51.1095 48.762 52.1601C48.78 53.2107 49.6462 54.0478 50.6968 54.0298Z" fill="#222222"/>
<path d="M50.5661 51.8226C50.7996 51.8186 50.9856 51.6261 50.9816 51.3926C50.9776 51.1592 50.7851 50.9732 50.5516 50.9771C50.3182 50.9811 50.1321 51.1736 50.1361 51.4071C50.1401 51.6406 50.3326 51.8266 50.5661 51.8226Z" fill="#FFFDFD"/>
<path d="M42.0831 52.0583C42.0831 52.0583 44.3007 50.457 46.5264 52.3552" stroke="#222222" stroke-width="1.25779" stroke-miterlimit="10" stroke-linecap="round" stroke-linejoin="round"/>
<path d="M36.7168 57.4562C39.4857 57.5853 41.835 55.4453 41.9641 52.6765C42.0933 49.9076 39.9533 47.5582 37.1844 47.4291C34.4155 47.3 32.0662 49.4399 31.9371 52.2088C31.808 54.9777 33.9479 57.327 36.7168 57.4562Z" stroke="#222222" stroke-width="1.25779" stroke-miterlimit="10" stroke-linecap="round" stroke-linejoin="round"/>
<path d="M51.4541 56.9796C54.223 57.1087 56.5723 54.9688 56.7015 52.1999C56.8306 49.431 54.6906 47.0817 51.9217 46.9526C49.1528 46.8234 46.8035 48.9634 46.6744 51.7323C46.5453 54.5012 48.6852 56.8505 51.4541 56.9796Z" stroke="#222222" stroke-width="1.25779" stroke-miterlimit="10" stroke-linecap="round" stroke-linejoin="round"/>
<path opacity="0.4" d="M19.7539 73.1782C19.7539 73.1782 19.7539 72.7555 19.8596 72.0156" stroke="white" stroke-width="3.01457" stroke-miterlimit="10" stroke-linecap="round" stroke-linejoin="round"/>
<path d="M6.82136 83.4375C7.02834 80.5737 7.17176 75.3348 6.89969 72.5056C6.86607 72.156 7.14323 71.8485 7.49443 71.8525C20.4128 71.9989 30.7447 68.1206 40.2592 69.0947C40.5531 69.1247 40.7699 69.3785 40.758 69.6737C40.4588 77.0745 39.6363 86.6687 38.8139 94.7607C38.0612 104.504 33.4373 108.877 33.2823 109.021L33.2753 109.028C33.1222 109.176 27.1298 114.921 18.244 113.624C13.7809 112.973 8.74195 112.37 4.85691 111.122C2.4271 110.342 1.86484 109.883 1.30001 109.423L1.26827 109.397C1.01109 109.188 0.950959 108.8 1.13036 108.521C1.88009 107.355 3.24661 104.8 4.015 102.321C5.97927 95.983 6.54073 87.3206 6.82136 83.4375Z" fill="white" stroke="#222222" stroke-width="2"/>
<path d="M28.7402 88.5099C28.7402 84.5197 25.6126 81.2969 21.7402 81.2969C17.8679 81.2969 14.7402 84.5197 14.7402 88.5099C14.7402 88.5099 14.7402 88.5099 14.7402 88.5867C14.7402 92.5768 17.8679 95.7997 21.7402 95.7997V97.8715C25.6126 96.874 28.5913 93.2675 28.7402 88.9703C28.7402 88.8936 28.7402 88.8936 28.7402 88.8169V88.8936C28.7402 88.8169 28.7402 88.8169 28.7402 88.7401C28.7402 88.6634 28.7402 88.5867 28.7402 88.5099ZM21.3679 89.8911C21.3679 90.505 20.8466 91.0422 20.2509 91.0422H18.1658C17.57 91.0422 17.0487 90.505 17.0487 89.8911V87.7426C17.0487 87.1287 17.57 86.5916 18.1658 86.5916H20.6977C20.9956 86.5916 21.219 86.8218 21.219 87.1287C21.219 87.4356 20.9956 87.7426 20.6977 87.7426H18.6126C18.3147 87.7426 18.0913 87.9728 18.0913 88.2797V89.4307C18.0913 89.7377 18.3147 89.9679 18.6126 89.9679H19.953C20.1019 89.9679 20.1764 89.8911 20.1764 89.7377V89.5842C20.1764 89.5075 20.1019 89.5075 20.1019 89.5075H19.5807C19.2828 89.5075 19.0594 89.2773 19.0594 89.0471C19.0594 88.7401 19.2828 88.5099 19.5807 88.5099H20.8466C21.1445 88.5099 21.3679 88.7401 21.3679 89.0471V89.8911ZM26.5807 89.8911C26.5807 90.505 26.0594 91.0422 25.4636 91.0422H23.3785C22.7828 91.0422 22.2615 90.505 22.2615 89.8911V87.7426C22.2615 87.1287 22.7828 86.5916 23.3785 86.5916H25.4636C26.0594 86.5916 26.5807 87.1287 26.5807 87.7426V89.8911Z" fill="#2AC1BC"/>
<path d="M24.9424 87.7426H23.8253C23.5275 87.7426 23.3041 87.9728 23.3041 88.2797V89.4307C23.3041 89.7377 23.5275 89.9679 23.8253 89.9679H24.9424C25.2402 89.9679 25.4636 89.7377 25.4636 89.4307V88.2797C25.4636 87.9728 25.2402 87.7426 24.9424 87.7426Z" fill="#2AC1BC"/>
<path d="M8.95055 112.963C32.0094 117.179 38.2783 107.079 38.7783 94.9375C38.2893 97.5882 35.7203 100.736 34.0534 101.339C32.3865 101.941 31.2752 101.038 29.8861 99.8328C29.5793 99.5667 29.0527 99.6521 29.0527 100.134C29.0527 100.736 30.0425 110.095 17.2629 111.902C12.2798 112.607 7.83925 112.963 8.95055 112.963Z" fill="#F8F8F8" stroke="#222222" stroke-width="2"/>
<path d="M19.3929 72.7172C17.9806 72.0111 17.6625 71.1156 17.8121 70.2677C18.0653 68.8326 19.5448 68.0109 20.9374 67.5818C24.8544 66.375 26.4048 67.1124 27.0725 67.7802C27.6211 68.3288 27.0727 71.6201 26.5241 72.7172C25.9755 73.8144 22.6843 74.3629 19.3929 72.7172Z" fill="white" stroke="#222222" stroke-width="2.00775" stroke-linecap="round"/>
<path d="M31.0021 93.4514C31.1904 93.0515 31.7913 92.8863 32.3091 93.1416L45.0799 99.6226C45.5976 99.878 45.8426 100.407 45.6543 100.807C45.466 101.207 44.8651 101.372 44.3473 101.117L31.5892 94.6821C31.0715 94.4267 30.8138 93.8512 31.0021 93.4514Z" fill="#66564F" stroke="#222222" stroke-width="0.897098" stroke-miterlimit="10" stroke-linecap="round" stroke-linejoin="round"/>
<path d="M44.0908 98.0666C44.9685 97.6278 47.5649 98.4327 48.4791 98.6156C49.0276 98.9812 50.1246 99.8222 50.1246 100.261C50.1246 100.7 50.4904 101.175 50.6732 101.358L49.5761 103.004H46.2847C44.639 103.004 43.5421 102.455 42.9935 101.358C42.4449 100.261 42.9937 98.6152 44.0908 98.0666Z" fill="white"/>
<path d="M64.2897 93.5039C59.5081 95.5579 48.2138 98.7107 45.388 97.8475C42.1968 96.8728 40.7318 101.968 44.6503 102.739C48.5687 103.51 61.1074 105.481 66.0444 103.286" stroke="#222222" stroke-width="2.00775" stroke-linecap="round"/>
<path d="M82.5152 80.8516C82.5152 80.8516 80.9011 84.0799 84.3193 86.2638C84.3193 86.2638 80.7112 85.5992 79.4768 88.9225C79.4768 88.9225 80.6162 85.3143 77.6727 83.7001C77.6727 83.6052 81.1859 84.2698 82.5152 80.8516Z" fill="#FFE106" stroke="#222222" stroke-width="1.5481" stroke-miterlimit="10" stroke-linecap="round" stroke-linejoin="round"/>
<path d="M88.593 68.125C88.593 68.125 89.9223 73.3474 95.9043 72.3978C95.9043 72.3978 91.1567 75.1514 92.9608 80.0889C92.9608 80.0889 90.7769 74.8666 85.8394 76.006C85.8394 76.006 90.492 73.3474 88.593 68.125Z" fill="#FFE106" stroke="#222222" stroke-width="1.5481" stroke-miterlimit="10" stroke-linecap="round" stroke-linejoin="round"/>
</svg>
