<?xml version="1.0" encoding="utf-8"?>
<!-- Generator: Adobe Illustrator 24.0.0, SVG Export Plug-In . SVG Version: 6.00 Build 0)  -->
<svg version="1.1" id="레이어_8" xmlns="http://www.w3.org/2000/svg" xmlns:xlink="http://www.w3.org/1999/xlink" x="0px"
	 y="0px" width="248.1px" height="287.7px" viewBox="0 0 248.1 287.7" style="enable-background:new 0 0 248.1 287.7;"
	 xml:space="preserve">
<style type="text/css">
	.st0{fill:#D80000;stroke:#222222;stroke-width:4;stroke-linecap:round;stroke-linejoin:round;stroke-miterlimit:10;}
	.st1{fill:#FFBC00;}
	.st2{fill:#FFFFFF;stroke:#222222;stroke-width:4;stroke-linecap:round;stroke-linejoin:round;stroke-miterlimit:10;}
	.st3{opacity:0.1;clip-path:url(#XMLID_2_);}
	.st4{clip-path:url(#XMLID_2_);}
	.st5{fill:#FFAEBA;}
	.st6{fill:none;stroke:#FF5764;stroke-width:2;stroke-linecap:round;stroke-linejoin:round;stroke-miterlimit:10;}
	.st7{fill:none;stroke:#222222;stroke-width:6;stroke-linecap:round;stroke-linejoin:round;stroke-miterlimit:10;}
	.st8{fill:#AF8468;stroke:#222222;stroke-width:4;stroke-linecap:round;stroke-linejoin:round;stroke-miterlimit:10;}
	.st9{fill:none;stroke:#222222;stroke-width:2;stroke-linecap:round;stroke-linejoin:round;stroke-miterlimit:10;}
	.st10{fill:none;stroke:#222222;stroke-width:4;stroke-linecap:round;stroke-linejoin:round;stroke-miterlimit:10;}
	.st11{fill:#222222;}
	.st12{fill:#FFFDFD;}
	.st13{fill:#2AC1BC;stroke:#222222;stroke-width:4;stroke-linecap:round;stroke-linejoin:round;stroke-miterlimit:10;}
	.st14{opacity:0.4;fill:none;stroke:#FFFFFF;stroke-width:6;stroke-linecap:round;stroke-linejoin:round;stroke-miterlimit:10;}
</style>
<path class="st0" d="M77.5,276.4c-7.2,4-14.3,7.5-22.5,8.9c-18.3,3-34.3-9.2-39.8-26.3c-3-9.4-1.1-17.8,1-27c1-4.6,3.1-7.7,2.5-12.4
	c-0.9-6.6-6.8-10.4-8.9-16.3c-3.2-8.8,3.1-13.7,3.6-21.7c0.5-7.9-4.8-15.3-11.2-19.4c5.3-1.9,9.1-2.1,12.8-2.5
	c14-1.7,28.2-0.3,38.6,10.2c9.7,9.7,14.3,21.6,28.5,25.7c5.8,1.7,15.2,5.7,19.7,10.3C115.2,219.8,124.9,250.1,77.5,276.4z"/>
<path class="st1" d="M54.5,272.5c-8.1,0.9-15.7-1.3-21.1-9c-4.1-5.9-4.6-12.5-3.4-19.4c1-5.9,1.3-10.3,2-16.3
	c0.6-5-0.4-10.6-3.1-14.9c-3.5-5.6-3.8-13.1,0.1-18.6c2-2.7,4.1-5.2,3.3-8.8c-0.8-3.3-3.3-6.3-6.6-7.3c2.8-0.9,5.9,0.3,7.9,2.3
	c2.1,2,3.3,4.8,4.2,7.5c0.7,2.3,1.3,4.8,2.8,6.7c2.6,3.4,7.1,4.3,11,5.6c4.7,1.6,9.3,2.2,14.1,3.6c4,1.1,7.7,2.8,11.4,4.8
	c4.9,2.6,9.6,5.8,13.5,9.9c2.3,2.4,4.3,5,5.5,8.1c4.2,10.5-2,19.8-9,27.2C79.7,261.6,66.5,271.1,54.5,272.5z"/>
<path class="st2" d="M78.1,280.1v-32.4c0-33.9,24.3-61.4,54.2-61.4h0c33.3,0,60.2,30.5,60.2,68.2v25.6"/>
<g>
	<circle class="st2" cx="135.2" cy="112.8" r="110.8"/>
	<g>
		<defs>
			<circle id="XMLID_12_" cx="135.2" cy="141.2" r="69.8"/>
		</defs>
		<use xlink:href="#XMLID_12_"  style="overflow:visible;fill:#FFE4DE;"/>
		<clipPath id="XMLID_2_">
			<use xlink:href="#XMLID_12_"  style="overflow:visible;"/>
		</clipPath>
		<path class="st3" d="M158.5,121.2c5.2,2,10.3,4.9,13.9,9.3c3.8,4.8,5.3,12.4,1.1,17.2c-3.8,4.4-10.5,3.8-15.4,2.8
			c-0.8-0.1-1.6-0.3-2.4-0.5c-6.6-1.7-13-4.2-19.9-4.4c-5.9-0.2-12.4,0.7-18,2.6c-4.9,1.7-9.7,4.5-14.9,4.6
			c-8.6,0.2-11.5-9.4-9.8-16c2-7.6,10.4-13.1,17.5-16c5.7-2.4,11.9-3.5,18.1-3.8c7.6-0.4,15.3,0.1,22.8,1.9
			C153.8,119.6,156.2,120.3,158.5,121.2z"/>
		<g class="st4">
			
				<ellipse transform="matrix(0.9995 -3.268274e-02 3.268274e-02 0.9995 -4.8289 3.1171)" class="st5" cx="92.9" cy="149.3" rx="15" ry="15.1"/>
			<g>
				<line class="st6" x1="99.4" y1="148" x2="97" y2="151.3"/>
				<line class="st6" x1="103.7" y1="147.9" x2="101.3" y2="151.1"/>
			</g>
		</g>
		<g class="st4">
			
				<ellipse transform="matrix(0.9984 -5.619532e-02 5.619532e-02 0.9984 -8.1063 10.2384)" class="st5" cx="178" cy="149.3" rx="15" ry="15.1"/>
			<g>
				<line class="st6" x1="169" y1="148.4" x2="166.7" y2="151.7"/>
				<line class="st6" x1="173.3" y1="148.1" x2="171" y2="151.5"/>
			</g>
		</g>
		
			<use xlink:href="#XMLID_12_"  style="overflow:visible;fill:none;stroke:#222222;stroke-width:4;stroke-linecap:round;stroke-linejoin:round;stroke-miterlimit:10;"/>
	</g>
	<line class="st7" x1="121.2" y1="121.4" x2="112.4" y2="118.5"/>
	<line class="st7" x1="145" y1="121.4" x2="153.9" y2="118.5"/>
	<path class="st8" d="M105.2,83.2c0,6.7,5.5,12.2,12.2,12.1c1.9,0,3.7-0.5,5.3-1.2c1.7,4.7,6.2,8,11.5,8c5.5,0,10.1-3.7,11.6-8.6
		c2.1,1.6,4.6,2.5,7.4,2.5c6.7,0,12.2-5.5,12.1-12.2c0-5.1-3.2-9.5-7.7-11.3c0-0.3,0-0.6,0-0.9c0-6.7-5.5-12.2-12.2-12.1
		c-4.1,0-7.7,2-9.9,5.1c-2.2-3.1-5.8-5.1-9.9-5.1c-6.7,0-12.1,5.4-12.1,12.1C108.6,73.2,105.1,77.8,105.2,83.2z"/>
	<line class="st9" x1="132.6" y1="136.1" x2="132.8" y2="137.8"/>
	<path class="st10" d="M123.1,181.4c0,0,12.1,7.3,24.4-0.9"/>
	<g>
		
			<ellipse transform="matrix(0.9999 -1.716547e-02 1.716547e-02 0.9999 -2.3035 2.0558)" class="st11" cx="118.6" cy="135.2" rx="4.5" ry="4.5"/>
		
			<ellipse transform="matrix(0.9999 -1.716547e-02 1.716547e-02 0.9999 -2.2756 2.0536)" class="st12" cx="118.5" cy="133.6" rx="1.1" ry="1.1"/>
	</g>
	<g>
		
			<ellipse transform="matrix(0.9999 -1.716547e-02 1.716547e-02 0.9999 -2.2993 2.5496)" class="st11" cx="147.4" cy="135.2" rx="4.5" ry="4.5"/>
		
			<ellipse transform="matrix(0.9999 -1.716547e-02 1.716547e-02 0.9999 -2.2714 2.5474)" class="st12" cx="147.3" cy="133.6" rx="1.1" ry="1.1"/>
	</g>
	<g>
		<g>
			<path class="st11" d="M130.5,121.8c-0.1,0.7-0.1,1.3-0.2,2c0,0.2,0.1,0.4,0.2,0.5c0.1,0.1,0.3,0.2,0.5,0.2c0.2,0,0.4-0.1,0.5-0.2
				c0.1-0.2,0.2-0.3,0.2-0.5c0.1-0.7,0.1-1.3,0.2-2c0-0.2-0.1-0.4-0.2-0.5c-0.1-0.1-0.3-0.2-0.5-0.2c-0.2,0-0.4,0.1-0.5,0.2
				C130.6,121.4,130.5,121.6,130.5,121.8L130.5,121.8z"/>
		</g>
	</g>
	<g>
		<g>
			<path class="st11" d="M133.6,120.3c-0.1,1.4,0.9,2.7,2.2,3.1c0.4,0.1,0.8-0.1,0.9-0.5c0.1-0.4-0.1-0.8-0.5-0.9
				c-0.1,0-0.1,0-0.2-0.1c0.1,0,0.1,0.1,0.2,0.1c-0.2-0.1-0.3-0.2-0.5-0.3c0.1,0,0.1,0.1,0.2,0.1c-0.2-0.1-0.3-0.3-0.4-0.4
				c0,0.1,0.1,0.1,0.1,0.2c-0.1-0.2-0.2-0.4-0.3-0.6c0,0.1,0.1,0.1,0.1,0.2c-0.1-0.2-0.1-0.4-0.2-0.6c0,0.1,0,0.1,0,0.2
				c0-0.1,0-0.3,0-0.4c0-0.4-0.4-0.8-0.8-0.8C133.9,119.6,133.6,119.9,133.6,120.3L133.6,120.3z"/>
		</g>
	</g>
	<path class="st9" d="M128.5,149.4c0,0,4.8-2.7,9.1,0"/>
</g>
<path class="st10" d="M72.5,224.7"/>
<g>
	<path class="st2" d="M82.1,272.3h-1.4c-5.1,0-9.3-4.2-9.3-9.3v-30.8h20V263C91.4,268.2,87.2,272.3,82.1,272.3z"/>
	<path class="st13" d="M65.8,240.2c0,0,0.7-6.3,0.8-12.2c0-4.1-7.5-10.1-10.1-12.8c-4.9-5.2-7.7-14.2-8.2-21.4
		c-0.5-7.1,1.7-12.4,3-19.4c0.9-4.8,2.6-10.7,8.2-11.2c8.3-0.8,8.7,4.5,9,8.6c0,0,0.3-7.3,7.8-7.3c7.9,0.1,7.5,7.5,7.5,7.5
		s2-4.7,8.4-3c6,1.7,4.5,8.5,4.7,7.7c0.8-3.1,5.5-3.5,8.2-2.2c5.2,2.5,4.8,9.6,4.7,14.7c-0.1,5-0.1,10.3-1.2,15.1
		c-1,4.6-3.1,8.8-5.4,12.9c-2.4,4.4-6.9,8.7-6.4,12.6l0.6,10.3H65.8z"/>
	<path class="st14" d="M60.7,195.7c0.7,4.6,1.4,9.7,12.7,19.8"/>
	<path class="st14" d="M60,185.7c0,0-0.1-1,0.2-2.8"/>
</g>
<g>
	<path class="st2" d="M186.4,272.3h1.4c5.1,0,9.3-4.2,9.3-9.3v-30.8h-20V263C177.1,268.2,181.3,272.3,186.4,272.3z"/>
	<path class="st13" d="M202.7,240.2c0,0-0.7-6.3-0.8-12.2c0-4.1,7.5-10.1,10.1-12.8c4.9-5.2,7.7-14.2,8.2-21.4
		c0.5-7.1-1.7-12.4-3-19.4c-0.9-4.8-2.6-10.7-8.2-11.2c-8.3-0.8-8.7,4.5-9,8.6c0,0-0.3-7.3-7.8-7.3c-7.9,0.1-7.5,7.5-7.5,7.5
		s-2-4.7-8.4-3c-6,1.7-4.5,8.5-4.7,7.7c-0.8-3.1-5.5-3.5-8.2-2.2c-5.2,2.5-4.8,9.6-4.7,14.7c0.1,5,0.1,10.3,1.2,15.1
		c1,4.6,3.1,8.8,5.4,12.9c2.4,4.4,6.9,8.7,6.4,12.6l-0.6,10.3H202.7z"/>
</g>
</svg>
