<?xml version="1.0" encoding="utf-8"?>
<!-- Generator: Adobe Illustrator 24.0.0, SVG Export Plug-In . SVG Version: 6.00 Build 0)  -->
<svg version="1.1" id="Layer_1" xmlns="http://www.w3.org/2000/svg" xmlns:xlink="http://www.w3.org/1999/xlink" x="0px" y="0px"
	 viewBox="0 0 20.87 23.99" style="enable-background:new 0 0 20.87 23.99;" xml:space="preserve">
<style type="text/css">
	.st0{fill:#2AC1BC;}
	.st1{fill:#FFFFFF;}
</style>
<path class="st0" d="M20.87,10.49c0-0.02,0-0.04,0-0.05C20.87,4.67,16.2,0,10.43,0C4.67,0,0,4.67,0,10.43l0,0c0,0.02,0,0.03,0,0.05
	c0,0.02,0,0.04,0,0.06l0,0c0,5.76,4.67,10.43,10.43,10.43l-0.01,0c0,0,0,0,0.01,0h0v0v3.01c5.83-1.49,10.17-6.66,10.42-12.89
	c0-0.02,0-0.04,0-0.06c0-0.08,0.01-0.15,0.01-0.23c0,0.05-0.01,0.09-0.01,0.14c0-0.07,0-0.14,0.01-0.2c0-0.01,0-0.03,0-0.04
	c0,0.01,0,0.02,0,0.03c0-0.06,0-0.12,0-0.18C20.87,10.53,20.87,10.51,20.87,10.49z"/>
<g>
	<path class="st1" d="M15.87,7.67h-3.08c-0.94,0-1.7,0.76-1.7,1.7v3.07c0,0.94,0.76,1.7,1.7,1.7h3.08c0.94,0,1.7-0.76,1.7-1.7V9.38
		C17.57,8.44,16.81,7.67,15.87,7.67z M15.17,12.48h-1.68c-0.41,0-0.74-0.33-0.74-0.74l0-1.67c0-0.41,0.33-0.74,0.74-0.74h1.68
		c0.41,0,0.74,0.33,0.74,0.74l0,1.67C15.91,12.15,15.58,12.48,15.17,12.48z"/>
	<path class="st1" d="M9.61,8.49c0.01,0.47-0.37,0.85-0.83,0.85H7.92H5.7c-0.41,0-0.74,0.33-0.74,0.74l0,1.67
		c0,0.41,0.33,0.74,0.74,0.74h2.05c0.2,0,0.37-0.17,0.37-0.37l0-0.22c0-0.08-0.07-0.15-0.15-0.15H7.19c-0.39,0-0.76-0.32-0.77-0.71
		c-0.01-0.42,0.32-0.76,0.74-0.76h1.89c0.41,0,0.74,0.33,0.74,0.74v1.44c0,0.94-0.76,1.7-1.7,1.7H5c-0.94,0-1.7-0.76-1.7-1.7V9.38
		c0-0.94,0.76-1.7,1.7-1.7h2.89h0.89C9.24,7.67,9.61,8.04,9.61,8.49L9.61,8.49z"/>
</g>
</svg>
