<svg width="36" height="36" viewBox="0 0 36 36" fill="none" xmlns="http://www.w3.org/2000/svg">
<path d="M34.0789 24.1499C33.5789 23.6499 33.3789 23.3499 32.5789 22.9499C30.9789 22.0499 30.2789 19.8499 30.2789 18.1499C30.2789 15.3499 31.4789 12.9499 33.9789 12.5499C34.1789 12.5499 34.0789 10.9499 34.0789 10.6499C33.8789 8.24995 34.7789 8.04995 30.5789 7.64995C24.0789 7.24995 13.4789 7.64995 6.27891 7.64995C1.17891 7.44995 1.87891 9.14995 2.17891 12.6499C4.47891 12.8499 6.67891 15.7499 6.67891 18.1499C6.67891 19.7499 5.77891 21.4499 4.47891 22.4499C3.77891 22.9499 2.67891 23.2499 2.17891 23.9499C1.67891 24.6499 1.77891 29.0499 2.97891 28.9499C8.57891 28.6499 13.8789 28.6499 19.4789 28.7499C21.4789 28.7499 23.5789 28.8499 25.5789 28.8499C32.5789 28.8499 33.7789 29.9499 33.7789 26.8499C33.9789 25.8499 34.1789 24.3499 34.0789 24.1499Z" fill="#2AC1BC"/>
<path d="M25.4787 5.34998H1.67871V30.65H25.4787V5.34998Z" fill="white"/>
<path fill-rule="evenodd" clip-rule="evenodd" d="M13.9376 6.71678C19.8061 6.62615 26.1811 6.52771 30.6305 6.80152C30.64 6.8021 30.6495 6.80284 30.6589 6.80374C31.7035 6.90323 32.4847 6.99456 33.0523 7.11991C33.5961 7.24002 34.1332 7.42718 34.488 7.86391C34.8484 8.30749 34.878 8.83903 34.8874 9.20294C34.891 9.34048 34.8913 9.47214 34.8916 9.60622C34.8923 9.89258 34.8929 10.19 34.9254 10.5793C34.9273 10.6028 34.9283 10.6264 34.9283 10.6499C34.9283 10.6898 34.9309 10.7656 34.9348 10.8804C34.9365 10.9286 34.9384 10.9836 34.9404 11.0457C34.9467 11.24 34.9533 11.4794 34.9533 11.7124C34.9533 11.9375 34.9474 12.1894 34.9221 12.3975C34.9106 12.4931 34.8888 12.6362 34.8372 12.7756C34.8124 12.8425 34.7599 12.9676 34.6538 13.0896C34.5509 13.208 34.3604 13.3605 34.0868 13.3935C32.223 13.7067 31.1283 15.5261 31.1283 18.1499C31.1283 18.8938 31.2834 19.7539 31.6096 20.5151C31.9342 21.2725 32.399 21.8677 32.979 22.2C33.7607 22.594 34.1038 22.9519 34.4621 23.3255C34.5328 23.3992 34.604 23.4735 34.6794 23.5489C34.744 23.6135 34.7977 23.6881 34.8386 23.7698C34.935 23.9625 34.9468 24.1635 34.9506 24.2276L34.9508 24.2316C34.957 24.3344 34.9555 24.4454 34.951 24.5515C34.9419 24.7666 34.9173 25.028 34.8849 25.3004C34.8231 25.8193 34.7268 26.4278 34.6281 26.9343C34.6234 27.6754 34.5534 28.3947 34.1887 28.9417C33.7539 29.5938 33.063 29.7936 32.3843 29.8585C31.7373 29.9205 30.8841 29.8779 29.8541 29.8265L29.7704 29.8223C28.6752 29.7677 27.3057 29.6999 25.5783 29.6999C24.5681 29.6999 23.5345 29.6747 22.5133 29.6498L22.5076 29.6497C21.4807 29.6246 20.4662 29.5999 19.4783 29.5999L19.4631 29.5998C13.8755 29.5 8.601 29.5002 3.03332 29.7982C2.59633 29.8296 2.2391 29.6449 1.98979 29.4052C1.75558 29.18 1.59988 28.8952 1.49197 28.6358C1.27447 28.113 1.15435 27.4541 1.09469 26.8309C1.03389 26.1958 1.02996 25.5327 1.07654 24.9704C1.09978 24.6897 1.13686 24.4186 1.1913 24.1804C1.23989 23.9679 1.32251 23.6856 1.48665 23.4559C1.86213 22.9302 2.42261 22.6029 2.85562 22.3737C3.01191 22.2909 3.15217 22.2201 3.27992 22.1556C3.55775 22.0153 3.77643 21.9048 3.97235 21.7667C5.07622 20.9111 5.82832 19.4572 5.82832 18.1499C5.82832 17.1877 5.37529 16.044 4.62631 15.1049C3.87123 14.1583 2.93845 13.5692 2.10469 13.4967C1.69301 13.4609 1.36672 13.1342 1.33143 12.7225C1.30608 12.4267 1.2759 12.1279 1.24635 11.8353C1.19443 11.3211 1.14444 10.8261 1.126 10.4008C1.09665 9.72422 1.12845 9.00221 1.44534 8.37776C1.7906 7.69738 2.39715 7.27107 3.20913 7.03768C3.98438 6.81484 4.99981 6.75002 6.29481 6.79991C8.56674 6.79971 11.1969 6.7591 13.9376 6.71678ZM14.066 8.41553C11.2952 8.45845 8.61797 8.49991 6.27832 8.49991C6.26722 8.49991 6.25611 8.49969 6.24502 8.49926C4.99804 8.45036 4.19391 8.52345 3.67876 8.67152C3.197 8.81 3.04104 8.98994 2.96131 9.14706C2.8532 9.36011 2.7975 9.70685 2.8244 10.3271C2.84105 10.7111 2.88229 11.1161 2.93011 11.5856C2.94146 11.6971 2.95318 11.8122 2.96504 11.9316C4.1424 12.2532 5.18733 13.082 5.95533 14.0449C6.88136 15.2059 7.52832 16.7122 7.52832 18.1499C7.52832 20.0378 6.486 21.9779 4.99658 23.1236C4.98862 23.1298 4.98055 23.1357 4.97238 23.1416C4.65955 23.365 4.25898 23.5672 3.93248 23.732C3.82963 23.7839 3.73412 23.8321 3.65103 23.8761C3.25337 24.0867 3.01712 24.2535 2.88807 24.4197C2.88265 24.4346 2.86732 24.4771 2.84855 24.5593C2.81745 24.6953 2.78968 24.882 2.77074 25.1107C2.73293 25.5671 2.73526 26.129 2.78695 26.6689C2.83979 27.2208 2.93843 27.6868 3.06155 27.9828C3.08026 28.0278 3.09742 28.0636 3.11224 28.0916C8.67232 27.7997 13.9391 27.8009 19.4859 27.8999C20.4938 27.9 21.5247 27.9252 22.5433 27.95L22.549 27.9502C23.576 27.9752 24.5905 27.9999 25.5783 27.9999C27.351 27.9999 28.7565 28.0696 29.855 28.1244C30.9813 28.1806 31.7118 28.2152 32.2223 28.1663C32.6996 28.1206 32.761 28.0203 32.773 28.0007L32.7742 27.9987C32.8394 27.9009 32.9283 27.6292 32.9283 26.8499C32.9283 26.7939 32.9339 26.7381 32.9448 26.6832C33.0405 26.2051 33.1369 25.6021 33.1968 25.0994C33.2243 24.8681 33.2427 24.6696 33.2506 24.5198C33.2366 24.5053 33.2229 24.4911 33.2094 24.4772C32.8823 24.1382 32.722 23.9721 32.1982 23.7102C32.1858 23.704 32.1736 23.6975 32.1616 23.6908C31.149 23.1212 30.4695 22.1704 30.0471 21.1847C29.6233 20.1959 29.4283 19.106 29.4283 18.1499C29.4283 15.3806 30.5589 12.6009 33.2525 11.8404C33.253 11.7999 33.2533 11.7571 33.2533 11.7124C33.2533 11.5079 33.2475 11.291 33.2413 11.101C33.2399 11.0597 33.2385 11.0179 33.2371 10.9769C33.2333 10.8662 33.2297 10.7614 33.2286 10.6884C33.1928 10.2405 33.1916 9.83348 33.1907 9.53387C33.1903 9.42212 33.19 9.32531 33.188 9.24689C33.1831 9.05663 33.1681 8.96842 33.1603 8.93393C33.1205 8.91011 32.997 8.84867 32.6856 8.77991C32.2365 8.68071 31.5592 8.59735 30.5119 8.49744C26.1284 8.22871 19.8906 8.32532 14.066 8.41553ZM33.2539 24.3341L33.2539 24.333C33.2531 24.3201 33.252 24.3145 33.252 24.3145" fill="black"/>
<path d="M24.9783 8.04995C24.9783 8.14995 24.9783 8.14995 24.9783 8.24995V8.34995C25.0783 8.24995 25.0783 8.24995 24.9783 8.44995V8.54995C24.9783 8.74995 24.9783 8.94995 24.9783 9.04995C24.9783 9.34995 24.9783 9.74995 24.9783 10.0499C24.9783 10.4499 24.9783 10.8499 24.9783 11.2499C24.9783 11.6499 25.2783 11.9499 25.6783 11.9499C26.0783 11.9499 26.3783 11.6499 26.3783 11.2499C26.3783 10.8499 26.3783 10.4499 26.3783 10.0499C26.3783 9.74995 26.3783 9.34995 26.3783 9.04995C26.3783 8.84995 26.3783 8.74995 26.3783 8.54995C26.3783 8.44995 26.3783 8.44995 26.3783 8.34995C26.2783 8.14995 26.2783 8.14995 26.3783 8.24995V8.14995C26.3783 8.04995 26.3783 8.04995 26.3783 7.94995C25.8783 7.54995 25.0783 7.54995 24.9783 8.04995Z" fill="black"/>
<path d="M24.9783 14.0499C25.0783 13.9499 25.1783 13.8499 25.2783 13.7499C24.9783 13.8499 24.8783 14.1499 24.7783 14.3499C24.6783 14.5499 24.7783 14.7499 24.7783 14.9499C24.7783 15.1499 24.7783 15.3499 24.7783 15.6499C24.7783 15.8499 24.7783 16.0499 24.6783 16.2499C24.6783 16.6499 24.4783 17.1499 24.7783 17.5499C24.9783 17.7499 25.1783 17.9499 25.4783 17.9499C25.7783 17.9499 25.9783 17.7499 26.1783 17.5499C26.3783 17.2499 26.2783 16.9499 26.2783 16.6499C26.2783 16.5499 26.2783 16.3499 26.2783 16.2499C26.2783 16.0499 26.2783 15.8499 26.2783 15.6499C26.2783 15.4499 26.2783 15.2499 26.2783 14.9499C26.2783 14.8499 26.2783 14.8499 26.2783 14.7499C26.2783 14.5499 26.1783 14.4499 26.1783 14.2499C26.0783 13.9499 25.8783 13.7499 25.4783 13.7499C25.5783 13.8499 25.7783 13.9499 25.8783 13.9499C25.6783 13.5499 25.0783 13.6499 24.9783 14.0499Z" fill="black"/>
<path d="M25.0783 20.0499C25.0783 20.1499 25.0783 20.1499 25.0783 20.2499V20.3499C25.1783 20.1499 25.1783 20.1499 25.0783 20.4499V20.5499C25.0783 20.7499 25.0783 20.9499 24.9783 21.1499C24.9783 21.4499 24.9783 21.8499 24.9783 22.1499C24.9783 22.5499 24.9783 22.9499 24.9783 23.3499C24.9783 23.8499 25.3783 24.2499 25.8783 24.2499C26.3783 24.2499 26.7783 23.8499 26.7783 23.3499C26.7783 22.9499 26.7783 22.5499 26.7783 22.1499C26.7783 21.8499 26.7783 21.4499 26.7783 21.1499C26.7783 20.9499 26.7783 20.8499 26.7783 20.6499C26.7783 20.5499 26.7783 20.4499 26.7783 20.4499C26.6783 20.2499 26.6783 20.2499 26.7783 20.3499V20.2499C26.7783 20.1499 26.7783 20.1499 26.7783 20.0499C26.2783 19.3499 25.2783 19.3499 25.0783 20.0499Z" fill="black"/>
<path d="M25.3787 25.4499C25.2787 25.4499 25.1787 25.5499 25.0787 25.6499C24.9787 25.7499 24.9787 25.8499 24.8787 25.9499C24.7787 26.15 24.7787 26.2499 24.7787 26.4499C24.7787 26.5499 24.7787 26.6499 24.7787 26.7499C24.7787 26.8499 24.7787 26.9499 24.7787 27.0499C24.7787 26.9499 24.7787 26.9499 24.7787 26.8499C24.7787 26.9499 24.7787 27.0499 24.6787 27.2499C24.6787 27.4499 24.5787 27.6499 24.5787 27.8499C24.5787 27.9499 24.5787 28.0499 24.5787 28.0499C24.5787 28.3499 24.5787 28.6499 24.8787 28.8499C25.0787 28.9499 25.2787 29.15 25.4787 29.0499C25.6787 29.0499 25.8787 28.9499 26.0787 28.8499C26.4787 28.5499 26.3787 28.0499 26.3787 27.5499C26.3787 27.4499 26.3787 27.3499 26.3787 27.1499C26.3787 26.8499 26.3787 26.6499 26.2787 26.3499C26.2787 26.4499 26.2787 26.4499 26.2787 26.5499C26.2787 26.3499 26.2787 26.0499 26.0787 25.8499C26.0787 25.7499 25.9787 25.7499 25.8787 25.6499C25.8787 25.5499 25.5787 25.3499 25.3787 25.4499Z" fill="black"/>
<path d="M13.3786 14.7501C12.7786 14.1501 11.7786 14.0501 11.1786 14.6501C10.8786 14.8501 10.6786 15.0501 10.6786 15.3501C10.5786 15.4501 10.5786 15.5501 10.5786 15.7501C10.3786 16.3501 10.7786 16.8501 11.1786 17.1501C11.7786 17.5501 12.5786 17.5501 13.0786 17.1501C13.9786 16.5501 13.9786 15.4501 13.3786 14.7501Z" fill="#FFC200"/>
<path d="M18.9786 20.45C18.3786 19.85 17.3786 19.75 16.7786 20.35C16.4786 20.55 16.3786 20.85 16.2786 21.15C16.1786 21.25 16.1786 21.35 16.1786 21.55C16.0786 22.15 16.4786 22.65 16.8786 22.95C17.4786 23.35 18.2786 23.35 18.8786 22.95C19.5786 22.25 19.6786 21.15 18.9786 20.45Z" fill="#FFC200"/>
<path fill-rule="evenodd" clip-rule="evenodd" d="M10.7047 14.0654C11.6591 13.1753 13.0967 13.4072 13.9091 14.2197L13.9295 14.24L13.9482 14.2619C14.7839 15.2368 14.8318 16.8609 13.5208 17.7565C12.7259 18.3711 11.5794 18.3185 10.7628 17.774L10.7454 17.7625L10.7288 17.75C10.2901 17.421 9.56651 16.6692 9.82792 15.6465C9.8288 15.5112 9.84381 15.3003 9.95345 15.0863C10.0521 14.5741 10.4263 14.2579 10.7047 14.0654ZM12.8279 15.2604C12.4581 14.9099 11.9513 14.9382 11.7091 15.1803L11.6566 15.2329L11.5948 15.274C11.5346 15.3142 11.4908 15.3469 11.4586 15.3741C11.446 15.3847 11.4363 15.3936 11.4288 15.4009V15.6607L11.3288 15.7607V15.8717L11.2903 15.9872C11.2658 16.0605 11.2702 16.1235 11.3175 16.2132C11.3718 16.3163 11.4751 16.4316 11.6116 16.5369C11.9821 16.774 12.4091 16.7253 12.6103 16.5644L12.6357 16.544L12.6628 16.526C13.117 16.2232 13.1666 15.6765 12.8279 15.2604Z" fill="black"/>
<path fill-rule="evenodd" clip-rule="evenodd" d="M16.2994 19.7702C17.2538 18.8744 18.6952 19.1057 19.5091 19.9196C20.5559 20.9665 20.345 22.5444 19.4091 23.4803L19.3566 23.5328L19.2948 23.574C18.4429 24.1419 17.3147 24.1419 16.4628 23.574L16.4455 23.5624L16.4288 23.55C15.9661 23.2029 15.3015 22.4843 15.4282 21.4999C15.4262 21.3556 15.4285 21.0689 15.6067 20.7943C15.7015 20.5149 15.8734 20.0829 16.2994 19.7702ZM18.4485 20.9803C18.077 20.6089 17.5558 20.6336 17.3091 20.8803L17.2566 20.9328L17.1948 20.974C17.1377 21.0121 17.0999 21.0585 16.9903 21.3871L16.9343 21.5551L16.9288 21.5606V21.612L16.9186 21.6733C16.9031 21.7663 16.9205 21.866 16.9904 21.9867C17.0616 22.1096 17.1766 22.2327 17.3115 22.3368C17.6376 22.545 18.0665 22.5539 18.4014 22.3637C18.8112 21.9066 18.7876 21.3195 18.4485 20.9803Z" fill="black"/>
<path d="M11.8788 21.85C12.5788 21.65 13.0788 21.05 13.6788 20.65C14.2788 20.25 14.7788 19.75 15.2788 19.25C15.7788 18.85 16.3788 18.35 16.8788 17.95C17.1788 17.75 17.3788 17.55 17.6788 17.25C17.8788 17.05 18.1788 16.85 18.3788 16.65C18.7788 16.45 18.8788 15.95 18.6788 15.55C18.4788 15.15 17.9788 15.05 17.5788 15.25C17.2788 15.35 16.9788 15.65 16.7788 15.85C16.4788 16.05 16.2788 16.35 15.9788 16.55C15.4788 17.05 14.8788 17.45 14.3788 17.95C13.8788 18.45 13.3788 18.85 12.7788 19.35C12.2788 19.85 11.5788 20.35 11.2788 20.95C11.0788 21.55 11.3788 22.05 11.8788 21.85Z" fill="black"/>
</svg>
