<svg width="14" height="14" viewBox="0 0 14 14" fill="none" xmlns="http://www.w3.org/2000/svg">
<path d="M9.58629 1.92642C7.58629 1.12642 5.18629 1.72642 3.58629 3.02642C2.38629 4.02642 1.78629 5.32642 1.88629 6.72642C1.28629 8.52642 1.58629 10.4264 3.38629 11.5264C6.98629 13.8264 12.0863 11.5264 12.3863 7.22642C12.4863 5.12642 11.6863 2.82642 9.58629 1.92642Z" fill="#CCCCCC"/>
<path d="M6.9859 5.42651C7.9859 5.42651 7.9859 3.82651 6.9859 3.82651C5.9859 3.72651 5.9859 5.42651 6.9859 5.42651Z" fill="white"/>
<path d="M6.38592 6.92654C6.08592 7.72654 6.18592 8.72654 6.18592 9.52654C6.18592 9.82654 6.38592 10.0265 6.58592 10.2265C6.88592 10.3265 7.08592 10.4265 7.48592 10.2265C7.68592 10.1265 7.88592 9.82654 7.88592 9.52654C7.78592 8.62654 7.78592 7.62654 7.38592 6.82654C7.18592 6.42654 6.48592 6.52654 6.38592 6.92654Z" fill="white"/>
</svg>
