<svg width="19" height="18" viewBox="0 0 19 18" fill="none" xmlns="http://www.w3.org/2000/svg">
<path fill-rule="evenodd" clip-rule="evenodd" d="M9.5 5C7.29086 5 5.5 6.79086 5.5 9C5.5 11.2091 7.29086 13 9.5 13C11.7091 13 13.5 11.2091 13.5 9C13.5 6.79086 11.7091 5 9.5 5ZM3.5 9C3.5 5.68629 6.18629 3 9.5 3C12.8137 3 15.5 5.68629 15.5 9C15.5 12.3137 12.8137 15 9.5 15C6.18629 15 3.5 12.3137 3.5 9Z" fill="white"/>
<path d="M9.5 11.5C10.8807 11.5 12 10.3807 12 9C12 7.61929 10.8807 6.5 9.5 6.5C8.11929 6.5 7 7.61929 7 9C7 10.3807 8.11929 11.5 9.5 11.5Z" fill="white"/>
<path fill-rule="evenodd" clip-rule="evenodd" d="M8.5 4V2H10.5V4H8.5Z" fill="white"/>
<path fill-rule="evenodd" clip-rule="evenodd" d="M2.5 8H4.5V10H2.5V8Z" fill="white"/>
<path fill-rule="evenodd" clip-rule="evenodd" d="M14.5 8H16.5V10H14.5V8Z" fill="white"/>
<path fill-rule="evenodd" clip-rule="evenodd" d="M8.5 16V14H10.5V16H8.5Z" fill="white"/>
</svg>
