<svg width="36" height="36" viewBox="0 0 36 36" fill="none" xmlns="http://www.w3.org/2000/svg">
<path d="M9.51826 23.5893C9.01826 25.8893 8.11826 27.6893 7.31826 29.5893C8.51826 29.1893 9.71826 28.6893 10.8183 28.1893C11.9183 27.6893 13.0183 27.0893 14.0183 26.4893C15.2183 25.7893 16.9183 26.4893 18.3183 26.5893C20.0183 26.6893 21.7183 26.8893 23.4183 26.5893C25.7183 26.0893 27.5183 24.8893 29.0183 22.9893C30.3183 21.2893 30.8183 19.1893 30.8183 17.0893C30.8183 14.5893 29.8183 12.0893 28.0183 10.2893C26.5183 8.88926 24.9183 7.78926 22.9183 7.28926C20.3183 6.58926 17.4183 6.48926 14.8183 6.98926C12.1183 7.48926 9.51826 8.78926 7.51826 10.9893C6.21826 12.3893 5.21826 14.2893 5.21826 16.2893C5.21826 19.1893 7.31826 21.5893 9.21826 23.5893" fill="#DDDDDD"/>
<path d="M8.81804 23.3893C8.21804 25.4893 7.31804 27.3893 6.51804 29.2893C6.31804 29.8893 7.01804 30.4893 7.51804 30.2893C8.91804 29.7893 10.318 29.2893 11.618 28.5893C12.318 28.3893 12.918 27.9893 13.518 27.6893C14.118 27.3893 14.618 26.9893 15.318 26.8893C16.518 26.8893 17.718 27.2893 18.918 27.3893C20.318 27.4893 21.818 27.5893 23.218 27.3893C25.618 26.9893 27.718 25.7893 29.218 23.9893C30.918 21.9893 31.718 19.5893 31.718 16.8893C31.718 11.6893 27.718 7.28926 22.718 6.18926C17.518 4.98926 11.718 5.78926 7.61804 9.48926C5.61804 11.3893 4.01804 14.0893 4.31804 16.8893C4.61804 19.7893 6.51804 22.0893 8.51804 24.1893C9.31804 25.0893 10.718 23.6893 9.81804 22.8893C8.31804 21.2893 6.71804 19.5893 6.21804 17.3893C5.71804 15.1893 6.71804 13.0893 8.21804 11.4893C11.518 7.98926 16.618 6.88926 21.218 7.68926C22.418 7.88926 23.518 8.18926 24.618 8.68926C25.618 9.18926 26.518 9.88926 27.318 10.5893C28.918 12.0893 29.918 14.1893 30.018 16.3893C30.118 18.5893 29.618 20.8893 28.118 22.5893C26.718 24.1893 25.018 25.2893 22.918 25.6893C21.518 25.8893 20.018 25.7893 18.618 25.6893C17.418 25.5893 16.218 25.1893 15.018 25.2893C13.718 25.4893 12.518 26.3893 11.318 26.9893C10.018 27.6893 8.61804 28.1893 7.21804 28.6893C7.51804 28.9893 7.91804 29.3893 8.21804 29.6893C9.01804 27.6893 9.91804 25.7893 10.218 23.6893C10.318 22.8893 9.11804 22.4893 8.81804 23.3893Z" fill="black"/>
<path d="M13.4185 18.2893C13.6185 18.2893 13.8185 18.2893 14.0185 18.1893C14.2185 18.0893 14.3185 17.9893 14.5185 17.8893C14.6185 17.7893 14.7185 17.5893 14.8185 17.3893C14.9185 17.1893 14.9185 16.9893 14.9185 16.7893C14.9185 16.6893 14.9185 16.4893 14.8185 16.3893C14.7185 16.0893 14.6185 15.8893 14.4185 15.6893C14.3185 15.6893 14.2185 15.5893 14.1185 15.5893C13.9185 15.3893 13.6185 15.3893 13.4185 15.2893C13.2185 15.2893 13.0185 15.2893 12.8185 15.3893C12.6185 15.4893 12.5185 15.5893 12.3185 15.7893C12.2185 15.8893 12.1185 16.0893 12.0185 16.2893C11.9185 16.4893 11.9185 16.6893 11.9185 16.8893C11.9185 16.9893 11.9185 17.1893 12.0185 17.2893C12.0185 17.4893 12.2185 17.6893 12.3185 17.8893C12.4185 17.9893 12.5185 18.0893 12.6185 18.0893C12.9185 18.2893 13.1185 18.2893 13.4185 18.2893Z" fill="#222222"/>
<path d="M18.3185 18.2893C18.5185 18.2893 18.6185 18.2893 18.8185 18.1893C19.0185 18.0893 19.1185 18.0893 19.2185 17.8893C19.3185 17.7893 19.4185 17.5893 19.5185 17.4893C19.6185 17.2893 19.6185 17.1893 19.6185 16.9893C19.6185 16.8893 19.6185 16.7893 19.6185 16.6893C19.5185 16.4893 19.4185 16.2893 19.3185 16.0893C19.2185 15.9893 19.1185 15.9893 19.0185 15.8893C18.7185 15.7893 18.5185 15.6893 18.3185 15.6893C18.1185 15.6893 18.0185 15.6893 17.8185 15.7893C17.6185 15.8893 17.5185 15.8893 17.4185 16.0893C17.3185 16.1893 17.2185 16.3893 17.1185 16.4893C17.0185 16.6893 17.0185 16.7893 17.0185 16.9893C17.0185 17.0893 17.0185 17.1893 17.0185 17.2893C17.1185 17.4893 17.2185 17.6893 17.3185 17.8893C17.4185 17.9893 17.5185 17.9893 17.6185 18.0893C17.8185 18.1893 18.1185 18.2893 18.3185 18.2893Z" fill="#222222"/>
<path d="M22.3185 15.5893C22.1185 15.6893 21.9185 15.8893 21.8185 16.0893C21.7185 16.2893 21.6185 16.4893 21.6185 16.7893C21.6185 16.9893 21.7185 17.2893 21.8185 17.4893C21.9185 17.6893 22.1185 17.8893 22.3185 17.9893C22.5185 18.0893 22.7185 18.1893 23.0185 18.1893C23.2185 18.1893 23.5185 18.0893 23.7185 17.9893C23.9185 17.8893 24.1185 17.6893 24.2185 17.4893C24.3185 17.2893 24.4185 17.0893 24.4185 16.7893C24.4185 16.5893 24.3185 16.2893 24.2185 16.0893C24.1185 15.8893 23.9185 15.6893 23.7185 15.5893C23.5185 15.4893 23.3185 15.3893 23.0185 15.3893C22.7185 15.3893 22.5185 15.4893 22.3185 15.5893Z" fill="#222222"/>
</svg>
