<svg width="14" height="14" viewBox="0 0 14 14" fill="none" xmlns="http://www.w3.org/2000/svg">
<path d="M13.3941 6.55642C13.2941 4.65642 12.4941 2.85642 10.7941 1.75642C9.69414 1.05642 8.19414 0.656417 6.79414 0.756417C3.49414 0.956417 0.39414 3.55642 0.59414 7.05642C0.59414 8.05642 0.89414 8.95642 1.39414 9.75642C1.49414 10.0564 1.59414 10.3564 1.79414 10.5564C2.89414 12.3564 4.99414 13.2564 7.09414 13.2564C10.6941 13.3564 13.6941 10.2564 13.3941 6.55642ZM9.19414 10.7564C7.79414 11.6564 5.79414 11.7564 4.49414 10.5564C4.19414 10.3564 3.79414 10.1564 3.49414 9.85642C2.29414 8.65642 2.09414 6.55642 2.89414 5.05642C3.39414 4.15642 4.19414 3.55642 5.09414 3.15642C6.09414 2.75642 7.19414 2.55642 8.29414 2.75642C9.39414 2.95642 10.2941 3.75642 10.8941 4.65642C12.1941 6.65642 11.1941 9.55642 9.19414 10.7564Z" fill="#3A3A3A"/>
<path d="M9.69414 5.35642C8.79414 5.55642 7.99414 6.05642 7.19414 6.45642C7.19414 5.95642 7.19414 5.35642 7.09414 4.85642C7.09414 4.75642 6.89414 4.55642 6.79414 4.55642C6.69414 4.55642 6.69414 4.55642 6.59414 4.55642C6.49414 4.55642 6.29414 4.75642 6.29414 4.85642C6.09414 5.55642 6.19414 6.55642 6.19414 7.25642C6.19414 7.75642 6.59414 7.85642 6.99414 7.75642C7.99414 7.35642 9.19414 6.95642 10.0941 6.45642C10.6941 6.05642 10.2941 5.15642 9.69414 5.35642Z" fill="#3A3A3A"/>
</svg>
