<svg width="14" height="14" viewBox="0 0 14 14" fill="none" xmlns="http://www.w3.org/2000/svg">
<path d="M13.2438 6.55407C13.1438 4.65407 12.3438 2.95407 10.7438 1.85407C9.64384 1.15407 8.14384 0.754073 6.84384 0.854073C3.54384 1.05407 0.54384 3.65407 0.74384 7.05407C0.74384 7.95407 1.04384 8.85407 1.54384 9.65407C1.64384 9.95407 1.74384 10.2541 1.94384 10.5541C3.04384 12.2541 5.14384 13.2541 7.14384 13.1541C10.6438 13.1541 13.5438 10.0541 13.2438 6.55407Z" fill="#FFC200"/>
<path d="M10.5436 4.65407C10.4436 4.45407 10.1436 4.35407 9.94362 4.55407C9.44362 5.05407 9.24362 6.25407 9.04362 6.85407C8.94362 7.25407 8.84362 7.65407 8.74362 8.05407C8.34362 7.05407 8.24362 5.55407 7.54362 4.65407C7.24362 4.25407 6.64362 4.35407 6.54362 4.75407C6.14362 5.65407 5.84362 6.95407 5.44362 7.85407C5.24362 6.85407 4.94362 5.45407 4.44362 4.55407C4.24362 4.25407 3.64362 4.35407 3.64362 4.75407C3.64362 6.15407 4.24362 8.25407 4.64362 9.55407C4.74362 10.0541 5.34362 10.2541 5.64362 9.85407C6.34362 8.95407 6.74362 7.55407 7.04362 6.35407C7.44362 7.55407 7.64362 9.05407 8.44362 10.0541C8.74362 10.3541 9.34362 10.2541 9.44362 9.75407C9.64362 8.85407 9.94362 7.95407 10.2436 7.05407C10.4436 6.35407 10.9436 5.25407 10.5436 4.65407Z" fill="#896A15"/>
<path fill-rule="evenodd" clip-rule="evenodd" d="M11.2258 7.25372C8.43647 7.15411 5.97086 7.15523 3.21433 7.54902C2.94096 7.58807 2.6877 7.39812 2.64864 7.12475C2.60959 6.85139 2.79954 6.59812 3.07291 6.55907C5.91637 6.15286 8.45077 6.15398 11.2615 6.25436C11.5374 6.26422 11.7532 6.49592 11.7433 6.77189C11.7334 7.04785 11.5017 7.26358 11.2258 7.25372Z" fill="#896A15"/>
</svg>
