<svg version="1.1" xmlns="http://www.w3.org/2000/svg" xmlns:xlink="http://www.w3.org/1999/xlink" x="0px"
	 y="0px" viewBox="0 0 15 14" style="enable-background:new 0 0 15 14;"
	 xml:space="preserve">
<path fill="#FFC200" d="M14.8,5.3c-0.1-0.5-0.5-0.9-1.1-0.9c-0.3,0-0.5,0-0.8,0c-1,0-1.9,0-2.9,0C9.5,3.2,9,1.9,8.4,0.7
	C8-0.5,6.3,0.1,5.9,1.1C5.4,2.2,5,3.3,4.6,4.5c-1.1,0-2.1,0-3.3,0.1c-1.5,0-1.8,1.7-0.8,2.5C1.5,7.7,2.4,8.3,3.2,9
	c-0.3,1-0.6,2-0.9,3.1c-0.6,1.6,1.5,2.3,2.6,1.5c0.8-0.6,1.5-1.1,2.3-1.7c1,0.6,1.9,1.4,2.9,2c1.1,0.7,2.4-0.5,2.1-1.6
	c-0.3-1.1-0.5-2.2-0.8-3.3c0.9-0.6,1.8-1.1,2.8-1.7C15,6.7,15.2,5.9,14.8,5.3z"/>
</svg>
