
<svg version="1.1" xmlns="http://www.w3.org/2000/svg" xmlns:xlink="http://www.w3.org/1999/xlink" x="0px"
	 y="0px" width="29.2px" height="45.5px" viewBox="0 0 29.2 45.5" style="enable-background:new 0 0 29.2 45.5;"
	 xml:space="preserve">
<style type="text/css">
	.st0{fill:#FF6243;}
	.st1{fill:#FFFFFF;}
</style>
<path class="st0" d="M14.6,45.5c-0.8-1.4-9.2-15.2-10.8-18.1c-1.7-3.1-3.2-6-3.6-9.9C0,15.2-0.5,10.6,2.5,6.3C5,2.7,9.4,0,14.5,0
	l0.1,0c5.1,0,9.5,2.7,12,6.3c3,4.3,2.6,8.9,2.3,11.2c-0.4,4-1.7,6.9-3.6,9.9C23.7,30.1,15.4,44.2,14.6,45.5z"/>
<path class="st1" d="M13.6,12.3v9.6h-1.4v-3.5h-1.9c-0.4,0.9-1.2,1.5-2.1,1.5c-1.4,0-2.5-1.3-2.5-3.4c0-2.1,1-3.4,2.5-3.4
	c0.9,0,1.6,0.5,2,1.3h2v-2L13.6,12.3L13.6,12.3z M9.4,16.4c0-1.4-0.5-2.2-1.2-2.2C7.5,14.2,7,15,7,16.4c0,1.4,0.5,2.2,1.2,2.2
	C8.9,18.5,9.4,17.8,9.4,16.4 M12.2,17.2v-1.9h-1.7c0.1,0.3,0.1,0.7,0.1,1c0,0.3,0,0.6-0.1,0.8H12.2z"/>
<path class="st1" d="M19.7,13.3c0,2.9-1,5.3-4.4,6.9l-0.7-1.1c2.4-1.2,3.5-2.7,3.7-4.8h-3.2v-1.1C15.1,13.3,19.7,13.3,19.7,13.3z
	 M22.5,21.8h-1.4v-9.5h1.4V21.8z"/>
</svg>
