<?xml version="1.0" encoding="utf-8"?>
<!-- Generator: Adobe Illustrator 24.0.0, SVG Export Plug-In . SVG Version: 6.00 Build 0)  -->
<svg version="1.1" id="레이어_2" xmlns="http://www.w3.org/2000/svg" xmlns:xlink="http://www.w3.org/1999/xlink" x="0px"
	 y="0px" width="47px" height="31px" viewBox="0 0 47 31" style="enable-background:new 0 0 47 31;" xml:space="preserve">
<style type="text/css">
	.st0{fill:#222222;}
	.st1{opacity:0.3;enable-background:new    ;}
	.st2{fill:#FFFFFF;}
</style>
<path class="st0" d="M36.5,0H10.5C4.7,0,0,4.7,0,10.5c0,5.8,4.7,10.5,10.5,10.5H21l1.3,3.5l1.3,3.5l1.3-3.5l1.3-3.5h10.5
	c5.8,0,10.5-4.7,10.5-10.5C47,4.7,42.3,0,36.5,0z"/>
<ellipse class="st1" cx="23.5" cy="28" rx="6.5" ry="3"/>
<g>
	<path class="st2" d="M13.8,10.7c-1-0.4-1.8-1-2.2-1.9c-0.4,1-1.2,1.8-2.4,2.2L8.5,9.8c1.7-0.6,2.4-1.8,2.4-3.2V5.9h1.4v0.8
		c0,1.2,0.7,2.4,2.2,3L13.8,10.7z M15.1,11.4h1.4v3.9H10v-3.9h1.4v0.9h3.7C15.1,12.2,15.1,11.4,15.1,11.4z M15.1,13.3h-3.7v0.8h3.7
		C15.1,14.1,15.1,13.3,15.1,13.3z M16.5,7.7v0.9h1.3v1.2h-1.3v1.2H15V5.4h1.4v1.1h1.3v1.2L16.5,7.7L16.5,7.7z"/>
	<path class="st2" d="M27,11.4c-0.8,0.2-1.6,0.3-2.5,0.3v3.4h-1.4v-3.3c-0.9,0-1.7,0-2.4,0l-0.2-1.2c1.8,0,4.2,0,6.3-0.3L27,11.4z
		 M21.1,8c0-1.3,1.1-2.1,2.6-2.1s2.6,0.9,2.6,2.1c0,1.2-1.1,2.1-2.6,2.1S21.1,9.2,21.1,8z M22.5,8c0,0.6,0.5,0.9,1.3,0.9
		C24.5,8.9,25,8.6,25,8c0-0.6-0.5-1-1.3-1C23,7,22.5,7.3,22.5,8z M28.9,5.4v10h-1.4v-10H28.9z"/>
	<path class="st2" d="M34.1,8.5c0,1.4,0.8,3.1,2.4,3.8l-0.8,1.1c-1.1-0.5-1.9-1.4-2.4-2.6C33,12,32.2,13.1,31,13.6l-0.8-1.1
		c1.6-0.7,2.4-2.4,2.4-3.9V8.2h-2.1V7.1h2.1V5.7h1.4v1.4h2v1.1h-2V8.5z M38.5,5.4v10h-1.4v-10H38.5z"/>
</g>
</svg>
