<?xml version="1.0" encoding="utf-8"?>
<!-- Generator: Adobe Illustrator 24.0.0, SVG Export Plug-In . SVG Version: 6.00 Build 0)  -->
<svg version="1.1" id="레이어_2" xmlns="http://www.w3.org/2000/svg" xmlns:xlink="http://www.w3.org/1999/xlink" x="0px"
	 y="0px" width="20.6px" height="13.8px" viewBox="0 0 20.6 13.8" style="enable-background:new 0 0 20.6 13.8;"
	 xml:space="preserve">
<style type="text/css">
	.st0{fill:#3CC1BD;}
</style>
<path class="st0" d="M0.3,0.9C0.3,1,0.3,0.9,0.3,0.9c0,0.1,0,0.2,0,0.3c0,0.1,0,0.2,0,0.3c0,0.3,0.1,0.5,0.1,0.8
	c0.1,0.5,0.1,0.9,0.2,1.4C0.7,4,0.8,4.4,0.9,4.7C1,5,1,5.3,1.2,5.5C1.5,6.1,2.3,6.1,3,6.2c0.6,0.1,1.3,0.1,1.9,0.1
	c0.7,0,1.4,0,1.9-0.6c0.4-0.4,0.6-0.9,0.7-1.5c0.2-0.8,0.3-1.7,0.3-2.6c0-0.3,0-0.5,0-0.8c0-0.5-0.5-1.1-1.1-0.9
	C5.9,0.3,5.9,1.2,5.9,1.9c0,0.1,0,0.2,0,0.3c0,0.2,0-0.2,0,0c0,0.2-0.1,0.5-0.1,0.7c0,0.1,0,0.2,0,0.3c0,0.1,0-0.2,0,0
	c0,0.1,0,0.1,0,0.2c0,0.2-0.1,0.5-0.1,0.7c0,0.1,0,0.1,0,0.2c0,0-0.1,0.2,0,0.1c0-0.1,0,0.1,0,0.1c0,0-0.1,0.1-0.1,0.1
	c0,0.1,0.1-0.1,0,0C5.3,4.6,5.4,4.5,5.5,4.5c0,0,0,0,0,0c-0.1,0-0.1,0-0.1,0c0.1,0-0.2,0-0.2,0c-0.6,0-1.3,0-1.9,0
	c-0.2,0-0.4,0-0.6,0c-0.1,0-0.2,0-0.2,0c-0.1,0-0.1,0-0.2,0c0,0,0.3,0.2,0.2,0.1c0,0,0.1,0.2,0.1,0.1c0,0,0,0,0,0c-0.1-0.1,0,0,0,0
	c0,0,0,0.1,0,0c0,0,0-0.1,0-0.1c0-0.1-0.1-0.2-0.1-0.3C2.4,4,2.3,3.8,2.2,3.6C2.1,3.1,2,2.6,1.9,2.1C1.8,1.9,1.8,1.6,1.7,1.4
	c0-0.1,0-0.2-0.1-0.4c0-0.1,0-0.1-0.1-0.2c0-0.1,0,0.1,0-0.1C1.5,0.4,1.1,0.2,0.9,0.2C0.5,0.3,0.3,0.5,0.3,0.9L0.3,0.9z"/>
<path class="st0" d="M7.6,2.2C7.2,1.8,6.7,1.7,6.2,1.6C5.6,1.5,5,1.4,4.5,1.4c-0.5,0-1,0-1.6,0.1C2.6,1.5,2.3,1.6,2,1.6
	C1.7,1.7,1.3,1.7,1.1,2C0.9,2.3,0.8,2.9,1.3,3.2c0.4,0.2,0.7,0.1,1,0c0.2,0,0.5-0.1,0.8-0.1C3.5,3,4,3,4.4,3c0.5,0,1,0,1.5,0
	C6.4,2.9,7,3,7.4,2.8C7.6,2.7,7.7,2.4,7.6,2.2L7.6,2.2z"/>
<path class="st0" d="M3.9,5.7c0,0.2-0.1,0.3-0.1,0.5c0,0.1,0,0.3,0,0.4c0,0.1,0,0.3,0,0.4c0,0.2,0,0.4,0.1,0.6C3.8,7.8,4,8,4.1,8
	c0.2,0.1,0.3,0.1,0.5,0.1C4.8,8.1,4.9,8,5,7.9c0.1-0.2,0.2-0.3,0.2-0.5c0-0.1,0-0.2,0-0.4c0-0.1,0-0.3,0-0.4c0-0.2,0-0.4-0.1-0.6
	c0-0.1-0.1-0.2-0.1-0.3C4.9,5.4,4.7,5.2,4.4,5.2C4.2,5.2,3.9,5.4,3.9,5.7L3.9,5.7z"/>
<path class="st0" d="M0.4,8.5c0.2,0.1,0.3,0.1,0.5,0.2c0.2,0,0.3,0,0.5,0.1c0.3,0,0.6,0,0.8,0.1c0.6,0,1.2,0,1.8,0
	c1.2,0,2.4-0.1,3.7-0.2c0.5,0,0.9-0.4,0.9-0.9c0-0.4-0.4-0.9-0.9-0.9C6.5,7.1,5.2,7.2,4,7.2c-0.6,0-1.2,0.1-1.8,0.1
	c-0.3,0-0.6,0-0.8,0c-0.1,0-0.3,0-0.4,0c-0.2,0-0.4,0.1-0.6,0.2C-0.1,7.7-0.1,8.3,0.4,8.5L0.4,8.5z"/>
<path class="st0" d="M1.9,11C2,11.1,2,11.1,1.9,11C2,11.1,2,11.1,2.1,11.2c0.1,0.1,0.2,0.1,0.4,0.2c0.2,0.1,0.4,0.1,0.7,0.1
	c0.3,0,0.6,0,0.9,0.1c0.7,0,1.3,0,2,0.1c-0.3-0.4-0.7-0.9-1-1.3c-0.1,0.4-0.1,0.9-0.2,1.3c0,0.4-0.1,0.7-0.1,1.1
	c0,0.5,0.4,1,0.9,1.1c0.5,0.1,1.1-0.2,1.2-0.8c0.1-0.4,0.1-0.9,0.1-1.3c0-0.4,0-0.8,0-1.1c0-0.5-0.5-1.1-1-1c-0.6,0.1-1.3,0-2,0.1
	c-0.3,0-0.6,0-0.9,0.1c-0.2,0-0.4,0-0.7,0.1c-0.1,0-0.2,0.1-0.4,0.2C2,10,2,10,1.9,10.1c0,0,0,0.1,0,0C1.6,10.4,1.5,10.8,1.9,11
	L1.9,11z"/>
<path class="st0" d="M12.1,2.4c-0.9,0.6-1.4,1.7-1.8,2.7c-0.2,0.5-0.4,1-0.6,1.6C9.6,6.9,9.5,7.1,9.4,7.4C9.3,7.6,9.2,7.8,9.2,8.1
	c-0.1,0.5,0.1,1,0.6,1.3c0.5,0.2,1.1,0,1.3-0.4c0.3-0.4,0.4-1,0.6-1.5C11.9,6.9,12,6.4,12.2,6c0-0.1,0.1-0.2,0.1-0.3
	c0-0.1,0-0.1,0.1-0.2c0-0.1,0-0.1,0,0c0.1-0.2,0.2-0.5,0.3-0.7c0.1-0.1,0.1-0.2,0.2-0.3C12.9,4.3,13,4.2,13,4.1c0-0.1,0-0.1,0,0
	c0.1-0.3,0.2-0.5,0.3-0.8C13.5,2.7,12.8,2,12.1,2.4L12.1,2.4z"/>
<path class="st0" d="M11.3,6.1c0.4,0.4,0.8,0.8,1.2,1.2c0,0.1,0.1,0.1,0.1,0.2c0,0,0.1,0.2,0,0c0,0,0,0,0.1,0.1
	c0.1,0.1,0.2,0.2,0.3,0.3c0.2,0.2,0.3,0.5,0.5,0.8c0-0.1-0.1-0.1-0.1-0.2c0.1,0.2,0.2,0.4,0.3,0.6c0.2,0.2,0.5,0.3,0.7,0.3
	c0.3,0,0.5-0.2,0.7-0.4c0.2-0.4,0.2-0.8,0-1.2c-0.1-0.1-0.2-0.3-0.3-0.4c-0.2-0.3-0.5-0.7-0.8-0.9c-0.3-0.3-0.6-0.5-0.9-0.8
	c-0.1-0.1-0.3-0.2-0.4-0.3c0,0-0.1,0-0.1-0.1c0,0-0.3-0.1-0.1,0c-0.1,0-0.2-0.1-0.4-0.2c-0.2-0.1-0.6,0.1-0.7,0.3
	C11.1,5.5,11.1,5.9,11.3,6.1L11.3,6.1z"/>
<path class="st0" d="M15.6,2.8c0,0.6,0.1,1.3,0.2,1.9C15.9,5.3,16,5.8,16,6.4C16,7,16,7.6,16,8.2c0,0.3,0,0.6-0.1,0.9
	c0,0,0,0.4,0,0.3c0,0.3-0.1,0.5,0,0.8c0.2,0.9,1.4,1,1.8,0.2C18,10.1,18,9.7,18,9.3c0-0.3,0.1-0.7,0.1-1c0-0.7,0-1.4-0.1-2
	c-0.1-1.4-0.3-2.9-1.2-4C16.4,1.7,15.6,2.2,15.6,2.8L15.6,2.8z"/>
<path class="st0" d="M17.2,6.2c0.2,0,0.4,0,0.5,0.1c-0.1,0-0.1-0.1-0.2-0.1c0.1,0.1,0.2,0.1,0.4,0.1c0.1,0,0.2,0,0.2,0
	c-0.1,0-0.1-0.1-0.2-0.1c0.1,0,0.2,0.1,0.2,0.1c0.1,0,0.2,0,0.3,0c0,0,0.1,0,0.1,0c0.1,0,0.2,0,0.3,0c0.2,0,0.4,0,0.6,0.1
	c0.2,0,0.5-0.1,0.7-0.3c0.2-0.2,0.3-0.5,0.3-0.7c0-0.3-0.1-0.5-0.3-0.7c-0.2-0.2-0.4-0.3-0.7-0.3c-0.2,0-0.4,0-0.6,0.1
	c-0.1,0-0.2,0-0.3,0c0,0-0.1,0-0.1,0c-0.1,0-0.2,0-0.3,0c-0.1,0-0.2,0.1-0.2,0.1c0.1,0,0.1-0.1,0.2-0.1c-0.1,0-0.1,0-0.2,0
	c-0.1,0-0.2,0.1-0.4,0.1c0.1,0,0.1-0.1,0.2-0.1c-0.2,0-0.4,0.1-0.5,0.1c-0.1,0-0.3,0.1-0.4,0.2c-0.1,0.1-0.2,0.3-0.1,0.4
	c0,0.1,0,0.2,0.1,0.3C16.8,6,17,6.2,17.2,6.2L17.2,6.2z"/>
</svg>
