<svg width="12" height="12" viewBox="0 0 12 12" fill="none" xmlns="http://www.w3.org/2000/svg">
<path d="M2.6826 3.99927H0.179688V11.9999H2.6826V3.99927Z" fill="#999999"/>
<path d="M11.7008 7.71037V12H9.19786V8.00062C9.19786 6.94894 9.07159 6.09705 7.84652 6.09705C6.62145 6.09705 6.49705 6.95083 6.49705 8.00062V12H3.99414V3.99935H6.49705V5.14338C6.874 4.31222 7.58643 3.78638 8.90385 3.78638C9.00562 3.78638 9.10363 3.79015 9.19786 3.7958C11.4576 3.92962 11.7008 5.62964 11.7008 7.71037Z" fill="#999999"/>
<path d="M2.86667 1.43239C2.86667 0.640806 2.22397 0 1.43239 0C0.640806 0 0 0.640806 0 1.43239C0 2.22397 0.640806 2.86478 1.43239 2.86478C2.22397 2.86478 2.86478 2.22397 2.86478 1.43239H2.86667Z" fill="#999999"/>
</svg>
