<?xml version="1.0" encoding="utf-8"?>
<!-- Generator: Adobe Illustrator 24.0.0, SVG Export Plug-In . SVG Version: 6.00 Build 0)  -->
<svg version="1.1" id="레이어_1" xmlns="http://www.w3.org/2000/svg" xmlns:xlink="http://www.w3.org/1999/xlink" x="0px"
	 y="0px" width="11.9px" height="11.4px" viewBox="0 0 11.9 11.4" style="enable-background:new 0 0 11.9 11.4;"
	 xml:space="preserve">
<style type="text/css">
	.st0{fill:#FFC200;}
</style>
<g>
	<g>
		<path class="st0" d="M11,3.6c-3.3,0-6.6,0.1-9.9,0.2c-1.2,0-1.4,1.4-0.6,2c2.5,1.9,5.1,3.7,7.6,5.4c0.9,0.6,1.9-0.4,1.7-1.3
			C9.3,6.7,8.2,3.6,6.8,0.6C6.4-0.4,5,0.1,4.7,0.9C3.5,3.8,2.8,6.8,1.9,9.8C1.4,11.1,3.1,11.7,4,11c2.4-1.9,4.8-3.5,7.4-5.1
			c1.2-0.8,0.4-2.6-1-2.3C8.4,4,6.1,4.5,4.5,5.8C5.2,6.2,5.9,6.6,6.6,7c0.2-0.9,0.3-1.7,0.5-2.6C7.4,2.9,5,2.2,4.7,3.8
			C4.5,4.6,4.4,5.5,4.2,6.3C4,7.6,5.3,8.3,6.3,7.5C7.4,6.6,9.6,6.3,11,6c-0.3-0.8-0.7-1.5-1-2.3C7.3,5.4,4.7,7.2,2.2,9.2
			c0.7,0.4,1.4,0.8,2.1,1.2c0.9-3,1.5-6.1,2.7-9C6.3,1.6,5.5,1.7,4.8,1.8C6.1,4.6,7,7.5,7.7,10.5c0.6-0.4,1.2-0.9,1.7-1.3
			C6.8,7.5,4.2,5.7,1.7,3.9c-0.2,0.7-0.4,1.4-0.6,2C4.4,5.8,7.7,5.8,11,5.5C12.2,5.4,12.2,3.6,11,3.6L11,3.6z"/>
	</g>
</g>
</svg>
