<?xml version="1.0" encoding="utf-8"?>
<!-- Generator: Adobe Illustrator 24.0.1, SVG Export Plug-In . SVG Version: 6.00 Build 0)  -->
<svg version="1.1" id="Layer_1" xmlns="http://www.w3.org/2000/svg" xmlns:xlink="http://www.w3.org/1999/xlink" x="0px" y="0px"
	 width="23px" height="23px" viewBox="0 0 23 23" style="enable-background:new 0 0 23 23;" xml:space="preserve">
<style type="text/css">
	.st0{fill:#FFFFFF;}
</style>
<title></title>
<g id="icomoon-ignore">
</g>
<path class="st0" d="M4.5,22.9c-0.7,0-1.4-0.3-1.9-0.8l-1.8-2C0.3,19.6,0,18.9,0,18.2s0.3-1.4,0.9-1.9l2.8-2.7c1.1-1,2.7-1,3.8,0.1
	l0.9,0.9l0,0c0.2,0.2,0.6,0.3,0.9,0.1c2.4-1.3,4.4-3.9,5.3-5.2c0.2-0.3,0.1-0.7-0.1-1l-0.9-0.9c-1.1-1.1-1.1-2.8,0-3.8l2.7-2.8
	c1-1,2.7-1.1,3.7-0.1l2,1.8C22.6,3.1,23,3.9,23,4.6c0,4.1-1.9,8.2-5.6,12C11.9,22.3,6.3,22.8,4.5,22.9C4.6,22.9,4.6,22.9,4.5,22.9
	L4.5,22.9z M5.5,14.8c-0.2,0-0.4,0.1-0.6,0.2l-2.8,2.7C2,17.8,1.9,18,1.9,18.2c0,0.2,0.1,0.4,0.2,0.6L4,20.7C4.2,20.9,4.4,21,4.6,21
	c1.4,0,6.5-0.6,11.4-5.7c3.3-3.4,5-7,5-10.6c0-0.2-0.1-0.4-0.3-0.6l-2-1.8C18.5,2,18,2,17.7,2.3L15,5c-0.3,0.3-0.3,0.8,0,1.1
	l0.9,0.9c0.9,0.9,1.1,2.4,0.4,3.4c-1,1.6-3.2,4.4-6,5.9c-1.1,0.6-2.4,0.4-3.2-0.5L6,14.8C6,14.8,5.8,14.8,5.5,14.8L5.5,14.8z"/>
</svg>
