<?xml version="1.0" encoding="utf-8"?>
<!-- Generator: Adobe Illustrator 24.0.1, SVG Export Plug-In . SVG Version: 6.00 Build 0)  -->
<svg version="1.1" id="Layer_1" xmlns="http://www.w3.org/2000/svg" xmlns:xlink="http://www.w3.org/1999/xlink" x="0px" y="0px"
	 width="14px" height="15px" viewBox="0 0 14 15" style="enable-background:new 0 0 14 15;" xml:space="preserve">
<title></title>
<g id="icomoon-ignore">
</g>
<g>
	<path d="M3.7,5.9c0.2,0,0.4-0.1,0.5-0.3l2-2.2l0.4,6c0,0.4,0.4,0.7,0.7,0.7h0c0.4,0,0.7-0.4,0.7-0.8L7.6,3.4l2.2,1.8
		c0.3,0.3,0.8,0.2,1.1-0.1c0.3-0.3,0.2-0.8-0.1-1.1L7.3,1.2C7,0.9,6.6,1,6.3,1.2L3.2,4.7C2.9,5,2.9,5.5,3.2,5.8
		C3.3,5.9,3.5,5.9,3.7,5.9L3.7,5.9z"/>
	<path d="M13.4,8.8c-0.4,0-0.8,0.2-0.8,0.6l-0.5,3.2H2L1.5,10C1.4,9.6,1,9.3,0.6,9.4C0.2,9.5-0.1,9.9,0,10.3l0.7,3.2
		C0.8,13.8,1.1,14,1.4,14h11.2c0.4,0,0.7-0.3,0.7-0.6L14,9.6C14.1,9.2,13.8,8.8,13.4,8.8L13.4,8.8z"/>
</g>
</svg>
