<?xml version="1.0" encoding="utf-8"?>
<!-- Generator: Adobe Illustrator 24.0.0, SVG Export Plug-In . SVG Version: 6.00 Build 0)  -->
<svg version="1.1" id="레이어_1" xmlns="http://www.w3.org/2000/svg" xmlns:xlink="http://www.w3.org/1999/xlink" x="0px"
	 y="0px" width="13.5px" height="12.5px" viewBox="0 0 13.5 12.5" style="enable-background:new 0 0 13.5 12.5;"
	 xml:space="preserve">
<style type="text/css">
	.st0{fill:#FFA9A9;}
	.st1{stroke:#000000;stroke-width:0.25;stroke-miterlimit:10;}
</style>
<path class="st0" d="M7,2.9C6.2,1.5,4.8,0.6,3.3,1c-2.2,0.7-3,3.4-2.1,5.4c0.9,2.1,3.1,3.8,4.9,5.1c0.7,0.5,1.8,0.3,2.4-0.3
	c1.3-1.4,3-2.8,3.8-4.6c0.9-2.1,0.3-5-2.2-5.4C8.6,1,7.7,1.9,7,2.9"/>
<g>
	<g>
		<path class="st1" d="M7.1,12.4c-0.5,0-1-0.1-1.4-0.4c-2-1.4-4.2-3.2-5.2-5.4C-0.1,5.3,0,3.8,0.6,2.5c0.6-1.2,1.5-2,2.6-2.3
			c1.4-0.4,2.9,0.5,3.9,1.7c0.7-0.7,1.7-1.8,3.1-1.5c1.2,0.2,2.1,0.8,2.6,1.8c0.7,1.3,0.8,3,0.1,4.6c-0.6,1.5-1.8,2.7-3,3.9
			C9.6,11,9.3,11.3,9,11.6C8.5,12.1,7.8,12.4,7.1,12.4z M4.2,1.5c-0.2,0-0.4,0-0.6,0.1C2.7,1.8,2.2,2.5,1.9,3C1.5,3.9,1.4,5,1.8,6
			c0.8,2,2.9,3.5,4.7,4.9C6.9,11.2,7.6,11,8,10.7c0.3-0.3,0.6-0.6,0.9-1c1.1-1.1,2.2-2.1,2.7-3.4C12.1,5.2,12,3.9,11.5,3
			c-0.4-0.6-0.9-1-1.6-1.1C9.1,1.6,8.5,2.4,7.7,3.5C7.6,3.6,7.5,3.7,7.4,3.8C7.2,3.9,6.9,3.9,6.6,3.7C6.5,3.6,6.4,3.5,6.4,3.4
			C6,2.6,5.2,1.5,4.2,1.5z"/>
	</g>
</g>
</svg>
