<?xml version="1.0" encoding="utf-8"?>
<!-- Generator: Adobe Illustrator 24.0.0, SVG Export Plug-In . SVG Version: 6.00 Build 0)  -->
<svg version="1.1" id="레이어_1" xmlns="http://www.w3.org/2000/svg" xmlns:xlink="http://www.w3.org/1999/xlink" x="0px"
	 y="0px" viewBox="0 0 12.58 12.39" style="enable-background:new 0 0 12.58 12.39;" xml:space="preserve">
<style type="text/css">
	.st0{fill:#D1CFC7;}
	.st1{fill:#FF4040;}
	.st2{fill:#3A3A3A;}
</style>
<path class="st0" d="M12.48,3.51c0-0.69-0.5-1.33-1.09-1.31c0,0,0,0,0,0c-0.04-0.01-0.08-0.02-0.13-0.02
	C9.49,2.2,6.72,2.25,4.96,2.1c-1.35-0.11-2.68-0.29-4.01,0.1C0.6,2.31,0.25,2.69,0.18,3.12C-0.05,4.58,0.13,6.35,0.1,7.84
	c-0.02,1.06-0.22,2.58,0.33,3.51c0.5,0.83,1.06,0.94,1.83,0.96c1.34,0.02,2.92-0.12,4.26,0.03c1.48,0.16,5.23,0.07,5.56-0.89
	c0.34-1.01,0.38-2.09,0.36-3.15C12.42,6.69,12.49,5.11,12.48,3.51z M2.53,8.78c0,0.01,0.01,0.02,0.01,0.03
	c0,0.01-0.01,0.02-0.01,0.03C2.53,8.83,2.53,8.8,2.53,8.78z"/>
<g>
	<path class="st1" d="M11.81,4.94c0.73-0.18,0.86-1.08,0.71-1.81c-0.2-0.95-0.39-1.42-1.2-1.62C10.85,1.39,8.97,1.4,8.49,1.39
		C7.32,1.36,6.14,1.33,4.97,1.3C3.85,1.27,2.73,1.14,1.6,1.2C0.95,1.24,0.39,1.57,0.17,2.31C0.01,2.83-0.05,3.48,0.04,4.02
		C0.2,4.95,1.26,4.75,1.86,4.78C3.43,4.83,5,4.91,6.58,4.95C7.37,4.98,8.15,4.99,8.94,5c0.38,0,1.77,0,2.15,0
		C11.32,5,11.57,5,11.81,4.94z"/>
</g>
<g>
	<path class="st2" d="M2.71,0.53c-0.1,0.68-0.13,1.36-0.09,2.05c0.04,0.71,1.7,0.71,1.66,0C4.23,1.89,4.26,1.21,4.37,0.53
		C4.47-0.18,2.81-0.17,2.71,0.53L2.71,0.53z"/>
</g>
<g>
	<path class="st2" d="M8.15,0.57C8.01,1.22,7.97,1.85,8.09,2.51c0.13,0.7,1.78,0.71,1.66,0c-0.1-0.55-0.12-1.1,0.01-1.65
		C9.91,0.17,8.31-0.13,8.15,0.57L8.15,0.57z"/>
</g>
</svg>
