<?xml version="1.0" encoding="utf-8"?>
<!-- Generator: Adobe Illustrator 24.0.1, SVG Export Plug-In . SVG Version: 6.00 Build 0)  -->
<svg version="1.1" id="Layer_1" xmlns="http://www.w3.org/2000/svg" xmlns:xlink="http://www.w3.org/1999/xlink" x="0px" y="0px"
	 width="15px" height="15px" viewBox="0 0 15 15" style="enable-background:new 0 0 15 15;" xml:space="preserve">
<style type="text/css">
	.st0{fill:#222222;}
</style>
<title></title>
<g id="icomoon-ignore">
</g>
<path class="st0" d="M14.6,2.9c0-0.2-0.1-0.4-0.3-0.5C13.5,2.1,12.5,2,11.6,2c-0.2,0-0.5,0-0.7,0c-1.1,0-2.3-0.1-3.4-0.1
	c-1.2,0-2.3,0-3.4,0c-0.2,0-0.3,0-0.5,0c-1,0-2,0-2.9,0.5C0.5,2.4,0.4,2.5,0.4,2.7C-0.1,3.4,0,5.3,0.1,5.3c0,0.7,0.1,1.2,0.1,1.6
	c0.1,1.2,0.1,1.8,0.6,3.7c0.2,0.9,0.4,1.8,1.4,2.4c0.3,0.2,0.7,0.2,0.8,0.1c0,0,0.1,0,0.1,0c0.3,0,0.7,0.1,1.1,0.1
	c0.6,0,1.1,0,1.6-0.1c0.6,0,1.2-0.1,1.8-0.1l1,0c1.5,0,3,0.1,4.8,0c0.7,0,1.3-0.7,1.3-1.5c0-2.7,0-3.1,0.2-5.3l0-0.9
	C14.9,5,15,3.6,14.6,2.9L14.6,2.9z M3.4,11.8c-0.1,0-0.2,0-0.3,0c0,0-0.1,0-0.2,0s-0.1,0-0.1,0c-0.5-0.2-0.6-0.6-0.8-1.4
	C1.6,8.6,1.6,8,1.5,6.8v0c0-0.4-0.1-0.9-0.1-1.6c0-0.1,0-0.2,0-0.3C2.1,5.6,2.9,6.4,3.6,7l0.2,0.2c0.1,0.1,0.2,0.2,0.4,0.3
	c1.2,1.1,2.7,2.5,4,2c2.4-1,4.2-2.4,5.4-4.2l0,0.9c-0.1,2.2-0.2,2.6-0.2,5.4c0,0,0,0.1-0.1,0.1c-1.7,0.1-3,0.1-4.6,0l-1,0
	c-0.7,0-1.4,0-2,0.1C4.9,11.9,4.1,12,3.4,11.8L3.4,11.8z M7.7,8.2C7.4,8.3,6.5,7.8,5.1,6.5C4.9,6.3,4.8,6.2,4.7,6.1L4.5,5.9
	c-0.8-0.7-2-1.7-2.6-2.6c0.5,0,0.9,0,1.4,0c0.3,0,0.5,0,0.8,0c1.1,0,2.1,0,3.2,0c1.8,0,3.8,0,5.7,0.3C12,5.6,10.2,7.2,7.7,8.2
	L7.7,8.2z M13.6,5.2L13.6,5.2L13.6,5.2z"/>
</svg>
