<?xml version="1.0" encoding="utf-8"?>
<!-- Generator: Adobe Illustrator 24.0.0, SVG Export Plug-In . SVG Version: 6.00 Build 0)  -->
<svg version="1.1" id="레이어_1" xmlns="http://www.w3.org/2000/svg" xmlns:xlink="http://www.w3.org/1999/xlink" x="0px"
	 y="0px" viewBox="0 0 12.84 12.6" style="enable-background:new 0 0 12.84 12.6;" xml:space="preserve">
<style type="text/css">
	.st0{fill:#3A3A3A;}
	.st1{fill:#FFFFFF;}
</style>
<path class="st0" d="M12.82,5.83c-0.15-1.92-0.94-3.67-2.58-4.78C9.1,0.29,7.57-0.05,6.22,0.01C2.87,0.16-0.16,2.84,0.01,6.33
	c0.04,0.96,0.34,1.89,0.83,2.71c0.11,0.29,0.23,0.58,0.4,0.84c1.09,1.79,3.24,2.74,5.28,2.71C10.12,12.56,13.1,9.45,12.82,5.83z"/>
<path class="st1" d="M10.25,3.92C9.64,3,8.77,2.28,7.67,2.03C6.58,1.79,5.53,1.97,4.52,2.39c-0.95,0.4-1.69,1.03-2.2,1.94
	c-0.85,1.5-0.59,3.54,0.62,4.76C3.23,9.39,3.56,9.62,3.9,9.82c1.3,1.14,3.26,1.07,4.69,0.21C10.57,8.84,11.58,5.94,10.25,3.92z"/>
<g>
	<path class="st0" d="M6.03,3.79c-0.01,0-0.03,0.01-0.04,0.01C5.86,3.83,5.73,3.96,5.7,4.09C5.52,4.82,5.57,5.78,5.59,6.53
		c0.01,0.42,0.42,0.6,0.77,0.44C7.4,6.54,8.53,6.2,9.51,5.66C10.09,5.34,9.7,4.4,9.06,4.59c-1.12,0.33-2.18,0.97-3.22,1.5
		c0.26,0.15,0.52,0.3,0.77,0.44c0.01-0.75,0.06-1.71-0.11-2.44C6.47,3.95,6.35,3.83,6.21,3.8C6.15,3.78,6.1,3.78,6.03,3.79
		L6.03,3.79z"/>
</g>
</svg>
