<?xml version="1.0" encoding="utf-8"?>
<!-- Generator: Adobe Illustrator 24.0.1, SVG Export Plug-In . SVG Version: 6.00 Build 0)  -->
<svg version="1.1" id="Layer_1" xmlns="http://www.w3.org/2000/svg" xmlns:xlink="http://www.w3.org/1999/xlink" x="0px" y="0px"
	 width="12px" height="12px" viewBox="0 0 12 12" style="enable-background:new 0 0 12 12;" xml:space="preserve">
<style type="text/css">
	.st0{fill:#DDDDDD;}
</style>
<title></title>
<g id="icomoon-ignore">
</g>
<path class="st0" d="M11,3.9C7.7,3.9,4.4,4,1.1,4.1c-1.2,0-1.4,1.4-0.6,2C3,8,5.6,9.8,8.1,11.5c0.9,0.6,1.9-0.4,1.7-1.3
	C9.3,7,8.2,3.9,6.8,0.9C6.4-0.1,5,0.4,4.7,1.2c-1.2,2.9-1.9,5.9-2.8,8.9C1.4,11.4,3.1,12,4,11.3c2.4-1.9,4.8-3.5,7.4-5.1
	c1.2-0.8,0.4-2.6-1-2.3c-2,0.4-4.3,0.9-5.9,2.2c0.7,0.4,1.4,0.8,2.1,1.2c0.2-0.9,0.3-1.7,0.5-2.6C7.4,3.2,5,2.5,4.7,4.1
	C4.5,4.9,4.4,5.8,4.2,6.6C4,7.9,5.3,8.6,6.3,7.8C7.4,6.9,9.6,6.6,11,6.3c-0.3-0.8-0.7-1.5-1-2.3C7.3,5.7,4.7,7.5,2.2,9.5
	c0.7,0.4,1.4,0.8,2.1,1.2c0.9-3,1.5-6.1,2.7-9C6.3,1.9,5.5,2,4.8,2.1C6.1,4.9,7,7.8,7.7,10.8c0.6-0.4,1.2-0.9,1.7-1.3
	C6.8,7.8,4.2,6,1.7,4.2c-0.2,0.7-0.4,1.4-0.6,2C4.4,6.1,7.7,6.1,11,5.8C12.2,5.7,12.2,3.9,11,3.9L11,3.9L11,3.9z"/>
</svg>
