<?xml version="1.0" encoding="utf-8"?>
<!-- Generator: Adobe Illustrator 24.0.0, SVG Export Plug-In . SVG Version: 6.00 Build 0)  -->
<svg version="1.1" id="레이어_2" xmlns="http://www.w3.org/2000/svg" xmlns:xlink="http://www.w3.org/1999/xlink" x="0px"
	 y="0px" width="15.7px" height="15.1px" viewBox="0 0 15.7 15.1" style="enable-background:new 0 0 15.7 15.1;"
	 xml:space="preserve">
<style type="text/css">
	.st0{fill:#222222;}
</style>
<g>
	<path class="st0" d="M5.6,8.4l-4,3.9l0-2.5C1.6,9.3,1.2,9,0.8,9C0.4,9,0,9.4,0,9.8l0,4.3c0,0.4,0.3,0.8,0.8,0.8l4.5,0.1
		c0,0,0,0,0,0c0.4,0,0.8-0.3,0.8-0.8c0-0.4-0.3-0.8-0.8-0.8l-2.6-0.1l4-3.9C7,9.2,7,8.7,6.7,8.4C6.4,8.1,5.9,8,5.6,8.4z"/>
	<path class="st0" d="M15.7,0.9c0-0.4-0.3-0.8-0.8-0.8L10.4,0C10,0,9.6,0.3,9.6,0.8c0,0.4,0.3,0.8,0.8,0.8L13,1.7L9,5.6
		C8.7,5.9,8.7,6.4,9,6.7c0.2,0.2,0.4,0.2,0.6,0.2c0.2,0,0.4-0.1,0.6-0.2l4-3.9l0,2.5c0,0.4,0.4,0.8,0.8,0.8c0,0,0,0,0,0
		c0.4,0,0.8-0.4,0.8-0.8L15.7,0.9z"/>
</g>
</svg>
